P2
# Created by IrfanView
100 100
255
0 0 0 0 0 0 0 0 0 0 9 35 61 87 111 118 117 
117 255 117 117 117 255 117 117 117 117 117 117 117 255 117 255 
117 117 117 117 117 117 117 117 117 117 117 117 117 117 117 117 
117 117 117 117 117 117 117 117 117 117 117 117 117 255 117 117 
117 117 117 255 117 117 117 117 0 117 117 117 117 117 117 117 
117 117 117 118 113 92 65 38 13 1 255 0 255 0 0 0 
0 255 0 0 0 255 0 0 0 0 1 23 74 113 120 0 120 117 116 115 
0 115 255 115 115 115 255 115 115 255 115 115 115 255 115 115 
115 115 115 115 115 115 115 115 115 115 115 0 115 255 115 115 
115 115 115 115 0 115 115 115 115 115 115 115 255 115 115 115 
115 115 115 115 115 115 115 115 115 115 115 0 115 115 115 115 
115 115 115 116 117 120 122 121 116 83 31 2 0 0 0 0 
0 0 0 0 0 0 0 0 0 10 67 108 111 109 108 106 105 103 102 102 
0 102 101 101 101 101 101 101 101 101 101 101 101 101 101 101 
101 101 101 0 101 101 101 101 101 101 101 101 101 101 101 101 
101 101 101 0 101 101 101 101 101 101 101 101 101 101 101 255 
101 101 101 0 101 101 101 101 101 101 101 101 101 101 101 101 
0 102 102 102 103 105 106 107 108 110 110 77 15 0 0 0 
0 0 0 0 0 0 0 0 20 90 255 99 99 98 0 93 91 89 87 87 
86 86 86 86 86 86 86 86 86 86 86 86 86 255 86 86 
86 86 0 86 86 86 86 86 86 86 86 0 86 86 86 86 
86 86 0 86 86 86 86 86 86 86 86 86 86 86 86 86 
255 86 255 86 86 86 86 86 86 86 86 86 86 86 86 86 
86 86 87 87 88 90 255 95 98 99 255 100 96 32 0 0 
0 0 0 0 0 0 0 0 88 90 90 0 88 84 80 76 73 71 70 0 
0 0 68 67 67 67 67 67 67 67 67 67 67 67 67 67 
67 67 67 67 67 67 67 67 67 67 67 67 67 67 67 67 
67 67 67 67 67 67 67 67 67 67 67 67 67 67 0 67 
67 67 255 67 67 255 67 67 67 67 67 67 67 67 67 67 
68 68 68 70 71 73 76 79 83 87 0 90 89 90 32 0 
0 0 0 0 0 0 14 80 80 80 80 77 72 67 255 57 54 51 49 48 
47 47 47 47 47 47 255 47 47 47 47 47 47 47 47 47 
47 47 47 47 47 0 47 47 47 47 47 47 47 47 47 47 
47 47 47 47 47 47 47 47 47 47 47 47 47 47 47 47 
47 47 47 47 47 47 47 255 47 47 47 47 47 47 47 47 
47 47 48 49 51 53 57 61 66 71 76 80 80 80 82 24 
0 255 0 0 0 4 66 0 72 71 69 255 56 48 41 35 31 27 25 23 
22 22 21 21 21 21 21 21 21 21 21 21 21 21 21 21 
21 21 21 21 21 21 21 255 21 21 21 21 21 21 21 21 
21 21 21 21 21 255 21 21 21 21 21 21 21 21 21 0 
21 21 21 21 255 21 255 21 21 255 21 21 21 21 21 21 
22 22 23 25 27 30 35 40 47 54 255 68 71 72 71 72 
10 0 0 0 0 39 255 63 63 0 54 46 36 27 19 13 8 4 2 1 
0 0 0 0 0 0 255 0 0 0 0 0 0 0 0 0 
0 0 0 0 0 0 0 0 0 0 0 0 0 0 0 255 
0 0 0 0 0 0 0 0 0 0 0 0 0 0 0 0 
0 0 0 0 0 0 255 0 0 0 0 0 0 0 0 0 
0 0 1 2 4 7 12 18 26 0 44 53 59 63 63 63 
50 1 255 0 0 54 0 54 52 47 39 29 20 13 6 2 0 0 0 0 
0 0 0 0 0 0 0 0 0 0 0 0 0 0 0 0 
0 0 0 0 0 0 0 0 255 0 0 0 0 0 0 0 
0 0 0 0 0 0 0 0 0 0 0 0 0 0 0 0 
0 0 0 0 0 0 0 0 0 0 0 0 0 0 0 0 
0 0 0 0 0 0 2 5 11 19 28 38 46 51 54 54 
55 17 0 0 28 46 46 45 42 36 28 18 10 5 1 0 0 0 0 0 
0 0 0 0 0 0 0 0 0 0 0 0 0 0 0 0 
0 0 0 0 0 0 0 0 0 0 0 0 0 0 255 0 
0 0 0 0 0 0 0 0 0 0 0 0 0 0 0 0 
0 0 0 0 0 0 255 0 0 0 0 0 0 0 0 0 
0 0 0 255 0 0 0 1 4 9 17 26 35 41 44 46 
46 36 1 255 34 37 37 36 33 27 19 10 4 1 0 0 0 0 255 0 
0 0 255 0 0 0 0 0 0 0 0 0 0 0 0 0 
0 0 0 0 0 0 0 0 0 0 0 0 0 0 0 0 
0 0 0 0 0 0 0 0 0 0 255 255 0 0 0 0 
0 0 255 0 0 0 0 0 0 0 0 0 0 0 0 0 
0 0 0 0 0 0 0 0 1 4 9 18 26 32 35 37 
37 37 5 6 28 29 29 28 25 255 12 4 1 0 0 0 0 0 0 0 
0 0 0 0 0 0 0 0 0 0 0 0 0 0 0 0 
0 0 0 0 0 0 0 0 0 0 0 0 0 0 0 0 
0 0 0 0 0 0 0 0 0 0 0 0 0 0 0 0 
0 0 0 0 0 0 0 0 0 255 0 0 0 0 0 0 
0 0 0 0 255 0 0 0 0 1 4 10 18 24 27 29 
255 255 11 7 20 21 21 20 17 13 7 1 0 0 0 0 255 0 0 0 
0 0 0 0 0 0 0 0 0 0 0 0 0 0 0 0 
0 0 0 0 0 0 0 0 0 0 0 0 0 0 255 0 
0 0 0 0 0 0 0 0 0 0 0 0 255 0 0 0 
0 0 0 0 0 0 0 0 0 255 0 0 0 0 0 0 
0 0 0 0 0 0 0 0 0 0 1 5 12 17 19 21 
21 20 11 5 11 13 14 14 12 9 3 255 0 0 0 0 0 0 0 0 
0 0 0 0 0 0 0 0 0 0 0 0 0 0 0 0 
0 0 0 0 0 0 0 0 0 0 0 0 0 0 255 0 
0 0 0 0 0 0 0 255 0 0 0 0 0 0 0 0 
0 0 0 0 0 0 0 0 0 255 0 0 0 0 0 0 
0 0 0 0 0 0 0 0 0 0 0 255 8 11 14 14 
13 11 6 0 2 4 6 7 255 5 1 0 0 0 0 0 0 0 0 0 
0 0 0 0 0 0 255 255 0 0 0 0 0 0 0 0 
0 0 0 0 0 0 0 0 0 0 0 0 0 0 0 0 
0 0 0 0 0 0 0 0 0 0 0 0 0 0 0 0 
0 0 0 0 255 0 0 0 0 0 0 0 0 0 0 0 
0 0 0 0 0 0 0 0 0 0 0 1 4 6 7 6 
5 2 0 0 0 0 1 3 3 3 1 0 0 0 0 0 0 0 0 0 
0 0 0 0 0 0 0 0 0 0 0 0 255 0 0 0 
0 0 0 0 0 0 0 0 255 0 0 0 0 0 0 0 
0 0 0 0 0 0 0 0 0 0 0 0 0 0 0 0 
0 0 0 0 0 0 0 255 0 0 0 0 0 0 0 0 
0 0 0 0 0 0 0 0 0 0 0 0 2 3 3 1 
0 0 0 0 0 0 0 0 1 1 0 0 0 0 0 0 0 0 0 0 
0 0 0 0 255 0 0 0 0 255 0 0 0 0 0 0 
0 0 0 0 0 0 0 0 0 0 0 0 0 0 0 0 
0 0 0 0 0 0 0 0 0 0 0 0 0 0 0 0 
0 0 0 0 0 0 0 0 0 0 0 0 0 0 0 0 
0 0 0 0 0 0 0 0 0 0 255 0 1 1 0 0 
0 0 0 0 0 0 0 0 0 255 0 0 0 0 0 0 0 0 0 0 
0 0 0 0 0 0 0 0 0 0 0 0 0 0 0 0 
0 0 0 0 0 0 255 255 0 0 0 0 0 0 0 0 
0 0 0 0 0 0 0 0 0 0 0 0 0 0 0 0 
0 0 0 0 0 0 0 0 0 0 0 0 0 0 0 0 
0 0 0 255 0 0 0 0 0 0 0 0 0 0 0 0 
0 0 0 0 0 0 0 0 0 0 0 0 0 0 255 255 0 0 0 0 
0 0 0 0 255 0 0 0 0 0 0 0 0 0 0 0 
0 0 0 0 255 0 0 0 0 0 0 0 0 2 5 5 
5 2 0 0 0 0 0 0 0 0 0 0 0 0 0 0 
0 0 0 0 0 0 0 0 0 0 0 0 0 0 0 255 
0 0 0 0 0 0 0 0 0 0 0 0 0 255 0 0 
0 0 0 0 0 0 0 0 0 0 0 0 0 0 0 0 0 0 0 0 
0 0 0 0 0 0 0 0 0 0 0 0 0 0 0 0 
0 0 0 0 0 0 0 19 59 99 134 169 189 206 213 213 
213 207 187 163 126 88 44 0 0 0 0 0 0 0 0 0 
0 0 0 0 0 0 0 0 0 0 0 0 0 0 0 0 
0 0 0 0 0 0 0 0 255 0 0 255 0 0 0 0 
0 0 0 0 0 0 0 0 0 0 0 0 0 0 0 0 0 0 0 0 
0 0 0 0 0 0 0 255 0 0 0 0 0 0 0 0 
0 0 0 0 45 117 186 230 255 255 255 255 0 255 255 255 
255 255 255 255 255 255 248 216 154 76 8 0 0 0 0 0 
0 0 0 0 0 0 0 0 0 0 0 0 0 255 0 0 
0 0 0 0 0 0 0 0 0 0 0 0 0 0 0 0 
0 0 0 0 0 0 0 0 0 0 0 0 0 0 0 0 255 0 0 0 
0 0 0 0 0 0 0 0 0 0 0 0 0 0 0 0 
0 0 80 184 248 255 255 255 255 255 255 255 255 255 255 255 
255 255 255 255 255 255 255 255 255 255 213 119 15 0 0 0 
0 0 0 255 0 255 0 0 0 0 0 0 0 0 0 0 
0 0 0 0 0 0 0 0 0 0 0 0 0 0 0 0 
0 0 0 0 0 0 0 0 0 0 0 0 255 0 0 0 0 0 0 0 
0 0 0 0 0 0 0 0 0 0 0 0 0 0 0 0 
59 186 255 0 255 255 255 255 255 255 255 255 255 255 255 255 
255 255 255 0 255 255 255 255 255 0 255 255 210 76 0 0 
0 0 0 0 0 0 0 0 0 0 0 0 0 0 0 0 
0 0 0 255 0 0 0 0 0 0 0 0 0 0 0 0 
0 0 0 0 0 0 0 0 0 0 0 0 0 0 0 0 0 0 0 0 
0 0 0 0 0 0 0 0 0 0 0 0 0 0 8 137 
250 255 255 255 255 255 255 255 255 255 255 255 255 255 255 255 
255 255 255 255 255 255 255 255 255 255 255 255 255 255 148 6 
0 0 255 0 0 0 0 255 0 0 0 0 0 0 0 0 
0 0 0 0 0 0 0 0 0 0 0 0 0 0 0 0 
0 0 0 0 0 0 0 0 0 0 0 0 0 0 0 0 0 0 0 0 
0 0 0 0 0 0 0 0 0 0 0 0 0 32 193 0 
255 255 255 255 255 255 255 255 255 255 255 255 255 255 255 255 
255 255 255 255 255 255 255 255 0 255 255 255 255 255 255 175 
9 0 0 0 0 0 0 0 0 0 0 0 0 0 0 0 
0 0 0 255 0 0 0 0 0 0 0 0 0 0 0 0 
0 0 0 0 0 0 0 0 255 0 0 255 0 0 0 255 0 0 0 255 
0 0 255 0 0 0 0 0 0 0 0 0 29 0 255 255 
255 255 255 255 255 255 255 255 255 255 255 255 255 255 255 255 
255 255 255 255 255 255 255 255 255 255 255 255 255 255 255 255 
167 2 0 0 0 0 0 0 0 0 0 0 0 0 0 0 
0 0 0 0 0 0 0 0 0 0 0 0 0 0 0 0 
0 0 0 0 0 0 0 0 0 0 0 0 0 0 0 0 0 0 0 0 
0 0 0 0 0 0 0 0 0 0 0 13 199 255 255 255 
255 255 255 255 255 255 255 255 255 255 255 0 255 255 255 255 
255 255 255 255 255 255 255 255 255 255 0 255 255 255 255 255 
0 116 255 0 0 0 0 0 0 0 0 0 0 0 0 0 
0 0 0 0 0 0 0 0 0 0 0 0 0 0 0 0 
0 0 0 0 0 0 0 0 0 0 255 0 255 0 0 255 0 0 0 0 
0 0 255 0 0 0 0 0 0 0 0 160 255 255 255 255 
255 255 255 255 255 255 255 255 255 255 255 255 255 255 255 255 
255 255 255 255 255 255 255 255 255 255 255 255 255 255 255 255 
255 242 37 0 0 0 0 0 0 0 0 0 0 0 0 0 
0 0 0 0 0 0 0 0 0 0 0 0 0 0 0 0 
0 0 0 0 0 0 0 0 0 0 0 0 255 0 0 0 0 0 0 0 
0 0 0 0 0 0 0 0 0 0 88 255 255 255 255 255 
255 255 255 255 255 255 255 255 255 255 255 255 0 255 255 255 
255 255 255 255 255 0 255 255 255 255 255 255 255 255 255 255 
255 255 143 0 0 0 0 0 0 0 0 0 255 0 0 0 
0 0 0 0 0 0 0 0 0 0 0 0 0 0 0 0 
0 0 0 0 0 0 255 0 0 0 0 0 0 0 0 0 0 255 0 0 
0 0 0 0 0 0 0 0 0 11 219 0 255 255 255 255 
255 255 255 0 255 255 255 255 0 255 255 255 255 255 255 255 
255 255 255 255 255 255 255 255 255 255 255 255 255 255 255 255 
255 255 228 14 0 0 0 0 0 0 0 0 0 0 0 0 
0 0 0 0 0 0 0 255 0 255 0 0 0 0 0 0 
0 0 0 0 0 0 0 0 0 0 0 0 0 0 0 0 0 0 0 0 
0 0 0 0 0 255 255 0 0 107 255 0 255 255 255 255 
255 0 255 255 255 255 255 255 255 255 206 136 0 62 56 82 
0 204 255 255 255 255 255 255 255 255 255 255 255 255 255 255 
255 255 255 74 0 0 0 0 0 0 0 0 0 0 0 0 
0 0 0 0 0 0 0 255 0 0 0 0 0 255 0 0 
0 0 0 0 0 0 0 0 0 0 0 0 0 0 0 0 0 0 0 0 
0 0 0 0 0 0 0 0 2 204 255 255 255 255 255 255 
255 255 255 255 255 255 255 255 232 101 3 0 0 0 0 0 
0 4 115 247 255 255 255 255 255 255 0 255 0 255 255 255 
255 255 255 0 0 0 0 0 0 0 0 0 0 0 0 255 
0 0 0 0 0 0 0 0 255 0 0 0 0 0 0 0 
0 0 0 0 0 0 0 255 0 0 0 0 0 0 0 0 0 0 0 0 
0 255 0 0 0 0 0 0 48 250 255 255 255 255 255 255 
255 255 255 255 255 255 255 211 39 0 0 0 0 0 255 0 
0 0 255 255 248 255 0 255 255 255 255 255 255 255 255 255 
255 255 255 188 1 0 0 0 0 0 0 0 0 0 0 0 
0 0 0 0 0 0 0 0 0 0 0 0 0 255 0 0 
0 0 0 0 0 0 0 0 0 0 0 0 0 0 0 0 0 0 0 0 
0 255 0 0 0 0 0 0 114 255 255 255 255 255 255 255 
255 255 255 255 255 255 230 34 0 0 0 255 0 0 0 0 
0 0 255 0 140 255 255 255 255 255 255 255 255 255 255 255 
255 255 255 229 16 0 0 0 0 0 255 0 0 0 0 0 
0 0 0 0 0 0 0 0 0 0 0 0 0 0 0 0 
255 0 0 0 0 0 0 0 0 0 0 0 0 0 0 0 0 0 0 0 
0 0 0 0 0 0 0 1 181 255 255 255 255 255 255 255 
255 255 255 255 255 255 112 0 0 0 0 0 255 0 0 0 
0 0 0 0 38 248 255 255 255 255 0 255 255 255 255 255 
255 255 255 246 32 0 0 0 0 0 255 0 0 0 0 0 
0 0 0 0 0 0 0 0 0 0 0 0 0 0 0 0 
0 0 0 0 255 0 0 0 255 0 0 0 0 0 0 0 0 0 0 0 
0 0 0 0 0 0 0 10 230 255 255 255 255 255 255 255 
255 255 255 255 255 242 27 0 255 0 0 0 0 0 0 0 
0 255 0 0 5 208 255 255 255 255 255 255 255 255 255 255 
255 255 255 251 43 255 0 0 0 0 0 0 0 0 0 0 
0 0 0 255 0 0 0 0 0 0 0 0 0 0 0 0 
0 0 0 0 0 0 0 0 0 0 0 0 0 0 0 0 0 0 0 0 
0 0 0 0 0 0 0 2 137 255 255 255 255 255 255 255 
255 255 255 255 255 192 0 0 0 0 0 0 0 0 0 0 
0 0 0 0 0 175 255 255 255 255 255 255 255 255 255 255 
255 255 255 254 51 0 0 0 0 0 0 0 0 0 0 0 
0 0 255 0 0 0 0 0 0 0 0 0 0 0 0 0 
0 0 0 0 0 0 255 0 0 0 0 0 255 0 0 0 0 0 0 0 
0 0 0 0 0 0 0 0 0 64 98 255 147 184 210 233 
248 255 255 255 255 89 0 0 0 0 0 0 0 0 0 0 
0 0 0 0 0 158 255 255 255 255 255 255 255 255 255 255 
255 255 255 255 55 0 0 0 0 0 0 0 0 0 0 0 
0 0 0 0 0 0 0 255 0 0 0 0 0 0 0 0 
0 0 0 0 0 0 0 0 0 255 255 0 0 0 0 0 0 0 0 0 
0 0 0 255 0 0 0 0 0 0 0 0 0 0 6 23 
39 58 79 114 78 0 0 0 0 0 0 255 0 0 0 0 
0 0 0 0 0 150 255 255 0 255 0 255 255 255 255 255 
255 255 255 255 55 0 0 255 0 0 0 0 0 0 0 0 
0 0 0 0 0 0 0 0 0 0 0 0 0 0 0 0 
0 0 0 0 0 0 0 0 0 0 0 0 0 0 0 0 0 0 0 0 
0 0 0 0 0 255 0 0 0 0 0 0 0 0 0 0 
0 0 0 0 0 0 0 0 0 0 0 0 0 0 0 255 
0 0 0 0 0 151 255 255 255 255 255 255 255 255 255 255 
255 255 255 255 255 0 0 0 0 0 0 0 0 0 0 0 
0 0 0 0 0 0 0 0 0 0 0 0 0 0 0 0 
0 0 0 0 0 0 0 0 0 0 0 255 255 0 0 0 0 0 255 0 
0 0 0 0 255 0 0 0 0 0 0 0 0 0 0 0 
0 0 0 0 0 0 0 0 0 0 255 0 0 0 0 0 
0 0 0 0 0 148 255 255 255 255 255 255 0 255 255 255 
255 255 255 255 0 0 0 0 0 0 0 0 0 0 0 0 
0 0 0 0 0 0 0 0 0 0 0 0 0 0 0 0 
0 0 0 0 255 0 255 0 0 0 0 0 0 0 0 0 0 0 0 0 
0 0 0 0 255 0 0 0 0 0 0 0 0 0 0 0 
0 0 0 0 0 0 0 0 0 0 0 0 0 0 0 0 
0 0 0 7 22 164 255 255 255 255 255 255 255 255 255 255 
255 255 255 255 55 0 0 0 255 0 0 0 0 0 0 0 
0 0 0 0 0 0 0 0 0 0 0 0 0 0 0 0 
0 0 0 0 0 0 255 0 0 0 0 0 0 0 0 0 0 0 0 0 
0 0 0 0 0 0 0 0 0 0 0 0 0 0 0 0 
0 0 0 0 0 0 0 0 0 0 4 26 48 71 102 131 
156 173 196 216 234 251 255 255 255 255 255 255 255 255 255 255 
255 255 255 255 55 0 0 0 255 0 0 0 0 0 0 0 
0 0 0 0 0 0 0 0 0 0 255 0 0 0 0 0 
0 0 0 0 0 0 0 0 0 0 0 0 0 0 0 0 0 0 0 0 
0 0 0 0 0 0 0 0 0 0 0 0 0 0 0 0 
0 0 0 0 0 0 25 78 255 255 208 238 253 255 255 255 
0 255 255 255 255 255 255 255 255 255 255 255 255 255 255 255 
255 255 255 255 255 0 0 0 0 0 0 0 0 0 0 0 
0 0 0 0 0 0 0 0 0 0 0 0 0 0 0 0 
0 0 0 0 0 0 0 0 255 0 0 0 0 0 0 0 0 0 0 0 
0 0 0 0 0 0 0 0 0 0 0 0 0 0 0 0 
0 0 2 60 128 194 236 255 255 255 255 255 255 255 255 255 
255 255 255 255 255 255 255 255 255 255 255 255 255 255 255 255 
255 255 255 255 55 255 0 0 0 255 0 0 0 0 0 0 
0 0 0 0 0 0 0 255 0 0 0 0 0 255 0 0 
0 0 0 0 0 0 0 0 0 0 0 0 0 0 0 0 0 0 0 0 
255 0 0 0 0 0 0 0 0 255 0 0 0 0 0 0 
25 113 203 255 255 255 255 255 255 255 255 255 255 255 255 255 
255 255 255 255 255 255 255 255 255 255 255 255 255 255 255 255 
255 255 255 255 55 0 255 0 0 0 0 0 0 0 0 0 
0 0 0 0 0 0 0 0 0 0 0 0 0 0 0 0 
0 0 0 0 0 0 0 0 0 0 0 0 0 0 0 0 0 0 0 0 
0 0 0 0 0 0 0 0 0 0 0 0 0 0 6 119 
231 255 255 255 255 255 255 255 255 255 255 255 255 255 255 255 
255 255 255 255 255 255 255 255 255 255 255 255 255 255 255 255 
255 255 255 255 55 0 0 0 0 0 0 0 0 0 0 0 
0 0 0 0 0 0 0 0 0 0 0 0 0 0 0 0 
0 0 0 0 0 0 0 0 0 0 0 0 0 0 0 0 0 0 0 0 
0 0 0 0 0 0 0 0 0 0 0 0 0 52 193 255 
255 255 255 255 255 255 255 255 255 255 255 255 255 255 255 255 
255 255 255 255 255 255 255 0 255 255 255 255 255 255 255 255 
255 255 255 255 55 0 0 0 0 255 0 0 0 0 0 0 
0 0 0 0 0 0 0 0 0 0 0 0 0 0 0 0 
0 255 0 0 0 0 0 0 0 0 0 0 0 0 0 0 0 0 255 0 
0 0 0 0 0 0 0 0 0 0 0 0 92 242 255 255 
255 0 255 255 255 255 255 255 255 255 255 255 0 255 255 255 
255 255 0 255 255 255 255 255 255 255 255 255 255 255 255 255 
255 255 255 255 55 0 0 0 0 0 0 0 0 0 0 0 
0 0 0 0 0 0 0 0 0 0 0 0 0 0 0 0 
0 0 0 0 0 0 0 255 0 0 0 0 0 0 0 0 0 0 0 0 
0 0 0 0 0 0 0 0 0 0 0 112 255 255 255 255 
255 255 255 255 255 255 255 255 255 255 255 255 255 255 255 255 
255 255 255 255 255 255 255 0 255 255 255 255 255 255 255 255 
255 255 255 255 55 0 0 0 0 0 0 0 0 0 0 0 
255 0 0 0 0 0 0 0 0 255 0 0 0 0 0 0 
0 0 0 0 0 0 0 0 0 0 0 0 0 255 0 0 0 0 0 0 
0 0 0 0 0 0 255 0 0 0 98 255 255 255 255 255 
255 255 255 0 255 255 255 255 255 255 255 255 255 255 227 188 
158 132 115 101 81 182 255 255 255 255 255 255 255 255 255 0 
255 255 255 255 55 0 0 0 255 0 0 0 0 255 0 0 
0 0 0 0 0 0 0 0 0 0 0 0 0 0 0 0 
0 0 0 0 0 0 0 0 0 0 0 0 0 0 0 0 255 0 0 0 
255 0 0 0 0 0 0 0 0 53 245 255 255 255 255 0 
255 255 255 255 255 255 255 255 255 255 255 210 125 52 16 0 
0 0 0 0 0 146 255 255 255 255 255 255 255 255 255 255 
255 255 255 255 55 0 0 0 0 255 0 0 0 0 0 0 
0 0 0 0 0 0 0 0 0 0 255 0 0 0 0 0 
0 255 0 0 0 0 0 0 0 255 0 0 0 255 0 0 0 0 0 0 
0 0 0 255 0 0 0 0 8 207 255 0 255 255 255 255 
255 255 255 255 255 255 255 255 255 219 90 9 0 0 0 0 
0 0 0 0 0 255 255 255 255 255 255 0 255 255 255 255 
255 255 0 255 55 0 0 0 0 0 0 0 0 0 0 0 
0 255 0 0 0 0 0 0 0 0 0 0 0 0 255 0 
0 0 0 0 0 0 255 0 0 0 0 0 0 0 0 255 0 0 0 0 
0 255 0 0 0 0 0 0 99 255 255 255 255 255 255 255 
255 255 255 255 255 0 255 255 193 29 0 0 0 0 0 0 
0 255 0 0 0 151 255 255 255 255 255 255 255 255 0 255 
255 255 255 255 55 0 0 0 255 0 0 0 0 0 0 0 
0 0 0 0 0 0 0 0 0 0 0 0 0 0 0 0 
0 0 0 0 0 0 0 0 0 0 0 0 0 0 0 255 0 0 0 0 
0 0 0 255 0 255 0 19 226 255 255 255 255 255 255 255 
255 255 255 255 255 255 255 255 16 0 0 0 0 0 0 0 
0 0 0 0 0 150 255 255 255 255 255 255 255 255 255 255 
255 255 255 255 55 0 0 0 0 255 0 0 0 255 0 0 
0 0 0 0 0 0 0 0 0 0 0 0 0 0 0 0 
0 0 0 0 0 0 0 0 0 0 0 0 0 0 0 0 0 0 0 0 
0 0 0 0 255 0 0 105 255 255 255 255 255 255 255 255 
255 255 255 255 255 0 236 35 0 0 0 0 0 0 0 0 
0 0 0 0 0 158 255 255 255 255 255 255 255 255 255 255 
255 255 255 255 55 0 0 0 0 255 0 0 0 0 0 255 
0 0 0 0 0 0 0 0 0 0 0 0 0 0 0 0 
0 0 0 0 0 0 255 0 0 0 0 0 0 0 0 0 0 0 0 0 
0 0 0 0 0 0 0 183 255 255 255 255 255 255 255 255 
255 255 255 0 255 255 143 0 0 0 0 0 0 255 0 0 
0 0 0 0 0 166 255 0 255 255 255 255 0 255 255 255 
255 255 255 255 55 0 0 0 0 0 0 0 0 0 0 0 
0 0 0 0 0 0 0 0 0 0 0 0 0 0 0 0 
0 0 0 0 0 0 0 0 0 0 0 0 0 0 0 0 0 0 0 0 
0 0 255 0 0 0 22 236 255 255 255 255 255 255 255 0 
255 255 255 255 255 254 57 0 0 0 0 0 0 0 255 0 
255 0 0 0 0 255 255 255 255 255 255 255 255 255 255 255 
0 255 255 255 55 0 0 0 0 0 255 0 0 255 0 0 
0 0 0 0 255 0 0 0 0 0 255 0 0 0 0 0 
0 255 0 0 0 0 0 0 0 0 0 0 0 0 0 0 0 0 0 0 
0 0 0 0 0 0 62 255 255 255 255 255 255 255 255 255 
255 255 255 255 255 232 17 0 0 0 0 0 0 0 0 0 
0 0 0 0 3 203 255 255 255 255 255 255 0 255 255 255 
255 255 255 255 55 0 0 0 0 0 0 0 0 0 0 0 
0 0 0 0 0 0 0 0 0 0 0 0 0 255 0 0 
0 0 0 0 0 0 0 0 0 0 0 0 0 0 0 0 0 255 0 0 
0 0 255 0 0 0 101 255 255 255 255 255 255 255 255 255 
255 255 255 255 255 200 0 0 0 255 0 0 0 0 0 255 
0 0 0 0 0 236 0 255 255 255 255 255 255 255 255 255 
255 255 255 255 56 0 0 255 0 0 0 0 0 0 0 255 
0 0 0 0 0 0 0 0 0 0 0 0 0 255 0 0 
0 0 0 0 0 0 0 0 0 0 0 0 0 0 0 0 0 0 0 0 
0 0 0 0 0 0 132 255 255 255 255 255 255 255 255 255 
255 255 255 255 255 185 0 0 0 0 0 0 0 0 0 0 
0 0 0 0 62 255 255 255 255 255 255 255 255 255 255 255 
255 255 255 255 74 0 0 0 255 0 0 0 0 0 0 0 
0 0 0 0 0 0 255 0 0 0 0 0 0 0 0 0 
0 0 0 0 0 0 0 0 255 0 0 0 0 0 0 0 0 0 0 0 
0 0 0 0 0 255 154 255 255 255 255 255 255 0 255 255 
255 255 255 255 255 189 0 0 0 0 0 0 0 0 0 0 
0 0 0 0 142 255 0 0 255 255 255 255 255 255 255 255 
255 255 255 0 115 0 0 0 0 0 0 0 0 0 0 0 
0 0 0 0 0 0 0 0 0 255 0 0 0 0 0 0 
0 0 0 0 0 0 0 0 0 255 255 0 0 0 0 0 0 0 0 0 
0 0 0 0 0 0 157 255 255 255 255 255 255 255 255 255 
255 0 255 255 255 212 5 0 0 0 255 0 0 0 0 0 
0 0 0 24 231 255 255 255 255 0 255 255 255 255 255 255 
255 255 255 255 173 0 0 0 0 0 0 0 0 0 0 0 
0 0 0 255 0 0 0 0 0 0 0 0 0 0 0 0 
0 0 0 0 0 0 0 0 0 0 0 0 0 0 0 0 0 0 0 0 
0 0 0 0 0 0 156 255 255 255 255 255 255 255 255 255 
0 255 0 255 255 245 29 0 0 0 0 0 0 0 0 0 
0 0 0 131 255 255 255 255 255 0 255 255 255 255 255 255 
255 255 255 255 0 22 0 0 0 0 0 0 0 0 0 0 
0 0 0 0 0 0 0 0 255 0 0 0 0 0 0 0 
0 0 0 0 0 0 0 0 0 0 0 0 0 0 0 0 0 0 0 0 
0 0 0 0 0 0 255 255 255 255 255 255 255 255 255 255 
255 255 255 0 255 255 95 0 0 0 0 0 0 0 0 0 
0 0 47 255 255 255 255 255 255 255 255 255 255 255 255 255 
255 255 255 255 255 126 0 0 0 255 255 0 0 0 0 0 
0 0 0 0 0 0 0 0 0 0 0 0 0 0 0 0 
0 0 0 0 0 0 0 0 0 0 0 0 0 0 0 0 0 0 0 0 
0 0 0 0 0 0 116 255 255 255 255 255 255 255 255 0 
0 255 255 255 255 255 0 255 0 0 0 0 0 0 0 0 
0 10 206 255 255 255 255 255 255 255 0 255 255 255 255 255 
255 255 255 255 0 238 28 0 0 0 0 0 0 0 0 255 
0 0 0 0 0 0 255 0 255 0 0 255 0 0 0 0 
0 0 0 0 0 0 0 0 0 0 0 0 0 0 0 0 0 0 0 0 
0 0 0 0 0 0 81 255 255 255 255 255 0 255 255 255 
255 255 255 255 255 255 255 146 0 0 0 0 0 0 255 0 
36 190 255 255 255 255 255 255 255 255 255 255 255 255 255 255 
0 255 255 255 0 255 171 2 0 0 0 0 0 0 0 0 
0 0 0 0 0 0 0 0 0 0 0 0 0 0 0 0 
0 0 255 255 0 0 0 0 0 0 0 0 0 0 0 0 0 0 0 0 
0 0 0 0 0 0 40 250 255 255 255 255 255 255 0 0 
255 255 255 255 255 255 255 255 167 43 0 0 0 0 20 107 
230 255 255 255 255 255 255 255 255 255 255 255 0 255 255 255 
255 255 0 255 255 255 255 127 0 0 0 0 0 0 0 0 
0 0 0 0 255 0 0 0 0 0 0 0 0 0 0 0 
0 0 0 0 0 0 0 0 0 0 0 0 0 255 0 0 0 0 0 0 
255 0 0 0 0 0 6 211 255 255 255 255 255 255 255 255 
255 255 255 255 255 255 0 255 255 246 188 255 152 178 230 255 
255 0 255 255 255 255 255 255 255 255 255 0 255 255 255 255 
255 255 255 255 255 255 255 251 59 0 0 0 0 0 0 0 
0 0 0 0 0 0 0 0 0 0 0 0 0 0 0 0 
255 0 0 0 0 0 0 0 0 0 0 0 0 0 0 0 0 255 0 0 
0 0 0 0 0 0 0 147 255 255 255 255 255 255 0 255 
255 255 255 255 255 255 255 255 255 255 255 255 255 255 255 255 
255 255 255 255 255 255 255 255 255 255 255 255 255 255 255 255 
255 255 255 255 255 255 255 255 255 0 0 0 0 0 0 0 
0 0 0 0 0 0 0 0 0 0 0 0 0 0 0 255 
0 0 0 0 0 0 0 0 0 0 0 0 0 0 0 0 0 0 0 0 
0 0 0 0 255 0 0 50 252 255 255 255 255 255 255 255 
255 255 255 255 255 255 255 255 255 255 255 255 255 255 255 255 
255 255 255 255 255 255 0 255 0 255 255 255 255 255 255 255 
255 255 255 255 255 255 255 255 143 0 255 0 0 0 0 0 
0 0 0 0 0 0 0 0 0 0 0 0 0 0 0 0 
0 0 0 0 0 0 0 0 0 0 0 0 0 0 0 0 0 0 0 0 
0 0 0 0 0 0 0 0 155 255 255 255 255 255 255 255 
255 255 255 255 255 255 255 0 255 255 255 255 255 255 255 255 
255 255 255 0 255 255 246 0 255 255 255 255 255 255 255 0 
0 255 255 255 255 255 0 0 15 0 0 0 0 0 0 0 
0 0 0 0 0 0 0 0 0 0 0 0 0 0 0 0 
0 0 0 0 0 0 0 0 255 0 0 0 0 0 0 0 0 0 0 0 
0 0 0 0 0 0 0 0 33 0 255 255 255 255 255 0 
255 255 255 255 255 255 255 255 255 255 255 255 255 255 255 255 
255 0 255 255 255 0 0 0 193 255 255 255 255 255 255 255 
255 255 255 255 255 255 140 3 0 0 0 0 0 0 0 0 
26 58 94 110 0 123 123 118 107 0 41 2 0 0 0 0 
0 0 0 0 0 0 0 255 0 4 24 0 0 0 0 0 0 0 0 0 
0 0 0 0 0 0 0 0 255 94 255 255 255 255 255 255 
255 0 255 255 255 255 255 255 255 255 255 255 255 255 255 255 
255 255 255 255 255 90 0 0 43 242 255 255 255 255 255 0 
255 255 255 255 251 107 0 0 0 0 0 0 0 10 72 255 
165 174 0 174 174 174 174 174 174 175 174 106 1 0 0 0 
0 0 0 0 0 255 0 0 0 47 173 113 32 0 0 0 0 0 0 0 
0 0 0 0 0 0 0 0 0 0 129 255 255 255 255 0 
255 255 255 255 255 255 255 255 255 255 255 255 255 255 255 0 
255 255 255 213 64 0 0 0 0 100 255 255 255 255 255 255 
255 255 255 235 81 0 0 0 0 255 0 2 65 150 178 177 
175 174 175 175 175 174 172 168 167 167 172 151 7 0 0 0 
0 0 0 0 0 0 0 0 0 12 125 181 0 92 17 0 0 0 255 255 
0 255 0 0 0 0 0 0 0 0 0 113 253 255 255 255 
255 255 255 255 255 255 255 255 255 255 255 255 255 255 255 255 
255 255 255 23 0 0 0 0 0 0 145 255 255 255 255 255 
255 255 225 48 0 0 0 0 0 0 0 30 167 165 145 127 
115 0 101 99 101 113 143 170 168 167 172 148 7 0 0 0 
0 0 0 0 0 0 0 0 0 0 255 108 177 176 154 87 21 0 0 0 
0 0 0 0 0 0 0 0 0 0 0 0 72 207 255 255 
255 255 255 255 255 0 255 255 255 255 255 255 255 255 255 255 
209 98 0 0 0 0 0 0 0 0 1 147 255 255 255 255 
255 202 38 0 0 0 0 0 0 0 0 5 255 17 5 0 
0 0 0 0 0 255 5 79 172 168 172 140 3 0 0 0 
0 0 255 0 0 0 0 0 0 0 0 0 79 170 174 175 158 97 30 0 
0 0 0 0 0 0 0 0 0 0 0 0 0 0 99 197 
255 255 255 255 255 255 255 255 255 255 255 255 255 250 189 0 
10 0 0 0 0 0 0 0 0 0 0 255 136 0 255 255 
179 18 0 0 0 0 0 0 0 0 255 255 0 0 0 0 
0 0 0 0 0 0 0 18 162 169 174 123 255 0 0 255 
0 0 0 0 0 0 0 0 0 0 0 0 0 255 159 174 171 175 163 105 
39 0 0 0 0 0 0 0 0 0 0 0 0 0 0 2 
67 128 180 211 228 236 236 235 227 214 195 157 106 49 0 0 
0 0 0 0 0 0 0 0 0 0 0 255 0 100 166 119 
5 0 0 255 0 0 0 0 0 0 0 0 255 0 0 0 
0 8 51 49 2 0 0 26 164 169 175 86 255 0 0 0 
0 0 0 0 0 0 255 0 0 0 0 0 0 0 28 129 175 170 169 175 
170 130 74 20 0 0 0 0 0 0 0 0 0 255 0 0 
0 0 0 4 13 24 25 22 12 5 0 0 0 0 0 0 
0 0 0 0 255 0 0 0 0 0 0 0 0 0 0 0 
0 0 0 0 0 0 0 0 0 0 0 255 0 0 0 31 
88 0 174 177 57 0 0 52 173 168 255 49 255 0 0 0 
0 0 0 0 0 0 0 255 0 0 0 0 0 0 0 2 80 165 174 0 
168 174 175 159 114 61 17 0 0 0 0 0 0 0 0 0 
0 255 0 0 0 0 0 0 0 0 0 0 0 0 0 0 
0 0 0 255 0 0 255 0 0 0 0 0 0 0 0 0 
255 0 0 0 0 0 0 0 0 0 0 0 25 72 126 167 
175 172 174 159 35 0 0 84 175 171 151 9 0 0 0 0 
0 0 0 0 0 0 0 255 0 255 0 0 0 0 0 0 0 39 137 175 
171 167 167 170 174 174 157 103 57 16 0 0 0 0 255 0 
0 0 0 0 0 0 0 0 0 0 255 0 255 0 0 0 
0 0 0 0 0 0 0 0 0 255 0 0 0 0 0 0 
0 0 0 0 0 0 0 0 0 0 63 117 164 174 0 168 
170 175 134 29 0 0 0 129 174 175 104 0 0 0 0 0 
0 0 0 0 0 0 0 0 0 0 0 0 0 0 0 0 0 0 4 76 
157 175 170 167 0 167 171 174 174 0 124 255 255 11 255 0 
0 0 0 0 0 255 0 0 0 0 0 0 0 0 0 0 
0 0 0 0 0 0 0 0 0 0 0 0 0 0 0 0 
0 0 0 255 0 14 50 85 132 161 175 174 169 167 168 175 
164 85 5 0 0 0 23 161 171 255 38 0 0 0 0 0 
0 0 0 0 0 0 0 0 0 0 0 0 0 0 0 255 0 0 0 0 
22 102 164 174 168 167 0 167 167 171 174 175 172 255 128 89 
59 31 8 0 0 0 0 0 0 0 0 0 0 0 0 0 
0 0 0 0 0 0 0 0 0 0 0 0 0 0 0 0 
8 33 62 93 131 0 255 175 173 170 167 167 168 173 171 113 
30 0 0 0 0 0 86 175 174 0 0 0 0 0 0 0 
0 0 0 0 0 0 0 0 0 0 0 0 0 255 0 0 0 0 0 0 
0 0 30 119 171 174 169 167 167 167 167 167 168 171 174 175 
174 166 148 132 255 71 43 31 20 10 1 0 0 0 0 0 
0 0 0 0 0 0 0 0 0 9 19 0 44 71 107 133 
149 0 174 175 173 171 168 167 167 167 168 174 174 137 48 0 
0 0 0 0 0 2 137 175 163 24 0 0 0 0 0 0 
0 0 0 0 0 0 0 0 0 0 0 0 0 0 0 0 0 0 0 0 
0 0 0 0 45 114 166 175 255 167 167 167 167 167 255 0 
167 168 171 173 174 174 172 166 160 0 136 123 114 108 102 98 
96 96 96 97 100 107 113 121 0 149 160 166 172 0 0 173 
171 0 167 167 167 167 167 167 170 174 255 131 57 3 0 0 
0 0 0 0 0 37 171 176 76 0 0 0 0 0 0 0 
0 0 0 1 0 0 0 0 0 0 0 0 0 0 0 0 0 0 0 0 
0 255 0 0 255 0 32 98 152 174 173 168 167 167 255 167 
0 167 167 255 167 167 168 0 170 255 172 174 174 174 175 255 
175 175 0 175 175 174 174 174 255 171 170 168 168 167 167 167 
167 167 167 167 167 168 172 175 160 255 46 0 255 0 0 0 
0 0 0 0 0 103 182 107 1 255 0 0 0 0 0 0 
0 0 0 3 0 0 0 0 0 255 0 0 0 0 0 0 0 0 0 0 
0 0 0 0 0 0 0 0 12 62 128 168 175 173 169 167 
167 167 167 167 167 167 167 167 167 167 167 167 167 167 167 167 
167 167 167 167 167 167 167 167 167 167 167 167 167 167 0 167 
167 167 168 172 175 171 137 77 22 0 0 0 0 0 0 0 
0 0 0 0 9 154 107 0 0 0 0 0 0 0 0 0 
0 0 2 5 0 0 0 255 0 0 0 0 0 0 0 0 0 0 0 0 
0 0 0 0 0 0 0 0 0 0 0 255 85 133 165 174 
175 172 169 168 0 167 167 167 167 167 255 167 167 167 167 167 
167 167 167 167 167 167 255 167 167 167 167 255 167 168 169 255 
174 175 166 136 95 41 4 0 0 0 0 0 0 0 0 0 
255 0 0 0 2 29 0 0 0 0 0 0 0 0 0 0 
0 0 5 5 0 0 0 0 0 0 0 0 0 0 0 0 0 0 0 0 
0 255 0 0 0 0 0 0 0 0 0 0 0 0 0 65 
109 143 165 173 175 173 172 170 168 167 167 0 167 167 167 167 
167 167 255 167 167 167 167 167 168 170 172 173 175 174 166 144 
111 72 29 2 0 0 0 0 0 0 0 0 0 0 0 0 
0 0 0 0 0 0 0 0 0 0 0 0 0 0 0 0 
0 0 6 1 5 0 0 0 0 0 0 0 0 0 0 0 0 0 0 0 
0 0 0 0 0 0 0 0 0 0 0 0 0 0 0 0 
0 4 255 55 100 131 147 161 172 174 175 175 255 174 174 174 
255 174 174 174 175 175 175 174 173 162 147 133 100 56 28 5 
0 0 0 255 0 0 0 0 0 0 255 0 0 0 0 0 
0 0 0 0 0 0 0 0 0 0 0 0 0 0 0 0 
0 255 3 0 11 0 0 0 0 255 0 0 0 0 0 0 0 0 0 0 
0 0 0 0 0 0 0 0 0 0 0 0 0 0 0 0 
0 0 0 0 0 0 255 22 0 59 71 81 0 106 255 121 
121 121 118 109 99 84 72 60 45 22 7 0 0 0 0 0 
0 0 0 0 0 0 0 0 255 0 0 0 0 0 0 0 
0 0 0 255 0 0 0 0 0 0 0 255 0 0 0 0 
0 10 0 0 3 6 0 0 255 0 0 0 0 0 0 0 0 0 0 0 
0 0 0 0 0 0 0 0 0 0 0 0 0 0 0 0 
0 0 0 0 0 255 0 0 0 0 0 0 0 0 0 0 
0 0 0 0 0 0 0 0 0 0 255 0 0 0 0 0 
0 0 0 0 0 0 255 0 0 0 0 0 0 255 0 0 
0 0 0 0 0 0 0 0 0 0 0 0 0 0 0 0 
3 0 0 0 0 13 255 0 0 0 255 0 0 0 0 0 0 0 0 0 
255 0 0 0 0 0 0 0 0 0 0 0 0 0 0 0 
0 0 0 0 0 0 0 0 0 0 0 0 0 0 0 0 
0 0 0 0 0 0 0 0 0 0 0 0 0 0 0 0 
0 0 0 0 0 0 0 0 0 0 0 0 0 0 0 0 
0 0 0 0 0 0 0 0 0 0 0 0 0 0 255 0 
15 0 0 0 0 0 16 0 0 0 0 0 0 0 0 0 0 0 0 0 
255 0 0 0 0 0 0 0 0 0 0 0 255 0 0 0 
0 0 255 0 255 0 0 0 0 0 0 0 255 0 0 0 
0 0 0 255 0 0 0 0 0 0 0 0 0 0 0 0 
0 0 0 0 0 0 0 0 0 0 0 0 0 255 0 0 
0 0 0 0 0 0 0 0 0 0 0 0 0 0 0 15 
1 0 0 0 0 0 0 18 0 0 0 0 0 0 0 0 0 0 0 0 
0 0 0 0 0 0 0 0 0 0 0 0 0 0 0 0 
0 0 0 0 0 0 0 0 0 255 0 0 0 0 0 0 
0 0 0 0 0 0 0 0 0 0 0 0 0 0 0 0 
0 0 0 0 0 0 0 0 0 0 0 0 0 0 0 0 
0 0 0 0 0 0 0 255 0 0 0 0 0 0 15 4 
0 255 0 0 0 0 0 0 18 0 0 255 0 0 0 0 0 0 255 0 
0 0 0 0 0 0 0 0 0 0 0 0 0 0 0 0 
0 0 0 0 0 0 0 0 0 0 0 0 0 0 0 0 
0 0 255 0 0 0 0 0 0 255 0 0 0 0 0 0 
0 0 255 0 0 0 0 0 0 0 0 0 0 0 0 0 
0 0 0 0 0 0 0 0 0 0 0 0 0 16 4 0 
255 255 0 0 0 0 0 0 0 17 8 0 0 0 0 255 0 0 0 0 
0 0 0 0 255 0 0 0 0 0 0 0 0 0 0 0 
0 0 0 0 0 0 0 0 0 0 0 0 0 0 0 0 
0 0 0 0 0 0 0 0 255 0 0 0 0 0 0 0 
0 0 0 0 0 0 0 0 0 0 0 0 0 0 0 0 
0 0 0 0 0 0 0 0 0 0 0 5 20 1 0 0 
0 0 0 0 0 0 0 0 0 0 7 19 0 0 0 0 0 255 0 0 
0 0 0 0 0 0 0 0 0 0 0 0 0 0 0 0 
0 0 255 0 0 0 0 0 0 255 0 0 0 0 0 0 
0 0 0 0 0 0 0 0 0 0 0 0 0 0 0 0 
0 0 0 0 0 0 0 0 0 0 0 0 0 0 255 0 
0 0 0 0 0 0 0 0 0 6 19 10 0 0 0 0 
0 0 0 0 0 0 0 0 0 0 0 0 4 20 255 12 255 2 0 0 
0 0 0 0 0 0 0 0 0 0 0 0 0 0 0 0 
0 0 0 0 255 255 0 0 255 0 0 0 0 0 0 0 
0 0 0 0 0 0 0 0 0 0 0 0 0 0 0 0 
0 0 0 0 0 0 0 0 255 0 0 0 0 255 0 0 
0 0 0 0 255 7 12 19 20 7 0 0 0 0 0 0 
0 0 0 