P2
# Created by IrfanView
113 111
255
0 0 0 0 0 0 0 0 0 0 0 0 0 0 0 0 0 
0 0 0 0 0 0 0 0 0 0 0 0 0 0 0 0 
0 0 0 0 0 0 0 0 0 0 0 0 0 0 0 0 
0 0 0 0 0 0 0 0 0 0 0 0 0 0 0 0 
0 0 0 0 0 0 0 0 0 0 0 0 0 0 0 0 
0 0 0 0 0 0 0 0 0 0 0 0 0 0 0 0 
0 0 0 0 0 0 0 0 0 0 0 0 0 0 0 0 
0 0 0 20 5 83 94 12 78 136 0 21 3 82 198 201 7 
0 142 79 0 14 7 2 15 79 97 0 192 8 13 0 154 
0 10 0 158 0 8 17 0 113 109 0 63 105 22 141 0 
0 18 0 57 143 0 8 176 70 81 181 4 23 5 0 167 
114 107 143 9 0 143 72 1 13 27 1 22 0 7 0 5 
17 14 17 0 20 11 13 16 0 26 0 59 195 99 17 13 
0 23 0 0 0 119 73 0 0 35 0 15 0 136 79 0 
27 9 7 0 0 80 75 4 0 0 23 3 0 89 75 0 2 
12 23 0 204 0 11 11 1 90 62 1 4 120 112 0 115 
2 10 12 145 0 3 10 0 7 0 0 53 93 129 161 58 
162 0 14 6 9 12 0 16 80 78 0 7 0 17 24 5 
0 12 126 6 12 20 8 2 0 14 0 5 2 0 209 17 
5 5 13 1 19 8 0 26 28 0 0 0 14 0 0 17 
17 0 25 0 17 111 48 5 9 5 3 8 19 0 0 22 
0 18 18 4 0 19 0 0 9 18 0 9 7 11 0 10 11 
0 1 0 70 5 15 14 0 14 17 12 0 30 51 11 7 
0 0 3 1 12 8 223 13 0 35 0 66 192 54 7 97 
192 12 0 0 5 20 15 0 22 0 8 27 2 0 0 7 
15 0 221 6 13 0 2 85 189 0 220 231 188 0 82 6 
0 0 15 13 0 0 17 18 0 191 69 255 172 5 11 22 
0 18 0 0 0 0 3 7 7 17 15 0 18 20 1 5 
6 23 0 0 96 181 164 140 1 19 15 17 0 0 14 0 98 
204 0 9 9 0 0 3 8 47 63 0 10 121 152 1 0 
68 85 0 0 15 22 0 219 0 0 13 223 114 121 16 9 
0 195 68 0 0 7 20 9 12 1 15 0 4 173 152 85 
161 78 3 0 11 0 215 213 0 35 0 2 13 23 0 255 
141 128 4 40 115 70 0 0 17 0 7 2 0 14 0 82 
190 50 7 33 91 9 14 10 15 0 0 95 5 16 0 0 
0 0 13 0 3 23 0 182 0 0 0 5 59 142 0 0 0 
9 0 12 0 86 105 5 0 119 115 0 7 0 5 156 7 
100 102 0 2 0 0 16 12 21 0 0 0 1 13 117 153 
22 0 19 35 152 0 4 22 0 15 2 8 7 4 170 0 
0 148 66 0 0 2 0 8 11 0 1 5 0 3 3 163 
0 2 5 57 190 104 0 22 4 0 14 1 0 18 22 0 
111 113 5 62 170 0 6 16 2 29 7 184 0 0 161 1 
18 111 119 18 4 0 10 0 21 17 14 3 51 86 160 87 70 
158 0 0 67 195 69 0 21 0 8 12 10 5 161 152 0 
5 4 5 6 109 111 0 0 0 176 66 69 155 0 133 137 
0 0 0 49 101 11 10 2 5 0 189 13 0 0 182 12 
0 0 14 18 0 0 29 20 13 171 74 64 152 12 0 0 
26 0 8 0 23 0 3 3 26 18 4 72 157 8 1 1 
0 12 12 0 0 0 7 4 15 6 14 8 3 28 248 0 
8 45 21 208 0 28 0 16 0 0 15 3 2 2 43 17 28 
65 0 16 19 40 19 6 13 1 0 0 0 0 60 9 0 
1 0 14 78 196 25 0 102 196 79 60 76 85 33 28 23 
64 43 28 6 2 38 14 61 108 51 72 19 51 11 173 136 
1 1 1 0 133 143 0 12 0 62 0 221 47 0 9 11 
18 6 1 19 0 197 74 13 3 11 215 3 57 16 5 0 
24 0 0 10 144 132 4 13 12 2 2 14 0 0 71 0 
29 81 7 5 9 0 179 85 8 4 9 0 0 70 95 43 0 
16 171 79 215 1 12 15 2 60 65 3 1 17 13 118 107 
4 20 106 176 174 112 118 62 146 149 68 87 72 126 125 130 
149 219 140 169 176 194 56 225 31 51 5 20 54 76 191 248 
249 186 65 32 62 5 7 0 13 0 4 0 0 210 92 3 
6 0 228 7 10 0 0 5 15 4 0 101 14 0 205 85 
192 0 9 13 0 0 15 12 23 0 4 223 1 7 1 6 
75 137 0 22 7 26 0 15 10 10 4 16 8 88 209 48 0 
0 0 1 4 7 1 1 2 121 112 12 6 66 37 202 248 
108 98 122 180 40 156 77 12 20 38 86 141 128 28 2 155 
95 180 79 70 107 230 218 192 164 80 40 78 31 120 160 223 
253 247 195 99 154 126 57 6 72 167 47 2 11 148 168 159 
120 0 10 2 16 14 11 11 6 106 27 154 0 27 0 0 
7 14 15 10 6 6 20 2 8 16 3 0 6 14 18 170 
2 0 14 0 16 0 1 4 5 0 0 16 15 0 153 73 0 
133 97 17 1 8 157 85 8 1 1 0 117 128 100 209 225 
143 193 109 4 27 21 31 22 157 122 182 41 175 124 5 127 
100 76 23 21 54 111 244 251 252 236 175 178 155 204 225 248 
253 225 253 181 8 92 41 6 99 137 53 1 2 18 112 137 
107 13 1 6 16 5 0 12 21 97 173 187 0 0 8 0 
9 28 0 6 0 20 15 0 0 17 4 9 8 13 2 110 
17 12 0 11 4 7 3 4 7 28 10 3 0 4 203 89 0 
38 42 208 243 188 27 22 1 4 14 107 220 175 99 132 78 
39 76 49 30 23 30 63 29 75 28 87 27 44 83 49 5 
47 22 54 37 54 15 90 100 252 245 242 236 229 140 225 250 
223 241 222 216 91 22 0 5 0 0 15 18 5 14 7 12 
0 32 1 14 0 187 75 211 16 0 78 43 140 166 0 15 
33 0 14 0 36 21 0 18 0 18 0 9 0 3 5 10 
5 1 0 96 3 19 2 5 14 0 185 85 92 175 0 1 35 
91 0 10 63 176 48 214 0 1 16 197 206 138 117 4 3 
7 187 126 71 100 94 219 7 18 57 56 44 53 40 44 55 
55 37 52 70 23 98 42 159 141 237 245 210 125 219 235 224 
218 213 236 212 149 0 11 51 69 10 4 102 10 11 94 0 
6 14 20 2 8 0 209 9 1 80 0 76 164 0 0 9 
16 2 13 9 0 150 84 66 207 181 80 12 0 0 244 0 
39 139 0 191 2 8 18 0 15 33 0 0 0 0 15 18 63 
132 3 158 9 1 163 37 1 1 65 240 226 142 4 68 124 
103 112 133 70 142 126 8 161 17 30 28 57 10 23 17 153 
30 60 59 42 52 157 59 228 249 254 253 253 195 217 243 247 
235 220 243 247 155 6 0 100 213 0 3 170 0 10 173 0 
19 10 8 25 0 27 17 133 86 181 178 0 1 121 66 0 
5 9 0 0 97 92 0 1 91 112 4 4 0 14 0 57 
43 97 13 0 0 10 15 3 5 0 9 6 75 159 0 13 0 
0 24 124 0 13 0 208 2 2 123 236 238 156 75 151 142 
140 143 148 56 36 7 19 153 25 50 47 31 150 226 92 161 
53 70 93 75 88 39 42 180 222 252 253 246 251 244 239 224 
199 138 247 112 154 154 91 36 87 14 17 3 10 13 0 30 
10 0 21 0 20 17 0 127 96 53 134 0 10 124 39 19 
9 4 13 1 89 68 11 1 4 0 3 0 127 125 10 54 
84 193 0 13 13 2 14 0 8 23 6 12 26 52 3 2 11 
25 0 0 7 134 148 48 19 2 136 187 205 95 110 127 140 
190 176 126 38 16 195 97 8 28 47 63 40 83 90 83 97 
123 115 44 112 59 114 29 86 180 245 253 252 252 244 170 148 
95 111 239 220 162 55 0 0 0 12 13 10 14 4 24 8 
1 18 4 11 18 0 12 0 0 10 0 15 18 0 12 0 
22 5 25 9 0 17 18 26 11 0 218 2 54 32 14 0 
0 0 16 15 13 6 0 12 0 134 151 0 0 36 193 244 12 
131 146 0 7 5 0 100 3 7 40 46 37 76 112 144 124 
154 128 56 62 88 6 32 35 82 98 115 167 199 130 164 157 
196 139 138 138 159 169 164 112 145 159 157 236 235 246 224 120 
111 85 227 254 142 3 100 5 0 25 0 111 9 0 196 254 
15 1 20 9 4 11 6 4 11 0 212 0 23 18 21 22 
9 11 14 9 141 130 2 222 0 1 0 12 0 0 15 6 
71 142 0 5 4 0 0 30 2 2 0 19 0 120 74 161 18 
0 0 0 16 19 3 163 4 3 62 51 48 91 152 173 144 
188 61 6 46 201 90 23 94 134 133 122 179 98 74 24 152 
12 4 9 27 42 26 169 22 102 118 101 222 183 253 253 220 
224 233 255 248 172 0 162 0 15 19 5 172 111 3 8 159 
0 25 20 6 23 15 1 3 12 111 46 8 14 0 7 19 
9 24 0 0 1 0 20 0 116 100 0 24 19 6 0 14 
40 89 0 21 0 156 99 0 35 2 13 16 19 115 117 0 18 
0 157 238 2 1 5 16 3 3 56 88 80 104 153 105 79 
93 70 192 189 70 186 216 118 83 80 48 12 2 12 8 147 
170 158 77 6 7 5 116 11 19 5 68 182 230 254 253 232 
253 238 247 138 169 161 66 2 5 16 0 41 100 0 19 0 
16 11 1 19 12 9 6 2 9 112 52 0 0 14 0 7 
8 28 10 14 14 6 18 0 73 88 12 19 0 7 7 63 
0 13 23 0 0 26 28 221 4 0 0 5 0 46 28 2 10 
17 65 58 78 251 127 5 219 3 9 123 230 79 13 49 28 
70 46 230 88 90 150 253 4 131 142 2 40 7 5 224 2 
40 72 16 31 20 12 202 46 84 10 9 76 71 177 254 253 
225 237 251 239 238 128 27 2 20 30 15 17 6 46 8 2 
0 19 10 0 17 18 3 0 141 147 0 16 22 170 249 0 
23 16 20 22 7 27 4 8 0 8 214 0 17 5 9 17 
105 158 14 11 13 0 11 0 0 67 56 6 8 11 16 0 1 
0 0 1 2 2 1 90 61 194 4 98 122 135 74 42 229 
28 98 19 109 168 110 1 1 1 9 5 212 1 24 13 14 
10 1 3 64 186 4 4 4 67 24 114 3 75 188 223 226 
242 251 247 254 236 144 6 9 121 135 9 2 131 230 78 45 
82 0 0 56 82 0 22 4 0 19 0 36 82 7 0 72 
235 125 0 4 31 2 0 5 20 23 3 7 0 14 12 19 
4 0 11 15 7 15 33 8 16 109 103 9 5 12 0 168 0 
1 147 39 5 11 2 255 1 2 5 106 134 146 213 122 78 
76 211 141 120 160 89 22 35 17 13 22 8 29 5 19 2 
109 114 11 8 18 6 9 164 40 35 159 9 107 138 149 229 
252 212 251 234 207 168 0 19 6 0 31 8 0 3 0 85 
146 4 2 70 132 126 55 0 6 121 33 67 144 25 15 0 
88 97 4 13 0 20 4 7 2 5 4 16 12 25 37 23 
18 8 0 17 0 2 6 5 195 9 5 3 1 25 6 130 0 
0 91 207 3 30 4 95 1 26 5 109 149 133 154 225 80 
144 186 190 55 2 24 14 2 34 12 2 6 9 10 2 187 
80 91 1 11 1 1 81 142 85 79 7 7 111 227 112 229 
233 247 249 241 217 162 198 1 8 17 14 21 16 11 22 0 
4 3 0 6 26 86 47 16 0 102 222 0 0 3 11 0 
60 201 69 14 35 20 35 49 46 55 71 120 145 51 76 59 
0 139 132 13 10 30 36 0 53 0 6 9 14 2 25 14 5 
26 2 64 24 6 2 17 12 11 11 233 116 132 108 107 72 
100 172 150 10 47 21 7 229 2 17 20 14 21 21 6 236 
1 4 1 92 191 5 222 149 79 156 31 10 39 66 1 250 
252 201 246 254 241 217 100 1 10 28 10 13 29 24 13 6 
12 168 94 0 0 4 20 4 18 0 65 23 24 35 42 62 
40 79 83 75 34 82 72 81 74 82 74 26 84 183 115 59 
0 2 12 207 2 141 128 1 2 1 7 12 17 8 154 237 2 
1 99 7 204 57 47 204 0 12 7 87 99 142 160 98 66 
137 178 19 26 32 13 10 9 13 4 29 14 6 6 32 11 
4 111 34 3 2 13 26 180 91 131 129 3 15 32 1 149 
253 233 233 239 254 206 206 10 9 2 2 2 126 131 3 2 
38 2 32 45 61 64 52 40 73 60 66 87 72 118 98 84 
76 90 28 77 39 30 91 55 49 53 41 73 41 0 33 56 
149 0 4 8 8 1 3 3 68 139 1 3 16 11 25 1 21 
12 134 53 3 107 102 0 27 8 4 105 79 52 89 142 75 
107 94 24 4 107 90 21 24 8 14 17 15 31 9 16 73 
125 118 75 21 15 3 185 62 121 132 209 39 8 22 144 185 
246 251 254 254 195 169 178 9 29 119 160 4 26 58 158 163 
55 79 68 91 82 67 74 76 54 61 67 83 50 156 93 53 
76 71 39 80 167 49 197 79 79 90 61 65 52 38 89 96 
127 0 0 194 0 0 141 83 51 94 3 11 0 10 0 0 2 
10 0 23 5 1 26 19 1 13 15 122 118 102 65 100 77 
110 115 12 8 152 152 171 5 17 18 17 2 3 17 2 58 
176 58 2 22 16 5 188 146 96 119 227 3 15 23 107 185 
254 241 110 254 235 200 170 23 45 217 252 49 74 67 153 129 
68 63 72 85 5 169 128 42 88 81 93 105 87 110 74 5 
42 90 229 116 119 188 82 96 101 82 93 70 63 50 98 113 
0 19 0 251 1 11 205 81 1 20 172 253 6 1 25 15 204 
4 29 0 6 4 1 4 85 200 4 92 126 55 115 102 83 
107 108 30 11 125 154 232 7 31 13 5 28 14 13 22 122 
168 172 90 69 49 16 126 132 53 97 69 141 4 42 3 175 
248 254 205 239 247 250 51 60 46 59 90 222 64 23 54 114 
96 112 131 111 173 163 92 93 156 171 136 133 140 111 7 254 
2 84 79 35 113 117 94 106 90 109 103 107 88 107 106 73 
0 54 93 0 241 10 1 1 41 1 1 1 14 10 1 14 4 
6 2 2 20 23 12 10 9 102 171 100 114 97 73 210 42 
117 83 5 46 79 85 6 45 44 94 89 159 204 141 92 95 
207 131 52 84 5 19 131 239 45 157 89 169 43 25 2 179 
196 254 96 253 254 232 77 38 66 100 113 91 158 155 122 105 
135 96 126 144 180 25 101 117 51 96 112 99 103 92 22 26 
74 58 68 89 116 88 104 127 99 117 118 121 141 115 51 131 
3 91 100 4 159 104 100 11 11 1 6 21 1 6 32 1 62 
140 1 15 2 5 12 27 43 137 114 109 122 91 100 34 23 
109 150 160 67 157 154 90 99 107 135 219 149 208 166 137 54 
220 107 10 20 31 19 164 151 121 152 58 127 17 62 52 140 
174 201 247 254 240 231 73 88 161 82 110 89 120 251 165 90 
87 74 106 94 71 110 179 62 104 143 95 19 124 122 89 52 
127 90 68 61 128 135 174 125 120 109 91 133 170 167 120 180 
18 0 7 10 1 69 72 10 1 129 127 1 4 13 1 12 52 
97 6 2 196 4 12 193 23 94 166 225 66 104 116 36 65 
48 105 138 25 36 75 105 108 89 138 165 157 122 167 236 201 
112 94 25 64 40 33 210 24 111 120 73 128 75 51 37 116 
206 217 249 117 249 249 42 214 112 42 75 104 100 129 90 146 
208 65 72 106 84 114 138 41 78 87 42 68 83 114 134 129 
146 89 103 90 73 97 115 121 187 164 88 213 121 115 135 117 
13 21 25 2 16 2 2 221 12 34 30 10 6 11 23 4 61 
33 15 40 61 56 22 60 50 44 38 106 121 103 95 75 28 
108 76 24 46 83 95 234 96 109 108 124 227 81 155 166 144 
120 50 226 41 61 84 160 11 48 32 81 71 69 48 16 109 
252 253 76 245 248 219 56 73 59 78 90 6 153 151 71 99 
90 62 102 74 93 94 82 73 110 112 127 232 123 127 142 242 
148 101 139 97 62 124 146 114 140 173 137 121 184 169 151 156 
2 162 187 37 54 102 6 26 15 15 40 17 119 61 40 15 247 
164 53 60 60 75 122 79 78 78 36 6 228 103 114 105 61 
93 155 97 40 38 178 124 77 98 137 213 160 18 115 120 97 
87 186 77 43 46 137 106 34 48 32 28 220 139 60 116 163 
203 234 247 242 254 234 75 105 134 147 38 33 61 56 108 80 
62 86 142 109 91 120 123 106 118 76 252 17 63 145 146 111 
113 92 117 126 92 137 211 43 60 98 106 121 102 100 124 135 
58 99 189 83 93 150 67 58 102 161 5 5 175 76 67 48 157 
54 31 43 70 34 221 119 118 70 74 51 38 134 200 114 93 
156 150 85 20 15 137 207 106 98 104 41 189 8 76 106 104 
156 64 175 52 137 158 67 29 34 43 39 114 172 102 174 246 
228 253 235 254 252 199 77 250 174 147 91 96 72 135 150 125 
85 129 114 127 129 95 91 67 64 61 178 85 85 199 82 186 
152 184 102 88 77 178 78 45 81 99 105 90 85 31 202 214 
117 171 22 56 65 51 48 23 80 107 73 63 20 53 85 83 118 
32 10 26 226 191 108 69 87 50 71 19 144 200 88 215 47 
144 153 96 48 25 127 57 221 41 31 60 88 17 61 100 107 
122 49 113 90 179 150 73 102 157 7 66 65 151 182 103 146 
188 189 254 244 254 254 114 144 156 101 213 141 56 215 111 121 
129 134 149 146 146 149 118 2 75 96 117 35 174 184 116 145 
160 161 55 141 191 87 72 78 101 100 60 95 167 164 122 105 
123 204 56 237 218 8 69 116 105 59 92 98 53 71 77 62 17 
10 22 61 113 74 69 55 79 87 184 241 134 63 29 89 14 
67 158 133 63 74 124 60 78 61 64 69 79 7 13 239 49 
65 53 9 52 95 195 119 56 48 69 54 239 120 180 103 125 
244 254 87 254 208 222 168 108 160 193 73 180 152 166 57 135 
141 163 135 168 147 127 237 238 137 92 118 94 100 122 92 69 
67 45 56 93 97 52 2 85 100 81 246 91 67 65 217 218 
61 57 89 73 47 67 53 50 44 78 114 7 89 145 128 23 40 
119 90 56 74 116 41 129 89 200 67 103 156 125 78 64 93 
87 110 126 120 156 91 85 27 36 62 66 78 75 8 6 95 
76 50 71 52 59 87 39 197 102 69 94 150 63 177 111 253 
250 250 249 233 236 185 118 96 143 163 98 56 157 133 103 152 
127 133 60 87 101 179 90 147 141 111 107 97 167 138 207 38 
103 91 97 105 105 71 40 122 143 211 218 134 110 161 96 38 
185 81 88 94 49 29 32 33 8 109 129 172 176 29 53 40 67 
108 137 92 60 150 34 245 63 174 131 149 130 138 95 185 93 
67 90 160 39 119 70 85 74 189 124 40 89 145 5 171 95 
212 156 97 54 30 57 33 200 145 93 128 175 75 73 173 185 
254 255 251 247 237 220 188 124 177 205 102 121 135 76 89 136 
179 181 85 138 115 142 148 152 114 128 201 164 159 143 166 147 
195 120 153 163 195 69 113 177 175 63 90 114 116 167 133 116 
107 89 77 103 97 70 70 5 211 26 45 115 196 74 67 72 104 
108 130 128 89 83 110 145 217 135 89 126 73 10 102 129 105 
93 118 108 98 90 74 40 86 151 76 49 66 132 13 98 38 
111 111 48 75 226 150 9 134 30 53 70 31 79 115 73 180 
255 255 242 199 227 235 95 228 237 113 138 179 162 120 150 156 
149 221 153 127 113 201 185 49 143 161 185 70 154 135 105 162 
148 130 79 134 220 158 150 97 154 87 97 237 194 161 194 165 
101 99 90 90 96 93 72 34 84 65 63 5 87 69 77 131 118 
111 109 131 107 160 167 9 132 219 93 115 8 54 29 102 94 
117 97 113 80 110 97 21 29 23 38 33 217 18 30 52 27 
43 19 213 7 59 34 27 38 40 61 57 71 200 136 225 253 
243 255 194 191 201 198 227 233 244 221 171 107 47 138 115 119 
97 121 157 151 143 165 151 143 170 152 157 152 151 142 144 123 
127 164 102 253 186 115 246 117 125 99 106 241 107 99 230 149 
222 74 45 45 24 32 24 5 232 142 126 86 36 29 53 73 123 
95 15 124 128 42 67 43 99 66 92 84 25 25 141 136 69 
110 85 78 140 107 112 144 5 79 106 49 17 26 165 94 24 
48 60 15 129 13 118 80 79 163 135 13 161 115 191 247 222 
225 249 174 173 191 202 194 109 252 209 237 162 144 216 144 78 
74 52 89 88 142 165 171 142 140 177 131 150 189 181 173 200 
127 221 112 77 126 77 125 44 68 75 88 25 56 104 58 65 
126 83 44 15 5 29 34 49 34 106 139 161 96 53 5 36 188 
91 76 95 102 94 71 74 145 121 79 68 44 141 206 118 190 
49 45 30 246 154 135 149 105 120 101 56 33 65 22 17 59 
19 46 58 155 118 202 88 117 128 104 98 103 152 209 154 199 
239 189 142 131 172 202 166 251 199 198 244 246 214 197 115 118 
149 160 66 117 160 137 173 2 96 171 95 96 101 174 178 181 
58 152 104 122 171 83 105 102 117 129 86 154 33 157 97 87 
111 84 75 97 174 195 41 103 105 106 140 160 162 198 187 97 55 
75 74 108 54 76 191 131 135 124 63 224 37 118 125 71 112 
28 56 8 244 100 100 64 74 43 73 10 10 21 34 27 70 
33 24 38 30 63 53 25 66 207 109 93 178 217 252 161 222 
176 180 230 98 157 216 176 251 170 188 102 253 237 192 174 136 
200 183 146 159 161 123 36 105 70 185 245 113 150 151 68 90 
38 87 108 157 164 114 117 51 124 118 118 254 42 52 99 23 
72 176 159 93 231 84 79 111 87 96 115 95 115 130 81 90 53 
166 132 112 23 104 98 63 121 58 108 58 100 117 58 58 21 
50 34 38 107 110 156 169 101 110 146 107 212 25 23 6 34 
31 5 17 15 48 46 85 161 226 188 217 253 162 11 144 70 
179 121 112 35 110 201 186 159 152 129 205 82 252 232 109 109 
109 206 180 242 173 164 226 170 184 157 166 170 207 194 151 153 
169 131 65 140 168 174 171 155 120 51 85 147 132 121 111 114 
12 14 6 62 13 55 84 62 60 139 80 33 137 195 175 138 80 
79 46 66 116 113 78 15 149 132 125 34 134 48 18 53 33 
68 55 50 85 105 108 167 170 159 210 236 174 117 88 83 65 
56 56 82 141 206 170 205 225 176 180 252 249 239 202 120 225 
158 148 58 130 185 173 168 137 64 164 238 246 226 237 165 61 
111 170 172 193 122 173 189 227 202 192 65 149 179 171 161 183 
185 200 172 170 177 82 165 71 68 68 91 108 50 121 118 108 
51 75 54 87 94 101 84 107 124 172 84 69 115 86 89 74 42 
140 174 82 69 91 79 42 147 139 132 188 59 28 40 47 34 
45 81 45 50 87 87 125 122 151 160 97 181 224 152 143 110 
180 155 135 144 157 149 185 235 178 229 230 232 236 238 194 224 
233 161 49 169 137 138 127 148 232 204 229 225 180 125 229 178 
146 127 170 161 170 142 193 89 99 152 130 130 134 106 198 84 
206 219 115 151 172 107 139 169 145 131 149 202 89 128 145 117 
93 85 65 89 140 190 85 78 102 112 178 85 168 179 18 34 84 
130 124 44 31 83 77 53 127 165 101 112 27 144 127 49 57 
39 38 84 101 71 94 224 108 120 87 115 148 122 86 104 101 
181 140 156 164 127 110 226 197 211 224 216 210 199 164 229 248 
251 101 6 133 97 120 85 220 243 228 252 250 254 210 250 93 
171 102 113 82 70 84 134 120 111 159 154 155 146 114 100 143 
176 157 5 82 138 205 201 163 159 141 192 200 136 109 138 245 
96 84 54 109 97 98 91 91 125 90 94 113 114 72 55 61 108 
203 156 48 108 93 98 82 108 140 52 22 53 75 70 22 87 
97 62 73 65 18 85 93 130 143 132 118 128 125 114 108 146 
160 124 137 141 141 142 141 165 197 218 200 173 193 152 206 227 
234 234 197 201 160 95 161 78 216 219 224 254 180 197 253 233 
188 212 145 119 128 229 152 150 158 175 149 155 191 154 169 187 
178 161 190 171 145 121 66 141 119 128 126 135 151 158 178 175 
113 133 94 109 141 160 123 111 131 146 111 110 103 100 141 99 131 
184 114 90 139 131 84 97 115 120 99 46 29 36 72 70 136 
179 47 86 90 74 68 125 132 129 114 126 81 85 36 8 98 
125 156 77 156 99 66 53 107 217 160 238 153 210 201 203 225 
208 215 213 229 181 121 143 199 241 212 244 220 252 231 254 222 
139 161 142 154 161 157 52 156 170 186 156 191 194 163 193 161 
178 119 186 108 108 163 223 228 192 88 89 79 114 28 80 102 
110 143 117 81 70 41 19 58 221 118 104 108 122 151 189 138 125 
99 133 99 108 136 138 122 60 121 115 64 85 84 62 79 115 
117 83 75 128 92 29 174 127 113 96 87 86 122 70 57 55 
14 54 34 189 197 111 17 43 140 115 162 167 96 138 195 220 
177 159 181 201 181 134 199 195 175 123 195 180 250 235 224 254 
235 131 71 91 86 162 125 90 200 216 190 190 165 136 189 9 
184 65 248 159 99 178 157 96 143 97 114 71 55 62 58 81 
109 87 63 138 91 44 71 112 144 68 95 117 150 131 113 102 143 
115 92 120 84 137 131 240 8 41 51 28 69 93 68 221 112 
141 112 96 44 107 52 18 51 103 98 230 35 82 50 22 51 
59 86 94 10 110 142 128 122 118 122 174 210 39 95 123 168 
131 207 189 181 110 120 193 223 204 180 164 185 201 248 251 251 
254 127 219 163 147 182 153 130 174 159 190 167 223 209 183 90 
188 170 87 191 178 169 183 163 235 171 164 145 146 147 163 157 
153 121 113 106 102 115 125 108 79 110 74 142 96 101 196 120 128 
101 165 122 145 154 125 77 247 196 86 68 80 64 98 96 131 
129 130 40 62 57 86 101 66 31 77 74 76 155 145 234 103 
170 139 103 126 143 164 246 168 178 157 143 162 131 116 117 89 
120 170 180 206 144 119 198 204 211 143 193 209 241 115 226 254 
176 150 192 197 179 203 216 185 169 215 248 180 194 198 74 168 
107 148 188 159 164 170 173 148 154 125 109 98 115 125 98 83 
86 101 103 70 177 67 72 139 164 125 52 106 114 122 96 97 77 
17 99 115 147 103 149 96 52 9 184 138 86 90 68 41 118 
146 125 109 92 84 94 107 83 80 71 15 174 158 131 195 204 
14 32 72 92 168 194 167 201 108 70 135 222 240 171 77 151 
222 168 179 215 125 162 185 183 238 228 229 214 174 221 234 245 
240 252 244 214 183 169 215 214 229 220 189 191 204 186 153 163 
228 155 191 175 130 184 141 193 119 116 244 95 178 117 91 73 
76 147 114 26 148 31 58 177 161 76 80 85 100 135 89 58 220 
170 155 149 85 54 153 108 75 50 144 132 116 131 133 111 117 
108 136 98 108 27 83 79 61 49 30 24 171 150 120 199 219 
136 56 71 122 71 169 187 222 125 147 176 146 133 16 186 208 
147 146 203 209 120 168 121 243 232 233 221 243 230 244 236 229 
254 243 254 187 152 196 201 228 220 203 197 188 162 87 87 172 
148 186 213 174 148 189 163 121 135 150 155 48 135 123 51 220 
103 120 85 49 53 74 77 98 92 70 119 126 119 91 97 102 139 
134 98 122 97 96 94 61 92 109 162 55 130 157 179 133 132 
173 222 114 99 98 100 77 79 74 111 75 155 127 59 191 187 
107 8 86 27 118 85 188 196 202 102 242 115 4 30 77 167 
194 184 190 177 82 113 184 219 175 188 230 240 234 207 225 201 
213 235 244 184 119 213 223 246 218 237 186 253 168 111 179 201 
217 203 166 173 173 149 245 167 114 95 183 135 157 160 92 163 
238 64 111 93 230 72 81 105 119 51 110 118 100 100 77 61 88 
85 76 17 233 115 106 71 46 94 202 131 107 129 144 110 143 
139 155 168 77 119 98 100 75 94 68 219 249 225 155 189 237 
71 203 79 80 185 190 209 51 201 227 229 134 52 61 96 236 
194 199 178 164 157 150 186 221 187 203 208 206 198 199 72 176 
206 228 254 18 130 171 206 242 218 207 203 200 199 183 202 207 
199 222 230 179 164 162 174 158 145 122 226 179 179 199 197 186 
88 118 71 66 78 53 64 69 199 48 79 8 6 120 129 54 19 
71 50 133 83 104 83 172 120 108 108 112 117 130 192 97 160 
160 145 187 133 124 119 83 105 78 10 147 165 164 43 139 190 
59 80 80 145 177 230 125 197 167 201 217 174 132 221 179 127 
159 136 156 250 167 184 182 191 203 207 78 154 167 195 190 196 
180 201 215 254 232 197 231 228 179 205 220 200 227 195 226 185 
181 221 228 194 146 175 230 156 176 172 204 169 196 203 168 138 
68 106 78 29 79 66 66 58 72 71 67 78 107 161 71 67 59 
27 9 148 65 134 132 170 167 184 134 180 172 164 172 213 102 
147 147 85 215 85 110 100 198 63 12 178 107 139 90 149 222 
96 49 34 153 84 169 189 203 166 155 237 175 80 206 211 135 
79 108 214 230 186 171 128 178 163 199 158 96 109 176 165 148 
143 184 153 254 250 226 201 172 171 165 223 204 192 180 140 199 
150 155 197 186 183 212 231 208 206 213 232 186 175 155 161 107 
28 38 199 122 65 8 82 104 100 98 127 149 44 140 87 81 42 
41 33 36 115 141 131 120 70 127 145 165 164 152 113 238 107 
148 144 150 96 137 137 123 138 64 101 92 130 173 54 151 84 
106 55 79 93 127 182 234 239 196 194 224 208 102 191 198 159 
162 194 197 143 86 177 31 145 121 145 74 136 189 162 149 199 
235 217 236 236 254 223 162 204 188 184 178 247 170 111 136 176 
65 171 218 207 155 155 72 212 176 185 171 170 112 194 242 207 
149 227 138 110 114 92 153 178 87 79 186 207 143 114 103 126 79 
51 75 96 130 120 72 62 19 124 234 190 149 159 164 121 166 
170 158 151 129 139 130 115 113 74 51 22 156 141 31 134 228 
133 127 154 178 169 180 183 164 112 197 171 172 160 152 194 195 
162 141 209 155 127 120 108 154 140 160 192 154 150 145 169 199 
217 223 242 253 246 244 181 175 155 206 61 135 100 191 157 189 
192 160 35 179 161 180 239 233 70 167 144 104 194 205 175 245 
110 172 94 99 184 152 142 140 115 86 184 215 144 142 155 74 80 
79 66 123 118 131 69 70 103 155 183 126 147 170 171 87 152 
203 173 134 110 130 143 71 204 110 62 11 160 184 113 144 177 
194 246 231 165 146 136 91 182 163 182 192 190 164 111 217 174 
180 185 241 131 7 47 86 135 189 152 166 233 193 209 208 246 
225 241 225 240 252 252 162 98 209 177 180 177 177 218 129 105 
73 123 168 181 170 184 81 142 89 163 192 71 135 216 167 188 
164 138 37 100 134 154 160 84 115 66 77 121 78 82 204 136 80 
92 106 152 174 125 87 103 148 127 107 143 99 189 195 198 150 
157 124 111 116 192 114 87 26 136 132 9 141 147 125 120 201 
180 172 199 110 162 193 139 113 105 165 160 145 201 150 181 165 
236 217 206 90 76 98 124 162 162 151 104 217 240 248 213 143 
197 198 119 254 254 240 151 74 121 124 91 120 141 166 189 125 
180 191 178 199 182 170 194 190 172 149 191 127 187 158 180 154 
155 179 228 89 122 141 127 86 118 182 114 84 109 117 118 86 133 
183 131 142 188 83 72 110 137 140 195 235 95 161 189 171 138 
104 171 175 107 115 63 84 99 133 58 74 110 148 180 176 187 
187 174 170 188 199 147 135 118 93 151 168 129 112 138 124 152 
185 140 88 88 103 127 60 245 177 162 227 70 230 243 214 151 
213 196 224 254 246 254 225 84 193 6 57 129 229 77 149 190 
195 192 183 210 196 202 189 205 201 110 155 163 168 159 167 69 
29 116 129 120 148 19 51 84 114 77 74 33 129 134 213 244 90 
108 158 134 121 85 81 114 133 135 164 59 172 108 119 238 163 
130 123 127 119 79 37 222 124 100 72 63 120 167 96 139 122 
144 114 120 128 99 149 143 102 97 116 121 94 84 165 57 113 
64 88 225 106 170 195 205 198 188 190 198 204 210 235 227 204 
171 205 248 250 239 254 232 100 100 141 125 165 127 189 197 217 
175 216 236 174 178 171 254 188 187 195 207 222 219 192 254 186 
138 132 208 126 224 42 23 77 96 19 69 24 114 89 69 99 116 
102 105 100 78 48 94 61 155 231 143 174 156 152 139 147 227 
179 110 89 83 63 28 104 104 110 184 122 132 149 143 79 35 
40 48 23 63 34 150 154 135 88 192 175 172 173 164 97 98 
123 144 183 187 181 192 208 185 198 213 215 213 215 234 241 202 
130 252 173 254 248 226 214 228 138 116 154 156 128 159 173 172 
147 167 177 142 137 111 208 180 141 138 217 190 220 218 194 148 
145 136 127 181 94 49 81 92 198 167 57 84 81 61 76 52 109 
116 30 24 73 102 92 131 147 182 182 144 229 108 124 149 144 
176 122 87 86 66 55 207 79 53 132 145 125 207 78 11 34 
7 153 207 69 134 87 199 10 154 150 120 236 166 168 66 49 
108 136 201 154 211 199 203 211 201 252 226 242 194 195 238 233 
213 225 177 249 234 207 247 157 162 175 122 99 154 144 142 186 
184 158 194 105 164 174 177 190 193 188 191 181 163 224 190 148 
132 79 75 127 145 215 116 78 249 111 189 110 79 116 55 41 82 
144 162 44 46 80 125 144 143 134 117 132 166 203 144 137 225 
112 61 228 95 59 15 173 39 150 168 142 153 133 43 7 13 
27 89 122 84 136 105 87 40 117 146 132 190 109 87 63 11 
46 156 170 185 209 101 175 244 224 244 238 235 220 212 251 222 
216 208 252 241 251 248 250 181 119 245 216 71 70 79 161 186 
182 163 186 206 174 185 188 182 202 197 160 163 228 205 206 243 
34 71 87 124 149 35 70 6 234 56 73 17 33 63 97 32 86 
235 145 66 59 91 118 158 122 180 200 134 151 163 95 122 120 
195 164 85 106 68 139 121 74 107 125 128 156 85 25 18 19 
9 42 51 113 119 69 66 145 98 77 127 86 44 56 59 59 
32 36 146 224 201 217 30 218 176 155 249 103 224 246 233 222 
221 220 218 242 238 252 236 92 229 204 220 200 195 211 208 144 
191 253 217 213 185 229 206 238 193 199 223 239 196 185 203 213 
111 175 210 229 203 56 187 65 6 18 113 67 20 50 64 64 38 
31 105 65 51 83 101 207 110 125 130 165 148 108 144 156 148 
129 107 110 75 78 190 73 85 127 108 215 133 164 132 10 48 
126 66 79 113 190 140 120 230 125 144 84 8 142 113 8 85 
73 22 124 194 236 218 126 133 240 253 236 247 237 208 181 236 
175 188 220 251 234 233 209 193 181 161 208 160 184 213 223 208 
186 217 200 204 155 249 177 223 199 254 219 212 147 169 211 199 
141 153 170 178 150 97 123 72 181 15 148 64 10 141 148 55 56 
32 149 54 57 61 97 103 74 127 129 80 149 194 152 157 136 
107 94 198 24 49 197 77 194 182 109 178 150 126 141 79 204 
121 43 68 100 41 158 67 171 157 223 84 26 66 49 198 61 
98 89 141 136 212 204 238 247 247 237 253 253 240 249 166 238 
229 238 248 211 177 254 190 145 153 192 184 172 214 210 192 209 
182 215 213 231 203 195 165 224 227 229 218 139 201 225 240 222 
197 138 138 55 174 123 91 64 161 127 91 45 181 220 139 37 155 
116 92 124 127 49 86 104 80 90 206 160 147 152 142 157 153 
98 136 83 66 90 98 70 103 142 128 238 67 40 79 123 127 
180 26 47 133 176 60 122 186 74 74 61 60 28 65 113 93 
93 101 205 92 243 225 192 242 246 253 83 231 232 252 216 228 
217 229 249 238 215 210 203 205 169 225 210 202 206 198 217 165 
81 130 190 226 220 209 253 234 228 219 236 201 213 243 235 175 
169 177 161 170 151 136 128 103 91 29 44 14 142 80 83 21 55 
174 191 243 131 87 90 82 123 138 49 220 230 169 163 145 118 
120 137 82 40 113 72 93 130 189 135 51 7 16 20 31 135 
154 160 8 63 164 234 214 139 6 17 35 40 80 67 126 114 
90 73 124 98 162 229 213 206 229 237 230 226 249 209 238 232 
249 253 216 254 231 224 197 203 214 204 172 69 134 136 194 204 
202 216 217 209 239 228 208 237 206 216 204 219 230 108 219 246 
153 143 222 187 176 106 52 177 76 46 43 86 87 123 117 178 139 
148 153 170 156 176 40 95 102 117 168 242 147 182 160 158 73 
82 101 50 29 92 138 236 149 189 97 43 45 30 3 4 197 
102 96 124 92 103 180 172 182 79 97 47 59 44 22 204 64 
54 176 151 105 109 178 167 214 233 244 235 236 240 162 220 149 
177 217 130 221 181 191 208 174 148 205 194 218 116 148 223 145 
198 171 213 149 221 229 227 227 163 199 227 237 220 205 192 211 
214 143 216 91 243 170 72 167 127 125 70 110 141 177 92 153 142 
123 127 107 195 63 102 63 81 147 154 174 154 168 122 161 154 
187 175 71 37 74 155 174 153 179 65 19 59 43 174 95 15 
101 155 172 150 118 150 103 7 177 151 20 72 64 76 97 128 
200 87 139 146 93 170 134 237 253 224 229 243 239 224 241 135 
2 145 219 213 187 239 187 187 197 208 233 220 180 205 242 200 
181 187 251 171 228 181 215 206 215 184 191 204 216 179 214 214 
185 96 202 160 206 246 199 122 186 177 234 161 159 154 108 88 31 
90 86 90 96 46 204 149 159 177 67 136 141 148 127 140 133 
139 121 233 20 49 60 241 154 176 44 32 77 106 99 23 15 
116 190 174 187 147 118 113 19 61 73 7 231 84 181 126 130 
121 207 154 116 93 146 216 252 249 253 238 225 211 221 224 230 
195 207 245 206 201 214 240 205 126 214 189 198 231 242 85 234 
227 228 216 202 192 189 220 227 212 202 198 196 187 192 213 210 
145 158 179 198 91 120 197 249 55 198 170 123 65 162 154 96 46 
124 205 160 90 87 111 119 146 133 145 223 141 166 170 77 116 
67 82 22 40 8 60 172 163 15 33 64 244 89 48 40 232 
91 150 191 175 119 108 230 223 8 41 95 64 62 75 19 115 
103 88 106 103 155 221 252 87 241 253 235 186 127 126 204 212 
250 223 75 205 222 215 208 208 193 249 232 226 239 221 179 229 
140 4 206 177 215 224 222 231 224 190 190 225 211 252 228 207 
132 128 85 204 47 151 180 154 166 151 131 174 100 202 190 177 128 
129 131 138 195 26 82 60 80 133 135 145 80 125 203 179 107 
74 37 150 9 28 84 135 231 168 95 75 48 71 247 126 85 
146 161 165 139 139 153 107 8 14 77 72 141 29 51 77 63 
86 191 84 177 245 251 241 253 254 241 254 142 102 206 254 235 
215 164 226 229 158 168 244 186 150 226 200 179 214 240 116 229 
235 170 225 222 222 208 122 224 163 176 211 213 188 191 211 241 
154 151 115 212 112 109 82 132 142 171 50 203 227 179 216 172 65 
81 94 64 207 141 92 98 103 134 163 168 194 205 188 176 135 
124 132 150 32 10 27 171 166 148 162 161 40 89 151 61 95 
120 166 196 146 134 130 136 101 188 128 45 155 72 74 81 41 
82 112 116 109 249 238 254 249 243 252 240 174 128 108 191 177 
237 216 250 224 177 187 202 227 239 220 170 239 201 202 215 207 
194 196 217 211 220 213 236 241 230 213 215 245 228 237 212 207 
109 149 170 165 155 152 135 160 160 200 159 84 177 194 83 246 127 
112 6 75 245 210 75 98 171 209 139 156 244 190 210 171 119 
102 75 22 85 195 81 147 173 167 153 154 95 200 8 19 34 
73 139 170 160 131 144 167 123 161 226 97 42 182 165 75 89 
97 199 226 228 247 253 253 254 254 254 251 206 201 124 106 62 
211 130 185 235 239 235 216 200 129 234 213 202 191 196 251 210 
212 210 182 206 236 245 253 239 249 253 233 238 231 236 204 213 
165 119 160 159 180 153 105 14 144 156 177 90 36 33 38 46 44 
180 179 110 96 68 82 93 85 62 107 149 227 185 147 29 235 
38 12 27 42 78 106 145 167 90 102 92 55 30 9 229 28 
49 111 188 37 199 186 131 181 120 152 165 103 88 49 82 69 
249 204 84 194 235 253 254 242 248 254 85 209 199 229 252 187 
235 210 233 211 210 243 116 193 182 221 232 200 134 129 59 135 
124 182 198 195 202 123 189 204 139 133 230 204 223 130 138 201 
157 153 182 180 159 136 126 103 100 165 17 170 103 182 86 90 167 
154 221 111 191 54 97 35 61 88 173 129 125 103 156 163 136 
59 54 39 62 76 112 80 188 102 74 194 11 26 36 49 49 
33 72 154 130 123 164 160 198 158 119 171 133 117 125 131 96 
241 249 252 252 249 254 252 254 242 254 178 180 147 217 239 185 
169 158 115 215 244 250 221 216 178 217 218 116 172 101 152 227 
138 156 147 157 144 199 215 211 191 155 200 173 136 191 120 147 
185 198 183 149 160 127 179 108 102 92 64 140 76 90 61 199 233 
190 213 136 33 94 71 40 133 134 140 221 111 168 206 85 131 
129 132 94 116 98 137 172 116 52 95 16 33 27 53 11 79 
210 129 124 135 101 160 133 191 186 125 149 26 208 184 201 55 
134 176 222 248 250 250 246 254 242 244 50 164 166 136 122 175 
106 102 210 236 215 222 243 245 228 157 232 239 216 216 214 203 
163 155 170 179 171 208 232 220 195 188 218 197 194 183 211 244 
186 191 193 170 178 150 169 243 16 172 160 19 158 200 183 196 65 
189 93 122 72 59 57 11 197 149 58 209 145 211 222 140 99 
29 96 118 102 133 135 71 60 55 87 49 238 177 12 86 103 
142 124 138 113 117 69 38 116 213 146 156 141 197 182 180 24 
245 211 219 219 208 167 89 249 236 244 67 97 137 138 170 44 
187 241 239 229 202 209 224 213 149 195 201 207 206 145 163 200 
175 177 208 202 222 232 234 232 247 241 185 177 253 241 239 208 
178 205 191 176 41 196 157 167 185 144 196 175 158 106 159 148 241 
114 130 77 76 145 105 100 36 100 90 203 210 220 180 77 121 
119 131 147 11 113 168 146 247 205 69 86 223 46 115 106 129 
119 109 135 145 109 24 105 88 186 188 173 163 205 159 147 233 
248 254 84 251 239 254 234 229 254 237 140 47 30 139 210 223 
218 238 219 215 231 252 245 200 93 247 211 248 225 229 254 227 
210 224 226 231 229 235 232 198 196 230 233 197 176 103 194 223 
189 187 177 177 133 101 195 131 181 204 185 183 204 203 173 227 170 
183 201 203 78 149 81 94 142 126 108 222 186 181 182 149 193 
150 174 119 21 108 69 64 63 210 142 93 107 110 122 99 121 
168 92 155 160 114 64 102 123 136 197 213 205 176 194 129 243 
234 254 191 247 232 254 254 191 251 242 220 181 149 190 230 178 
244 240 234 238 193 187 217 204 186 195 227 223 213 170 226 196 
161 251 225 212 200 206 195 185 207 218 212 193 187 234 247 225 
193 180 157 186 182 187 188 146 116 182 187 191 188 248 187 194 213 
211 179 248 15 81 104 85 145 160 124 145 160 168 164 178 188 
181 103 39 70 142 146 7 5 113 169 87 122 97 115 128 128 
79 90 87 226 107 76 133 67 129 166 208 205 145 144 224 244 
253 235 185 253 253 250 222 244 248 244 216 238 233 229 242 192 
240 227 249 232 153 183 235 229 254 192 216 201 158 211 213 250 
246 198 224 126 202 248 209 193 229 231 209 221 195 232 236 239 
201 168 202 171 192 151 133 149 90 208 228 243 147 115 212 198 111 
232 93 108 65 95 107 140 156 100 135 135 226 165 168 198 229 
186 45 215 99 161 109 40 25 19 55 82 44 63 55 32 88 
49 135 111 244 144 165 168 191 125 136 199 219 207 217 238 250 
162 174 250 251 253 252 253 216 254 241 240 229 236 216 235 232 
241 250 237 97 92 202 239 237 233 254 254 173 106 220 221 227 
223 223 226 161 207 211 220 242 241 237 231 87 243 231 235 219 
15 208 195 221 207 168 191 88 182 209 186 69 251 245 214 191 99 
185 57 67 240 119 153 158 165 197 218 164 133 104 163 234 196 
18 100 74 152 156 86 29 205 13 192 89 44 133 93 23 53 
171 176 169 130 215 216 238 180 231 207 214 199 92 146 189 248 
183 188 231 230 244 252 208 243 243 149 215 230 232 207 217 157 
75 161 182 247 207 218 192 235 224 224 230 187 116 211 175 234 
216 161 183 152 226 211 227 253 232 232 215 206 213 201 188 243 
125 212 216 4 228 176 243 230 197 187 159 202 225 210 240 139 237 
174 61 89 196 120 142 176 220 222 203 99 165 152 95 157 226 
136 134 131 91 157 126 66 90 98 56 36 57 163 110 10 81 
207 174 168 191 190 214 192 136 219 221 215 212 144 144 186 228 
193 205 225 233 225 180 121 251 229 254 237 211 202 218 233 184 
152 154 242 210 239 232 208 214 205 206 227 202 194 236 134 171 
229 199 227 238 226 207 184 197 201 206 208 196 226 228 140 240 
235 177 208 172 231 203 229 235 213 143 125 80 230 108 195 244 224 
237 137 125 171 177 156 126 169 175 191 173 180 175 170 206 239 
180 147 168 140 181 145 196 125 165 178 105 48 179 143 209 12 
113 160 171 186 191 160 159 249 207 188 178 163 209 177 176 233 
229 172 226 124 220 188 210 245 254 245 244 233 176 162 240 215 
230 230 242 222 209 222 218 198 187 195 212 196 188 187 207 174 
209 178 156 204 170 167 142 122 131 160 207 242 179 166 253 196 
203 191 180 200 201 146 178 221 191 211 196 135 194 191 196 211 247 
171 99 107 102 105 218 125 118 111 114 234 170 208 211 187 225 
225 125 119 152 102 83 164 148 141 117 130 210 133 160 83 95 
86 120 119 141 148 153 197 211 174 115 53 142 211 248 206 185 
121 236 221 196 233 226 214 253 190 188 254 225 159 160 191 242 
221 253 226 230 245 180 190 59 219 197 200 201 206 228 225 217 
234 206 51 52 201 114 26 124 77 198 206 227 214 233 229 239 
180 193 169 195 228 194 203 201 196 177 200 247 199 189 244 247 251 
184 205 127 141 202 105 101 145 216 134 153 176 161 180 227 207 
153 64 77 109 88 179 139 107 123 125 19 108 115 132 127 164 
107 92 91 102 65 92 219 148 160 176 167 224 194 149 179 245 
252 233 207 184 130 118 253 207 19 195 254 219 240 237 220 241 
217 226 224 219 176 213 210 194 233 246 227 254 183 181 242 249 
250 230 223 245 206 254 199 168 239 236 246 240 240 253 251 199 
197 217 217 216 203 193 153 198 98 60 154 209 191 160 219 233 234 
204 109 94 124 113 93 130 149 163 163 148 176 166 174 224 187 
200 188 104 106 107 132 138 124 146 146 13 137 118 150 149 131 
108 127 126 105 132 129 167 214 181 182 183 237 213 118 184 251 
228 253 226 230 237 236 239 234 176 244 250 241 241 239 148 199 
201 228 225 214 159 164 216 208 221 210 241 201 206 220 200 232 
213 204 237 236 251 244 166 140 166 188 206 219 221 186 203 106 
221 221 238 214 177 154 125 121 101 141 213 185 213 219 237 231 219 
184 74 87 61 134 128 135 117 139 110 64 155 207 205 224 227 
232 202 102 124 91 184 144 144 97 164 120 133 143 139 143 208 
145 176 170 96 158 189 93 229 246 173 195 195 165 187 218 212 
220 246 253 245 223 215 244 252 244 254 247 254 254 229 183 96 
174 185 224 221 233 231 239 232 233 215 205 201 176 200 176 254 
143 159 229 242 228 227 158 203 109 177 188 202 223 200 218 196 
211 222 214 217 185 189 184 38 208 199 208 192 192 225 212 193 237 
216 163 122 65 53 189 104 12 10 8 20 44 165 245 218 231 
245 178 79 111 217 214 148 140 213 110 129 226 143 139 42 199 
183 162 168 101 102 206 179 234 230 188 208 186 129 234 231 187 
132 221 94 252 252 253 253 212 249 139 214 252 234 218 222 218 
242 232 220 223 241 239 241 226 190 224 231 230 173 189 198 228 
202 144 192 229 225 201 175 182 154 166 46 178 128 146 211 184 
161 103 214 168 199 224 221 207 201 184 221 236 243 186 157 147 210 
241 112 7 16 12 7 28 42 101 90 15 239 124 220 253 238 
221 154 78 95 106 99 99 137 98 64 80 150 96 126 162 161 
169 195 63 152 136 186 203 177 98 247 175 158 231 233 215 208 
212 176 217 193 116 172 180 233 239 250 254 215 252 243 237 228 
164 170 217 202 222 213 204 163 121 200 219 198 110 170 66 114 
250 229 238 251 228 227 219 187 138 242 171 149 170 216 183 198 
140 174 202 112 193 199 183 163 200 131 153 217 191 199 188 184 217 
137 112 20 32 48 20 172 30 58 62 45 167 116 229 239 236 
214 92 48 60 79 78 98 197 109 144 84 190 93 149 167 219 
189 160 148 149 147 135 186 198 161 242 136 106 121 207 208 203 
225 154 226 222 193 213 108 209 253 185 244 145 245 254 217 220 
244 221 206 216 203 150 147 115 187 168 209 200 164 250 248 226 
171 171 192 234 211 223 215 241 199 208 208 185 195 204 147 145 
171 212 206 213 206 196 207 87 117 119 78 166 109 82 151 86 135 
98 32 24 58 31 47 113 35 49 34 64 12 111 236 221 249 
187 143 50 66 84 170 105 61 103 108 139 100 162 216 166 124 
124 192 129 130 168 196 178 212 215 196 218 91 104 189 224 223 
223 247 233 201 140 240 147 216 195 160 234 254 208 176 231 227 
230 179 204 89 253 235 92 188 139 254 220 199 236 192 231 197 
181 84 191 234 211 215 223 248 192 196 238 93 238 204 221 194 
213 219 114 228 218 136 212 192 171 127 120 239 154 119 124 115 77 
69 192 245 37 41 40 9 47 54 33 42 28 144 243 252 236 
184 34 74 137 27 70 239 99 212 198 19 244 221 183 186 151 
126 132 176 140 244 181 182 171 162 247 173 103 237 203 216 215 
216 209 241 223 233 232 227 223 115 243 247 247 254 219 253 253 
242 232 221 210 210 220 42 114 217 209 251 224 86 254 182 175 
233 208 223 209 202 212 226 194 212 181 198 198 152 143 252 213 
204 148 248 212 173 234 198 137 184 156 92 35 103 111 118 141 156 
151 119 30 32 38 44 33 52 89 63 80 93 244 101 212 207 
244 166 20 36 72 209 117 178 221 152 84 139 148 224 160 185 
196 224 120 147 179 212 181 194 232 222 142 134 12 152 213 228 
207 185 240 252 230 238 220 207 241 240 231 116 244 254 251 206 
243 211 211 195 184 182 224 165 223 216 163 225 223 198 217 204 
224 238 214 82 242 234 224 214 162 189 228 245 170 146 235 241 
123 183 185 235 162 200 156 98 160 223 225 165 194 224 201 232 199 
194 208 67 33 34 54 51 36 133 127 97 5 154 198 215 153 
239 218 65 72 167 111 98 204 228 166 119 151 156 120 181 195 
138 175 207 199 116 181 192 233 238 224 115 250 146 220 194 218 
173 187 210 198 232 209 207 169 236 243 227 229 190 251 247 233 
191 156 215 221 217 186 196 85 145 186 147 220 173 182 216 219 
233 233 240 246 237 227 150 200 141 184 210 192 174 163 253 161 
24 68 54 122 135 106 172 59 5 141 204 212 135 157 242 203 245 
203 221 91 85 173 36 59 21 50 67 67 13 66 173 219 232 
203 109 37 52 150 165 152 195 214 197 129 164 152 149 153 182 
206 205 113 221 234 219 187 211 141 224 172 141 145 195 181 161 
166 235 215 208 213 212 197 190 247 233 235 227 208 237 242 252 
226 211 105 227 248 236 215 235 207 229 223 222 176 200 210 207 
227 214 212 206 232 222 165 196 138 117 180 183 226 230 207 185 
118 193 91 38 2 6 73 39 90 184 174 245 93 200 185 195 182 
176 103 43 55 85 12 35 233 47 59 12 13 84 185 197 200 
120 89 109 86 74 169 177 173 169 151 146 144 152 167 177 184 
218 114 93 214 220 228 86 199 228 129 146 209 79 179 157 161 
121 117 177 196 185 221 230 226 231 239 254 245 236 154 218 225 
235 250 216 227 209 243 176 229 164 193 220 233 221 240 203 202 
218 213 180 242 243 128 193 201 193 200 56 190 158 162 83 204 
142 96 71 13 18 67 42 67 164 193 168 168 237 7 183 147 104 
51 35 31 6 32 49 10 67 64 56 100 20 62 205 180 175 
116 193 138 115 150 172 150 105 200 120 144 170 193 217 180 178 
183 208 199 244 213 250 214 192 231 253 113 115 194 213 204 203 
235 206 185 184 142 111 183 214 216 253 248 254 247 252 100 230 
214 219 237 233 238 194 205 87 210 220 217 217 233 229 206 207 
232 206 210 208 204 252 224 203 216 249 171 203 188 228 241 215 
163 104 96 5 35 13 43 7 91 188 199 160 250 139 96 189 95 
91 155 74 153 47 19 27 46 54 49 174 12 46 111 107 93 
63 86 82 138 151 167 109 176 93 109 142 122 199 197 186 229 
218 186 218 227 228 245 220 173 220 253 221 173 249 233 244 209 
217 202 197 173 139 175 227 211 227 241 239 253 235 254 254 215 
113 182 241 252 183 177 222 225 223 206 239 240 250 230 140 247 
254 228 207 212 225 219 209 212 208 225 143 211 151 173 211 216 
3 103 146 4 37 80 25 183 73 144 165 137 151 91 76 65 22 
25 122 39 144 16 174 80 16 49 51 8 36 82 107 160 109 
40 190 172 165 139 167 162 159 117 159 108 148 200 126 150 216 
176 186 225 234 236 219 204 250 247 225 241 216 220 247 215 209 
223 219 218 222 151 218 206 91 203 219 238 244 254 251 244 254 
215 240 122 181 209 215 215 213 211 221 237 238 250 219 208 109 
204 217 221 208 218 230 222 229 215 207 234 206 126 180 206 221 
58 193 166 200 92 84 23 241 92 210 136 188 129 108 106 115 209 
7 56 7 16 150 162 37 60 57 58 38 43 40 185 130 80 
207 162 59 155 32 110 175 169 148 134 153 176 156 184 173 144 
166 190 203 200 222 254 212 213 213 232 243 230 220 245 248 218 
232 209 206 246 167 146 212 202 209 215 231 224 139 254 241 79 
223 239 204 214 147 5 188 91 212 166 212 208 204 190 210 207 
213 215 216 205 204 239 60 172 140 228 252 247 210 235 226 241 
177 137 133 223 87 98 82 44 26 16 42 103 91 82 79 90 129 
125 72 185 16 10 33 35 36 28 52 80 85 55 12 121 124 
130 164 173 145 188 224 146 190 222 144 171 174 183 168 209 220 
177 179 178 224 235 222 211 87 217 229 232 242 228 239 200 221 
160 223 221 173 188 134 150 214 204 230 230 237 248 226 253 210 
226 227 236 253 243 225 252 206 234 250 226 208 188 161 207 160 
188 222 226 110 211 63 224 80 181 252 196 237 244 141 64 221 
156 61 101 113 36 120 124 24 38 42 16 34 83 44 54 7 214 
125 30 177 192 121 23 43 7 91 104 44 82 49 32 173 143 
78 117 122 131 157 188 189 167 132 185 186 163 194 176 213 237 
197 182 179 235 236 246 220 187 206 204 210 253 203 138 142 248 
235 239 215 165 130 225 121 176 249 214 166 237 240 238 253 149 
226 217 253 206 217 224 158 228 216 228 239 149 238 230 243 149 
181 206 240 181 219 221 199 231 167 229 138 241 211 199 158 253 
162 145 87 51 89 109 96 47 28 20 7 35 135 201 149 105 7 
146 148 16 163 122 72 47 88 206 195 140 76 160 20 58 137 
59 100 122 150 171 160 167 175 123 154 175 203 181 196 203 195 
180 172 207 234 235 220 203 192 171 185 220 253 253 206 237 240 
253 167 199 174 197 197 206 174 215 231 167 237 204 246 242 253 
251 228 93 206 220 237 156 239 245 244 229 247 234 235 216 214 
205 244 239 185 250 225 195 229 229 207 227 213 217 210 4 216 
128 151 139 130 96 96 8 144 139 88 113 106 132 134 68 39 54 
66 59 101 87 96 90 84 209 30 56 49 88 68 57 25 106 
243 161 138 171 153 147 167 167 175 165 169 72 194 105 26 79 
144 156 79 252 215 192 210 235 215 237 194 238 246 253 246 253 
253 213 235 234 175 215 87 196 224 203 196 207 229 246 249 247 
222 248 199 205 170 174 213 235 244 240 242 194 209 210 223 216 
143 139 252 208 129 250 226 236 229 215 240 212 223 195 200 209 
