P2
# Created by IrfanView
105 83
255
202 202 202 202 202 202 202 202 0 202 202 202 202 202 202 202 202 
202 202 202 202 202 202 202 202 202 255 202 202 202 52 52 52 
52 52 52 52 52 52 52 52 52 52 52 52 52 52 52 52 
127 127 127 127 255 127 127 127 52 52 52 0 52 52 52 52 
255 52 0 52 52 52 52 52 52 255 0 0 52 52 52 52 
52 52 52 0 52 52 52 255 52 52 52 255 52 202 202 202 
202 202 0 202 202 202 202 202 202 202 202 202 202 0 202 255 0 202 202 202 202 202 0 202 202 
202 255 202 255 202 202 202 202 202 202 202 202 202 52 255 52 
52 52 52 52 52 52 52 255 52 52 52 52 52 52 52 127 
127 127 127 255 127 127 127 255 52 52 52 52 52 52 52 52 
52 52 52 52 52 52 52 52 52 52 52 0 52 52 52 52 
52 52 52 52 52 52 52 0 52 255 52 52 52 202 202 202 
202 202 202 202 202 202 202 202 202 202 0 202 202 0 202 202 202 202 202 202 202 202 202 202 202 
0 202 202 202 202 202 202 202 202 202 255 0 202 52 52 52 
52 52 0 52 52 255 52 52 0 52 52 52 52 52 0 127 
255 0 127 127 127 127 127 0 127 52 52 52 0 52 52 52 
52 52 52 52 52 52 52 52 0 52 255 52 52 52 52 52 
52 52 52 52 52 52 52 52 0 52 52 0 52 202 202 202 
202 202 202 202 202 202 202 202 202 202 0 202 202 202 202 202 202 202 202 202 202 202 202 202 202 
255 202 202 255 202 0 202 202 0 202 202 202 202 52 0 52 
52 52 52 52 52 52 52 52 255 52 52 52 255 127 127 127 
127 0 127 127 127 127 0 127 0 127 0 52 255 52 52 52 
52 52 52 52 52 52 52 52 52 255 52 52 52 255 52 255 
52 52 52 255 52 52 255 52 52 52 52 52 255 202 202 202 
202 202 202 202 202 202 255 202 202 202 202 202 202 202 202 202 202 202 202 202 202 202 202 202 202 
202 202 202 0 202 202 202 202 202 202 202 0 202 52 52 52 
255 52 0 52 255 52 52 52 52 255 52 52 52 127 127 255 
127 255 255 0 127 0 127 127 127 127 52 52 52 52 52 52 
52 52 52 0 52 52 52 52 255 52 52 52 52 52 52 52 
52 52 0 52 52 52 52 0 52 52 52 255 52 202 0 202 
0 255 255 0 202 202 202 0 255 255 202 202 202 202 202 202 202 0 202 202 202 202 202 202 202 
202 202 202 202 202 202 255 202 202 202 202 202 202 52 52 52 
52 52 52 52 52 52 255 52 0 52 52 255 127 127 127 127 
127 127 127 127 127 127 127 255 127 0 127 52 52 52 52 0 
0 52 0 52 52 52 52 52 52 52 52 52 52 52 52 52 
52 52 52 52 52 52 52 52 52 52 52 52 52 202 202 202 
202 202 202 0 202 202 202 202 202 255 202 255 202 202 202 202 202 202 202 202 202 202 202 202 255 
202 202 202 202 202 0 202 202 202 202 255 202 202 52 52 255 
0 52 52 255 52 52 52 52 52 52 52 127 127 127 127 127 
255 127 127 127 127 127 127 127 127 127 0 127 52 52 52 52 
0 52 52 52 52 52 52 52 52 0 52 52 255 255 52 52 
52 52 52 52 52 52 52 52 52 52 52 255 52 202 202 202 
202 255 202 202 202 202 202 202 202 202 202 0 255 202 202 202 202 202 202 202 0 202 202 202 202 
202 202 202 202 0 202 202 202 202 202 202 255 202 52 52 52 
52 52 52 52 52 52 52 52 255 52 255 127 255 127 255 127 
127 0 127 0 127 127 127 127 127 127 127 127 52 52 255 52 
52 52 52 52 52 52 52 0 52 52 52 52 255 52 52 52 
52 52 52 0 52 52 255 52 52 52 52 52 52 202 202 202 
202 202 202 202 202 202 202 202 202 202 202 202 202 202 202 255 202 0 202 202 0 202 202 202 202 
202 202 202 202 202 202 202 202 202 202 202 202 202 52 52 52 
0 52 255 52 52 52 52 52 52 52 127 127 127 127 127 127 
127 127 127 127 127 127 127 127 127 127 127 127 127 52 52 52 
52 52 255 255 52 52 52 52 52 52 52 52 52 52 52 52 
52 52 52 52 52 52 52 52 255 52 52 52 52 202 202 202 
202 202 202 202 202 202 202 202 202 0 202 255 0 202 202 202 202 202 202 202 202 255 202 202 202 
202 202 202 202 202 202 202 202 202 202 0 202 202 0 52 0 
52 52 52 52 52 52 52 52 255 127 127 127 127 127 127 127 
127 127 127 127 127 255 127 127 127 127 0 127 127 127 52 52 
52 52 52 52 52 52 255 52 52 52 52 52 0 52 52 52 
52 52 255 52 52 52 52 52 52 52 52 255 255 202 202 202 
202 202 202 202 202 202 202 202 202 255 255 202 202 202 202 202 202 202 202 202 202 202 202 0 202 
202 202 202 255 202 202 202 202 202 202 0 202 0 52 255 52 
52 52 52 52 52 52 52 52 52 127 127 127 127 127 127 127 
255 127 127 127 127 127 127 127 127 127 127 127 127 127 52 52 
52 52 52 52 52 52 0 52 52 52 52 255 52 52 52 52 
52 52 52 52 52 52 52 52 52 52 52 52 255 202 202 202 
202 202 202 202 202 202 202 255 202 202 202 255 202 202 202 202 202 202 202 202 202 202 202 202 202 
202 202 202 202 202 202 202 202 202 202 202 202 202 52 52 52 
255 52 52 52 52 52 255 255 127 255 127 127 127 127 127 127 
127 127 127 127 127 127 127 127 127 127 127 127 255 127 127 0 
52 52 52 52 52 52 52 52 0 52 52 52 52 52 52 52 
52 0 0 52 52 52 52 52 52 52 0 52 52 202 202 202 
202 202 255 202 202 202 202 202 202 202 202 202 202 202 202 202 202 202 255 202 202 202 202 202 202 
202 202 202 202 202 202 202 202 202 202 202 202 202 52 52 52 
255 52 0 52 255 52 52 0 0 127 127 255 127 0 127 127 
127 255 127 255 127 127 127 255 127 127 127 127 127 127 127 127 
255 52 52 52 52 52 52 52 0 52 52 52 52 52 52 52 
52 52 52 0 52 52 52 52 52 52 255 52 52 202 202 202 
202 202 0 0 202 202 202 255 202 202 202 202 202 202 0 202 202 202 202 202 202 255 202 202 202 
202 202 202 202 202 202 202 202 202 202 202 202 202 52 52 52 
52 52 255 52 52 52 0 127 127 127 127 127 127 127 127 127 
127 127 127 127 255 127 0 127 127 127 127 127 127 127 127 255 
52 255 52 52 52 255 255 52 52 52 52 52 52 52 52 52 
52 52 52 52 52 52 52 52 52 52 52 255 52 202 202 0 
202 202 202 202 202 202 202 202 202 202 202 202 202 202 202 0 202 202 202 202 202 202 202 202 202 
202 202 202 202 202 202 202 202 202 202 202 255 202 52 52 52 
52 52 52 52 52 52 127 127 127 127 127 0 127 127 127 127 
127 127 255 127 0 127 255 127 127 127 127 0 0 0 127 127 
127 52 52 52 52 52 255 0 52 52 52 52 52 52 52 52 
0 0 0 52 52 52 52 52 52 52 52 52 255 202 202 202 
202 202 202 202 202 202 202 202 202 202 202 0 202 202 0 202 202 202 0 202 202 202 202 202 202 
202 202 255 202 202 202 202 202 255 255 202 202 202 52 52 52 
52 52 52 52 52 127 127 0 127 127 255 127 255 127 127 127 
0 127 127 127 127 127 127 127 127 127 127 255 127 127 127 127 
127 52 52 52 52 52 52 255 52 52 52 52 52 52 52 52 
255 52 52 0 0 52 52 52 52 52 52 52 52 202 202 202 
202 202 202 202 255 202 202 202 202 202 202 202 202 202 202 202 202 202 202 202 202 202 202 202 202 
202 202 202 202 255 202 202 202 202 202 202 202 202 52 52 52 
52 255 52 52 52 127 127 127 127 0 127 127 0 127 127 127 
0 127 127 127 127 127 127 127 127 255 127 127 127 127 127 127 
127 255 52 52 52 52 52 52 52 52 52 52 52 52 52 52 
52 0 52 52 52 52 255 52 52 52 52 0 52 0 0 202 
202 202 202 202 202 202 255 202 202 202 202 202 202 0 202 202 202 202 0 202 202 202 255 202 202 
202 0 202 202 202 202 202 202 202 202 202 202 202 52 255 255 
52 52 52 52 127 127 127 127 127 127 127 127 127 255 127 127 
127 127 127 255 127 127 0 127 127 127 127 127 127 127 127 255 
127 127 127 52 52 52 52 0 52 52 52 52 255 52 0 255 
52 52 52 255 52 52 52 52 52 52 52 52 52 202 202 202 
202 202 202 255 202 202 202 202 202 0 202 255 255 202 202 202 202 202 202 0 202 255 202 0 255 
202 202 202 202 202 202 202 202 202 202 202 202 202 52 52 52 
52 0 0 127 127 255 127 127 127 255 127 127 127 127 127 127 
127 127 127 127 127 127 0 127 255 127 127 127 127 127 127 0 
127 127 127 52 0 52 255 52 0 255 52 52 52 52 52 52 
52 0 52 52 52 0 52 255 52 52 52 52 52 255 202 202 
202 0 202 202 202 202 202 89 202 202 202 202 202 202 202 255 202 202 202 202 202 202 202 202 202 
255 202 202 202 202 202 255 255 202 0 0 255 255 255 52 52 
52 52 127 127 0 0 127 127 127 127 127 127 127 127 127 127 
127 127 127 127 127 127 127 127 127 127 127 127 127 0 127 0 
127 127 127 127 52 52 52 52 255 0 52 52 52 255 52 52 
52 52 52 52 52 52 52 52 52 52 52 52 52 202 202 202 
202 202 202 89 89 0 89 89 202 202 202 202 202 0 202 255 202 202 202 202 0 202 202 0 202 
202 0 202 202 202 202 202 202 202 255 202 202 202 52 52 52 
52 52 127 127 127 127 0 127 127 0 127 127 127 127 127 127 
127 127 127 127 127 127 255 127 0 127 127 127 127 0 127 127 
127 127 255 127 127 52 52 52 52 52 52 0 52 52 52 52 
52 52 52 52 52 52 52 52 0 0 52 52 0 202 202 0 
89 89 89 89 89 89 89 89 202 255 202 202 0 202 202 255 202 202 202 202 202 202 202 202 202 
202 202 202 202 202 202 202 202 202 202 202 202 202 52 52 52 
52 127 127 0 127 127 127 127 127 127 127 0 127 127 127 127 
127 127 127 127 127 127 0 127 127 127 127 127 127 127 0 127 
255 127 127 255 127 52 52 52 52 52 52 52 52 52 52 52 
52 52 52 52 52 52 52 52 52 0 52 52 52 89 89 89 
89 0 255 89 255 89 0 89 202 202 202 202 202 202 202 202 202 202 202 255 202 202 202 202 202 
202 255 255 202 202 202 202 255 202 202 202 202 202 52 52 52 
127 255 127 255 255 127 127 127 127 127 0 127 0 127 127 127 
127 127 127 127 127 127 127 127 255 0 127 127 127 127 127 127 
127 127 127 127 127 127 52 52 255 52 52 255 52 52 52 52 
52 52 52 52 52 52 52 255 255 255 52 89 89 89 89 255 
89 89 89 255 89 89 89 89 202 202 202 202 202 255 202 202 255 202 202 202 255 202 202 202 202 
202 202 202 0 202 202 202 202 202 255 202 202 202 52 52 52 
127 127 127 127 127 255 255 127 127 127 127 127 127 127 255 127 
127 127 127 0 127 127 127 127 127 127 127 127 127 127 127 127 
127 127 0 127 127 127 127 255 52 52 52 52 52 52 52 52 
52 52 52 0 52 52 52 52 52 0 89 89 89 89 89 89 
89 89 89 89 89 89 89 89 202 202 202 202 202 202 202 255 202 255 202 202 202 202 202 202 202 
255 202 202 202 202 202 202 202 202 202 0 202 202 52 52 127 
127 127 127 127 127 255 127 127 127 127 127 127 127 127 255 0 
255 0 127 127 0 255 127 127 127 127 127 127 127 127 127 127 
255 127 127 127 127 0 127 52 52 52 52 52 52 52 52 0 
52 52 52 52 52 255 52 255 89 89 89 89 255 89 89 89 
89 255 89 0 89 89 89 89 202 202 202 202 202 202 0 202 202 202 202 202 202 202 202 202 202 
202 202 202 202 255 202 202 202 202 202 202 0 202 52 127 255 
127 127 127 0 127 127 127 127 127 127 127 127 127 127 127 127 
127 127 127 0 127 127 127 127 127 255 127 127 127 127 127 127 
127 0 127 127 127 127 127 127 52 52 52 52 52 52 52 52 
0 52 255 52 52 52 89 89 0 89 89 89 89 89 89 89 
89 89 89 89 89 89 89 89 202 202 202 202 0 202 202 255 0 202 255 0 255 202 202 202 202 
202 202 202 202 202 202 202 202 202 202 255 202 202 0 127 127 
127 127 255 127 127 127 127 127 0 127 127 127 127 127 127 127 
127 127 127 127 0 0 127 127 127 127 127 127 255 127 255 127 
127 127 127 127 127 127 127 127 127 52 52 255 52 52 52 52 
255 52 52 52 52 255 89 0 255 89 89 89 255 89 255 89 
89 89 89 89 89 89 0 89 202 202 202 202 0 255 0 255 202 202 202 202 202 202 202 202 202 
202 0 202 202 202 202 202 202 202 0 202 202 202 127 127 127 
127 127 127 0 127 127 127 255 127 127 127 255 127 127 127 127 
127 255 127 127 127 127 255 127 255 127 255 127 127 127 127 127 
0 127 127 127 127 127 0 127 127 52 52 52 52 52 52 52 
52 52 52 89 89 89 0 89 89 89 89 89 89 89 89 255 
89 255 89 89 89 89 0 89 0 202 202 202 202 255 202 202 202 202 202 202 255 202 202 202 202 
202 202 202 202 202 0 202 202 202 202 202 202 127 127 127 127 
127 127 0 127 0 127 255 127 127 127 127 127 127 127 127 127 
127 127 127 127 127 127 127 0 127 127 127 127 127 127 127 127 
127 127 127 127 127 255 127 127 127 127 52 52 52 52 255 52 
52 52 89 89 89 89 89 89 255 89 89 89 89 89 255 89 
89 89 89 255 89 89 89 255 202 202 202 255 202 202 202 202 202 202 202 202 202 202 202 202 202 
202 0 202 202 202 202 255 202 255 0 202 202 255 127 127 127 
127 127 127 127 127 127 127 127 127 127 127 127 127 127 127 127 
127 127 127 127 127 255 127 127 127 127 127 127 127 127 127 0 
127 127 127 127 127 127 255 127 127 127 52 52 52 52 255 52 
52 89 0 89 89 89 89 89 89 0 89 89 89 89 89 0 
89 89 89 89 89 89 89 89 202 255 202 202 202 202 202 202 202 202 202 202 202 202 202 202 202 
202 0 202 202 202 202 202 202 202 202 202 127 127 127 127 255 
127 127 127 127 127 127 127 127 127 127 127 127 0 127 127 127 
127 0 127 127 127 127 127 127 127 127 127 255 127 127 127 127 
255 0 127 127 255 255 127 127 127 127 127 52 52 52 52 52 
89 0 89 89 89 89 89 89 89 89 255 89 89 89 89 89 
89 89 89 255 89 255 0 89 202 202 202 202 202 0 202 202 202 255 202 202 202 202 202 255 202 
202 202 202 255 202 202 202 0 202 202 127 127 127 127 127 127 
127 255 127 127 127 127 127 127 127 127 0 127 127 127 255 127 
127 127 127 127 127 127 127 127 127 127 127 127 127 127 127 127 
127 127 127 127 127 127 127 127 127 255 127 127 52 52 52 89 
89 0 0 89 0 89 89 89 0 89 255 89 89 89 89 89 
89 89 89 89 255 89 0 89 202 202 0 202 202 0 202 202 202 202 202 202 202 202 202 202 202 
202 202 202 202 202 0 202 202 202 202 255 127 127 255 127 0 
127 127 127 127 127 127 127 127 127 127 127 127 127 127 127 0 
127 0 127 127 127 127 255 127 127 127 127 0 127 127 127 127 
127 127 127 127 127 127 127 127 127 127 127 127 52 52 89 89 
89 89 89 89 89 89 89 89 89 89 89 89 0 89 89 89 
89 89 89 89 89 89 89 89 202 202 202 202 202 255 202 202 202 202 202 255 202 0 0 202 202 
202 202 0 202 202 202 202 202 202 127 127 127 255 127 127 255 
127 127 127 127 127 127 127 127 127 255 0 255 127 127 255 127 
127 127 127 0 127 127 127 127 127 255 127 127 127 255 127 127 
127 127 127 0 127 127 0 127 127 127 127 127 127 89 89 89 
89 255 89 89 255 89 89 89 89 89 89 89 255 0 89 89 
0 89 89 89 89 89 89 89 202 202 202 202 202 202 202 202 0 202 202 202 202 202 202 202 202 
202 202 202 202 202 255 202 255 127 127 127 127 127 127 127 127 
127 127 255 127 127 127 127 127 127 127 0 127 127 127 127 127 
127 127 0 127 255 0 127 255 127 127 127 127 255 127 127 127 
127 127 127 127 127 127 127 127 127 127 127 127 127 127 89 0 
89 89 0 89 89 89 89 89 89 89 0 89 89 255 89 89 
89 89 89 89 89 89 0 89 202 202 202 202 202 202 202 202 202 202 202 202 0 202 202 202 202 
202 202 202 202 255 202 202 0 255 255 127 127 127 127 127 127 
127 127 127 127 127 127 127 127 127 127 127 127 127 127 127 127 
0 127 127 127 127 255 127 127 127 127 127 127 127 127 127 127 
127 127 127 127 127 127 127 127 127 127 127 255 127 127 0 89 
0 89 89 89 89 89 89 89 89 89 89 89 89 89 89 89 
89 89 89 89 89 89 89 89 202 202 202 202 202 202 202 202 202 0 202 202 202 202 0 202 202 
255 202 202 255 202 202 202 127 127 127 127 127 127 127 127 127 
0 127 127 127 127 127 127 127 127 127 127 127 127 255 127 127 
127 255 127 127 127 127 127 127 127 127 127 127 127 127 127 255 
127 127 127 0 127 127 127 127 127 0 255 127 127 127 127 89 
89 255 89 89 89 89 255 89 89 89 89 89 89 89 89 89 
89 89 89 89 89 89 89 89 202 202 255 202 202 202 202 202 202 202 202 255 202 255 202 202 202 
202 202 202 202 202 202 127 127 127 127 127 127 127 127 127 127 
127 127 0 127 127 255 127 127 127 127 127 127 127 127 255 127 
127 127 127 127 127 127 255 127 127 127 127 127 127 127 127 127 
127 127 127 127 127 127 127 127 127 127 127 127 127 127 127 127 
89 89 89 89 89 89 89 89 89 0 89 89 89 89 89 89 
255 89 89 89 89 89 255 89 202 0 202 255 202 202 202 202 202 202 202 0 202 202 202 202 202 
202 202 0 202 202 127 255 127 127 127 127 255 127 255 127 127 
127 127 127 127 127 127 255 127 127 255 255 127 127 127 127 255 
127 127 127 255 0 255 127 127 127 127 127 127 127 127 255 127 
127 127 0 127 127 127 127 127 127 127 0 255 127 127 127 255 
255 89 89 89 89 89 89 89 89 89 89 89 89 89 89 89 
89 255 89 89 0 89 89 89 202 202 0 255 202 202 202 202 202 202 202 202 202 202 202 202 202 
255 202 202 255 202 127 127 127 127 255 127 127 127 0 0 127 
127 127 127 127 127 127 127 127 127 127 127 127 127 127 0 127 
127 127 127 127 127 127 127 127 127 127 127 127 127 127 127 127 
127 127 127 127 0 255 255 127 127 127 127 127 127 127 127 127 
127 89 89 89 89 0 89 89 0 89 89 0 255 89 89 89 
89 89 89 89 89 89 89 0 202 255 0 202 202 202 202 202 202 202 202 202 202 202 202 202 202 
202 0 202 202 127 127 127 127 127 127 127 127 127 255 127 127 
127 127 127 127 127 127 127 127 127 127 127 127 127 127 127 127 
127 127 127 127 127 127 127 127 127 127 255 127 255 127 127 127 
127 127 127 127 127 127 127 255 127 127 127 127 127 127 127 127 
127 89 0 89 89 89 255 255 0 89 89 255 89 89 89 89 
89 89 89 89 89 89 89 89 202 202 202 202 202 202 202 202 255 202 202 202 202 202 202 202 0 
202 202 0 0 255 127 127 127 127 127 127 127 127 255 127 127 
255 255 127 127 127 127 255 127 127 127 127 127 127 127 127 127 
127 127 127 127 127 127 127 127 127 127 127 0 255 127 127 127 
127 127 127 127 127 127 127 127 127 127 127 127 127 127 127 255 
127 127 89 89 89 255 89 89 89 89 89 89 89 255 89 89 
89 89 89 89 89 89 89 89 202 202 202 255 202 202 202 202 0 202 202 255 202 202 202 202 202 
202 202 202 127 127 127 127 127 127 127 127 127 127 127 127 0 
127 0 127 127 127 127 127 127 127 127 127 127 255 127 127 127 
127 127 127 127 127 127 255 127 127 127 127 127 127 255 127 127 
255 127 127 127 127 127 127 127 127 255 127 127 255 127 127 127 
127 127 127 89 89 89 89 89 89 89 255 89 0 89 89 89 
89 0 255 255 89 89 89 89 202 202 202 202 0 202 202 202 202 202 255 202 202 202 202 202 202 
202 202 127 127 127 127 127 127 127 0 127 127 127 127 127 127 
127 127 127 255 127 127 127 127 127 127 127 127 127 127 127 127 
127 127 127 127 127 127 127 0 127 255 127 127 127 127 127 127 
127 127 127 127 127 127 127 0 127 127 127 127 127 127 127 127 
127 127 127 89 89 89 89 89 89 89 89 89 0 89 89 89 
89 89 89 89 89 89 89 89 0 202 202 202 202 202 202 202 202 0 202 202 202 202 202 0 202 
202 127 127 255 127 127 127 127 127 127 255 127 255 127 0 255 
127 127 255 255 127 127 127 127 127 127 127 127 255 127 0 127 
127 127 127 127 127 255 127 127 127 127 0 127 127 0 127 127 
0 127 127 0 127 127 255 127 0 127 127 127 127 0 0 127 
127 127 127 127 89 0 89 0 89 0 89 89 89 89 89 89 
89 89 89 89 89 89 89 89 202 202 202 202 202 202 255 202 202 255 202 202 202 202 202 202 202 
202 127 127 0 127 127 127 127 127 0 127 127 127 127 127 127 
127 127 127 127 127 127 127 127 127 127 127 0 127 127 127 127 
127 127 127 127 127 0 127 127 127 0 127 0 127 127 127 127 
127 127 127 255 127 127 0 127 255 127 127 127 127 127 127 127 
127 127 255 127 127 89 89 255 89 89 0 89 89 89 89 89 
89 89 0 89 89 89 89 89 202 202 202 255 202 0 202 202 202 255 202 202 202 202 202 0 202 
127 127 0 127 0 127 127 0 127 127 255 127 255 255 127 127 
127 127 127 127 127 127 255 0 127 127 127 127 127 127 127 127 
127 0 0 127 0 127 255 127 127 127 127 127 127 127 0 127 
127 127 127 127 127 255 127 127 127 127 127 127 127 127 127 127 
127 127 127 127 127 89 89 255 89 89 0 89 89 89 89 89 
89 89 89 89 89 89 89 255 202 202 202 202 202 202 202 202 202 202 202 202 202 202 202 255 255 
127 127 127 127 127 0 127 127 255 127 127 127 127 127 127 127 
127 127 127 127 127 127 127 127 255 127 127 127 127 255 127 127 
127 127 255 0 127 127 0 0 127 0 127 127 127 127 127 127 
255 127 127 127 127 127 127 127 127 127 127 127 127 127 127 127 
127 127 127 127 127 127 89 89 89 89 89 89 89 89 89 255 
89 89 89 89 89 89 89 89 202 202 202 202 0 202 202 202 255 202 202 202 0 255 202 202 127 
127 127 127 127 127 255 255 127 127 127 255 127 0 127 127 127 
127 127 127 127 127 127 127 127 127 127 127 127 127 127 127 127 
127 127 127 127 127 127 127 127 127 127 127 255 127 127 127 127 
127 127 127 127 0 127 255 127 127 127 127 127 255 127 127 127 
127 0 127 127 127 127 127 89 89 89 89 89 0 89 89 89 
89 89 89 89 89 89 0 89 202 202 202 202 202 202 202 202 202 202 202 202 202 202 202 127 127 
127 127 127 127 127 127 127 127 127 127 127 127 127 255 127 127 
127 127 255 127 127 127 127 127 255 127 127 127 127 127 127 0 
127 127 127 127 127 127 127 127 127 0 127 127 127 127 127 127 
0 127 0 127 127 127 127 0 0 255 127 127 127 255 127 127 
127 127 127 127 127 127 255 89 89 255 89 89 89 89 0 89 
0 89 89 89 89 89 89 255 202 202 202 202 202 202 202 202 202 255 202 202 202 202 127 127 255 
127 127 255 127 127 255 127 127 127 127 127 255 127 255 255 127 
127 127 127 255 127 127 127 127 127 127 127 127 127 0 127 127 
127 127 127 127 127 127 127 127 127 127 127 127 127 127 127 127 
255 127 127 0 127 0 127 0 127 127 127 127 127 127 255 127 
0 127 127 127 127 127 255 127 255 89 0 89 89 89 255 89 
89 89 89 89 89 0 89 89 52 52 52 52 52 52 52 52 52 52 52 52 52 127 127 127 127 
127 255 127 127 127 127 0 255 127 127 255 0 127 127 127 127 
127 127 0 127 127 127 127 127 127 127 127 127 127 127 127 127 
127 127 127 127 127 127 127 255 127 127 127 127 0 127 127 127 
0 127 127 127 127 127 127 127 127 255 127 127 127 127 127 127 
127 127 127 127 127 127 127 127 127 89 89 89 89 89 89 89 
89 89 89 89 89 255 89 89 52 52 52 52 52 52 52 255 0 52 0 52 52 127 127 127 127 
127 127 127 127 127 0 127 127 127 127 127 255 0 127 127 127 
0 127 127 127 127 0 127 127 127 127 127 127 127 255 127 127 
127 127 127 127 0 255 127 127 127 127 127 0 127 127 127 127 
127 127 127 127 127 0 255 255 127 255 127 0 127 127 127 127 
127 127 0 127 127 0 127 127 127 89 89 89 89 89 255 89 
89 89 89 89 89 89 89 89 52 52 52 52 255 52 255 52 52 0 52 52 127 0 127 0 127 
127 127 127 255 127 127 255 127 127 127 127 127 127 127 127 127 
127 127 0 127 127 127 127 127 127 127 127 0 127 127 127 127 
127 127 127 127 0 127 127 255 127 127 127 127 127 127 127 127 
127 127 127 127 127 127 127 127 127 127 127 127 127 127 127 127 
127 127 127 127 127 127 127 127 127 127 255 89 89 255 89 255 
89 89 89 89 89 89 89 0 52 52 0 52 52 52 255 52 52 52 52 127 127 127 127 255 127 
0 0 127 127 127 127 127 127 127 127 127 127 255 127 127 127 
127 127 127 127 127 127 127 127 127 127 127 127 127 127 127 127 
127 127 127 255 127 127 127 127 127 127 127 127 127 127 0 127 
127 127 127 127 127 127 127 127 127 127 127 127 127 127 127 127 
127 127 127 255 255 127 127 0 255 127 89 89 89 255 89 89 
89 89 89 89 89 89 89 89 52 0 52 0 52 52 52 52 52 52 52 127 127 127 127 127 127 
127 127 127 255 127 127 127 127 127 127 127 127 255 127 127 127 
127 127 127 127 127 127 127 127 127 127 127 127 127 255 127 127 
255 127 127 255 127 127 127 127 127 127 127 127 127 127 127 0 
127 127 127 127 127 0 127 127 127 127 127 127 127 0 127 255 
127 127 127 127 255 0 127 127 127 0 127 89 89 89 89 89 
89 89 89 89 89 89 89 89 52 52 52 52 52 52 52 52 52 52 127 255 0 127 127 127 127 
127 255 127 127 127 127 127 127 127 127 127 127 127 127 127 127 
127 127 127 127 127 0 0 127 127 127 127 127 127 127 127 127 
127 127 0 0 127 255 127 127 127 127 127 0 127 127 127 127 
127 127 127 127 127 127 127 127 127 127 127 255 127 127 0 127 
127 127 127 127 127 127 127 255 127 127 127 127 89 89 89 89 
89 255 89 89 89 89 89 89 52 52 52 52 52 255 52 52 52 127 127 127 127 127 127 127 127 
127 127 127 0 127 127 0 127 0 127 127 127 127 127 0 127 
127 127 127 127 127 255 127 127 255 127 127 0 127 255 255 127 
127 127 127 127 127 127 127 127 127 127 127 127 127 127 127 127 
127 127 127 127 127 127 127 127 127 127 127 127 127 127 127 127 
255 127 127 127 127 127 127 127 0 127 127 0 89 89 89 89 
255 89 89 89 89 89 89 89 52 52 52 52 52 52 52 52 0 127 127 127 127 255 127 127 127 
127 0 127 127 127 127 127 127 127 127 127 127 0 127 127 255 
255 127 127 127 127 0 127 0 127 127 127 127 127 127 127 127 
255 127 127 255 127 127 127 127 127 127 127 127 0 127 127 127 
127 0 127 127 255 255 127 127 255 127 127 255 127 127 255 127 
127 127 127 127 127 127 127 127 127 127 127 127 127 89 89 89 
89 89 89 255 89 89 255 89 52 52 52 52 0 52 255 52 127 127 127 127 127 0 0 0 127 
127 255 127 127 127 127 127 127 127 127 127 127 255 127 127 255 
127 127 127 127 127 127 0 127 127 127 127 255 127 127 255 255 
127 127 127 127 127 127 0 127 127 127 127 0 127 255 127 127 
127 255 127 127 127 127 127 127 127 255 255 255 127 127 255 127 
127 127 127 127 0 127 127 127 127 127 127 127 127 127 0 89 
89 89 89 89 89 89 89 89 52 52 255 52 255 52 52 127 127 127 127 0 0 127 127 127 127 
127 127 127 127 127 127 0 0 127 127 127 255 127 127 127 127 
127 127 127 127 127 127 127 127 127 127 127 127 127 127 127 0 
0 127 127 127 127 127 127 127 127 127 0 127 127 127 255 255 
127 127 127 0 255 127 127 127 127 127 127 127 127 127 127 127 
127 127 127 127 127 127 127 127 127 127 127 127 127 255 89 89 
89 89 89 89 89 89 89 89 52 52 52 0 52 52 52 0 127 127 127 127 127 127 127 0 127 
127 127 127 127 127 127 127 127 127 0 127 127 127 127 255 127 
0 127 127 127 127 127 127 127 127 127 255 127 127 127 127 127 
127 127 127 127 127 127 127 127 127 127 127 255 127 127 127 127 
127 127 127 127 0 0 255 127 127 127 127 127 127 127 127 127 
127 127 127 127 0 127 127 127 127 255 127 127 127 127 255 89 
89 89 89 89 89 255 89 89 52 52 52 52 52 255 127 127 127 127 127 127 127 127 127 127 127 
127 127 127 127 127 127 127 0 127 127 127 127 127 127 127 0 
127 127 127 127 127 127 127 127 0 127 127 255 127 127 127 127 
255 127 255 127 255 127 127 127 255 127 0 127 127 255 255 127 
127 127 127 127 255 127 0 127 255 127 127 127 127 127 127 127 
255 127 127 127 127 127 127 0 127 127 127 127 127 127 127 127 
89 89 89 89 255 89 255 89 52 52 52 52 52 127 127 127 127 127 127 127 127 127 127 127 127 
127 127 127 127 127 127 255 127 127 127 127 127 255 127 0 127 
127 127 127 127 0 127 127 255 127 127 127 127 0 127 127 127 
0 127 0 255 0 127 127 127 127 127 127 255 127 255 127 127 
127 255 127 127 127 255 127 127 255 127 127 127 127 127 127 127 
127 127 127 127 127 255 127 127 127 127 127 127 127 127 127 127 
255 255 89 89 89 89 89 89 52 52 52 52 52 127 127 127 127 127 127 0 127 127 127 255 127 
127 127 127 127 127 127 0 127 127 127 127 127 127 127 127 127 
127 127 127 127 127 127 127 127 127 127 0 127 127 127 127 127 
127 127 127 127 127 127 127 127 127 0 127 127 127 127 127 127 
127 127 127 127 127 127 127 127 0 127 0 127 127 127 127 255 
127 127 0 127 127 127 127 127 255 127 127 0 0 127 127 127 
127 89 0 89 89 89 89 89 52 52 0 52 127 127 127 127 127 127 127 127 127 0 127 127 127 
127 0 127 127 127 0 127 0 127 127 127 127 127 255 127 127 
127 255 127 127 127 127 127 127 127 127 127 127 0 127 127 127 
127 127 127 255 127 127 127 127 127 127 127 127 127 127 127 127 
127 127 127 127 127 127 255 127 127 127 0 127 127 127 127 127 
127 127 127 127 127 127 127 127 127 127 127 127 127 127 127 127 
127 127 0 89 255 89 89 89 255 52 52 127 127 0 127 0 127 127 255 127 127 0 127 127 127 
127 255 127 127 127 127 255 127 127 127 127 127 0 127 127 127 
127 127 127 127 127 127 127 127 127 127 127 127 255 127 127 127 
255 127 127 127 127 127 127 127 127 127 127 127 127 127 127 127 
0 127 127 127 127 127 127 127 127 127 127 127 127 127 127 127 
127 127 127 127 127 127 127 127 127 0 127 127 127 127 127 127 
127 127 89 89 89 89 89 89 52 52 127 127 127 127 127 127 127 0 127 127 127 127 255 127 127 
127 127 127 127 127 0 127 127 127 127 127 127 127 127 127 127 
127 127 127 127 127 255 127 127 255 127 127 127 127 127 127 127 
127 255 127 127 127 127 127 127 127 127 0 0 127 127 127 127 
0 127 127 127 127 127 127 127 127 127 127 255 127 0 127 127 
127 127 127 127 127 127 127 0 127 127 127 127 255 127 127 127 
127 127 127 89 89 89 89 89 52 52 127 127 127 127 127 255 127 127 127 127 127 127 127 127 127 
255 127 127 127 127 127 255 127 255 127 127 127 127 127 0 127 
127 127 127 127 127 127 127 127 127 127 127 127 127 127 127 127 
127 127 127 127 127 127 255 127 127 127 127 127 127 127 127 127 
127 255 127 127 127 127 127 127 127 127 0 127 127 127 255 127 
127 127 127 127 127 127 127 127 0 127 255 127 127 0 127 127 
127 127 127 89 89 89 89 0 52 127 127 127 127 255 127 127 127 255 127 127 255 127 127 127 127 
127 127 127 127 127 127 127 127 255 127 127 127 127 127 255 127 
127 127 127 127 127 127 127 127 127 127 0 127 127 127 127 127 
127 127 127 127 127 127 127 127 0 0 127 127 255 127 127 127 
127 127 127 127 127 127 127 127 255 127 127 127 127 127 127 127 
127 127 127 127 255 127 127 127 127 255 127 0 255 127 127 127 
127 127 255 127 89 89 89 89 255 127 127 127 127 127 0 127 255 127 127 127 0 127 127 127 255 
0 127 0 127 127 127 127 127 127 127 127 127 127 127 127 127 
127 127 127 127 127 127 255 127 127 127 127 127 0 127 127 127 
127 127 127 127 255 127 127 127 127 127 127 127 127 127 127 127 
127 127 127 127 255 127 127 127 127 127 127 127 127 127 127 127 
127 127 127 127 127 127 127 127 127 127 127 127 127 0 127 127 
127 127 127 127 127 89 89 89 127 127 127 0 127 127 127 127 127 127 255 127 0 127 127 127 127 
127 255 127 127 127 127 127 127 127 127 127 127 127 127 127 127 
127 127 127 127 127 127 127 127 127 127 127 127 127 127 127 127 
127 127 127 127 127 127 127 127 127 127 127 127 127 255 127 127 
255 127 127 255 127 127 127 127 127 127 127 127 127 127 127 127 
127 127 127 127 127 127 127 127 127 127 127 127 127 127 127 127 
255 127 127 127 127 89 89 89 127 127 255 127 127 127 127 127 0 127 127 127 127 127 255 127 127 
127 127 127 127 127 127 127 127 127 127 127 127 127 127 127 127 
127 127 0 127 127 127 127 127 127 0 127 127 127 127 127 127 
127 127 127 127 127 127 127 127 127 127 255 127 255 127 0 127 
127 127 127 127 127 127 127 127 127 127 127 127 127 127 127 127 
127 127 127 127 127 255 127 127 0 127 127 127 127 127 127 127 
127 127 127 127 127 127 89 89 52 52 52 52 52 52 52 52 52 52 52 52 52 52 52 52 52 
0 0 52 52 52 52 255 52 52 52 52 52 255 202 202 202 
255 202 202 255 0 255 202 202 202 202 255 255 202 202 202 255 
202 255 202 202 202 255 202 202 255 0 202 202 202 202 202 202 
0 202 202 202 202 202 89 89 89 89 89 255 89 0 89 89 
89 89 89 89 89 89 89 89 89 89 89 89 89 89 89 89 
89 255 89 89 89 255 89 0 52 52 52 52 52 255 52 52 52 255 52 52 52 52 52 52 52 
52 52 52 52 52 52 52 52 0 52 52 52 52 202 202 202 
0 202 202 202 202 202 255 202 202 202 202 202 202 202 202 0 
202 202 202 202 202 202 202 202 202 202 0 202 202 202 202 202 
202 202 202 202 202 0 255 89 89 89 89 89 89 0 89 89 
89 89 89 89 89 89 89 89 255 89 89 255 89 89 89 0 
89 89 89 89 89 89 89 89 52 52 52 52 52 52 52 52 52 52 52 52 52 52 0 52 52 
52 52 52 52 52 52 255 52 52 52 52 52 52 202 202 255 
255 202 202 202 0 202 202 202 202 202 202 0 202 202 202 202 
202 202 202 0 202 255 202 202 202 202 202 202 255 0 202 202 
202 202 202 202 202 202 202 89 89 0 89 89 89 0 0 89 
89 89 89 89 89 89 255 89 89 89 89 89 89 89 89 255 
89 89 89 89 89 89 89 89 255 255 52 52 52 255 52 52 52 0 52 52 52 52 0 255 52 
52 52 255 52 52 52 52 52 52 0 52 52 52 202 202 0 
202 202 202 202 202 202 202 0 202 202 202 202 202 202 202 202 
202 202 202 202 0 202 202 255 202 202 202 202 202 202 202 202 
202 202 255 202 255 0 202 202 89 89 255 89 89 89 89 89 
89 89 0 89 89 89 255 89 89 89 89 89 89 89 89 89 
89 89 89 89 89 89 89 89 52 52 52 52 52 52 52 255 52 52 52 52 0 52 52 52 52 
52 52 52 52 52 52 52 52 52 0 52 52 52 202 202 202 
0 0 202 202 202 202 202 202 202 255 202 0 202 202 202 202 
202 202 202 255 202 202 202 255 202 202 202 202 202 202 202 0 
0 202 202 202 202 255 202 202 89 89 89 89 89 89 0 89 
89 89 89 89 89 89 89 89 0 89 89 89 89 89 89 89 
89 89 89 89 89 255 0 89 255 52 0 255 52 52 52 52 52 52 0 52 0 52 52 52 52 
0 255 52 52 52 52 52 52 52 52 52 52 52 255 202 202 
255 202 202 202 202 202 202 0 202 202 202 202 202 0 202 202 
202 202 202 202 202 202 202 202 202 202 202 202 202 202 255 202 
202 202 202 202 202 202 202 202 202 89 89 89 89 89 0 89 
89 89 89 89 255 89 89 89 89 0 89 89 89 89 89 89 
89 89 89 89 89 89 89 89 52 52 52 52 52 52 52 255 52 52 255 52 0 52 52 52 52 
52 52 52 52 52 52 52 52 52 52 52 255 52 202 202 202 
202 202 202 202 202 202 202 202 202 202 202 202 255 202 202 202 
202 0 202 202 202 202 202 202 202 202 202 202 202 202 255 202 
202 202 202 255 255 255 255 0 0 89 89 89 89 89 89 89 
89 255 89 89 89 89 89 89 89 255 89 0 89 89 89 89 
89 89 89 89 89 89 89 89 52 52 52 52 52 0 52 52 52 52 52 52 52 52 0 52 52 
52 52 52 52 255 52 52 52 52 52 52 52 52 255 202 202 
255 202 202 202 255 202 202 202 202 0 255 202 255 202 0 255 
255 202 202 202 202 202 202 202 202 202 202 0 202 255 202 202 
202 0 202 202 202 202 202 255 202 202 89 89 89 89 89 89 
89 89 89 89 89 89 89 89 255 0 89 89 89 89 89 89 
255 89 89 89 89 89 89 89 52 52 52 0 52 52 52 52 52 52 52 52 52 52 52 52 52 
255 52 52 52 255 52 52 52 52 52 52 52 52 0 202 255 
202 202 202 202 255 255 202 0 202 202 202 202 202 202 0 202 
202 0 202 202 202 202 202 202 0 202 0 202 202 202 202 202 
255 0 202 202 202 202 255 202 202 202 255 89 89 89 89 89 
89 89 89 89 255 89 89 89 255 89 0 89 89 89 89 89 
89 255 89 255 89 0 89 89 52 52 52 52 52 52 52 52 52 52 52 52 255 255 52 52 0 
255 52 255 52 52 52 52 0 255 255 255 52 52 202 202 202 
202 202 202 202 202 202 202 202 202 202 202 202 202 255 202 202 
202 202 202 202 202 202 0 202 202 202 202 202 202 202 202 202 
202 202 202 202 202 202 202 202 202 202 202 255 89 89 255 89 
89 89 89 0 89 0 0 89 89 89 89 89 89 89 255 89 
89 89 89 0 0 89 89 89 