P2
# Created by IrfanView
75 80
255
255 255 0 255 255 255 255 255 255 255 255 255 255 255 255 255 255 
255 255 255 255 255 255 255 255 255 255 255 255 255 255 255 255 
255 255 255 255 255 255 0 255 255 255 255 255 255 0 255 255 
255 255 255 255 255 255 255 255 255 255 255 255 255 255 255 255 
255 255 255 255 255 255 255 255 255 255 255 255 255 255 255 255 255 255 255 255 255 255 255 255 255 255 255 
255 255 255 255 255 255 255 255 255 255 255 255 255 255 255 255 
255 255 255 255 255 255 255 255 255 0 255 255 255 255 255 255 
255 255 0 255 255 255 255 0 255 255 0 255 255 255 255 0 
255 255 255 255 255 255 255 255 255 255 255 255 255 255 255 255 255 255 255 255 255 0 255 255 255 255 255 
255 255 255 255 255 255 255 255 255 255 255 255 255 255 255 255 
255 255 255 255 255 255 255 255 255 255 255 255 255 0 255 255 
255 255 255 255 0 255 255 255 255 255 255 255 255 255 255 255 
255 255 255 255 255 255 255 255 255 255 255 255 255 255 255 255 255 255 255 255 255 255 255 255 255 255 255 
255 255 255 255 255 255 254 253 255 255 255 255 251 254 255 255 
255 252 254 0 255 254 254 255 253 0 255 255 255 255 255 255 
255 255 0 255 255 255 255 255 255 255 255 255 255 255 255 255 
255 255 255 255 255 255 255 255 255 255 255 255 255 255 255 255 255 255 255 255 255 255 255 255 255 255 255 
255 255 255 255 255 255 255 255 251 254 253 255 255 255 254 255 
255 255 253 255 0 253 251 255 255 255 254 255 253 254 255 255 
255 255 255 255 255 255 255 0 255 255 255 255 255 255 255 255 
255 255 255 255 255 255 0 255 255 255 255 255 255 255 255 255 255 255 255 255 255 255 255 255 255 255 255 
255 255 255 255 255 255 255 255 255 254 255 253 254 254 255 255 
255 253 255 254 255 251 255 253 253 255 254 253 254 255 255 255 
255 255 255 255 255 255 255 255 0 255 255 255 255 255 0 255 
255 255 255 255 0 255 255 255 255 255 255 255 255 255 255 255 255 255 255 255 255 255 255 255 255 255 0 
255 255 255 255 255 255 254 254 255 255 0 229 215 212 215 230 
228 226 227 248 254 254 254 254 255 255 255 0 0 252 255 255 
255 255 255 255 255 255 255 255 255 255 255 0 255 255 255 255 
255 255 255 255 255 255 255 0 0 255 255 255 255 255 255 255 255 255 255 0 255 255 255 255 255 255 255 
255 255 255 255 255 255 253 255 253 247 181 148 140 142 156 155 
126 133 149 181 204 255 255 254 254 250 0 255 253 255 255 0 
255 255 255 255 255 255 255 255 255 255 255 255 255 255 255 255 
255 255 255 255 255 255 255 255 0 255 0 255 255 255 255 255 255 255 255 255 255 255 255 255 0 255 255 
255 255 255 255 255 255 250 255 241 160 140 0 111 0 117 170 
177 172 172 107 125 162 233 254 253 254 252 254 255 255 255 255 
255 255 255 255 255 0 255 255 255 255 255 255 255 255 255 255 
255 255 255 255 255 255 255 255 255 255 255 255 255 255 255 0 255 255 255 255 255 255 255 255 255 255 0 
255 255 255 255 255 255 249 244 155 255 151 141 153 146 144 151 
175 188 255 183 139 102 170 247 254 255 254 0 249 253 255 255 
255 255 255 255 255 255 255 255 255 255 255 255 255 255 0 255 
255 255 255 255 255 255 255 255 255 255 255 255 255 255 255 255 255 255 255 255 255 255 255 255 255 255 255 
0 255 255 255 255 255 253 145 167 164 166 177 191 198 211 213 
204 179 215 255 212 179 167 191 249 253 254 255 255 250 255 255 
255 255 0 255 255 255 255 255 255 0 255 255 255 255 255 255 
255 255 255 255 255 255 255 255 255 255 255 255 255 0 255 255 255 255 255 255 255 0 255 255 255 255 255 
255 255 255 255 255 254 216 145 178 154 177 185 198 215 224 228 
237 219 190 0 0 213 200 183 161 255 255 255 254 254 255 255 
255 255 255 255 255 255 255 255 255 255 255 255 255 255 255 255 
255 255 255 255 255 255 255 255 255 255 255 255 255 255 255 255 255 255 255 255 255 255 255 255 255 255 255 
255 0 255 255 254 254 185 148 0 157 171 255 197 212 228 223 
237 238 187 218 204 214 229 190 133 204 252 251 253 255 255 255 
255 255 255 255 255 255 255 0 255 0 255 255 255 255 255 255 
255 255 255 255 255 255 255 255 255 255 255 255 255 255 255 255 0 255 255 255 255 255 255 255 255 255 255 
0 255 255 255 254 254 175 146 161 154 171 189 207 0 231 240 
235 242 235 204 216 211 209 0 164 134 233 255 255 252 255 255 
255 255 0 255 255 255 255 255 255 0 255 255 255 0 255 255 
255 255 255 255 255 255 255 255 255 255 255 255 255 255 255 255 255 255 255 255 255 255 255 255 255 255 255 
255 255 255 254 254 254 166 111 151 144 169 192 198 212 225 239 
255 245 246 208 208 205 210 193 181 158 159 255 254 255 255 255 
255 255 255 255 255 255 255 255 255 255 255 255 255 255 255 255 
255 255 255 255 255 255 255 255 0 255 255 255 255 255 255 255 0 255 255 255 255 255 255 255 0 255 0 
255 255 255 254 254 254 133 91 123 138 163 188 201 189 193 0 
241 238 224 255 183 212 203 208 162 159 177 245 255 255 255 255 
255 0 255 255 255 255 255 0 255 255 0 255 255 255 255 255 
255 255 255 255 255 255 255 255 255 255 255 255 255 255 255 255 255 255 255 255 0 255 255 255 255 0 255 
255 255 254 254 254 255 96 75 94 122 166 183 255 158 160 185 
216 219 0 171 143 198 255 209 189 123 139 215 254 254 255 0 
255 255 255 255 255 255 255 255 255 255 255 255 255 0 255 255 
255 255 255 255 255 255 255 255 255 255 255 255 255 255 255 255 255 255 255 255 255 255 255 255 0 255 255 
255 255 254 254 254 254 0 74 106 255 144 137 143 133 120 143 
210 222 171 145 120 169 171 184 200 123 107 181 251 254 255 255 
255 255 255 255 255 0 255 255 255 255 255 255 255 255 255 255 
255 255 255 255 255 255 255 255 255 255 255 255 255 255 255 255 0 255 255 255 255 255 255 255 255 255 0 
255 255 254 254 254 254 72 92 134 125 114 103 74 136 130 172 
204 221 255 156 121 255 177 255 205 171 135 165 254 251 255 0 
255 255 255 255 0 0 0 255 255 255 255 255 255 255 255 255 
255 255 255 255 255 255 255 255 255 255 255 255 255 255 255 255 255 255 255 255 255 255 255 255 255 255 255 
255 255 254 254 254 254 69 0 132 150 158 158 149 189 205 192 
215 223 210 231 197 150 186 192 200 189 114 131 253 255 255 255 
255 255 255 255 255 255 255 255 255 255 0 255 255 0 255 255 
255 0 255 255 255 255 255 255 0 255 255 255 255 255 255 255 255 255 255 255 255 255 255 255 255 255 255 
255 255 254 0 254 254 100 97 126 169 199 207 218 0 213 177 
220 226 205 232 241 216 200 203 184 199 133 89 245 253 255 255 
255 255 255 255 255 255 255 255 255 255 255 255 255 255 255 255 
0 255 255 255 255 255 255 255 255 255 255 255 255 255 255 255 0 255 255 0 255 255 255 255 255 255 255 
255 255 254 254 254 254 77 101 130 0 196 216 229 231 193 168 
219 224 202 216 238 255 255 204 255 183 159 91 245 255 255 255 
255 255 255 255 255 255 255 255 255 255 255 255 255 255 0 255 
255 255 255 255 255 255 255 255 0 255 255 255 255 255 255 255 255 255 255 255 255 255 255 255 255 255 255 
255 255 255 254 254 254 104 87 123 0 175 199 213 222 166 0 
117 136 139 194 221 234 219 0 182 164 173 137 248 255 255 255 
255 255 255 255 255 255 255 255 0 255 255 255 255 255 255 255 
255 255 255 255 255 255 255 255 255 255 255 255 255 255 255 255 255 255 255 255 255 255 255 0 255 255 255 
255 255 255 254 254 254 152 92 127 127 152 183 255 202 152 255 
102 123 143 192 182 206 201 0 0 170 182 167 0 253 255 255 
255 255 255 255 255 255 255 255 0 255 255 255 255 0 255 255 
255 255 0 255 255 255 255 255 255 255 255 255 0 255 255 255 255 255 255 255 255 255 255 255 255 255 255 
255 255 255 255 254 254 255 109 120 130 255 155 180 186 187 188 
189 197 220 218 255 171 179 169 0 188 188 204 254 255 255 255 
255 255 255 255 255 255 255 255 255 255 255 255 255 255 255 255 
255 255 255 255 255 255 255 255 255 255 255 255 255 255 255 255 255 255 255 255 255 255 255 255 255 255 255 
255 255 255 255 254 254 244 0 102 120 121 135 156 152 170 201 
189 0 177 188 181 162 166 158 172 187 193 248 255 254 255 255 
255 255 0 255 255 255 255 255 255 255 255 255 255 255 255 255 
255 255 255 255 255 255 255 255 255 255 255 255 255 255 255 255 255 255 255 255 255 255 255 255 255 0 255 
255 255 255 0 255 254 254 0 200 122 119 119 145 144 128 80 
66 65 37 55 148 169 163 149 165 161 0 253 251 255 255 255 
255 255 255 255 255 255 255 255 255 255 255 255 255 255 255 255 
255 255 255 255 255 255 255 255 255 255 255 255 255 255 255 255 255 255 255 255 255 255 255 255 255 251 255 
252 251 255 254 255 254 251 253 254 149 114 255 133 255 49 28 
42 51 39 15 105 181 169 160 152 188 197 155 204 231 254 254 
249 255 253 254 251 251 252 254 255 255 253 253 254 254 255 255 
255 255 255 255 255 255 255 0 255 255 255 255 255 255 255 255 255 255 255 255 255 255 255 255 255 254 253 
254 254 253 254 0 253 255 254 254 227 106 0 124 147 69 47 
86 89 72 52 0 177 174 165 0 181 213 158 152 123 125 233 
252 251 253 254 253 252 254 255 255 255 255 254 254 254 0 255 
255 255 0 255 255 255 255 255 255 255 255 255 255 255 255 255 255 255 255 255 255 255 255 255 255 252 0 
250 254 250 0 253 0 255 253 253 254 168 121 128 0 163 98 
255 115 111 155 193 186 165 132 70 161 220 141 0 158 166 102 
189 251 254 252 252 254 254 254 254 254 254 255 255 255 255 255 
255 255 255 255 255 255 255 255 255 255 255 255 255 255 255 255 255 255 255 255 255 255 255 255 255 253 253 
253 254 254 254 250 252 217 223 219 0 253 154 137 148 158 0 
150 162 163 0 187 0 144 54 99 214 237 194 123 150 160 185 
152 138 211 255 255 252 254 254 0 254 254 254 255 0 255 255 
255 255 255 0 0 255 255 255 255 255 255 255 255 255 255 255 255 255 255 255 255 255 255 255 255 254 252 
254 252 255 252 253 227 0 236 223 255 207 123 142 149 154 142 
130 137 155 255 255 158 130 186 200 255 247 230 155 126 145 161 
195 214 203 196 250 253 255 255 255 253 254 254 255 255 0 255 
255 255 255 255 255 255 255 255 255 255 255 255 255 255 255 255 255 255 255 255 255 255 255 255 255 255 254 
253 252 244 223 204 186 215 230 223 219 219 0 111 148 159 143 
130 138 156 184 182 0 189 210 207 0 237 230 222 170 0 176 
0 181 255 228 231 252 254 254 255 254 255 254 253 255 255 255 
0 255 255 255 255 255 255 255 255 255 255 0 255 255 255 255 255 255 255 255 255 255 255 255 255 253 0 
0 231 200 0 170 200 217 236 226 225 229 227 188 110 255 172 
168 177 188 200 139 174 207 217 214 214 230 227 220 224 203 136 
113 94 98 188 215 234 247 250 254 255 254 254 253 252 255 255 
255 255 255 255 0 255 255 255 255 255 255 255 255 255 255 255 255 255 255 255 255 255 255 255 255 253 255 
230 204 191 179 199 199 210 235 225 214 225 255 217 144 100 150 
172 183 184 152 175 255 215 210 188 191 232 230 223 224 222 202 
101 51 53 63 190 208 255 243 252 255 254 254 255 255 255 255 
255 255 255 255 255 255 255 255 255 255 255 255 255 255 255 255 255 253 253 254 255 252 254 254 251 249 245 
199 184 176 181 201 208 0 218 226 222 227 0 219 219 131 72 
104 108 114 191 205 181 0 196 213 255 220 232 230 233 221 223 
212 80 57 57 104 202 204 210 250 247 255 255 254 251 255 255 
255 255 255 255 255 255 255 255 255 255 255 255 255 255 255 255 255 252 254 255 254 254 0 255 255 255 255 
187 174 184 190 205 215 201 192 178 150 144 153 255 207 191 118 
98 111 171 190 209 218 207 194 186 0 195 221 229 236 234 216 
218 205 0 50 39 157 214 212 217 247 0 252 255 255 255 255 
255 255 255 255 255 255 255 255 255 0 255 255 255 255 255 255 0 255 255 255 253 250 0 255 251 231 193 
165 184 187 205 199 203 188 153 80 2 3 29 49 66 110 96 
53 48 129 158 155 124 99 82 69 81 139 186 213 226 221 223 
217 221 184 29 42 0 219 0 221 225 253 253 249 254 0 255 
255 255 255 255 255 255 255 255 255 255 255 255 255 255 255 255 255 253 251 255 254 254 255 254 252 210 176 
165 191 195 197 186 175 150 79 11 19 0 26 54 40 45 51 
255 55 44 32 37 40 32 33 44 50 65 95 148 182 188 199 
217 213 0 73 45 88 222 218 223 173 252 251 252 254 255 255 
255 255 255 255 255 255 255 255 255 255 255 255 255 255 255 255 255 254 251 254 254 254 254 250 224 211 143 
177 200 205 179 152 130 99 11 23 19 20 22 49 50 46 50 
53 50 0 255 40 39 39 44 46 61 52 67 82 104 125 176 
208 219 192 112 40 42 217 212 159 145 0 254 253 251 255 255 
255 255 255 255 255 255 255 255 255 255 255 255 255 255 255 255 255 250 255 253 0 251 253 229 127 212 141 
172 213 209 186 123 77 19 23 24 18 18 255 44 62 59 53 
255 55 56 53 46 43 54 48 53 64 41 56 62 66 120 199 
201 219 191 109 35 35 129 0 165 234 251 254 255 0 255 255 
255 255 255 255 0 255 255 255 255 0 0 255 255 255 255 255 255 253 255 255 254 252 254 249 150 164 122 
149 191 209 193 118 8 19 18 21 19 18 16 23 0 76 70 
59 57 57 60 54 52 55 55 59 52 44 59 58 56 109 174 
196 188 169 93 28 61 129 170 217 254 254 253 253 253 255 255 
255 255 255 255 255 255 255 255 255 255 0 255 255 255 255 255 255 255 251 253 251 254 252 252 242 0 99 
0 148 192 199 150 2 17 21 22 255 17 20 13 73 99 86 
78 68 69 70 255 63 82 79 71 53 43 255 0 255 120 186 
201 187 167 94 133 167 150 194 253 254 252 254 253 253 255 255 
255 255 255 255 255 255 255 255 255 255 255 255 255 255 255 0 255 0 255 255 255 255 255 255 255 242 130 
255 145 255 203 184 18 15 30 18 18 22 22 17 39 101 102 
0 82 255 76 75 70 103 87 81 53 86 100 66 68 255 194 
207 188 170 187 200 160 148 255 253 0 253 254 251 255 255 255 
255 255 255 255 255 255 255 255 255 255 255 255 255 255 255 255 255 255 255 255 255 255 255 255 255 255 195 
115 147 176 207 196 89 0 23 20 21 14 21 19 10 74 105 
255 255 93 82 73 74 255 107 106 86 131 126 131 65 157 201 
206 0 173 179 180 150 232 254 253 255 0 254 253 254 255 255 
255 255 255 255 255 255 255 255 255 255 255 255 255 255 255 255 255 255 255 255 255 255 255 255 255 255 240 
108 140 168 197 207 153 88 15 18 23 19 19 0 17 14 0 
105 0 97 97 67 86 130 114 119 91 130 133 88 64 165 203 
255 0 0 255 175 173 253 254 253 254 254 251 254 255 255 255 
255 255 255 0 255 255 255 255 0 255 255 255 255 255 255 255 255 255 255 255 255 255 255 255 255 254 253 
106 255 156 185 198 174 126 0 22 13 27 0 19 19 23 15 
25 58 56 33 42 91 255 124 0 130 124 95 55 75 170 197 
198 193 178 170 166 175 254 252 253 251 255 251 255 254 255 255 
255 255 255 255 255 255 255 255 255 255 255 255 255 255 255 255 255 255 255 255 255 255 255 255 255 255 253 
124 142 147 182 197 190 131 255 48 106 10 25 23 25 21 20 
21 18 25 25 51 86 73 135 120 129 107 74 44 96 176 201 
202 0 174 166 166 255 254 253 254 255 255 254 0 254 255 255 
255 255 255 255 255 255 255 255 255 255 255 255 255 255 255 255 255 255 255 255 255 255 255 255 255 255 255 
169 131 149 172 195 194 147 130 45 106 89 2 19 22 255 28 
24 22 19 29 57 66 100 128 107 125 160 110 44 0 180 202 
199 186 176 165 155 134 252 252 255 254 254 254 254 252 255 255 
255 255 255 255 255 255 255 255 0 255 255 255 255 255 255 255 255 255 255 0 255 255 255 255 255 251 255 
196 128 150 168 193 200 168 150 91 115 133 255 0 89 255 26 
24 0 66 38 65 61 115 255 101 130 160 79 39 135 184 204 
255 186 180 161 160 144 243 254 254 254 254 254 253 252 255 255 
255 255 255 255 255 255 255 255 255 255 255 255 255 255 255 255 255 255 255 255 255 255 255 255 255 254 255 
209 130 152 163 0 203 179 255 143 111 129 125 155 150 103 61 
6 0 83 255 56 78 74 119 99 116 101 51 63 152 192 206 
200 190 186 0 160 155 212 249 253 255 253 253 255 255 255 255 
255 255 0 255 255 255 255 255 255 255 255 255 255 0 255 255 255 255 255 255 255 255 255 255 255 0 254 
227 119 154 164 189 0 0 255 0 117 130 144 167 103 118 0 
94 114 104 25 77 76 84 108 98 131 116 96 82 160 0 206 
196 183 182 159 159 167 201 253 250 254 0 252 0 253 255 255 
255 0 255 255 255 255 255 255 255 255 255 255 255 255 255 255 255 255 255 255 0 255 255 255 255 254 253 
220 115 149 159 184 198 192 181 173 143 91 106 142 133 128 97 
255 173 128 6 93 82 255 73 98 105 146 90 114 168 199 205 
196 189 255 164 159 255 0 236 252 255 0 0 255 255 255 255 
255 255 255 255 255 255 255 255 255 255 255 255 255 255 255 255 255 255 255 255 255 0 255 255 255 254 253 
204 109 255 155 178 196 199 255 162 170 106 109 119 131 151 91 
79 160 139 255 93 108 84 73 80 139 116 124 118 176 203 202 
193 191 0 168 156 177 201 207 244 252 251 252 254 253 255 255 
255 255 255 255 255 255 255 255 255 255 255 255 255 255 255 255 255 255 255 255 255 255 0 255 255 254 254 
177 104 138 156 174 194 193 189 173 255 117 4 106 153 143 118 
70 255 155 3 92 113 90 120 93 108 123 123 136 181 201 197 
188 188 182 170 152 177 203 198 233 254 255 254 254 254 255 255 
255 255 255 255 0 0 255 255 255 0 255 255 0 255 255 255 255 255 255 255 255 255 255 255 0 255 255 
255 100 135 157 170 191 189 200 180 169 154 6 53 170 162 145 
7 89 153 0 101 140 149 37 78 71 179 159 156 187 197 0 
187 183 177 172 151 176 200 255 216 254 254 254 254 255 255 255 
255 255 255 255 255 255 255 255 255 255 255 255 0 255 255 255 0 255 255 255 255 255 255 255 255 254 0 
130 98 127 153 164 183 192 192 188 255 170 255 127 0 167 151 
49 47 146 42 95 158 185 69 15 107 151 114 156 186 193 194 
255 180 174 171 153 177 255 202 255 247 254 253 253 254 255 0 
255 255 255 0 255 255 255 255 255 255 255 255 255 255 255 255 255 255 255 255 255 255 255 255 255 255 242 
124 96 116 142 157 172 184 191 190 179 166 130 142 108 144 144 
139 86 109 78 60 0 136 154 95 113 74 115 165 0 0 191 
184 176 170 165 152 175 192 199 200 235 254 254 255 255 255 255 
255 255 255 255 255 255 255 255 255 255 255 0 255 255 255 255 255 255 255 255 255 255 0 255 255 255 232 
124 94 107 133 151 255 181 184 189 188 161 145 167 137 133 189 
159 119 94 81 12 142 137 131 98 64 50 136 162 175 182 185 
180 255 166 158 148 173 187 190 198 220 253 254 252 254 255 255 
255 255 255 255 255 255 255 255 255 255 255 255 255 255 255 255 255 254 254 252 254 251 253 251 254 254 219 
123 255 96 123 147 163 175 182 188 185 0 158 128 171 171 180 
169 153 132 89 5 255 153 122 109 255 69 142 160 174 176 182 
175 162 158 151 148 164 184 255 192 224 252 252 251 251 255 255 
255 255 255 255 255 0 255 255 255 255 255 255 255 255 255 255 255 254 253 254 253 255 254 252 251 254 197 
120 99 97 111 135 156 168 174 180 0 171 157 111 134 156 183 
173 162 140 116 3 128 152 143 139 49 97 137 160 167 174 173 
167 161 0 153 152 124 182 182 183 213 255 252 254 254 255 255 
0 255 255 255 255 255 255 255 255 255 255 255 255 255 255 255 255 255 252 254 253 254 249 253 0 253 156 
0 105 81 111 125 144 0 175 171 170 171 160 137 154 150 159 
153 151 133 107 56 117 126 126 110 61 94 134 148 166 164 164 
164 0 148 150 143 73 170 158 175 199 255 254 254 253 255 255 
255 255 255 255 255 0 255 255 255 255 255 255 255 255 255 255 255 253 255 254 255 253 255 254 254 231 125 
121 117 0 101 116 141 152 255 173 168 164 154 127 0 179 182 
183 207 195 166 98 139 179 188 158 53 92 131 255 159 163 162 
160 157 154 149 136 25 147 173 170 232 255 250 254 253 255 255 
255 255 255 255 255 255 255 255 255 255 255 255 255 255 255 255 255 254 0 255 254 253 253 0 253 165 126 
121 0 89 255 112 124 142 156 158 159 156 148 120 89 135 177 
172 190 184 137 111 140 166 165 139 41 82 129 0 153 158 157 
155 0 156 141 112 7 114 173 168 245 252 254 254 254 255 255 
255 255 255 255 255 255 255 255 255 255 255 255 0 255 255 255 255 0 254 0 255 254 254 250 201 148 0 
108 108 91 86 110 126 255 146 158 163 151 140 108 95 92 184 
157 171 182 158 101 115 137 113 130 75 78 118 141 147 152 157 
156 157 149 135 57 18 88 138 165 255 254 255 254 254 255 255 
255 255 255 255 255 255 255 255 255 255 255 255 255 255 255 255 255 0 254 254 253 254 252 240 143 151 107 
101 101 84 66 110 117 131 151 155 157 148 141 95 60 83 131 
191 187 208 204 164 96 145 141 121 63 52 113 134 146 159 157 
153 152 148 107 15 18 99 250 252 254 250 254 252 254 255 255 
255 255 255 255 255 255 255 255 255 255 255 255 255 255 255 255 255 253 248 252 254 253 251 250 250 157 74 
77 69 59 4 99 0 122 140 149 156 146 134 83 0 55 62 
54 177 145 90 126 32 77 70 65 57 0 99 133 152 155 146 
146 142 140 44 7 1 157 253 251 254 253 253 251 254 255 255 
255 255 255 255 255 0 255 255 0 255 0 0 255 255 255 255 255 255 255 255 255 255 255 255 255 254 222 
177 0 189 171 0 108 113 121 152 155 147 119 255 139 97 75 
65 59 55 255 54 17 103 0 109 75 5 56 126 148 146 131 
128 255 112 215 254 253 255 255 255 0 255 255 255 0 255 255 
255 0 255 0 255 255 0 255 255 255 255 255 255 255 255 255 255 255 255 255 255 0 255 255 255 253 255 
252 255 255 254 240 142 139 109 130 152 148 168 253 251 255 253 
255 255 250 255 255 255 0 254 254 254 251 190 184 196 215 207 
202 224 254 254 255 255 255 255 255 255 255 255 255 255 255 255 
255 255 255 255 255 255 255 255 255 255 255 255 255 255 255 255 255 255 255 255 255 255 255 255 255 254 252 
255 255 249 0 254 253 254 254 254 249 254 255 253 254 254 254 
254 254 254 251 255 254 255 255 251 255 0 255 254 254 0 255 
250 255 255 255 255 253 255 255 255 255 255 255 255 255 255 255 
255 255 255 255 255 255 0 255 0 255 255 255 255 255 255 255 255 255 255 255 255 255 255 255 255 254 255 
251 255 255 252 255 253 255 254 255 255 255 255 0 254 254 254 
254 0 254 253 253 254 255 0 254 254 249 255 252 255 252 255 
255 253 255 255 251 255 255 255 255 255 255 0 255 255 255 255 
255 255 0 255 255 255 255 255 0 255 255 255 255 255 255 255 255 255 0 255 255 255 255 255 255 255 0 
255 254 255 255 255 255 254 254 255 254 255 255 252 255 254 254 
254 255 254 253 254 254 255 255 255 252 255 0 255 255 255 253 
255 255 254 253 249 0 255 255 255 255 255 255 0 255 0 255 
255 0 255 255 255 255 255 255 255 255 255 255 255 255 255 255 255 255 255 255 0 255 0 255 255 255 255 
254 255 252 254 255 254 254 255 254 255 253 255 0 255 254 252 
252 254 254 254 254 254 255 254 250 252 0 255 255 255 252 254 
254 254 254 254 254 253 255 255 255 255 255 255 255 255 255 255 
255 255 255 255 255 255 255 255 255 255 0 255 255 255 255 255 255 255 255 255 255 255 255 255 255 255 254 
253 252 255 255 255 253 254 254 0 253 255 255 255 255 254 254 
254 254 253 255 253 252 254 254 255 0 255 254 252 253 253 255 
255 254 255 253 254 252 255 255 255 255 255 255 255 255 255 255 
255 255 255 255 255 255 255 255 255 255 255 255 255 0 255 255 255 255 255 255 255 255 255 255 255 254 255 
255 255 255 255 0 255 255 255 255 250 254 0 255 254 254 254 
254 254 254 254 254 254 254 254 252 255 255 255 255 253 254 255 
255 254 253 254 254 254 255 255 255 255 255 255 255 255 0 255 
255 255 255 255 255 255 255 0 255 255 255 255 0 255 255 255 255 255 255 0 255 255 255 255 0 255 255 
255 255 255 255 255 255 255 255 255 255 255 255 255 255 255 255 
255 255 255 255 255 255 255 255 255 255 255 255 255 255 255 0 
255 255 255 255 255 255 255 255 255 255 255 255 255 255 255 255 
255 255 255 0 255 255 255 255 255 255 255 255 255 255 255 255 255 255 255 255 255 255 255 255 255 255 255 
255 255 255 255 255 255 255 255 255 255 255 255 255 255 255 255 
255 255 255 255 255 255 0 255 255 255 255 255 255 255 255 255 
255 255 255 255 255 255 255 255 255 255 255 0 255 255 255 255 
255 255 255 255 255 255 255 255 255 255 255 255 255 255 255 255 255 255 0 255 255 255 255 255 255 255 255 
255 255 255 255 255 255 255 255 255 255 255 255 255 255 255 255 
255 255 255 255 255 255 255 255 255 255 255 255 255 255 255 255 
255 255 255 255 255 255 255 255 255 255 255 255 255 255 255 255 
255 255 255 255 255 255 255 255 255 255 255 255 255 255 255 255 255 255 255 255 255 255 255 255 255 255 255 
0 255 255 255 255 255 255 255 255 255 255 255 255 255 255 255 
255 255 255 255 255 255 255 255 255 255 255 255 255 255 255 255 
255 255 255 255 255 255 255 255 255 255 0 255 255 255 255 255 
255 255 255 255 255 255 255 255 0 255 255 255 255 255 255 255 255 255 255 255 255 255 255 255 255 255 255 
255 255 255 255 255 255 255 255 255 255 255 255 255 0 255 255 
255 255 255 255 255 255 255 255 255 255 255 255 255 255 255 255 
255 255 255 255 255 255 0 255 255 255 255 255 255 0 255 255 
255 255 255 255 255 255 255 255 255 255 