P2
# Created by IrfanView
100 100
255
0 253 253 253 253 253 253 253 253 253 253 253 253 253 253 253 253 253 253 253 253 253 253 253 253 253 253 253 0 253 253 253 253 253 253 253 253 253 253 253 253 253 253 253 253 253 253 253 253 253 253 253 253 253 253 0 0 0 253 253 253 253 253 253 253 253 253 253 253 253 253 253 253 253 253 253 253 253 253 253 253 253 253 253 253 253 253 253 253 253 253 253 253 253 0 0 253 253 0 0 
0 253 253 253 253 253 253 253 253 253 253 253 253 253 253 253 253 253 253 253 253 253 253 253 253 253 253 253 253 253 253 253 253 253 253 253 253 253 253 253 253 253 253 253 253 253 253 253 253 253 253 253 253 253 253 253 253 253 253 253 253 253 253 253 253 253 253 253 253 253 253 253 253 253 253 253 253 253 253 253 253 253 253 253 253 253 253 253 253 253 253 253 253 253 253 253 253 253 253 0 
253 253 253 253 253 253 253 253 253 253 253 253 253 253 253 253 253 253 253 253 253 253 253 253 253 253 253 253 253 253 253 253 253 253 253 253 253 253 253 253 253 253 253 253 253 253 253 253 253 253 253 253 253 253 253 253 253 253 253 253 253 253 253 253 253 253 253 253 253 253 253 253 253 253 253 253 253 253 253 253 253 253 253 253 253 253 253 253 253 253 253 253 253 253 253 253 253 253 253 0 
253 253 253 253 253 253 253 253 253 253 253 253 253 253 253 253 253 253 253 253 253 253 253 253 253 253 253 253 253 253 253 253 253 253 253 253 253 253 253 253 253 253 253 253 178 253 178 178 178 178 178 178 178 149 149 253 253 253 253 253 253 253 253 253 253 253 253 253 253 253 253 253 253 253 253 253 253 253 253 253 253 253 253 253 253 253 253 253 253 253 253 253 253 253 253 253 253 253 253 0 
253 253 253 253 253 253 253 253 253 253 253 253 253 253 253 253 253 253 253 253 253 253 253 253 253 253 253 253 253 253 253 253 253 253 253 253 253 253 109 109 217 217 217 217 217 217 217 178 178 178 178 178 178 149 149 178 178 178 149 149 149 149 253 253 253 253 253 253 253 253 253 253 253 253 253 253 253 253 253 253 253 253 253 253 253 253 253 253 253 253 253 253 253 253 253 253 253 253 253 0 
253 253 253 253 253 253 253 253 253 253 253 253 253 253 253 253 253 253 253 253 253 253 253 253 253 253 253 253 253 253 253 253 253 253 253 217 178 217 194 109 194 194 194 194 194 194 194 194 194 194 194 194 194 194 178 178 178 178 178 149 149 149 149 149 178 178 253 253 253 253 253 253 253 253 253 253 253 253 253 253 253 253 253 253 253 253 253 253 253 253 253 253 253 253 253 253 253 253 253 0 
253 253 253 253 253 253 253 253 253 253 253 253 253 253 253 253 253 253 253 253 253 253 253 253 253 253 253 253 253 253 253 253 253 217 178 194 194 194 194 194 217 217 217 217 217 217 217 217 217 217 217 217 194 194 194 194 194 194 178 178 178 178 149 149 149 149 178 178 253 253 253 253 253 253 253 253 253 253 253 253 253 253 253 253 253 253 253 253 253 253 253 253 253 253 253 253 253 253 253 0 
253 253 253 253 253 253 253 253 253 253 253 253 253 253 253 253 253 253 253 253 253 253 253 253 253 253 253 253 253 253 253 253 178 178 194 194 194 194 217 217 217 194 194 194 194 194 194 194 194 217 217 194 194 194 194 194 194 194 178 178 178 178 178 178 178 149 149 178 178 178 253 253 253 253 253 253 253 253 253 253 253 253 253 253 253 253 253 253 253 253 253 253 253 253 253 253 253 253 253 0 
253 253 253 253 253 253 253 253 253 253 253 253 253 253 253 253 253 253 253 253 253 253 253 253 253 253 253 253 253 253 253 178 178 194 194 194 194 194 194 194 178 178 178 178 178 178 178 178 178 178 178 178 149 149 149 149 149 149 149 178 178 178 178 178 178 178 178 149 149 178 178 178 253 253 253 253 253 253 253 253 253 253 253 253 253 253 253 253 253 253 253 253 253 253 253 253 253 253 253 0 
253 253 253 253 253 253 253 253 253 253 253 253 253 253 253 253 253 253 253 253 253 253 253 253 253 253 253 253 149 149 149 149 178 194 194 194 194 194 178 178 178 178 178 178 178 178 178 178 178 178 178 178 178 149 149 149 149 149 149 149 149 149 149 149 178 178 178 178 178 149 149 178 178 178 253 253 253 253 253 253 253 253 253 253 253 253 253 253 253 253 253 253 253 253 253 253 253 253 253 0 
253 253 253 253 253 253 253 253 253 253 253 253 253 253 253 253 253 253 253 253 253 253 253 253 253 253 194 178 149 149 149 149 178 194 194 194 194 178 178 194 194 194 194 194 194 194 194 194 194 178 194 178 178 178 178 178 178 149 149 149 149 149 149 149 149 149 149 149 149 178 149 149 149 178 217 253 253 253 253 253 253 253 253 253 253 253 253 253 253 253 253 253 253 253 253 253 253 253 253 0 
253 253 253 253 253 253 253 253 253 253 253 253 253 253 253 253 253 253 253 253 253 253 253 253 253 194 194 194 178 149 149 149 178 178 178 178 178 194 194 194 194 194 194 194 217 217 217 217 194 194 194 194 194 178 178 178 178 178 178 178 149 149 149 149 149 149 149 149 149 149 149 149 149 149 149 217 253 253 253 253 253 253 253 253 253 253 253 253 253 253 253 253 253 253 253 253 253 253 253 0 
253 253 253 253 253 253 253 253 253 253 253 253 253 253 253 253 253 253 253 253 253 253 253 253 178 194 194 194 194 178 149 149 149 178 178 178 194 194 194 217 194 217 217 217 217 217 217 217 217 217 217 217 217 194 194 194 194 194 194 178 178 178 178 178 149 149 178 149 149 149 149 149 149 149 149 149 217 253 253 253 253 253 253 253 253 253 253 253 253 253 253 253 253 253 253 253 253 253 253 0 
253 253 253 253 253 253 253 253 253 253 253 253 253 253 253 253 253 253 253 253 253 253 253 149 149 178 194 194 178 149 149 149 149 149 178 194 194 217 194 217 217 194 194 217 217 217 217 217 217 217 217 149 217 217 194 194 194 194 194 194 194 194 194 178 178 149 149 149 149 149 109 149 149 149 149 149 149 217 253 253 253 253 253 253 253 253 253 253 253 253 253 253 253 253 253 253 253 253 253 0 
253 253 253 253 253 253 253 253 253 253 253 253 253 253 253 253 253 253 253 253 253 253 194 178 194 194 194 194 178 149 149 149 149 149 178 194 194 194 217 194 217 194 194 178 149 149 149 149 217 217 217 149 149 149 149 149 149 149 194 194 194 194 194 194 178 178 178 149 149 149 149 149 149 149 149 149 149 178 217 253 253 253 253 253 253 253 253 253 253 253 253 253 253 253 253 253 253 253 253 0 
253 253 253 253 253 253 253 253 253 253 253 253 253 253 253 253 253 253 253 253 253 194 194 194 194 194 194 194 178 149 149 149 149 149 178 178 194 194 194 178 178 178 178 178 149 149 149 149 178 178 178 149 149 149 149 149 149 149 178 178 178 194 194 178 178 194 194 178 149 149 149 149 149 149 149 149 149 178 178 253 253 253 253 253 253 253 253 253 253 253 253 253 253 253 253 253 253 253 253 0 
253 253 253 253 253 253 253 253 253 253 253 253 253 253 253 253 253 253 253 253 178 194 194 194 194 194 194 194 178 149 149 149 149 149 149 178 194 194 178 178 178 178 178 178 178 178 178 178 178 217 178 178 194 178 149 149 149 149 149 178 178 178 149 149 149 194 178 194 194 178 178 149 149 149 149 149 149 149 178 178 253 253 253 253 253 253 253 253 253 253 253 253 253 253 253 253 253 253 253 0 
253 253 253 253 253 253 253 253 253 253 253 253 253 253 253 253 253 253 253 149 178 194 194 194 194 194 194 194 178 178 149 149 149 149 149 178 178 178 178 178 178 178 194 194 194 194 178 178 178 194 194 194 194 194 178 178 178 178 178 178 178 149 149 149 149 149 178 178 178 178 178 178 149 149 149 178 149 149 149 217 178 253 253 253 253 253 253 253 253 253 253 253 253 253 253 253 253 253 253 0 
253 253 253 253 253 253 253 253 253 253 253 253 253 253 253 253 253 253 253 149 194 194 194 194 194 194 178 178 178 149 149 149 149 149 149 178 178 178 178 194 194 194 194 194 194 217 217 217 217 217 217 217 217 217 194 194 178 178 178 178 178 178 178 149 149 149 109 149 178 178 178 178 149 149 149 149 178 194 149 178 178 178 217 253 253 253 253 253 253 253 253 253 253 253 253 253 253 253 253 0 
253 253 253 253 253 253 253 253 253 253 253 253 253 253 253 253 253 253 178 194 194 194 194 194 109 109 194 194 178 149 109 149 109 149 109 178 178 178 194 194 194 194 217 217 217 217 217 217 217 217 217 217 217 217 217 194 194 194 194 178 178 178 178 178 149 149 149 149 149 149 149 178 178 178 178 149 149 217 194 149 178 178 217 253 253 253 253 253 253 253 253 253 253 253 253 253 253 253 253 0 
253 253 253 253 253 253 253 253 253 253 253 253 253 253 253 253 253 194 194 194 194 194 194 194 194 194 194 194 194 149 109 109 109 109 109 149 178 194 194 194 194 194 194 194 217 217 217 217 217 217 217 217 217 194 194 194 194 217 217 194 194 194 178 178 178 178 149 149 149 149 149 149 178 178 178 178 149 178 178 178 178 178 178 217 253 253 253 253 253 253 253 253 253 253 253 253 253 253 253 0 
253 253 253 253 253 253 253 253 253 253 253 253 253 253 253 253 253 178 194 194 194 194 194 194 194 194 194 194 194 178 178 149 149 109 109 109 178 194 194 194 194 194 178 178 149 149 149 149 149 149 149 149 178 178 194 194 194 194 194 217 217 217 194 194 178 178 178 178 149 149 178 149 149 178 178 178 178 149 149 178 178 178 178 194 253 253 253 253 253 253 253 253 253 253 253 253 253 253 253 0 
253 253 253 253 253 253 253 253 253 253 253 253 253 253 253 253 178 178 194 194 194 194 194 194 194 217 217 194 194 178 178 149 149 109 109 149 178 194 194 194 178 149 149 149 149 149 149 109 109 149 149 149 149 149 178 178 149 149 149 194 194 194 194 194 194 178 178 178 178 149 149 178 178 149 178 178 178 178 149 149 178 178 178 178 217 253 253 253 253 253 253 253 253 253 253 253 253 253 253 0 
253 253 253 253 253 253 253 253 253 253 253 253 253 253 253 253 178 178 178 194 194 194 194 194 194 194 194 178 178 178 178 178 149 149 149 149 178 178 178 149 149 149 149 149 149 149 149 109 109 149 149 149 149 149 149 149 149 149 149 149 149 149 194 194 194 194 178 178 178 178 149 149 178 178 149 178 178 178 178 149 149 178 217 178 178 253 253 253 253 253 253 253 253 253 253 253 253 253 253 0 
253 253 253 253 253 253 253 253 253 253 253 253 253 253 253 253 149 178 194 194 194 194 194 194 194 194 194 178 194 194 178 149 149 109 149 149 178 178 149 149 149 149 149 149 149 149 149 149 149 149 149 149 149 178 149 149 149 149 149 149 149 149 149 149 194 194 194 178 178 178 178 149 149 178 178 149 178 178 178 149 149 178 178 217 178 240 253 253 253 253 253 253 253 253 253 253 253 253 253 0 
253 253 253 253 253 253 253 253 253 253 253 253 253 253 253 178 149 194 194 194 194 194 194 194 178 178 178 194 194 194 194 194 178 149 149 149 149 149 149 149 149 149 149 149 149 149 178 178 178 178 178 178 178 178 178 178 149 149 149 149 149 149 149 109 149 149 194 194 194 178 178 178 149 149 178 178 149 178 178 149 149 178 178 178 178 178 253 253 253 253 253 253 253 253 253 253 253 253 253 0 
253 253 253 253 253 253 253 253 253 253 253 253 253 253 253 178 178 194 194 194 194 194 178 178 178 194 194 194 194 194 194 194 194 178 149 149 109 149 149 149 149 149 178 178 178 178 181 181 181 181 181 181 181 181 181 181 181 178 178 178 149 149 144 149 149 149 149 194 194 194 178 178 178 149 149 178 178 178 178 178 149 149 178 178 217 178 253 253 253 253 253 253 253 253 253 253 253 253 253 0 
253 253 253 253 253 253 253 253 253 253 253 253 253 253 253 178 178 194 178 194 178 178 178 178 178 194 194 194 194 194 194 194 194 178 149 149 149 109 149 149 149 178 181 181 181 193 193 193 193 193 193 193 193 193 193 193 193 193 193 181 181 181 149 149 144 149 144 149 194 194 178 178 178 149 149 149 178 178 178 178 149 149 178 178 178 217 253 253 253 253 253 253 253 253 253 253 253 253 253 0 
253 253 253 253 253 253 253 253 253 253 253 253 253 253 178 149 178 178 194 194 178 194 194 194 194 194 194 194 194 194 194 194 178 149 149 149 109 149 144 149 181 181 216 228 228 228 228 228 228 228 216 216 216 216 216 216 216 216 216 216 216 193 193 193 149 149 144 149 144 178 194 178 178 149 149 149 178 178 178 149 149 149 149 178 178 217 253 253 253 253 253 253 253 253 253 253 253 253 253 0 
253 253 253 253 253 253 253 253 253 253 253 253 253 253 178 178 178 217 217 194 194 194 194 194 178 178 178 194 194 194 194 178 149 109 149 149 109 149 149 181 228 228 228 228 228 228 228 228 228 228 228 228 228 228 216 228 216 216 216 216 216 216 216 216 207 207 181 144 144 144 149 178 178 178 149 149 178 178 178 178 149 149 149 178 178 178 240 253 253 253 253 253 253 253 253 253 253 253 253 0 
253 253 253 253 253 253 253 253 253 253 253 253 253 253 178 178 178 194 194 194 194 194 194 194 178 178 178 194 217 194 194 178 149 149 113 149 181 181 181 228 228 228 228 228 228 228 228 228 228 228 228 228 228 216 228 216 216 216 216 216 216 216 216 216 207 207 207 181 181 144 149 149 178 178 178 149 149 178 178 178 149 149 149 149 178 178 217 217 178 253 253 253 253 253 253 253 253 253 253 0 
253 253 253 253 253 253 253 253 253 253 253 253 253 253 178 178 178 194 194 194 194 194 194 194 194 178 194 217 194 194 178 149 113 144 144 181 193 228 228 228 228 228 228 228 228 228 228 228 228 228 228 228 228 216 216 216 216 216 216 216 216 216 216 216 207 207 207 207 207 181 144 144 178 178 178 149 149 178 178 178 178 149 149 149 178 178 178 240 253 253 253 253 253 253 253 253 253 253 253 0 
253 253 253 253 253 253 253 253 253 253 253 253 253 178 178 178 194 194 194 178 178 194 194 194 194 178 194 217 194 194 178 144 144 144 193 193 216 228 228 228 228 228 228 228 228 228 228 228 228 228 228 228 228 216 216 216 216 216 216 216 216 216 216 216 207 207 207 207 207 207 149 149 149 178 178 178 149 149 178 178 178 149 149 149 178 217 178 240 253 253 253 253 253 253 253 253 253 253 253 0 
253 253 253 253 253 253 253 253 253 253 253 253 253 149 178 178 178 194 194 194 194 194 194 194 178 178 194 194 194 178 149 144 144 181 193 216 228 228 228 228 228 228 228 228 228 228 228 228 228 228 228 228 228 216 216 216 216 216 216 216 216 216 216 216 216 216 207 207 207 207 181 149 149 178 178 178 149 178 178 178 178 149 149 149 149 178 178 240 253 253 253 253 253 253 253 253 253 253 253 0 
253 253 253 253 253 253 253 253 253 253 253 253 253 149 149 178 178 194 194 194 194 178 178 178 149 149 194 194 194 178 149 144 144 181 216 216 228 228 228 228 228 228 228 228 228 228 228 228 228 228 228 228 228 228 228 216 216 216 216 216 216 216 216 216 216 207 207 207 207 207 181 181 149 149 178 178 178 178 178 149 149 149 149 149 149 178 178 240 253 253 253 253 253 253 253 253 253 253 253 0 
253 253 253 253 253 253 253 253 253 253 253 253 253 149 149 178 178 178 178 178 178 178 178 149 149 109 194 194 194 178 149 149 149 181 216 216 216 228 181 144 144 144 144 144 144 228 228 228 228 228 228 228 228 228 228 228 216 216 216 216 216 216 216 216 207 144 144 144 144 144 181 181 181 149 149 178 178 178 178 149 149 178 149 149 149 178 178 240 253 253 253 253 253 253 253 253 253 253 253 0 
253 253 253 253 253 253 253 253 253 253 253 253 149 149 178 178 178 178 217 178 178 178 178 149 149 149 194 194 194 178 149 149 181 193 216 216 216 216 181 144 144 144 144 144 144 144 144 228 228 228 228 228 228 228 228 216 216 216 216 216 216 216 216 144 144 144 144 144 144 144 144 144 144 144 144 178 178 178 178 149 178 178 149 149 149 178 178 240 253 253 253 253 253 253 253 253 253 253 253 0 
253 253 253 253 253 253 253 253 253 253 253 253 253 178 178 178 178 194 194 217 194 194 194 178 109 178 194 194 194 178 149 149 181 216 216 216 216 216 113 181 216 216 216 216 181 144 144 144 216 228 228 228 228 228 216 216 216 216 216 216 216 216 144 144 144 181 181 193 113 144 144 144 144 113 144 178 178 178 178 178 178 178 149 149 149 178 178 240 253 253 253 253 253 253 253 253 253 253 253 0 
253 253 253 253 253 253 253 253 253 253 253 253 253 178 178 178 194 194 194 194 194 194 194 178 149 149 178 194 194 178 149 149 181 216 216 216 216 216 216 216 216 216 216 216 216 216 181 144 216 216 216 216 216 216 216 216 216 216 216 216 216 216 207 207 207 207 207 207 207 207 193 193 144 113 144 178 178 178 178 178 178 178 178 149 178 178 178 240 253 253 253 253 253 253 253 253 253 253 253 0 
253 253 253 253 253 253 253 253 253 253 253 253 253 109 178 178 194 194 194 194 194 194 194 178 178 149 178 194 178 178 149 178 181 181 216 216 216 216 216 216 216 216 216 216 216 216 216 216 216 216 216 216 216 216 216 216 216 216 216 216 216 216 216 207 207 207 207 207 207 193 193 193 181 144 113 149 178 178 178 178 178 178 178 149 178 178 178 240 253 253 253 253 253 253 253 253 253 253 253 0 
253 253 253 253 253 253 253 253 253 253 253 253 253 178 178 178 178 194 178 178 178 178 178 178 178 149 149 178 178 178 149 149 149 113 207 216 216 216 216 216 216 216 216 216 216 216 216 216 216 216 216 216 216 216 216 216 216 216 216 216 216 216 216 207 207 207 207 207 193 193 193 193 193 144 149 149 178 149 178 178 178 178 178 149 149 178 178 240 253 253 253 253 253 253 253 253 253 253 253 0 
253 253 253 253 253 253 253 253 253 253 253 253 253 178 178 178 149 149 178 178 178 178 178 178 178 149 149 178 178 178 149 149 113 207 216 216 216 216 216 216 216 216 216 216 216 216 216 216 216 216 216 216 216 216 216 216 216 216 216 216 216 216 207 207 207 207 207 207 193 193 193 193 193 181 144 149 178 178 178 178 178 178 149 149 149 178 178 178 253 253 253 253 253 253 253 253 253 253 253 0 
253 253 253 253 253 253 253 253 253 253 253 253 253 178 178 178 178 149 149 149 178 178 178 178 178 149 109 178 178 178 178 149 149 181 207 207 216 216 216 216 216 216 216 207 216 216 216 216 216 216 216 216 216 216 216 216 216 216 207 216 216 207 207 207 207 207 207 193 193 193 193 193 193 193 144 181 178 178 178 178 178 178 178 149 149 178 178 178 253 253 253 253 253 253 253 253 253 253 253 0 
253 253 253 253 253 253 253 253 253 253 253 253 253 178 178 194 194 194 149 149 178 178 178 178 178 149 109 149 178 178 178 178 149 181 207 216 207 216 207 216 181 181 181 181 207 207 207 207 216 216 216 216 216 216 216 216 216 207 207 207 207 207 207 207 181 181 181 181 181 193 193 193 193 193 181 193 178 178 178 178 178 178 178 149 149 178 178 178 253 253 253 253 253 253 253 253 253 253 253 0 
253 253 253 253 253 253 253 253 253 253 253 253 253 149 178 194 194 194 194 149 149 149 178 178 178 178 178 149 149 178 178 178 149 181 207 207 207 207 181 3 3 3 3 84 144 181 207 207 207 207 207 207 207 207 207 207 216 207 207 207 207 207 207 181 144 113 3 3 3 3 3 144 193 193 181 181 178 178 178 178 178 178 149 149 149 178 178 240 253 253 253 253 253 253 253 253 253 253 253 0 
253 253 253 253 253 253 253 253 253 253 253 253 253 109 149 178 194 194 194 181 181 178 178 178 178 178 178 149 149 149 149 149 149 149 181 181 144 3 3 3 3 3 3 3 3 144 181 207 207 207 207 207 207 207 207 207 207 207 207 207 207 207 181 144 61 3 3 3 3 3 3 3 144 181 181 181 178 178 178 178 178 149 149 149 149 178 178 240 253 253 253 253 253 253 253 253 253 253 253 0 
253 253 253 253 253 253 253 253 253 253 253 253 253 109 149 149 149 178 181 181 181 178 84 178 178 178 178 149 149 149 149 149 149 149 144 144 3 3 3 3 61 61 3 3 3 73 144 181 207 207 207 207 207 207 207 207 207 207 207 207 207 207 144 3 3 61 61 61 3 3 3 3 3 144 144 181 178 178 178 178 178 149 149 149 149 178 178 240 253 253 253 253 253 253 253 253 253 253 253 0 
253 253 253 253 253 253 253 253 253 253 253 253 253 109 149 149 149 149 181 193 193 181 181 178 178 149 178 149 149 149 149 149 149 144 109 3 3 3 3 61 73 93 149 149 73 73 84 181 207 207 207 207 207 207 207 207 207 207 207 207 207 207 144 3 61 61 61 61 61 93 149 3 3 3 109 144 178 178 178 178 217 193 193 149 149 178 178 240 253 253 253 253 253 253 253 253 253 253 253 0 
253 253 253 253 253 253 253 253 253 253 253 253 253 149 149 149 149 149 193 193 193 228 228 207 181 178 178 178 149 149 149 149 149 109 3 3 3 61 61 61 61 149 177 177 149 84 73 113 207 207 207 207 207 207 207 207 207 207 207 207 207 144 113 177 177 61 61 61 93 149 149 149 73 3 109 109 178 178 178 178 217 193 193 149 178 178 178 217 253 253 253 253 253 253 253 253 253 253 253 0 
253 253 253 253 253 253 253 253 253 253 253 253 253 149 149 149 149 178 193 181 181 193 207 181 178 178 178 149 109 149 178 178 149 109 3 3 61 61 61 61 61 61 201 177 149 149 113 113 181 207 207 207 207 207 207 207 207 207 207 207 207 144 177 177 61 61 61 61 93 177 177 201 149 73 73 109 178 178 178 178 178 193 193 193 178 217 217 217 253 253 253 253 253 253 253 253 253 253 253 0 
253 253 253 253 253 253 253 253 253 253 253 253 253 253 149 149 149 178 193 181 181 181 181 207 181 178 149 149 149 178 194 178 149 109 3 61 61 61 61 61 61 61 177 201 201 149 149 149 181 207 207 207 207 207 207 207 207 207 207 207 181 113 177 177 93 61 93 61 93 177 201 201 201 73 73 109 178 178 178 178 178 193 193 149 217 178 217 253 253 253 253 253 253 253 253 253 253 253 253 0 
253 253 253 253 253 253 253 253 253 253 253 253 253 253 149 149 149 149 181 181 181 144 144 181 178 178 149 149 149 194 194 149 109 3 3 61 61 61 93 93 61 61 177 228 228 201 3 149 181 207 207 207 207 207 207 207 207 207 207 207 181 61 61 61 93 61 61 61 146 177 201 201 201 73 73 109 178 178 178 178 178 193 193 193 193 178 217 253 253 253 253 253 253 253 253 253 253 253 253 0 
253 253 253 253 253 253 253 253 253 253 253 253 253 253 149 149 109 149 193 181 181 144 181 207 181 178 178 149 194 194 194 178 109 3 3 61 61 93 61 93 93 146 177 228 228 228 149 181 181 207 207 207 207 207 207 207 207 207 207 207 181 61 61 61 61 61 93 93 93 177 228 201 201 73 73 109 178 149 178 178 178 193 193 193 178 178 253 253 253 253 253 253 253 253 253 253 253 253 253 0 
253 253 253 253 253 253 253 253 253 253 253 253 253 253 178 149 109 149 193 193 181 181 181 181 181 149 181 194 194 194 178 149 109 3 3 61 61 93 93 93 146 146 177 228 228 228 201 181 181 207 207 207 207 207 207 207 207 207 207 207 181 61 61 61 93 61 146 93 93 228 228 228 201 73 3 109 149 149 178 178 178 193 193 193 178 178 253 253 253 253 253 253 253 253 253 253 253 253 253 0 
253 253 253 253 253 253 253 253 253 253 253 253 253 253 178 149 109 109 193 193 181 181 181 181 181 181 207 194 194 178 149 181 181 3 61 61 93 93 93 93 93 146 228 228 228 228 201 201 207 207 207 207 207 207 207 207 207 207 207 207 207 113 93 93 146 146 146 146 93 228 228 201 201 73 109 144 149 149 178 178 149 178 193 193 178 240 253 253 253 253 253 253 253 253 253 253 253 253 253 0 
253 253 253 253 253 253 253 253 253 253 253 253 253 253 178 178 178 178 178 193 193 181 181 181 144 193 178 194 178 149 149 181 181 120 93 93 93 93 146 93 93 177 228 228 228 228 201 207 207 207 207 207 207 207 207 207 207 207 207 207 193 113 113 113 146 177 146 146 146 228 228 201 149 144 144 149 149 149 178 178 149 193 193 217 178 217 217 253 253 253 253 253 253 253 253 253 253 253 253 0 
253 253 253 253 253 253 253 253 253 253 253 253 253 253 194 178 178 178 178 193 193 181 181 181 144 144 194 178 149 149 178 181 181 181 120 120 93 93 146 93 177 201 228 201 201 201 207 207 207 207 207 207 207 207 207 207 207 207 207 207 193 193 146 113 113 146 93 93 177 201 201 149 144 144 149 149 149 178 178 178 178 178 149 149 217 217 240 253 253 253 253 253 253 253 253 253 253 253 253 0 
253 253 253 253 253 253 253 253 253 253 253 253 253 253 194 194 194 178 178 178 193 193 181 181 181 144 178 149 149 120 149 120 160 200 120 120 120 113 113 113 113 201 201 201 201 201 207 207 207 207 207 207 207 207 207 207 207 207 207 207 207 193 193 146 113 144 113 113 113 144 144 144 181 181 181 149 149 149 149 178 178 149 149 149 217 217 217 253 253 253 253 253 253 253 253 253 253 253 253 0 
253 253 253 253 253 253 253 253 253 253 253 253 253 194 194 194 194 194 178 109 193 193 193 193 181 181 149 120 120 120 120 120 200 149 149 120 120 120 181 113 201 201 201 201 207 207 207 207 207 207 207 207 207 216 207 193 193 207 207 216 216 216 216 193 193 181 144 144 181 144 181 181 181 181 181 149 149 149 149 178 178 149 149 149 178 178 217 240 253 253 253 253 253 253 253 253 253 253 253 0 
253 253 253 253 253 253 253 253 253 253 253 253 253 194 194 194 194 217 178 194 193 193 193 193 193 193 178 120 149 149 149 253 160 160 160 160 160 228 228 216 216 216 216 216 216 216 216 216 216 216 207 207 216 216 207 207 181 193 207 216 216 216 228 228 216 207 193 181 181 181 181 181 181 181 181 109 109 149 178 178 178 149 109 149 149 178 178 217 253 253 253 253 253 253 253 253 253 253 253 0 
253 253 253 253 253 253 253 253 253 253 253 253 217 217 217 194 178 178 194 194 193 193 84 193 115 178 178 120 194 253 253 253 160 160 200 160 160 228 228 228 216 216 216 216 216 216 216 216 216 216 216 207 216 216 216 207 193 181 181 207 216 216 228 228 228 216 207 207 193 193 193 181 181 181 181 109 178 149 178 178 178 149 109 109 149 178 178 178 240 253 253 253 253 253 253 253 253 253 253 0 
253 253 253 253 253 253 253 253 253 253 217 217 217 217 194 194 194 194 194 194 194 193 178 115 115 120 120 253 253 253 253 200 200 221 160 160 216 228 216 228 120 216 216 216 216 216 216 216 255 216 216 207 207 216 216 193 181 144 193 207 216 216 216 228 216 216 207 207 193 193 193 181 181 181 181 181 149 149 149 178 178 109 109 109 109 149 178 178 240 253 253 253 253 253 253 253 253 253 253 0 
253 253 253 253 253 253 253 253 253 253 217 217 217 194 194 194 178 194 194 194 194 194 149 149 115 120 120 253 253 253 200 200 253 200 160 216 216 216 216 216 200 200 216 216 216 216 216 216 216 216 216 207 193 181 181 181 181 181 193 216 216 216 216 216 216 216 207 207 193 193 181 181 181 181 207 207 149 149 149 178 149 149 109 109 109 149 178 178 240 253 253 253 253 253 253 253 253 253 253 0 
253 253 253 253 253 253 253 217 194 194 194 194 194 194 194 178 178 194 194 194 194 178 149 149 120 120 149 253 253 253 253 253 240 200 200 216 216 216 216 216 200 120 216 216 216 216 216 216 216 216 216 216 216 193 181 181 193 193 216 216 216 216 216 216 216 207 207 207 193 193 181 181 181 181 228 228 149 149 149 178 149 149 109 109 109 149 178 178 217 253 253 253 253 253 253 253 253 253 253 0 
253 253 253 253 253 253 194 194 194 194 194 194 194 194 178 109 149 194 194 194 178 149 149 149 120 120 149 253 253 253 253 253 221 216 216 216 216 216 240 216 160 160 216 216 216 216 216 216 216 216 216 216 207 216 216 216 207 216 216 216 216 216 216 216 216 207 207 207 193 181 181 181 181 207 228 228 149 149 149 178 178 149 109 109 149 178 178 217 217 253 253 253 253 253 253 253 253 253 253 0 
253 253 253 253 253 194 194 194 194 194 194 194 194 178 149 109 178 194 194 194 178 149 149 149 115 120 149 253 253 149 253 253 221 216 216 216 216 216 240 160 160 216 216 216 216 216 216 207 207 207 207 207 207 207 216 216 207 207 207 207 207 216 216 216 207 207 207 193 193 181 181 181 207 228 228 207 109 149 149 149 178 149 149 149 149 178 217 217 253 253 253 253 253 253 253 253 253 253 253 0 
253 253 253 253 253 194 217 194 194 194 194 178 149 109 109 109 109 194 194 194 178 149 149 115 115 120 149 253 160 149 253 221 221 200 207 120 216 240 200 200 216 216 216 216 216 216 207 181 181 192 179 179 179 179 179 179 179 207 206 207 207 207 216 216 207 207 207 193 181 181 181 207 228 228 149 113 109 115 149 149 178 149 149 149 178 178 217 217 253 253 253 253 253 253 253 253 253 253 253 0 
253 253 253 253 178 217 194 194 194 194 178 149 109 109 109 109 109 178 194 194 178 149 149 115 115 120 160 253 221 160 240 240 200 200 193 193 221 221 160 160 216 216 216 216 216 216 216 206 190 179 179 179 179 179 179 179 179 179 181 207 207 207 207 207 207 207 193 193 193 181 193 207 181 149 113 109 109 109 115 149 149 149 149 178 178 178 217 253 253 253 253 253 253 253 253 253 253 253 253 0 
253 253 253 253 178 217 178 217 194 178 149 109 109 109 109 109 109 149 178 178 178 178 178 115 115 120 160 240 240 253 240 240 200 200 120 120 221 221 160 160 216 216 216 216 216 216 216 216 193 190 190 204 204 204 204 190 190 181 207 207 207 207 207 207 193 193 193 193 193 193 149 149 149 149 149 109 109 109 109 115 109 149 149 149 217 178 178 253 253 253 253 253 253 253 253 253 253 253 253 0 
253 253 253 253 178 178 178 178 178 178 149 109 109 109 109 109 109 109 149 149 178 178 194 178 109 109 120 221 240 221 240 240 221 200 120 160 221 221 160 160 207 216 216 216 216 216 216 216 216 216 204 204 204 204 204 204 193 193 193 207 207 207 193 193 193 193 193 193 193 149 149 149 149 149 149 109 109 109 109 109 115 149 149 149 178 178 178 178 253 253 253 253 253 253 253 253 253 253 253 0 
253 253 253 253 253 178 178 178 178 178 178 149 109 109 109 109 109 109 149 109 149 178 178 194 178 120 120 221 221 240 240 221 221 200 160 160 221 221 160 160 207 207 216 216 216 216 216 216 216 216 216 204 204 204 204 204 204 193 193 193 193 193 193 193 193 193 193 181 149 149 149 149 149 149 149 109 109 149 149 109 149 149 149 149 178 178 178 253 253 253 253 253 253 253 253 253 253 253 253 0 
253 253 253 253 253 178 178 149 178 178 178 178 149 149 109 109 109 109 149 149 149 149 178 194 194 194 178 178 178 221 221 221 221 200 200 200 221 221 200 200 160 160 207 207 216 216 216 216 216 216 216 216 216 207 207 207 207 207 193 193 181 181 181 181 181 181 149 149 149 149 178 149 149 149 149 109 149 149 149 149 149 149 149 149 178 178 178 253 253 253 253 253 253 253 253 253 253 253 253 0 
253 253 253 253 253 253 149 149 149 149 178 178 178 178 149 109 109 109 109 149 149 149 149 194 178 194 194 178 194 200 221 221 221 221 200 221 221 200 200 200 200 160 160 160 207 207 207 216 216 216 216 216 216 207 207 207 207 193 193 181 181 181 109 109 109 149 178 178 178 178 178 149 178 178 194 109 149 149 149 149 149 149 149 178 178 240 253 253 253 253 253 253 253 253 253 253 253 253 253 0 
253 253 253 253 253 253 253 253 149 149 149 149 178 178 178 149 109 109 109 149 149 149 149 149 149 178 194 194 194 194 200 221 221 221 200 221 221 200 200 200 200 200 160 160 160 120 181 207 207 207 207 207 207 207 207 193 193 181 181 181 109 109 109 109 109 109 178 178 194 178 178 178 149 178 109 109 109 149 149 149 149 149 149 178 178 240 253 253 253 253 253 253 253 253 253 253 253 253 253 0 
253 253 253 253 253 253 253 253 253 149 149 149 149 178 178 178 149 109 109 109 149 149 149 149 149 149 178 194 194 194 178 120 200 221 221 221 221 200 200 200 200 200 200 200 160 160 120 120 181 193 193 193 207 193 193 181 181 181 181 84 84 109 109 109 109 149 178 194 194 178 178 149 149 109 109 109 149 149 149 149 149 149 149 178 178 217 253 253 253 253 253 253 253 253 253 253 253 253 253 0 
253 253 253 253 253 253 253 253 253 149 149 149 149 178 178 178 149 109 109 109 149 149 149 149 149 149 178 194 194 178 149 149 120 149 221 221 221 221 221 200 200 200 221 200 200 120 160 120 181 181 181 181 181 181 181 181 181 181 84 84 109 109 109 109 149 178 178 194 178 178 178 149 109 109 109 109 109 149 109 109 149 149 149 178 178 178 240 240 253 178 240 253 253 253 253 253 253 253 253 0 
253 253 253 253 253 253 253 253 253 253 149 149 149 178 178 149 149 109 109 109 149 149 149 149 149 178 194 194 178 178 149 120 149 149 149 221 221 221 221 221 221 221 200 200 200 160 181 160 181 181 181 181 181 84 181 181 181 181 84 109 109 109 109 109 149 149 178 178 178 178 149 109 109 109 109 149 149 109 149 149 149 149 149 149 178 178 217 240 178 178 253 253 253 253 253 253 253 253 253 0 
253 253 253 253 253 253 253 253 253 149 149 178 178 178 178 149 149 109 109 109 149 149 149 149 178 217 194 178 178 149 109 149 149 149 149 149 221 221 221 221 221 221 221 200 200 200 160 160 181 193 193 193 181 181 181 181 181 193 181 91 109 109 109 149 149 149 109 178 178 178 178 109 109 109 109 149 149 149 149 149 149 149 149 149 149 149 178 178 240 240 253 253 253 253 253 253 253 253 0 0 
253 253 253 253 253 253 253 253 217 178 194 178 178 178 178 149 109 109 109 109 149 149 194 194 194 194 178 149 149 109 109 109 149 149 149 149 149 221 221 221 221 221 221 221 200 200 160 160 193 207 207 193 193 193 193 193 181 181 181 181 109 109 109 149 149 149 149 178 178 178 178 149 109 109 109 149 178 178 178 149 149 149 149 149 109 178 217 240 240 253 253 253 253 253 253 253 253 253 0 0 
253 253 253 253 253 253 253 253 194 217 194 194 178 178 149 149 109 109 109 109 149 194 217 194 194 178 149 149 149 109 109 109 109 149 149 149 149 149 221 221 221 221 221 221 200 200 160 200 207 207 207 207 207 193 193 193 193 181 181 181 181 120 120 149 149 149 149 149 178 149 178 178 149 149 109 149 178 178 178 178 149 178 149 149 149 178 253 253 253 253 253 253 253 253 253 253 253 253 253 0 
253 253 253 253 253 253 217 194 217 217 194 194 178 178 149 109 109 109 109 149 178 194 217 194 178 149 149 149 149 149 109 109 109 109 149 149 149 120 200 221 221 221 221 221 221 200 160 200 207 207 207 207 207 193 193 193 193 181 181 181 181 149 149 120 149 149 149 149 149 149 149 149 178 109 178 178 178 178 178 178 178 178 178 178 240 253 253 253 253 253 253 253 253 253 253 253 253 253 253 0 
253 253 253 253 253 178 178 194 217 194 194 178 149 149 109 109 109 109 109 149 178 194 194 194 178 149 149 149 149 149 149 149 109 109 149 149 149 120 200 221 240 240 221 221 200 200 160 200 207 207 207 207 207 193 193 193 193 181 181 181 157 149 149 149 149 149 253 149 149 149 149 149 178 149 178 178 178 178 194 178 178 178 178 217 253 253 253 253 253 253 253 253 253 253 253 253 253 253 253 0 
253 253 253 253 253 178 194 194 217 217 178 149 149 109 109 109 109 109 109 149 178 194 194 194 194 194 178 149 149 149 149 149 149 149 149 149 149 200 240 240 240 240 240 221 200 160 120 200 207 207 207 207 207 193 193 193 181 181 181 181 157 157 120 160 221 160 240 194 149 178 178 149 149 149 178 178 178 178 178 178 178 217 217 178 253 253 253 253 253 253 253 253 253 253 253 253 253 253 253 0 
253 253 253 253 178 178 194 217 194 217 149 149 149 109 109 109 109 109 109 149 149 178 178 194 178 178 194 178 149 149 149 149 149 149 149 149 149 120 240 253 240 240 240 221 200 120 160 207 207 207 207 207 207 193 193 193 193 181 181 157 157 157 200 200 200 240 221 194 194 194 149 149 149 149 149 149 178 178 178 178 178 217 217 253 253 253 253 253 253 253 253 253 253 253 253 253 253 253 253 0 
253 253 253 253 178 217 194 217 217 149 149 149 149 149 109 109 109 109 109 149 149 149 178 178 178 178 178 178 149 149 149 149 149 149 149 149 149 149 221 253 253 240 240 221 200 160 200 207 207 207 207 207 193 193 193 193 181 181 157 157 157 200 200 200 200 217 194 194 194 178 178 149 178 149 149 149 149 149 149 178 178 217 253 253 253 253 253 253 253 253 253 253 253 253 253 253 253 253 253 0 
253 253 253 253 178 194 194 194 178 149 149 109 149 149 109 109 109 109 109 109 149 149 149 149 149 149 149 149 149 149 149 149 149 149 149 149 149 149 221 253 253 240 240 221 200 144 193 207 207 207 207 193 193 193 193 181 181 157 157 157 200 200 200 200 160 200 194 194 149 149 149 149 194 253 253 149 149 149 149 178 178 240 253 253 253 253 253 253 253 253 253 253 253 253 253 253 253 253 253 0 
253 253 253 253 178 194 178 194 178 149 149 149 149 149 109 109 109 109 109 109 149 149 149 149 120 149 149 149 149 240 221 200 149 149 149 149 149 221 240 253 240 240 221 221 120 120 157 193 193 193 193 193 193 193 181 157 157 157 157 157 221 200 200 160 194 160 194 149 160 194 160 200 221 253 253 253 149 149 149 178 178 240 253 253 253 253 253 253 253 253 253 253 253 253 253 253 253 253 253 0 
253 253 253 253 149 178 178 178 194 178 149 149 149 149 149 109 109 109 109 109 109 149 120 149 120 200 240 253 253 253 240 221 221 221 149 120 120 178 240 240 240 240 221 221 120 120 157 157 193 193 193 193 193 157 157 157 157 133 205 221 221 200 200 149 194 149 149 194 194 160 200 221 221 240 253 253 160 149 149 178 178 240 253 253 253 253 253 253 253 253 253 253 253 253 253 253 253 253 253 0 
253 253 253 253 253 149 149 178 194 178 149 149 149 149 149 149 109 109 109 109 109 109 120 149 240 253 253 253 253 253 240 221 240 240 240 120 120 149 240 240 240 240 240 200 157 133 157 157 157 157 193 157 193 157 193 157 157 221 221 221 200 200 200 200 149 149 149 194 160 200 200 221 221 240 240 240 253 149 160 178 178 217 240 253 253 253 253 253 253 253 253 253 253 253 253 253 253 253 253 0 
253 253 253 253 253 149 149 149 178 178 178 149 149 149 149 149 149 149 109 109 109 109 120 200 240 240 253 253 253 253 240 221 221 221 221 120 120 221 200 240 253 255 240 200 160 157 205 157 157 157 157 189 189 224 157 205 205 221 221 200 200 200 200 200 149 149 149 149 194 200 200 221 221 240 240 253 253 253 149 160 178 217 217 217 253 253 253 253 253 253 253 253 253 253 253 253 253 253 253 0 
253 253 253 253 253 253 149 109 149 149 178 178 149 149 149 149 149 149 149 109 109 109 120 200 240 240 253 253 253 240 240 200 221 160 221 120 240 240 253 221 253 255 221 155 155 155 155 155 117 155 155 157 189 208 133 205 133 205 200 160 160 200 200 200 200 194 109 109 160 109 200 221 221 221 240 240 253 253 149 149 178 217 217 217 109 253 253 253 253 253 253 253 253 253 253 253 253 253 0 0 
253 253 253 253 253 253 253 149 149 149 149 178 178 178 149 149 149 149 149 109 109 109 120 200 240 240 240 240 240 240 200 200 160 120 120 221 240 240 240 240 240 200 200 155 155 187 155 155 155 187 187 187 189 187 171 155 211 187 187 171 187 160 176 176 176 149 194 109 149 160 200 200 221 221 221 240 253 253 160 149 149 149 178 217 253 253 253 253 253 253 253 253 253 253 253 253 253 253 0 0 
0 253 253 253 253 253 253 253 149 149 149 149 149 149 149 149 149 149 149 109 109 109 160 200 240 240 240 240 240 221 200 160 160 155 120 240 240 240 240 240 221 200 120 160 155 187 155 155 171 187 187 187 171 171 155 211 187 187 171 171 171 171 160 117 155 117 117 117 117 160 200 200 221 221 221 240 240 240 160 149 149 149 149 109 240 253 253 253 253 253 253 253 253 253 253 253 253 253 253 0 
253 253 253 253 253 253 253 253 253 149 149 149 149 149 149 149 149 149 149 109 109 120 200 200 240 240 240 240 221 221 200 160 155 155 221 240 240 240 240 240 221 200 171 160 187 155 171 171 171 187 187 187 171 155 187 211 187 187 171 171 171 187 155 155 117 155 155 155 160 160 160 200 200 221 221 221 240 240 160 149 149 149 149 149 109 253 253 253 253 253 253 253 253 253 253 253 253 253 253 0 
253 253 253 253 253 253 253 253 253 253 149 149 149 149 149 109 149 149 149 109 109 160 200 221 240 221 221 221 221 200 200 160 155 221 240 240 240 240 240 221 221 200 171 171 187 155 171 187 187 187 187 187 171 187 211 211 211 187 171 171 171 171 155 117 117 155 155 155 160 160 160 200 200 200 221 240 240 253 240 160 149 149 178 149 240 253 253 253 253 253 253 253 253 253 253 253 253 253 253 0 
253 253 253 253 253 253 253 253 253 178 149 149 178 149 149 149 149 149 149 109 120 200 200 240 240 240 221 221 200 200 200 120 211 221 240 240 240 240 240 221 200 200 171 171 171 171 171 155 155 171 171 171 171 187 187 211 187 187 171 171 155 155 155 117 171 155 155 155 155 117 160 160 200 200 200 240 240 253 253 160 149 149 178 178 240 253 253 253 253 253 253 253 253 253 253 253 253 253 253 0 
253 253 253 253 253 253 253 178 178 178 178 178 178 149 149 149 149 149 149 120 120 200 240 240 240 240 221 221 200 160 160 200 221 240 240 240 240 240 240 221 200 200 171 211 187 187 187 187 187 187 187 187 211 211 211 211 211 211 187 171 171 171 155 155 155 155 155 117 155 117 117 160 200 200 200 240 240 253 253 253 149 160 178 178 240 253 253 253 253 253 253 253 253 253 253 253 253 253 253 0 
253 253 253 253 253 253 253 178 109 149 178 178 178 149 149 149 149 149 109 120 120 200 240 240 240 240 221 221 200 128 120 221 240 240 253 240 240 240 240 221 200 171 171 171 171 171 171 155 171 171 171 171 187 187 187 187 187 187 171 171 171 171 171 171 171 171 171 171 171 171 117 160 160 200 200 221 240 253 253 253 149 178 178 178 240 253 253 253 253 253 253 253 253 253 253 253 253 253 253 0 
253 253 253 253 253 253 253 109 109 109 149 149 149 149 109 109 149 109 109 109 120 120 200 221 221 221 200 200 128 120 120 128 221 221 240 240 240 240 221 200 120 120 171 171 171 171 155 155 171 155 171 171 187 187 187 187 187 171 171 171 155 155 155 155 155 155 155 171 171 117 117 117 117 160 200 200 221 240 240 253 149 149 149 109 109 253 253 253 253 253 253 253 253 253 253 253 0 253 0 0 
0 0 0 0 0 0 0 0 0 0 0 0 0 0 0 0 0 0 0 0 0 0 0 0 0 0 0 0 0 0 0 0 0 0 0 0 0 0 0 0 0 0 0 0 0 0 0 0 0 0 0 0 0 0 0 0 0 0 0 0 0 0 0 0 0 0 0 0 0 0 0 0 0 0 0 0 0 0 0 0 0 0 0 0 0 0 0 0 0 0 0 0 0 0 0 0 0 0 0 0 
