P2
# Created by IrfanView
100 100
255
253 253 253 253 253 253 253 253 253 253 253 253 253 253 253 0 253 
253 253 253 253 253 253 253 255 253 253 0 253 253 253 253 253 
255 253 253 253 253 253 253 253 253 253 253 255 253 253 253 253 
253 253 253 253 255 0 253 0 0 253 253 253 253 253 253 253 
253 253 253 253 253 253 253 253 253 253 253 253 253 253 253 255 
253 253 253 253 253 253 255 253 253 255 253 253 253 0 253 253 
253 253 253 253 253 253 253 253 253 253 253 255 253 253 253 253 253 253 253 253 
253 253 253 253 253 255 253 253 253 253 253 253 0 253 253 253 
253 0 253 253 253 253 253 253 253 253 253 253 253 0 253 253 
253 253 253 253 253 253 253 253 253 253 253 253 253 253 253 255 
253 253 253 253 253 253 253 253 253 253 253 253 253 253 253 253 
253 253 253 253 253 253 253 253 253 253 253 253 253 253 0 253 
253 253 253 0 0 253 0 253 253 253 253 255 253 255 253 0 253 253 253 255 
253 253 253 253 253 253 253 253 253 253 253 253 253 253 253 253 
253 253 253 0 253 253 253 253 253 0 253 253 253 253 255 253 
253 253 255 253 253 253 253 253 253 253 253 253 253 253 253 253 
253 253 253 253 0 253 253 253 253 253 253 253 253 253 253 253 
0 253 253 253 253 253 253 253 253 253 253 253 253 255 253 253 
253 253 253 253 253 253 253 253 253 253 253 253 253 253 253 253 255 0 253 253 
253 253 0 253 255 253 253 253 253 253 253 253 255 253 253 253 
253 253 253 255 253 253 0 253 253 253 253 253 109 255 109 109 
109 109 109 109 109 0 109 253 253 253 255 253 255 253 253 253 
253 253 253 253 253 253 253 0 253 253 253 253 253 253 253 253 
253 253 253 253 253 0 253 253 253 253 253 253 253 253 253 253 
253 255 253 255 253 253 253 253 253 253 253 253 253 253 253 253 253 253 253 253 
253 253 253 253 253 253 253 0 253 253 253 253 255 253 253 253 
253 253 253 253 0 253 109 109 109 109 109 109 178 178 178 178 
178 178 178 178 149 149 149 255 109 109 109 109 109 253 253 253 
253 253 253 253 253 253 253 253 253 253 253 253 255 253 253 253 
255 253 253 253 253 0 253 253 253 253 253 253 253 253 253 253 
253 253 253 253 253 253 253 0 253 0 253 253 253 253 253 253 253 253 253 253 
253 253 253 253 253 253 253 253 253 253 253 253 253 253 253 253 
253 253 109 109 109 109 0 217 255 217 217 217 217 217 217 217 
217 194 194 194 194 178 178 178 178 149 149 149 149 109 109 109 
109 253 253 253 253 253 253 253 253 253 253 253 253 253 253 253 
253 253 253 253 253 253 253 253 253 253 253 253 253 253 253 253 
253 253 253 253 253 253 253 255 253 253 253 253 253 253 253 253 253 253 253 255 
253 253 253 253 253 253 253 255 253 253 253 253 253 253 253 253 
109 109 178 217 217 217 194 194 194 194 194 194 194 194 194 194 
194 255 194 255 194 194 194 194 194 178 178 178 178 149 149 178 
178 109 109 253 253 253 253 253 255 253 253 253 253 253 255 0 
253 253 253 253 253 253 253 253 253 253 253 253 253 253 253 253 
253 253 253 253 253 253 253 253 253 253 0 253 253 253 253 255 253 253 253 253 
253 253 253 253 253 253 253 253 253 253 253 253 253 253 253 109 
178 217 217 194 194 0 217 217 217 217 217 217 217 217 217 255 
217 217 217 0 217 217 217 194 194 194 194 194 194 178 178 149 
149 178 255 109 109 253 255 253 253 253 253 253 253 253 253 253 
255 253 253 253 253 253 253 253 0 253 253 253 253 253 253 253 
253 253 253 253 253 253 253 253 253 253 253 253 253 253 253 253 0 253 0 253 
253 253 253 253 253 253 253 0 253 253 253 253 253 253 109 178 
217 194 194 0 217 217 217 194 149 149 149 149 149 149 149 149 
149 255 149 149 149 109 149 109 149 149 178 178 194 194 194 194 
178 149 149 255 178 109 109 253 253 253 253 253 253 255 253 253 
253 253 253 253 253 253 253 253 255 253 253 253 253 253 0 253 
253 253 253 253 253 253 253 253 253 253 253 253 253 253 255 253 253 253 253 253 
253 253 253 253 253 253 253 253 253 253 253 109 109 109 149 178 
194 194 217 255 194 149 149 149 178 178 178 178 178 178 178 178 
178 178 178 178 149 149 149 149 109 109 109 109 0 149 149 178 
194 194 178 149 149 178 178 149 149 253 253 255 253 253 253 253 
253 0 253 253 253 253 253 255 253 253 253 253 253 253 253 253 
253 253 253 255 253 253 253 253 253 253 253 0 253 253 253 253 253 253 253 253 
253 253 253 253 253 253 253 253 253 109 109 149 149 109 149 178 
178 217 194 149 149 178 178 194 194 217 217 217 217 217 217 217 
194 194 194 194 194 178 178 178 149 149 149 149 109 109 0 109 
149 149 178 178 0 149 149 178 217 149 253 253 253 253 253 253 
253 253 253 253 253 253 253 253 0 253 253 253 255 255 253 0 
253 253 253 253 253 253 253 253 253 253 253 0 253 253 253 253 253 253 0 253 
253 253 253 253 253 253 253 253 109 194 194 178 149 109 149 149 
194 194 149 178 194 194 217 217 217 194 194 194 194 255 194 178 
194 178 194 178 178 178 178 178 178 178 178 149 149 149 178 178 
109 109 149 149 178 178 149 149 149 255 149 253 253 253 253 253 
253 253 253 253 253 253 253 253 253 253 253 253 253 253 253 253 
253 253 253 253 253 0 255 253 253 0 255 253 253 253 253 253 253 253 253 255 
253 253 253 253 253 253 253 109 0 217 217 194 178 109 149 178 
178 149 178 194 255 217 194 194 194 194 217 217 217 217 217 255 
0 217 217 0 217 194 194 194 194 194 178 178 178 255 149 149 
178 178 255 109 149 149 178 178 149 149 217 149 253 253 253 253 
253 253 253 253 253 253 253 253 253 253 253 253 253 253 253 253 
253 253 253 253 253 253 253 253 253 253 253 253 253 253 253 253 253 253 255 253 
253 253 253 253 253 253 109 178 194 194 194 194 178 109 149 178 
109 178 194 217 194 255 194 217 217 217 217 217 217 217 217 217 
217 217 255 217 217 217 217 217 217 217 217 194 194 178 178 149 
149 0 178 178 109 109 149 149 178 149 149 217 178 253 253 253 
253 253 253 253 253 253 255 253 253 253 255 253 253 253 255 253 
253 253 253 253 253 253 253 253 253 253 253 253 0 0 253 253 253 253 253 253 
253 253 253 253 253 109 149 0 149 149 149 149 149 109 149 0 
149 194 217 194 178 217 217 217 194 194 178 149 149 149 149 255 
149 149 149 149 149 149 149 149 149 178 194 217 217 217 194 178 
178 149 149 149 0 178 109 109 149 178 149 149 217 178 253 253 
253 253 253 253 253 253 253 253 255 253 253 255 253 253 253 253 
253 253 253 253 253 255 253 253 253 253 0 0 253 253 253 253 253 253 253 253 
253 253 253 253 0 194 217 217 217 217 194 178 109 109 149 109 
149 178 178 149 217 194 194 178 149 149 149 149 149 149 149 149 
255 255 149 149 255 149 149 149 109 149 255 149 178 194 217 0 
194 194 178 149 149 149 178 178 109 149 149 149 149 255 178 253 
253 253 253 253 253 253 253 253 253 253 253 253 253 253 253 253 
253 253 253 253 255 255 253 253 253 253 253 253 253 253 253 253 253 253 253 253 
253 253 253 149 194 194 0 194 194 194 194 194 178 149 109 149 
149 178 149 217 194 178 149 149 178 178 178 178 178 178 178 178 
178 178 178 178 149 149 149 149 178 178 178 255 109 149 149 178 
194 194 194 194 178 149 149 149 178 109 149 0 255 178 255 178 
253 253 253 253 255 255 253 253 253 253 253 253 253 253 253 253 
253 253 253 253 253 253 253 253 253 0 253 253 0 253 253 253 253 253 253 253 
253 253 149 0 178 194 194 194 194 194 178 178 149 149 149 109 
149 149 194 194 178 149 178 178 0 194 217 217 217 217 0 217 
217 217 217 217 194 178 178 178 149 149 149 178 178 178 109 109 
149 178 178 255 194 178 178 0 149 178 194 149 149 149 178 217 
255 0 253 253 253 253 253 0 253 253 253 253 253 253 0 253 
253 0 253 253 253 255 253 253 253 253 253 255 253 253 253 253 253 253 253 253 
253 149 178 149 194 217 217 217 0 217 194 194 178 178 255 109 
255 0 178 178 149 178 194 217 217 217 194 194 194 194 0 194 
194 194 194 255 217 217 0 194 178 178 178 149 149 149 178 178 
109 109 0 178 178 194 194 178 149 149 255 194 149 255 0 217 
178 253 253 253 253 253 253 253 253 253 253 253 253 253 253 253 
253 253 253 253 253 253 253 253 253 253 253 0 253 253 253 253 255 0 253 253 
253 149 255 194 217 194 109 109 109 109 109 109 109 149 0 149 
109 149 178 149 178 217 217 194 194 194 194 217 217 217 217 217 
217 255 217 217 194 194 0 194 194 255 0 178 178 178 149 149 
178 178 109 109 149 178 0 0 178 149 149 178 217 255 149 178 
217 178 253 253 0 253 253 255 253 253 253 253 253 253 253 253 
253 255 253 253 253 255 253 253 253 253 253 253 0 255 253 253 253 253 253 253 
149 178 217 194 109 255 178 0 194 194 194 194 0 109 0 149 
109 149 109 178 217 194 194 194 217 217 217 217 217 217 217 217 
217 217 217 217 217 217 217 217 217 194 0 194 255 178 178 149 
149 149 178 178 109 149 149 178 194 178 149 149 178 217 149 149 
194 217 178 253 253 253 0 253 253 253 253 253 253 253 0 253 
253 253 253 0 253 253 253 253 253 253 253 253 253 255 255 253 253 253 253 253 
149 194 194 109 194 194 217 217 255 217 217 194 255 194 149 109 
109 109 109 194 194 194 217 217 194 178 178 149 0 255 149 149 
149 149 149 178 178 178 194 194 217 217 217 217 194 194 178 178 
178 255 149 149 178 194 109 149 178 194 178 149 149 178 255 149 
178 217 178 253 253 253 253 253 253 253 253 0 253 253 253 253 
255 253 253 253 253 253 253 253 253 253 255 253 253 253 253 253 253 253 253 149 
178 194 109 194 217 217 194 0 178 178 255 178 178 178 178 149 
149 109 149 178 194 217 194 178 149 109 109 109 109 109 109 109 
109 109 109 109 109 255 149 149 149 149 194 217 217 217 194 194 
178 178 178 149 149 178 194 109 149 178 194 178 149 149 178 217 
149 178 217 178 253 253 253 253 253 253 253 253 253 253 0 253 
253 253 253 253 255 255 253 253 253 0 253 255 253 253 253 253 253 0 253 149 
178 109 194 255 194 194 194 217 217 217 194 178 255 149 0 149 
109 109 149 178 217 178 149 109 0 149 149 149 149 149 0 0 
149 149 149 149 149 255 0 109 109 0 149 149 149 194 217 217 
194 178 178 178 149 149 178 194 109 149 178 178 178 149 149 178 
217 149 217 178 253 253 253 253 253 253 253 253 253 253 253 253 
253 253 253 253 253 253 253 253 253 253 253 255 253 253 253 253 253 253 253 149 
109 194 217 194 194 217 217 194 194 178 149 178 194 194 194 178 
149 109 149 178 178 149 109 149 149 149 0 178 149 178 178 149 
178 178 149 178 178 149 149 149 149 0 109 109 109 149 149 0 
217 194 178 178 178 149 149 255 194 109 149 178 178 178 149 149 
178 217 149 240 178 253 253 253 253 253 253 253 253 253 255 253 
0 253 253 253 253 253 253 253 253 253 253 253 253 253 253 253 253 253 149 109 
255 217 194 178 217 194 194 178 0 178 194 0 194 109 0 109 
109 109 149 178 149 109 149 178 178 149 178 178 149 178 178 149 
255 178 149 178 178 149 178 178 149 178 178 149 149 109 109 149 
255 194 194 178 178 178 149 149 178 194 149 149 178 178 149 149 
178 217 149 240 178 253 253 253 253 253 253 253 253 253 253 253 
253 253 253 253 255 253 253 253 253 253 253 253 253 253 253 253 253 253 149 178 
194 178 178 217 194 178 149 178 178 194 217 194 109 194 194 255 
178 149 109 149 109 149 149 0 178 149 178 113 144 181 181 181 
181 181 181 181 181 181 181 255 113 178 178 149 149 255 149 109 
109 149 255 194 255 178 178 149 149 178 194 149 149 178 178 149 
149 178 217 149 178 253 253 253 253 253 0 253 253 0 253 253 
253 253 253 253 253 253 0 253 253 253 253 253 253 253 255 253 253 253 149 194 
178 194 194 178 149 178 178 194 217 255 194 0 194 217 194 194 
194 178 149 109 109 149 149 144 144 181 181 181 193 193 193 193 
193 193 193 193 193 193 193 193 193 181 181 181 144 144 0 149 
149 109 149 194 194 178 178 178 149 149 178 217 0 178 178 149 
149 178 255 217 178 253 253 253 0 255 253 253 253 253 253 255 
255 253 253 255 253 253 253 253 253 253 253 253 253 253 253 253 253 109 178 178 
194 255 149 178 178 194 217 0 194 194 109 194 217 194 0 178 
109 109 178 149 0 149 144 181 181 216 228 228 228 228 228 228 
0 228 228 216 255 216 228 255 216 216 216 216 193 193 0 255 
144 0 109 149 194 194 178 178 149 149 149 194 194 149 178 178 
149 149 178 240 178 253 255 253 0 253 253 253 253 253 253 253 
253 253 253 253 253 253 253 253 253 253 253 253 253 253 253 253 253 109 0 0 
149 255 194 217 217 217 194 194 178 178 109 217 255 194 178 109 
149 149 109 149 109 144 181 228 255 228 228 228 228 228 228 228 
228 228 216 228 216 228 216 216 216 255 216 216 216 255 207 216 
207 181 144 0 0 194 194 178 178 0 149 178 217 0 149 178 
149 149 178 217 217 178 253 253 0 253 253 253 253 253 253 253 
253 253 253 253 253 253 253 253 253 253 0 253 253 253 253 253 253 149 178 217 
217 217 217 194 194 194 178 178 178 109 194 217 194 194 178 109 
149 113 0 181 181 228 228 228 228 255 228 228 228 228 228 228 
228 228 228 216 228 216 228 216 216 216 216 216 255 216 216 207 
207 207 181 144 109 149 0 194 178 178 149 149 194 194 149 178 
149 149 149 178 240 178 0 253 0 253 253 253 253 253 253 253 
253 253 253 253 253 253 253 253 0 253 253 253 253 255 253 253 253 149 178 194 
194 194 194 178 0 178 178 194 194 109 217 217 194 178 109 149 
113 144 255 193 228 228 0 228 228 228 228 228 228 228 228 228 
228 228 228 228 0 228 216 216 216 216 216 216 216 216 207 216 
207 207 255 181 255 109 149 194 194 178 149 149 178 217 149 149 
178 149 149 178 217 217 178 253 253 253 253 253 253 253 255 253 
253 253 253 253 253 253 255 253 253 253 253 253 253 253 0 253 149 178 178 178 
178 178 178 178 194 217 217 194 178 255 217 194 194 178 109 113 
144 181 193 216 228 228 228 228 228 228 228 228 228 228 228 228 
228 228 228 216 0 216 228 216 216 216 216 216 216 216 216 207 
207 207 207 207 181 144 109 149 194 178 178 149 149 217 178 149 
178 149 149 149 178 240 255 253 253 253 253 253 253 253 253 255 
253 253 253 0 253 253 253 253 253 253 253 253 253 253 253 253 149 178 194 217 
217 217 0 217 217 194 194 0 109 194 217 194 178 149 109 144 
255 193 216 228 228 228 0 228 228 228 228 228 228 228 228 228 
228 228 255 228 216 255 0 228 216 216 216 216 216 216 207 216 
207 207 207 207 207 181 144 109 149 194 178 0 149 194 194 149 
178 149 149 255 178 240 178 253 253 253 253 253 253 255 253 253 
253 253 253 253 253 253 253 0 253 253 253 253 253 253 253 253 109 149 178 178 
194 194 194 194 178 178 178 178 109 0 217 194 178 149 109 144 
181 216 228 0 228 228 228 228 228 228 228 228 228 228 255 228 
228 228 228 216 228 216 228 216 216 216 216 216 216 216 216 255 
255 255 207 207 207 207 181 109 255 194 178 178 0 178 217 149 
149 178 149 149 178 240 178 253 253 253 253 253 253 253 253 253 
253 0 253 253 253 253 253 253 253 253 253 253 253 0 253 253 109 109 149 178 
178 178 255 178 178 178 149 149 109 194 217 194 178 149 109 181 
0 216 216 228 216 228 144 144 144 144 0 144 228 228 0 228 
228 228 228 228 255 228 216 228 216 216 216 216 216 216 207 207 
144 144 144 144 144 193 181 0 109 149 194 178 149 255 0 149 
149 178 149 149 178 240 178 253 253 253 253 253 253 253 253 253 
253 253 253 253 0 253 253 0 253 253 253 253 253 253 253 253 149 178 178 149 
255 149 149 149 149 149 149 109 109 194 217 194 178 149 109 181 
193 216 228 216 181 113 113 113 113 113 84 84 113 144 228 228 
228 228 228 216 228 216 228 216 216 216 216 216 216 216 144 84 
84 84 113 0 113 144 255 181 109 0 194 178 178 149 255 178 
149 178 149 149 178 255 178 253 253 253 253 253 253 253 255 253 
253 253 253 253 253 253 255 253 253 253 255 253 253 253 253 0 149 178 178 194 
217 217 217 217 217 217 194 178 109 194 217 194 178 149 109 181 
216 216 216 255 113 228 216 228 216 228 216 181 144 84 113 228 
216 228 0 228 0 228 216 216 216 216 216 216 216 144 84 144 
181 207 207 193 207 113 113 144 144 109 178 194 178 149 194 194 
149 178 149 149 178 240 178 253 253 253 253 253 253 253 253 253 
253 253 253 253 253 253 253 253 253 253 253 253 253 253 253 255 109 178 194 178 
178 255 194 194 194 194 0 178 109 178 217 194 178 0 109 181 
216 216 113 216 216 0 0 216 228 216 228 216 228 181 144 113 
228 216 255 216 228 216 216 216 216 216 255 216 113 255 0 207 
207 207 0 255 0 193 193 113 144 109 178 194 178 149 178 217 
149 178 149 149 178 240 178 253 253 253 253 253 253 253 253 253 
253 253 253 255 253 253 253 253 253 0 255 253 253 253 253 253 109 109 194 217 
194 178 178 178 178 178 178 149 109 149 194 217 178 149 109 181 
255 113 216 0 216 216 216 216 216 216 216 216 216 0 216 216 
216 216 216 216 216 216 216 216 216 216 216 216 216 216 207 207 
207 207 207 193 207 255 0 193 113 109 149 255 0 149 178 217 
149 178 255 149 178 240 178 253 253 253 253 253 253 253 253 253 
253 253 253 253 253 255 253 253 255 253 253 255 253 253 253 253 109 109 178 194 
194 217 217 255 217 194 194 194 149 109 178 217 178 149 255 181 
113 216 216 216 216 216 216 216 216 216 216 216 216 216 216 216 
216 216 216 216 216 216 216 216 216 216 216 216 216 207 207 207 
207 207 193 207 193 193 193 193 181 109 149 194 255 149 178 217 
149 178 149 149 178 240 178 253 255 253 255 253 253 253 253 253 
253 253 253 253 253 253 253 253 253 253 253 253 253 253 253 253 255 178 149 149 
0 178 178 178 178 178 178 255 178 109 178 194 194 149 109 113 
0 216 207 216 216 216 216 216 216 216 255 216 216 216 216 216 
216 216 216 216 216 216 216 0 216 216 216 216 207 216 255 207 
207 207 207 193 193 193 193 193 181 144 109 194 178 149 178 217 
149 178 149 149 178 255 178 253 253 253 0 253 253 253 253 253 
253 253 253 253 253 253 253 253 0 253 253 253 253 253 253 253 149 178 194 149 
149 149 149 178 178 178 178 178 149 109 149 178 194 149 109 181 
216 207 216 207 216 207 216 255 255 207 216 207 216 216 216 216 
216 216 216 216 216 216 216 216 216 207 216 0 255 207 207 207 
207 207 193 207 193 193 193 193 193 144 109 194 178 149 178 217 
149 178 0 149 178 240 178 0 253 253 253 253 253 253 0 253 
253 253 253 253 255 253 253 253 253 253 253 253 255 253 253 253 149 178 217 217 
194 149 149 149 149 149 255 149 109 109 109 178 194 178 255 109 
181 216 207 216 207 216 181 181 181 181 181 181 255 207 207 216 
207 216 0 216 207 216 207 216 207 0 207 216 207 207 207 181 
181 181 181 181 193 193 0 193 193 255 109 194 178 149 178 217 
255 178 149 149 255 240 178 253 253 253 253 253 253 253 253 255 
253 253 253 253 253 253 253 253 253 253 253 253 253 253 253 253 109 149 194 194 
217 217 217 217 217 217 217 194 194 178 109 149 178 178 149 109 
0 207 216 207 181 255 3 3 3 3 84 144 207 181 207 207 
216 207 255 207 216 207 216 207 216 207 216 0 216 181 181 144 
113 3 3 3 0 144 193 193 193 181 109 194 178 149 178 217 
149 178 149 149 178 240 178 253 253 253 253 253 253 253 255 253 
253 253 253 253 253 253 253 253 253 0 253 253 253 253 253 253 109 109 178 217 
194 0 84 84 84 178 178 178 178 178 178 109 149 178 255 149 
109 181 207 144 3 3 3 3 3 3 3 3 144 207 181 207 
207 207 207 207 207 207 207 207 255 207 207 255 181 207 144 3 
3 3 3 3 3 3 3 144 193 181 109 194 178 149 178 217 
0 149 149 149 178 240 178 253 253 253 253 253 253 253 253 253 
253 253 253 253 253 253 253 253 0 253 253 253 253 255 0 253 109 109 149 178 
217 84 181 181 0 84 0 178 149 149 149 109 0 149 255 149 
109 181 144 3 3 3 0 73 73 3 3 3 3 144 207 207 
216 207 216 207 216 207 216 0 216 207 216 207 207 144 3 3 
61 61 73 73 3 255 3 3 144 181 109 194 178 149 178 217 
149 109 113 149 178 240 0 253 0 253 0 253 0 253 253 253 
253 253 253 253 253 253 253 253 253 253 253 253 0 253 253 253 109 149 149 149 
84 181 255 228 207 181 84 217 217 0 178 149 109 149 178 149 
109 144 0 3 3 61 93 61 149 255 149 73 3 84 181 207 
207 207 207 207 207 207 207 207 255 207 207 207 207 3 3 177 
61 93 61 0 149 73 3 3 3 144 109 194 178 149 178 217 
149 255 113 149 178 240 178 253 253 253 255 253 253 253 253 253 
253 253 253 253 253 253 253 253 255 253 253 253 253 253 253 253 109 149 178 149 
84 207 193 144 228 255 181 84 178 178 178 149 109 149 194 149 
109 3 3 3 253 0 61 255 93 201 255 149 73 0 113 207 
207 207 207 207 207 207 207 207 207 207 207 207 144 3 177 253 
61 61 61 93 201 149 149 3 3 3 109 194 178 149 255 217 
255 193 253 113 178 240 178 253 253 253 253 253 253 253 253 253 
0 253 253 253 253 253 253 253 253 253 253 253 253 255 253 253 109 149 178 194 
0 228 193 181 255 255 207 84 178 178 178 149 109 178 255 149 
109 3 3 253 177 61 61 0 61 177 201 201 149 3 0 181 
207 207 207 207 207 207 207 207 207 207 207 207 113 3 253 177 
61 61 93 61 177 201 255 149 255 3 109 194 178 149 0 217 
149 193 0 113 217 217 178 253 253 255 253 253 253 253 253 253 
253 255 253 253 253 253 253 253 253 253 253 253 253 255 253 255 253 0 149 178 
84 228 181 181 181 144 228 181 84 149 109 109 109 194 194 149 
109 3 61 177 61 61 61 93 61 0 228 0 149 149 3 181 
207 207 207 207 207 0 207 207 207 207 207 181 3 255 177 61 
61 61 93 61 177 228 201 149 73 3 109 178 178 149 178 217 
149 193 253 113 240 178 253 253 253 253 0 253 253 253 253 253 
253 253 253 253 255 253 253 253 253 253 253 255 253 253 253 253 253 109 149 149 
84 228 181 181 0 113 228 207 84 178 149 255 194 217 178 109 
3 0 61 61 93 93 61 146 0 177 228 228 201 149 3 181 
255 0 207 207 207 207 207 207 207 255 207 181 3 61 255 93 
93 61 146 0 177 228 201 201 73 3 109 178 178 149 178 217 
149 193 253 113 217 178 253 253 253 253 253 253 253 253 253 253 
253 253 253 253 253 253 253 253 253 253 253 253 253 253 253 253 253 109 255 149 
84 228 193 181 144 144 144 207 178 149 109 194 255 194 149 109 
3 3 61 61 93 93 61 146 255 0 228 228 228 0 3 181 
207 207 207 207 207 207 207 207 255 207 207 181 3 61 61 93 
0 61 255 61 177 228 228 201 73 3 0 178 178 149 178 217 
149 193 253 113 178 253 253 253 253 253 253 253 255 253 253 0 
255 253 253 253 253 253 253 253 253 253 253 255 253 253 253 253 253 109 109 149 
84 228 193 144 181 181 255 207 181 109 255 255 194 255 109 181 
3 3 61 93 61 61 93 146 93 177 228 228 228 201 84 181 
207 207 207 207 207 207 207 207 207 207 207 0 0 61 93 61 
61 93 146 93 0 228 228 201 73 3 109 149 178 149 178 217 
149 193 253 113 178 253 253 253 253 253 253 253 253 253 253 253 
253 253 253 253 253 253 253 253 253 253 253 253 253 253 253 253 253 109 178 109 
84 193 228 181 181 181 181 144 255 109 217 194 178 149 109 181 
3 3 61 146 93 93 146 146 0 228 228 228 228 201 84 207 
207 207 207 0 207 207 207 207 207 207 207 255 113 61 146 93 
255 146 146 93 228 228 228 201 0 3 109 149 178 149 255 217 
149 193 253 113 178 253 0 253 253 253 253 253 253 253 253 253 
253 253 253 253 253 253 253 253 0 253 253 253 253 253 253 253 253 109 178 255 
109 84 228 193 181 181 144 207 109 217 194 178 149 0 181 207 
181 3 93 146 177 177 0 93 177 255 228 228 228 255 113 207 
207 207 207 207 207 207 207 207 207 207 207 207 113 93 146 177 
177 177 93 177 228 228 201 149 3 144 255 149 178 255 178 0 
149 253 113 240 178 253 253 253 253 253 253 253 253 253 253 0 
253 253 253 253 253 253 253 255 253 253 253 253 253 253 253 253 253 109 194 178 
178 0 193 228 181 181 144 193 109 217 178 149 109 181 207 120 
120 255 3 93 146 0 146 93 228 228 228 201 201 144 207 207 
207 255 207 255 207 207 207 207 207 207 0 193 193 113 93 146 
177 146 93 0 255 201 149 3 144 181 109 149 178 149 178 217 
149 253 113 217 217 178 253 253 253 253 253 253 253 253 253 253 
253 253 253 253 253 253 253 253 253 253 253 253 253 253 253 253 253 109 217 178 
194 178 84 228 193 181 181 144 109 217 149 109 120 193 120 253 
200 120 120 84 84 255 93 201 201 201 201 144 144 207 207 207 
207 207 207 207 216 207 207 193 207 207 207 207 193 193 113 113 
93 93 0 201 201 113 84 144 181 255 109 149 178 149 178 255 
149 113 149 255 240 178 253 253 253 253 253 253 253 253 253 253 
253 253 253 253 253 253 255 253 253 253 253 255 253 253 253 253 109 194 217 194 
217 0 84 193 228 193 181 181 109 194 149 120 253 0 120 253 
160 120 253 120 181 113 113 113 113 144 144 207 207 0 207 207 
207 207 207 207 216 0 207 181 207 216 216 216 216 216 0 193 
255 144 113 113 113 144 181 181 181 181 181 109 0 149 178 217 
149 113 149 178 217 217 178 253 253 253 253 0 253 253 253 0 
253 253 253 253 253 253 253 253 253 253 253 253 253 253 253 253 109 0 194 217 
178 109 217 84 193 255 193 193 109 194 109 120 253 120 253 200 
149 0 200 120 228 228 216 216 216 216 216 216 216 216 216 216 
216 216 207 216 228 216 193 181 181 207 216 216 216 228 228 216 
207 181 181 181 181 181 255 181 181 255 0 109 178 149 178 217 
149 109 0 149 178 240 178 253 253 253 253 253 253 253 253 253 
253 253 253 253 253 253 253 253 253 253 253 0 253 253 253 109 217 255 194 217 
109 217 194 194 84 193 0 193 255 178 120 253 149 253 253 160 
160 253 160 120 253 228 255 120 216 216 216 216 216 255 216 216 
255 207 255 228 253 228 207 193 144 181 207 216 228 253 253 228 
216 207 207 193 193 193 181 181 181 0 228 109 178 255 178 217 
0 109 109 149 178 217 217 178 253 253 253 253 253 253 253 253 
253 253 253 253 253 253 253 253 253 253 253 253 253 253 109 217 217 194 217 0 
109 217 194 178 217 84 84 115 109 120 253 149 253 253 200 149 
253 200 120 228 228 228 120 253 120 216 216 216 216 216 255 216 
255 193 193 207 216 216 255 193 144 0 207 216 216 228 228 228 
216 207 207 0 193 193 181 0 181 181 228 109 178 149 178 217 
149 109 109 109 149 178 240 178 255 253 255 255 253 253 253 253 
253 253 253 253 253 253 0 253 253 253 253 253 109 109 217 217 194 217 194 0 
217 194 178 217 194 178 115 253 115 120 253 255 253 200 149 253 
221 160 120 216 216 216 120 253 120 216 216 216 216 216 216 255 
216 216 193 181 144 193 181 144 144 193 216 216 216 216 216 216 
216 207 207 193 193 181 181 181 181 207 228 109 149 0 149 217 
0 109 109 109 0 178 240 178 253 253 253 253 253 253 253 253 
253 253 253 253 253 253 253 253 253 253 109 109 217 255 0 194 255 194 178 109 
217 194 217 194 178 149 115 253 120 255 149 253 253 149 253 255 
200 120 216 216 216 120 253 200 120 216 216 216 0 216 216 216 
216 216 216 0 181 0 144 181 193 216 255 216 216 216 216 216 
207 207 207 193 193 181 181 181 181 228 253 109 149 178 149 217 
149 109 109 109 149 178 240 178 253 253 253 253 253 253 253 253 
253 253 253 253 253 253 255 253 253 109 194 217 194 194 194 217 194 178 149 109 
217 194 217 178 149 149 149 115 0 253 149 253 255 149 253 240 
160 255 216 216 120 253 240 160 0 0 216 216 216 216 216 216 
216 216 216 216 216 216 216 216 216 216 216 0 0 216 216 216 
207 207 207 193 193 181 181 181 207 228 253 109 149 178 149 217 
149 109 0 149 178 217 217 178 253 253 0 253 253 253 253 253 
253 253 253 253 253 253 253 253 109 194 217 194 178 217 217 194 178 0 109 109 
194 194 217 178 149 149 149 109 120 253 149 253 149 253 253 221 
120 216 216 120 253 240 200 120 216 216 216 216 216 207 207 0 
216 207 206 207 207 220 220 207 207 216 207 216 216 216 216 255 
207 207 193 0 181 181 181 207 228 253 255 109 109 178 149 255 
217 149 109 149 178 240 178 253 253 253 253 253 253 253 255 253 
253 0 253 253 0 253 253 109 178 217 194 178 217 194 178 149 149 109 109 255 
194 194 217 178 149 149 109 115 120 253 149 253 149 0 253 221 
120 0 216 120 253 200 160 120 216 216 216 216 216 181 119 206 
192 179 179 0 179 179 179 0 140 206 139 207 207 216 207 207 
207 207 193 193 181 181 207 228 253 113 109 255 109 149 178 149 
217 149 109 178 217 217 178 253 253 253 253 253 253 253 253 253 
253 253 253 253 253 253 253 109 255 217 178 217 194 0 149 109 109 109 109 109 
178 194 194 178 149 149 109 115 120 253 160 253 149 253 240 200 
120 207 120 253 240 200 120 216 255 216 216 216 216 207 181 140 
140 140 119 140 119 119 119 255 140 255 181 207 255 207 207 255 
207 193 193 181 181 207 228 253 113 149 109 109 115 109 149 178 
0 217 149 178 240 178 253 253 253 0 253 253 253 253 253 253 
253 253 255 255 253 253 255 109 178 217 178 217 178 149 109 109 109 109 0 149 
109 178 194 194 178 149 109 109 120 253 221 253 160 253 240 200 
255 193 120 253 221 160 120 216 216 216 216 216 216 216 216 193 
190 223 223 248 248 223 204 179 255 179 216 207 207 207 207 193 
193 193 181 207 228 0 0 113 149 149 109 109 109 115 109 149 
149 149 217 178 178 253 253 253 0 253 253 253 253 253 253 253 
253 253 253 253 253 253 253 109 178 255 178 194 178 149 109 109 109 109 109 149 
109 149 178 0 194 178 255 109 109 120 240 253 160 253 240 200 
0 120 120 253 221 160 120 216 216 216 216 216 216 216 216 216 
193 190 204 204 204 204 190 190 181 193 207 207 207 193 193 193 
181 181 207 228 84 0 149 149 149 194 109 109 109 255 109 109 
109 149 149 217 217 178 178 255 253 253 253 253 253 253 253 253 
253 253 253 253 253 253 253 253 109 178 178 194 178 178 149 109 109 109 255 149 
0 109 149 178 194 194 178 0 109 120 240 0 221 253 240 221 
200 160 120 253 221 160 120 207 207 216 216 216 216 216 216 216 
216 207 179 139 139 181 255 255 193 207 207 193 0 193 181 181 
193 207 84 84 149 149 255 149 149 194 109 109 149 149 109 149 
149 109 109 109 178 178 178 253 253 0 253 253 253 253 253 253 
253 253 253 253 253 253 253 253 109 0 178 178 178 178 178 149 109 109 109 109 
149 0 109 109 149 178 194 194 178 255 120 221 253 240 221 221 
221 200 0 240 221 200 160 120 255 207 207 207 216 216 216 216 
216 216 216 216 216 207 0 207 207 193 193 193 181 181 193 207 
84 255 149 149 149 178 178 149 149 194 255 109 149 149 109 149 
149 149 178 240 178 253 253 253 253 253 253 253 253 253 253 253 
253 253 253 253 253 253 253 253 253 109 149 149 149 178 178 178 149 149 109 109 
109 149 149 149 109 255 255 255 194 255 178 120 221 221 221 221 
200 200 200 221 221 200 200 160 120 120 120 255 207 207 216 216 
216 0 216 216 207 207 207 207 193 193 181 181 181 84 84 0 
109 149 178 178 178 0 178 149 194 109 109 255 149 149 255 149 
149 149 178 240 178 255 253 253 253 255 253 253 0 253 253 253 
253 253 255 253 255 253 253 253 0 253 109 109 149 149 149 178 178 178 149 109 
109 255 149 149 149 109 149 149 178 194 194 178 120 200 221 221 
221 200 221 221 200 200 200 200 160 160 160 120 84 181 207 207 
207 207 207 207 207 193 193 255 181 181 181 84 84 109 109 109 
149 178 217 255 0 194 178 149 194 255 109 109 149 149 109 149 
149 149 178 240 178 253 253 253 253 253 253 253 253 253 253 253 
253 253 253 253 253 253 253 0 253 253 253 253 0 149 149 149 178 178 178 149 
109 109 109 149 149 149 109 149 149 178 194 194 255 120 120 221 
200 221 200 221 200 0 200 221 200 255 255 160 120 84 84 84 
181 193 193 207 207 193 181 181 84 84 84 0 109 109 109 109 
178 0 194 217 194 178 149 194 109 109 109 109 149 149 109 149 
149 149 178 240 178 255 253 253 253 178 253 253 253 253 255 253 
253 253 0 253 253 253 253 253 253 253 253 0 253 109 149 149 178 178 178 149 
109 109 109 149 149 149 0 149 149 178 217 194 178 255 109 120 
221 221 221 221 221 200 221 200 221 200 200 200 160 120 181 255 
84 84 84 0 84 84 84 84 181 181 84 109 109 109 149 109 
178 217 194 0 178 149 194 109 109 109 109 149 149 109 149 109 
149 255 149 217 240 178 253 253 178 178 253 253 253 253 253 253 
253 253 0 253 253 253 253 253 253 253 253 253 253 109 149 149 178 194 0 149 
109 109 109 149 255 149 109 149 178 217 194 178 178 149 0 149 
120 120 221 221 221 221 221 0 200 221 200 0 200 120 193 0 
181 181 181 181 181 0 181 181 0 228 84 109 109 109 149 109 
178 194 0 178 149 194 109 109 109 0 109 149 109 109 149 109 
149 255 149 178 0 240 178 178 240 178 253 253 253 253 253 253 
253 253 253 253 253 253 253 253 253 253 253 253 109 149 149 178 178 194 149 149 
109 109 109 149 149 109 0 217 217 255 178 178 149 109 109 149 
149 149 255 221 221 221 221 221 221 200 221 200 200 160 120 193 
193 193 193 0 181 181 181 193 181 228 0 109 0 109 149 149 
109 0 194 178 149 194 109 109 109 255 149 149 109 149 149 149 
109 0 149 149 178 217 240 240 178 253 253 253 253 253 253 253 
253 0 253 253 255 253 253 253 253 253 253 109 149 178 194 217 194 178 149 109 
109 109 109 149 255 217 0 217 194 178 149 149 109 109 255 149 
149 149 149 120 255 221 221 221 221 221 200 0 200 160 120 207 
207 207 207 193 255 193 0 193 181 207 0 91 109 109 255 149 
109 149 178 194 178 149 194 109 109 149 149 255 178 178 178 149 
149 149 109 109 109 178 178 178 253 253 253 253 253 253 253 253 
0 253 255 253 253 253 253 253 253 255 255 178 217 217 217 0 178 255 149 109 
109 109 149 109 217 194 217 194 178 149 149 109 255 109 0 109 
149 149 149 149 120 221 221 221 221 221 221 200 200 160 0 207 
207 207 193 207 193 193 193 193 181 181 207 199 91 149 109 149 
255 109 255 149 178 178 149 194 109 0 0 178 194 255 149 178 
149 178 217 109 253 253 253 253 253 253 255 253 253 253 253 253 
253 253 0 253 253 253 0 253 253 109 178 255 194 217 194 178 149 149 109 109 
109 149 109 178 217 194 217 178 149 149 149 149 109 109 109 109 
109 149 255 149 120 120 221 221 255 221 221 221 200 160 255 207 
207 207 207 193 207 193 193 193 181 181 181 181 157 120 149 0 
149 149 255 149 149 149 178 149 194 109 178 194 178 149 194 178 
149 178 240 109 255 253 253 0 253 253 253 253 253 253 253 253 
253 253 253 253 253 253 253 253 109 178 217 194 217 194 178 255 149 109 109 109 
109 149 255 178 217 194 217 178 149 149 149 0 149 149 149 109 
109 109 255 120 200 120 240 253 240 221 221 255 200 160 120 207 
207 207 193 207 193 193 193 0 181 181 181 91 157 120 0 221 
160 149 255 109 149 149 178 0 194 109 194 178 178 194 255 149 
178 240 109 255 253 253 253 253 253 253 253 253 0 253 253 253 
253 253 253 253 253 253 253 253 109 194 217 194 217 178 149 149 109 109 109 109 
109 0 109 178 194 178 194 194 178 149 255 149 149 149 149 149 
149 149 109 200 253 120 240 255 240 240 0 200 0 120 0 207 
207 207 207 193 207 193 193 255 181 181 181 157 0 149 253 0 
253 255 253 109 255 149 178 149 194 109 194 178 194 178 149 178 
255 217 109 253 253 253 253 253 253 0 253 253 253 253 253 253 
253 253 253 253 253 253 253 109 178 217 194 217 255 149 149 109 149 109 109 109 
109 149 109 149 178 194 178 194 194 194 255 178 178 178 0 178 
149 149 149 109 253 255 240 253 240 240 221 200 160 120 255 207 
207 207 0 207 193 193 193 0 181 181 157 157 104 200 221 160 
240 240 149 194 194 178 149 149 194 109 178 149 178 149 149 217 
217 109 253 0 255 253 255 253 253 255 253 253 253 253 255 255 
255 253 253 253 253 253 253 109 178 217 194 255 149 149 109 0 149 109 109 109 
109 149 149 109 149 178 178 178 178 178 178 149 149 149 149 178 
0 149 149 149 109 120 253 253 240 240 221 200 160 120 207 207 
207 207 207 193 255 193 193 255 181 91 213 91 255 200 200 160 
221 149 217 194 149 149 149 194 109 149 149 149 178 0 178 240 
109 253 253 255 253 253 253 253 253 253 253 253 253 253 0 253 
253 253 253 253 253 253 253 109 255 217 178 217 149 109 149 149 149 109 109 255 
109 109 149 149 255 0 149 149 149 149 149 109 109 109 0 149 
149 178 255 149 120 221 253 253 240 240 221 200 120 207 207 207 
207 255 193 193 193 193 181 181 157 157 157 104 200 200 160 200 
149 217 194 149 255 194 194 109 253 253 149 149 178 149 178 240 
109 253 253 253 253 253 253 253 253 0 253 255 253 253 253 253 
253 253 253 0 253 0 253 109 178 194 178 255 149 109 0 149 149 109 109 109 
109 109 255 0 149 109 109 109 109 0 109 253 253 240 221 109 
0 149 178 255 120 240 253 253 240 221 221 0 120 144 193 193 
193 193 193 193 193 144 157 157 253 91 255 221 221 200 149 149 
217 194 149 194 109 109 109 253 253 253 253 149 149 149 178 240 
109 255 253 253 253 253 253 253 253 255 253 253 253 253 255 253 
253 253 253 253 253 253 253 109 149 194 178 178 194 109 149 149 149 149 109 109 
109 109 109 109 149 255 120 200 240 253 0 253 253 240 200 240 
253 109 149 120 0 240 253 240 240 221 200 0 120 157 157 193 
193 193 193 193 157 157 253 91 0 133 255 221 200 149 221 149 
194 149 194 109 160 200 221 221 240 253 0 253 149 149 178 240 
109 253 0 253 253 255 253 253 253 253 0 253 253 253 253 253 
253 253 253 253 253 253 253 253 109 0 194 178 194 149 109 149 149 149 149 109 
109 109 109 109 109 149 120 200 253 253 253 253 253 240 221 221 
240 240 109 120 240 221 200 240 255 221 255 120 157 91 253 157 
253 157 253 157 253 91 157 0 205 221 221 200 149 221 200 109 
149 194 109 200 200 200 221 221 253 240 253 255 160 149 178 240 
109 253 255 253 253 253 253 253 253 253 253 253 253 255 253 253 
253 253 253 253 253 253 253 253 109 149 178 178 255 0 255 109 109 149 149 149 
109 0 109 109 109 120 200 240 253 253 253 253 253 240 160 221 
255 240 120 0 120 253 253 221 255 255 160 0 205 133 157 91 
157 91 157 91 255 133 205 240 240 221 200 160 0 200 200 109 
149 194 109 200 160 255 221 240 240 240 240 253 253 149 149 217 
217 109 253 0 0 253 253 253 253 253 0 255 253 253 253 253 
253 253 253 255 253 253 253 253 253 109 0 149 178 178 194 149 149 255 149 149 
149 149 109 109 109 120 200 240 240 240 240 255 240 0 200 160 
221 109 120 240 253 0 120 255 255 221 200 120 255 255 237 0 
189 189 189 208 224 240 0 240 221 200 160 200 200 200 200 200 
109 149 194 109 200 109 200 221 221 221 240 253 253 149 149 178 
217 217 109 253 253 253 253 255 253 253 253 0 255 253 253 253 
253 0 253 253 253 255 253 253 255 0 109 0 149 149 178 178 149 149 109 149 
149 149 0 109 109 120 200 240 253 253 253 240 240 240 200 109 
255 120 221 240 240 253 253 120 255 120 120 155 117 155 117 117 
117 155 155 0 255 117 117 117 117 117 0 117 117 160 176 200 
221 109 109 109 109 200 221 221 200 221 253 255 253 160 149 149 
255 240 109 253 253 253 0 253 253 253 253 253 253 253 253 253 
0 253 253 253 0 253 253 253 253 253 253 253 109 149 149 178 178 149 109 149 
149 149 109 109 109 120 200 240 240 240 240 240 221 200 160 160 
0 120 240 255 253 240 240 221 200 200 120 187 211 187 155 171 
211 187 211 187 171 155 211 187 211 187 187 171 255 117 117 117 
117 205 200 160 160 200 221 0 221 240 240 253 253 160 149 149 
149 0 217 109 253 253 253 253 253 253 253 253 253 253 253 253 
253 253 255 0 253 253 255 253 253 253 253 0 253 109 149 149 0 149 0 109 
149 149 109 109 255 160 200 221 240 221 221 221 221 200 160 155 
120 221 240 221 221 240 240 221 200 160 120 211 187 117 171 211 
255 211 187 171 155 211 255 211 187 171 155 211 187 171 155 0 
171 117 0 117 160 200 200 221 221 221 221 240 240 0 149 149 
149 178 0 109 253 253 253 253 253 253 253 253 253 253 253 253 
253 253 253 253 253 253 253 253 253 253 253 253 253 109 149 149 178 149 149 109 
149 149 0 109 255 200 240 240 253 240 240 221 200 200 117 120 
221 240 240 255 240 221 221 255 200 120 171 155 117 155 171 117 
155 171 155 0 155 155 255 155 155 117 117 117 117 187 0 187 
155 155 171 211 117 160 160 200 200 200 221 253 253 253 160 0 
149 178 240 109 253 253 253 253 253 253 253 253 253 253 255 253 
253 253 253 253 253 253 253 253 253 253 109 253 253 109 149 149 178 149 0 109 
255 149 109 109 120 200 240 221 221 200 200 200 200 255 211 120 
221 253 240 240 253 253 221 200 200 120 211 211 187 187 187 187 
187 211 187 211 211 235 235 211 211 187 187 171 171 117 0 117 
117 155 255 0 235 0 200 200 221 240 240 240 253 253 160 149 
149 178 240 109 253 253 253 255 253 253 253 253 0 253 253 253 
253 253 253 253 253 253 253 253 253 253 109 109 109 178 178 178 178 149 149 109 
149 149 0 120 200 240 240 240 240 221 221 0 160 117 120 221 
240 240 255 253 240 255 221 200 160 120 171 171 171 155 155 0 
171 171 171 171 187 187 187 255 171 171 171 155 155 171 171 171 
171 117 117 117 235 117 160 0 200 200 0 240 253 255 253 149 
149 178 240 109 253 253 253 255 253 253 253 253 253 0 253 253 
253 253 253 253 253 253 253 253 253 253 109 178 178 178 178 178 149 149 109 149 
149 149 109 120 200 253 253 253 253 240 255 221 128 120 221 240 
253 0 240 240 240 240 221 200 120 211 211 211 187 187 0 187 
187 211 187 211 211 255 235 211 211 187 255 171 171 155 155 155 
155 171 171 171 117 117 160 255 200 221 240 240 253 253 253 255 
149 178 240 109 253 253 253 253 253 253 253 253 253 253 253 253 
0 253 253 253 253 253 253 253 253 253 253 109 109 149 149 149 149 109 149 149 
109 0 109 120 200 240 240 221 221 200 200 200 117 120 221 240 
253 253 253 240 240 221 221 200 120 171 171 171 255 155 255 155 
171 171 171 187 255 187 187 187 171 171 171 155 155 171 171 171 
155 211 211 255 235 235 117 160 0 200 200 221 240 253 253 149 
149 240 109 253 255 253 253 255 253 253 0 253 253 253 0 253 
253 253 0 253 255 253 253 253 253 253 253 0 253 253 253 253 253 253 255 253 
253 253 253 253 253 253 253 253 253 253 253 253 0 253 253 253 
253 0 0 253 253 253 253 253 253 253 253 255 253 253 253 253 
253 253 253 253 0 255 253 253 253 253 253 253 253 253 253 253 
253 253 253 253 253 253 253 253 255 0 253 253 253 253 255 253 
253 253 253 0 253 253 253 253 253 253 253 253 253 253 253 253 
253 253 253 