P2
# Created by IrfanView
100 100
255
0 64 72 64 82 81 82 85 81 81 81 103 90 90 106 104 104 104 106 106 104 124 104 103 103 104 105 105 105 102 104 90 90 90 103 103 89 89 103 105 109 107 107 88 86 86 86 86 82 86 81 108 58 95 95 107 107 105 69 69 69 87 79 87 95 100 100 106 106 106 100 71 71 76 76 82 82 85 85 85 76 76 84 85 106 114 106 106 106 141 156 120 83 82 82 104 111 133 0 0 
72 82 107 102 102 102 100 99 99 102 105 106 108 103 106 105 116 116 111 143 136 135 124 107 105 106 105 105 106 105 104 100 100 95 100 104 103 104 103 109 109 107 107 104 95 105 105 112 104 112 112 114 114 112 134 112 109 107 107 108 106 104 108 132 107 104 106 106 110 107 108 107 84 84 105 109 109 105 88 87 88 85 101 108 108 114 126 127 128 133 141 122 114 99 101 102 138 133 107 0 
105 105 114 101 110 102 93 99 101 101 109 133 106 106 99 99 106 116 104 105 136 124 112 107 107 105 103 107 101 92 104 104 90 104 104 105 106 105 103 106 113 107 102 102 104 109 113 109 112 113 125 121 125 126 137 112 109 118 118 108 108 139 132 113 107 104 138 106 110 110 108 106 106 84 84 109 102 102 108 103 103 107 137 129 113 108 113 114 126 124 114 114 101 101 97 103 111 133 135 0 
105 87 101 86 99 84 97 99 99 111 106 106 113 106 111 101 105 105 105 135 104 107 109 112 107 112 114 101 92 92 104 106 106 105 105 110 110 107 107 110 110 100 102 104 105 105 109 106 109 121 125 126 125 128 126 120 105 118 118 107 110 110 110 108 107 106 106 106 120 110 110 106 109 111 109 102 127 109 108 107 110 137 137 117 109 109 108 107 118 112 112 114 108 101 90 102 111 122 102 0 
87 86 107 86 84 94 97 103 103 103 93 101 113 113 125 113 101 111 135 104 102 104 107 133 133 126 109 107 107 107 107 106 106 106 123 138 138 130 111 108 108 112 106 109 109 110 106 108 106 109 108 125 108 125 100 101 101 110 110 112 112 110 110 112 118 113 118 106 120 117 106 109 110 111 110 99 110 102 108 107 108 129 117 109 109 113 108 113 105 108 112 126 108 97 103 111 133 133 109 0 
87 107 107 87 90 99 99 105 108 106 103 104 107 125 124 101 124 127 119 108 102 83 89 89 126 112 112 112 107 107 107 105 106 106 106 123 138 111 107 108 108 112 112 112 125 124 106 108 106 106 108 107 107 103 103 103 101 104 104 110 111 112 110 110 111 106 111 117 117 104 104 108 109 108 110 102 108 111 108 108 102 105 101 108 108 105 105 125 90 105 105 108 108 108 108 122 122 101 81 0 
98 107 98 107 92 115 105 105 106 106 103 106 107 120 120 120 120 124 108 104 104 81 89 114 111 111 109 112 109 107 106 104 105 109 123 108 113 107 104 107 107 112 112 124 125 112 112 108 108 106 108 106 67 67 103 103 111 110 110 111 111 112 112 107 107 111 107 117 107 104 104 108 108 108 102 108 99 110 108 102 101 101 102 101 106 105 106 108 105 107 108 108 108 119 108 107 104 85 80 0 
106 106 108 123 102 102 107 119 107 106 109 106 137 120 106 106 108 108 108 104 85 88 104 108 107 107 108 108 109 108 99 102 102 105 105 108 108 107 108 107 104 105 111 110 118 108 112 112 116 116 107 107 71 71 103 105 105 109 109 109 113 113 109 105 105 111 114 111 107 103 103 105 108 110 104 108 102 83 83 99 88 108 108 103 105 105 103 106 103 103 107 109 109 119 124 108 104 104 80 0 
98 106 108 132 102 102 133 133 131 129 109 109 143 137 105 105 108 108 104 88 81 88 97 105 108 108 108 114 117 109 99 102 105 103 107 107 113 119 109 109 89 89 105 105 108 108 106 140 128 126 132 100 93 72 81 87 104 109 109 110 138 138 108 107 105 106 107 107 119 109 109 112 120 120 108 101 104 83 106 106 107 109 109 105 105 106 94 106 98 103 107 108 110 108 124 106 110 94 94 0 
106 108 132 109 109 109 108 109 131 109 131 143 167 143 105 105 105 111 105 88 88 85 100 101 105 108 117 129 117 94 106 102 102 105 103 105 107 105 111 109 107 105 104 105 105 106 107 106 118 132 132 126 93 81 93 105 104 105 109 109 115 111 109 107 108 106 106 110 110 110 109 111 120 104 104 104 101 86 90 106 119 109 109 109 105 106 104 104 106 103 107 104 107 112 113 110 109 104 94 0 
107 132 132 109 109 111 111 108 112 106 106 113 113 111 105 105 105 111 113 84 107 84 107 102 108 128 129 137 129 106 91 104 89 103 102 102 103 105 104 108 107 107 103 102 104 105 107 107 115 135 135 111 104 84 97 107 108 109 109 104 109 109 109 108 108 107 104 110 110 105 110 110 110 101 104 107 106 103 106 108 108 107 109 105 105 105 103 102 108 96 104 99 101 108 109 109 104 104 78 0 
102 113 109 109 111 108 105 105 109 103 136 110 111 111 108 108 111 111 113 100 104 107 113 108 113 113 122 138 122 109 109 104 108 103 102 102 100 100 105 108 107 107 103 100 105 107 107 107 107 115 108 108 110 108 107 108 110 110 109 107 107 115 109 122 122 108 107 110 107 112 110 104 101 104 107 111 107 109 103 105 108 97 99 99 99 103 102 102 108 102 107 115 105 109 105 109 105 105 78 0 
101 102 132 132 132 96 99 112 143 149 149 136 113 108 132 111 141 118 113 113 104 119 120 120 119 128 122 125 125 139 112 108 108 108 108 91 102 100 114 116 111 111 109 101 128 111 107 111 110 126 126 111 135 111 109 110 111 110 108 107 111 122 122 128 128 125 136 112 141 138 114 114 103 111 111 110 111 107 109 108 127 125 99 105 103 99 86 87 96 96 123 117 105 102 104 104 109 106 78 0 
101 103 103 103 96 96 88 88 134 146 149 104 132 136 145 141 141 160 140 143 104 130 127 127 144 147 125 139 139 141 172 140 151 168 151 168 114 145 145 144 147 146 126 126 128 142 111 111 111 126 139 126 147 142 147 151 159 163 111 131 168 175 161 159 161 165 143 143 138 138 141 148 138 136 138 110 111 135 143 146 159 159 133 137 143 143 113 94 87 108 123 117 115 105 104 105 105 109 106 0 
106 109 109 110 121 119 81 88 102 110 108 108 108 147 145 144 150 159 159 167 145 143 143 144 156 156 147 128 130 165 165 165 168 168 168 160 161 161 164 151 147 147 144 147 146 170 163 163 161 154 165 167 160 163 160 163 166 171 170 170 175 175 179 182 167 165 165 163 133 143 159 163 164 160 164 136 110 144 146 148 163 163 148 148 144 157 144 102 102 106 117 122 105 116 104 104 103 104 104 0 
105 105 106 110 119 107 107 109 108 109 108 108 108 145 165 164 168 160 159 160 167 133 165 165 165 162 156 128 130 130 162 168 168 168 166 168 164 175 175 161 168 163 147 163 167 168 168 164 163 165 165 167 173 179 165 167 203 190 171 171 175 175 181 175 167 166 159 146 132 146 159 160 163 164 164 163 146 144 144 148 159 161 161 161 168 161 157 102 100 110 120 116 105 108 116 103 103 105 103 0 
105 107 113 111 107 106 107 110 110 109 109 108 110 144 186 197 175 168 161 168 172 173 172 176 168 162 162 128 127 128 157 162 164 164 164 163 164 165 168 161 160 161 151 149 156 160 164 162 164 163 162 167 179 172 172 172 190 171 171 169 171 178 181 175 167 167 160 157 146 146 162 162 161 164 163 164 167 144 144 144 149 161 161 162 168 161 138 102 106 110 113 120 133 105 114 103 128 105 104 0 
104 120 137 106 106 106 107 113 111 111 109 110 127 149 186 197 175 167 163 180 162 150 176 176 182 181 162 162 162 128 167 168 168 166 167 167 168 163 160 161 160 161 155 167 160 169 167 158 158 165 167 165 170 165 172 172 165 165 165 166 164 176 178 181 167 157 157 164 164 163 160 163 161 135 164 129 164 143 138 163 163 161 162 162 161 162 112 106 113 110 110 110 109 108 108 108 114 128 90 0 
107 120 111 108 107 106 100 111 113 113 111 110 127 149 184 182 175 167 167 167 161 150 176 181 181 162 160 160 162 167 170 175 164 167 167 170 170 165 160 160 161 161 161 158 168 169 169 158 170 158 168 168 162 161 161 164 161 166 163 163 163 169 180 176 129 146 145 160 164 162 163 160 161 161 167 161 130 143 146 161 161 163 162 161 166 161 112 108 113 110 109 106 109 107 107 108 108 108 97 0 
106 111 111 112 115 114 108 113 121 113 111 113 127 149 167 166 167 167 163 163 163 161 161 155 155 140 160 169 166 169 175 167 168 163 168 172 172 170 160 168 176 161 168 163 168 169 170 168 173 145 148 162 162 170 164 163 165 165 163 160 160 164 178 178 166 146 146 150 160 164 163 160 135 160 135 157 130 143 146 163 163 162 162 162 166 166 166 112 114 104 102 98 102 108 108 107 108 102 97 0 
101 110 108 112 120 115 107 108 114 113 112 112 115 152 162 168 168 167 163 163 163 163 161 146 136 139 160 165 162 160 160 162 164 163 142 158 151 178 174 187 187 176 177 163 163 163 168 168 173 173 145 148 161 173 174 164 164 162 161 155 128 168 162 169 175 146 159 133 146 150 160 127 127 128 147 157 146 150 150 162 163 151 161 165 166 167 161 115 139 108 99 99 99 102 110 113 108 107 64 0 
101 103 110 106 113 115 107 107 114 107 108 108 115 147 158 168 166 166 163 164 163 163 160 149 139 162 162 165 163 160 160 161 164 164 151 151 143 138 192 187 200 187 162 163 134 166 163 168 165 156 156 148 171 174 175 169 164 164 161 155 155 162 166 166 175 171 162 159 155 162 156 165 166 126 157 147 127 127 163 163 163 162 163 165 167 184 166 138 138 117 104 99 99 111 113 144 111 102 88 0 
87 102 105 106 110 106 104 104 104 103 103 103 108 152 160 180 180 180 163 163 163 163 163 149 163 167 162 162 163 152 152 157 165 164 153 151 147 147 152 149 153 162 153 164 128 166 166 166 175 166 168 168 170 173 185 171 170 164 161 155 161 162 168 162 175 162 162 161 155 161 162 162 165 156 156 126 123 159 163 164 166 163 162 166 166 181 165 147 139 121 121 128 99 113 118 113 107 93 88 0 
79 103 104 104 107 106 106 106 104 103 94 103 103 132 158 167 167 166 165 163 163 169 172 163 180 173 173 167 163 131 157 162 164 161 153 153 153 152 149 149 132 153 155 160 162 129 162 129 165 163 163 165 168 181 181 173 169 169 166 156 167 167 166 166 167 166 162 161 161 163 161 172 162 169 165 165 134 161 167 167 166 162 163 162 165 166 155 147 117 138 138 128 118 118 94 94 98 98 88 0 
79 110 110 106 107 104 106 106 104 107 106 106 106 146 167 171 167 176 176 158 158 165 161 165 173 175 175 173 171 136 161 161 162 136 136 158 159 154 152 147 130 132 155 160 166 129 129 129 130 163 168 171 171 181 173 171 169 165 165 165 166 167 159 159 167 159 161 163 161 165 163 162 171 162 178 165 159 164 164 169 164 160 160 162 160 155 152 147 105 105 105 104 104 85 94 102 99 105 93 0 
93 104 110 110 110 107 102 109 110 111 106 107 111 146 164 164 171 167 166 136 165 155 161 161 163 175 175 173 167 160 160 162 161 129 131 131 158 158 159 162 160 160 160 165 164 155 130 121 149 163 163 182 182 181 169 166 161 165 165 165 167 166 167 162 159 162 159 165 165 177 162 157 176 175 175 163 163 163 165 163 158 153 153 156 156 155 136 105 99 99 99 90 102 85 85 99 101 105 105 0 
79 110 110 115 110 107 101 107 110 110 106 106 131 152 155 161 161 164 161 132 151 151 152 152 164 165 165 164 164 164 160 162 163 162 181 158 158 162 162 168 126 160 160 167 165 167 183 183 192 201 198 191 183 171 169 165 164 164 165 165 165 165 162 163 162 162 162 165 169 177 165 163 176 165 178 169 162 169 163 163 162 162 156 156 170 164 132 104 99 88 90 90 102 102 99 85 102 105 97 0 
103 103 107 110 84 107 107 110 102 106 106 102 106 131 149 152 164 161 160 163 163 165 151 152 155 165 164 161 163 161 160 164 172 172 181 172 162 162 162 167 131 167 168 186 217 218 233 233 226 226 226 225 194 170 169 170 164 162 164 165 167 167 162 167 163 162 162 165 169 169 183 165 165 162 163 169 160 169 163 180 169 158 163 164 164 164 129 106 106 99 102 102 102 103 102 113 97 97 82 0 
126 137 128 117 111 107 108 108 108 106 107 102 106 106 149 149 164 156 163 162 163 165 165 167 165 165 165 164 157 157 164 172 166 166 163 168 167 170 170 167 167 167 176 246 248 248 247 239 233 239 247 248 247 196 247 205 205 143 165 167 167 165 168 168 157 146 146 162 169 166 171 169 163 161 134 155 159 168 171 171 171 150 162 164 166 162 106 106 113 113 96 102 102 103 126 126 82 111 75 0 
103 119 119 128 106 106 105 103 107 109 102 107 102 120 152 149 148 152 163 164 171 182 182 167 173 165 165 160 152 153 165 165 166 166 109 168 170 170 195 183 176 176 246 248 250 248 250 246 226 226 247 246 246 243 247 248 247 243 246 180 174 174 179 174 166 147 141 146 163 169 166 165 165 161 135 134 155 155 168 159 171 150 166 167 166 166 162 106 121 113 102 96 98 103 107 107 107 107 83 0 
89 89 119 128 144 128 130 108 108 107 103 107 125 156 156 163 149 144 148 162 162 177 177 177 173 164 164 161 150 153 165 165 165 163 166 168 172 195 211 197 216 221 251 248 248 249 250 249 226 223 245 242 246 243 246 247 247 248 246 246 174 197 183 179 174 166 147 158 163 163 164 163 166 169 169 169 167 162 162 130 132 171 171 167 163 167 161 123 113 85 96 105 105 103 115 123 133 107 107 0 
85 87 111 107 113 144 124 111 108 105 105 102 120 142 156 163 163 163 160 160 170 166 177 173 166 165 164 164 153 153 160 164 164 164 169 172 233 233 246 245 245 251 251 245 245 246 248 249 246 245 245 245 242 243 242 248 247 249 247 198 198 199 215 215 179 166 162 166 166 158 163 161 161 167 168 170 168 163 162 161 162 167 167 167 161 161 161 123 117 108 104 108 104 96 96 104 107 107 83 0 
83 107 111 118 133 124 133 124 111 108 108 105 112 128 142 163 165 162 162 163 167 161 161 161 165 165 195 159 150 150 165 164 168 165 180 237 247 247 245 246 246 251 251 249 245 249 248 248 248 247 243 245 197 251 199 244 248 247 249 198 250 216 221 223 223 196 169 158 169 166 163 163 161 163 170 168 168 163 164 166 166 167 167 165 161 161 145 141 138 123 108 106 108 105 103 105 103 107 43 0 
107 111 142 113 133 133 133 113 111 108 111 112 105 128 149 165 165 164 164 167 165 144 125 164 164 180 159 159 153 164 164 166 163 202 227 237 247 247 246 246 248 250 252 249 249 249 248 248 248 248 247 250 248 250 250 243 249 221 221 249 249 249 223 221 223 221 173 162 162 167 167 161 151 161 177 168 155 161 163 164 166 167 167 165 162 145 108 113 138 119 108 106 107 104 103 104 102 100 79 0 
104 107 113 118 133 133 124 109 107 108 106 112 119 128 190 167 165 167 165 164 149 144 160 164 164 160 149 153 149 166 166 171 180 203 224 224 240 237 198 249 249 250 249 250 251 249 249 248 247 248 247 247 198 248 250 198 194 198 221 245 249 251 250 251 245 242 242 176 162 168 167 165 166 181 177 177 155 157 161 164 182 168 175 173 173 162 110 123 123 110 101 101 106 110 103 105 105 103 98 0 
106 106 110 117 108 131 110 110 107 115 115 127 127 172 172 167 162 165 165 163 149 154 154 184 166 161 161 161 143 149 166 186 203 224 224 234 250 250 198 249 249 249 250 250 251 249 249 249 249 248 249 245 248 250 248 249 194 194 223 224 245 245 250 200 196 242 196 196 194 167 165 161 165 166 166 158 155 158 157 164 168 175 173 173 178 173 128 111 111 101 101 109 121 121 130 105 106 100 79 0 
102 105 106 101 100 110 107 107 104 108 108 119 170 172 166 164 163 164 163 164 154 164 182 182 167 164 165 161 170 143 181 186 250 249 249 249 250 248 250 250 249 250 250 250 250 243 200 247 251 250 249 248 248 249 249 248 248 248 248 245 227 226 226 200 200 223 199 199 196 195 165 163 157 166 122 158 159 158 159 162 168 168 164 162 178 178 151 111 111 101 109 109 130 130 140 140 96 96 80 0 
106 110 106 97 97 100 99 109 109 109 110 137 170 170 172 164 163 164 162 132 154 159 179 167 166 166 168 168 170 178 183 245 250 249 249 251 249 250 250 251 250 250 250 250 241 243 243 248 249 249 249 249 249 251 248 248 248 249 251 251 251 250 226 223 223 223 216 215 199 195 165 165 162 165 112 124 178 159 162 162 168 168 162 162 162 151 139 109 102 109 109 121 109 130 112 104 94 94 80 0 
114 113 103 102 99 100 112 109 109 102 108 105 152 166 169 164 164 162 164 132 159 159 164 161 163 164 168 168 178 183 197 248 248 249 249 249 249 249 249 247 250 250 249 249 245 245 245 245 249 249 249 249 251 251 248 248 249 251 253 254 255 255 255 252 252 247 223 216 215 216 183 185 184 184 168 161 168 162 162 162 164 164 167 164 162 162 112 102 87 102 107 121 104 102 104 96 94 94 80 0 
105 105 105 104 101 111 111 109 112 112 109 109 113 173 164 169 164 168 162 161 169 184 164 161 163 163 161 168 190 209 215 248 248 223 248 223 249 249 249 249 193 249 246 195 245 245 245 248 249 250 249 249 249 251 248 244 244 251 254 255 255 255 255 255 252 247 223 223 223 222 196 186 183 162 168 168 163 156 162 162 162 171 165 165 167 143 143 102 87 100 100 109 104 102 104 102 94 101 94 0 
105 105 105 104 102 104 105 105 112 113 88 109 113 152 162 163 163 164 166 163 161 186 164 165 163 162 162 162 200 215 248 248 248 225 225 225 249 252 249 250 249 249 250 247 247 245 245 249 250 250 250 250 197 249 199 199 196 199 254 255 255 255 255 255 250 242 248 247 249 222 196 169 161 161 168 168 168 162 159 159 167 173 164 164 167 146 149 102 86 100 93 107 107 106 107 102 96 105 101 0 
104 104 105 103 108 91 96 108 118 118 109 109 113 154 162 168 170 165 166 167 166 161 165 165 171 164 163 175 204 248 248 248 247 223 222 225 225 249 249 250 250 250 250 249 249 249 248 249 248 250 250 249 197 198 198 197 196 199 254 255 255 255 255 255 242 242 197 248 245 247 224 161 147 130 134 141 168 168 163 164 173 164 165 164 164 149 143 118 102 100 105 107 106 107 107 95 94 101 67 0 
104 103 103 91 85 85 87 105 123 130 109 106 113 157 166 167 170 167 166 166 164 162 164 161 171 169 170 177 220 248 251 246 247 247 217 225 225 223 223 225 250 250 250 249 252 247 250 247 248 228 245 245 198 249 246 246 241 247 251 252 252 255 251 249 242 248 248 242 225 225 247 247 168 129 168 149 168 184 173 173 165 164 164 164 157 164 167 167 118 109 109 105 108 99 99 95 95 90 67 0 
103 102 92 91 85 85 88 103 109 109 106 106 113 159 166 167 167 167 165 165 164 164 167 164 164 169 169 197 248 248 251 250 248 246 248 250 223 219 219 222 225 246 250 250 251 250 249 248 245 245 245 245 249 249 247 247 241 246 247 249 249 251 199 226 226 226 246 243 225 224 247 222 169 168 166 162 165 169 173 173 165 173 166 166 166 179 167 118 160 105 118 110 108 108 99 99 95 94 80 0 
88 102 88 102 89 87 99 107 107 109 106 106 113 162 166 166 167 167 165 162 164 165 166 165 161 165 170 192 247 247 248 250 245 249 251 250 248 220 219 220 199 245 250 251 251 250 249 249 245 245 245 248 249 249 248 247 247 246 249 247 247 247 194 216 226 226 244 251 251 251 224 222 221 168 166 168 165 168 163 169 165 171 165 162 178 178 149 105 105 106 106 114 137 141 106 106 106 133 90 0 
102 103 102 129 122 99 103 107 109 106 106 103 112 162 163 162 166 152 160 162 164 165 166 165 164 165 181 196 236 245 249 245 243 249 250 250 250 248 250 241 245 245 252 252 250 250 249 248 245 245 247 249 249 247 247 247 245 250 249 249 246 246 216 219 226 226 244 244 251 248 222 222 220 170 170 163 168 166 163 165 166 166 162 166 173 162 149 106 99 105 110 114 137 141 113 109 109 112 94 0 
85 86 105 122 122 100 103 114 114 107 110 109 110 162 165 165 158 152 160 179 162 165 163 165 165 170 181 222 240 244 244 245 245 249 249 249 250 250 250 199 249 251 251 251 251 252 251 249 245 245 248 245 248 247 245 245 247 250 249 249 246 249 247 249 251 249 244 244 250 248 223 223 222 181 180 168 163 163 165 166 163 163 162 159 162 154 149 111 106 106 113 135 139 139 113 109 109 109 101 0 
93 93 105 109 109 106 111 109 109 109 106 109 110 148 165 163 152 162 160 164 163 163 164 163 165 180 186 196 240 240 223 223 248 249 249 247 250 219 247 247 241 250 247 249 252 253 253 249 249 199 249 243 243 243 222 247 251 251 247 247 249 249 251 251 251 251 250 250 250 250 250 240 223 181 171 165 160 168 165 168 166 165 165 158 165 159 152 112 112 135 113 113 139 113 109 105 105 105 101 0 
93 101 101 109 109 110 110 107 106 107 109 105 117 148 165 165 162 164 162 164 163 164 164 164 165 165 191 194 194 220 220 226 245 248 249 249 219 219 219 247 249 247 247 249 248 252 253 253 252 247 249 249 221 221 243 249 250 250 246 250 249 249 249 249 249 251 249 250 250 251 252 251 240 180 164 160 159 159 166 166 166 165 165 163 171 163 146 113 113 113 113 109 109 107 90 105 105 103 91 0 
101 105 108 106 110 110 106 106 106 102 106 111 117 147 161 165 162 167 164 160 164 164 165 165 165 186 191 207 197 197 226 248 248 245 248 243 219 219 247 247 248 247 197 197 248 251 252 252 245 247 247 247 221 247 246 249 250 250 245 245 249 249 249 247 249 252 252 250 251 252 252 252 247 165 164 163 165 164 166 166 166 165 162 165 158 158 145 112 107 108 106 106 107 106 102 105 103 101 91 0 
108 105 108 109 110 110 106 105 102 106 107 106 119 147 165 165 169 165 170 165 168 164 165 165 165 184 211 197 197 197 248 248 248 245 248 245 238 249 249 249 250 250 246 248 250 251 251 196 246 250 247 247 194 248 247 247 250 249 249 195 249 246 247 247 248 249 247 247 251 250 252 249 246 194 164 159 176 176 166 166 162 129 129 146 149 149 145 107 107 105 109 108 105 107 105 107 102 108 101 0 
108 108 105 108 105 106 109 105 102 105 114 114 124 143 165 165 165 169 177 170 168 168 185 189 182 189 211 211 241 249 249 249 249 248 248 248 248 249 248 245 249 248 197 227 248 227 222 220 225 249 249 249 251 247 247 248 250 248 248 249 248 249 248 248 249 247 239 247 249 250 248 246 238 221 165 166 176 165 166 166 162 159 122 146 146 146 146 107 106 107 106 94 108 110 109 107 109 114 98 0 
110 110 107 110 105 97 106 112 106 97 102 110 114 147 165 167 165 165 165 168 165 177 185 174 184 181 211 234 241 248 248 248 199 247 248 248 248 248 248 245 249 245 249 248 220 222 222 224 223 220 247 248 197 247 243 247 248 250 249 251 250 248 249 249 249 248 247 248 249 248 196 238 238 194 165 166 165 165 166 167 161 161 159 129 146 129 130 114 114 106 83 104 104 112 112 110 122 110 98 0 
107 108 115 111 110 105 108 105 110 105 105 99 132 148 167 167 160 163 164 164 168 170 167 164 174 175 181 234 244 248 248 242 199 223 223 197 248 248 248 248 249 249 248 248 220 220 225 224 222 223 245 248 248 248 247 243 243 241 250 250 249 249 251 248 250 247 247 248 249 196 196 238 228 221 166 165 165 164 166 166 162 161 165 165 164 139 129 123 108 106 97 104 100 104 111 110 135 110 98 0 
107 108 110 110 111 108 109 107 107 106 110 110 112 148 167 167 167 161 163 161 167 164 160 158 164 158 175 212 212 242 242 224 223 218 198 198 246 248 248 252 249 249 247 249 246 247 226 226 224 196 245 245 248 247 248 243 223 223 225 225 249 248 250 251 248 247 249 249 248 196 196 240 229 173 166 166 164 164 166 162 161 161 168 169 169 169 139 109 108 109 106 100 104 100 104 103 110 110 91 0 
107 108 108 111 111 108 107 106 106 107 106 111 143 148 163 148 157 163 163 164 164 156 164 158 158 143 164 187 198 198 225 223 223 223 218 221 245 245 247 249 247 249 247 249 250 247 250 247 247 250 245 245 250 245 247 223 223 223 225 225 225 242 247 249 247 247 247 245 245 245 243 240 195 173 172 167 158 166 162 162 168 168 168 168 186 169 144 109 109 111 118 111 111 104 104 110 110 111 109 0 
108 105 105 105 90 103 103 105 106 107 106 107 135 143 145 129 157 161 165 164 161 149 163 163 143 132 131 186 198 199 220 199 199 218 221 218 221 247 250 245 245 247 251 251 249 247 249 222 224 224 243 247 245 247 194 223 247 250 225 225 220 242 196 250 247 248 224 225 245 247 248 243 176 169 169 173 166 166 167 171 171 162 158 158 169 168 140 121 121 121 118 109 109 108 100 100 100 109 108 0 
91 102 113 112 99 99 103 105 112 106 78 87 128 129 141 127 129 164 165 165 148 156 156 163 156 158 143 186 198 225 225 199 225 226 221 221 223 240 240 249 245 251 251 252 251 246 247 247 224 224 243 245 250 243 243 250 250 250 248 251 246 246 249 250 249 248 223 223 245 248 248 245 169 168 168 170 161 173 177 171 171 158 158 166 166 144 110 121 132 125 132 137 109 108 107 107 107 108 106 0 
91 102 102 112 103 103 105 117 117 105 87 104 128 138 138 145 128 164 164 159 159 163 160 164 160 164 160 164 215 245 249 249 245 226 199 194 224 224 249 249 249 251 248 251 244 197 246 244 218 224 243 247 252 252 243 251 250 250 250 250 246 245 246 249 250 247 243 247 243 248 244 212 165 158 149 168 131 161 171 161 161 171 158 167 158 133 108 106 125 127 127 125 111 105 107 105 106 106 100 0 
93 107 122 112 103 96 112 117 112 102 92 109 112 141 143 145 164 164 164 164 164 166 163 162 163 162 164 189 191 245 249 250 250 249 225 224 223 224 249 249 249 249 252 198 197 198 195 195 195 195 245 195 245 251 251 249 249 252 251 251 250 245 247 246 250 250 243 249 243 244 226 190 158 144 158 160 160 182 166 161 131 131 131 125 127 127 113 113 113 127 127 125 112 112 107 106 106 106 80 0 
102 109 114 103 103 100 109 117 104 102 102 104 110 144 159 161 164 153 159 169 164 166 162 162 163 162 164 165 183 222 249 250 249 225 196 195 199 223 249 249 249 252 248 198 250 198 195 192 195 195 171 194 199 248 249 249 249 251 250 250 249 245 247 247 250 251 246 246 249 244 226 169 165 144 160 162 162 163 166 161 165 165 131 125 127 127 126 113 102 102 103 109 110 110 107 106 101 109 101 0 
107 110 115 109 100 100 109 105 104 105 102 109 110 143 164 166 162 164 162 164 168 164 163 166 167 174 176 165 171 183 248 249 250 247 196 195 199 249 249 246 250 248 248 248 248 199 198 196 221 195 171 199 199 248 248 250 250 249 251 249 249 249 241 249 250 250 221 221 221 212 192 168 128 163 160 162 163 161 164 164 164 153 153 153 129 129 125 108 102 102 107 107 108 103 95 106 98 113 111 0 
104 110 109 118 109 109 109 105 105 114 115 110 115 141 166 175 165 165 165 154 158 162 168 165 176 170 176 167 164 162 177 234 252 247 245 245 249 249 249 249 250 248 249 249 247 248 247 249 224 224 197 199 199 247 248 250 251 249 249 250 252 250 249 247 250 248 226 221 221 192 168 161 130 160 164 161 163 160 162 164 165 156 156 161 169 161 84 102 102 107 108 108 107 95 95 95 109 109 104 0 
103 112 118 118 108 111 106 105 105 109 115 115 117 140 146 166 168 166 165 148 168 161 161 168 180 176 176 164 163 163 165 234 246 247 250 246 249 141 193 248 246 249 246 248 247 247 249 249 225 226 226 247 247 245 247 250 250 249 249 247 251 251 247 247 248 248 226 216 196 178 130 128 130 155 156 156 160 147 161 160 160 160 153 161 168 175 144 126 108 89 91 91 89 89 91 92 102 106 104 0 
106 108 118 108 107 108 108 106 109 109 109 109 122 140 175 175 179 181 159 147 168 161 149 149 165 169 165 161 161 164 165 186 238 245 250 249 223 223 223 191 223 249 248 248 247 247 249 250 248 247 225 247 241 197 247 249 249 249 246 198 245 245 245 199 245 246 226 201 183 167 161 160 161 155 155 152 152 147 156 163 162 161 161 161 168 168 162 133 109 87 91 89 93 89 78 78 78 91 88 0 
107 112 103 103 107 108 107 107 108 107 108 103 111 146 159 180 179 171 171 171 160 160 160 166 168 149 132 143 163 164 168 182 186 238 243 244 223 223 191 190 191 223 250 250 247 247 247 247 247 248 248 248 249 247 248 248 249 250 246 198 198 245 197 197 197 235 200 200 200 162 162 161 161 157 155 147 152 147 156 160 160 161 160 163 168 175 162 133 110 87 93 93 100 100 89 65 72 91 62 0 
107 107 108 107 108 107 107 107 110 107 103 103 116 161 173 173 159 171 171 171 167 161 166 166 169 166 143 163 143 126 168 170 170 171 191 240 247 247 223 194 223 225 249 250 248 248 247 247 242 221 249 250 250 249 248 249 249 250 249 250 199 199 198 197 199 235 200 196 201 183 165 167 169 169 169 169 169 152 160 152 160 161 163 167 177 162 135 112 108 107 106 100 100 93 78 81 81 102 62 0 
132 102 102 105 105 107 105 104 108 108 103 102 111 161 173 161 171 159 171 160 161 165 166 166 173 173 173 184 163 161 163 161 155 129 171 206 247 244 219 219 217 225 246 249 246 246 246 242 221 245 245 251 251 250 249 250 248 248 248 224 224 220 199 244 194 184 169 183 169 162 165 169 169 172 169 169 169 168 160 160 135 156 163 163 163 148 145 112 104 108 106 107 100 97 86 86 102 102 62 0 
93 102 101 102 107 107 107 105 124 106 103 107 111 161 171 173 166 167 165 161 165 166 161 163 169 173 173 172 166 163 162 155 127 129 177 191 206 232 219 219 223 224 246 246 249 246 246 246 245 246 246 250 251 249 249 249 248 199 199 197 220 224 208 194 161 160 167 167 160 160 162 165 179 173 169 167 167 164 168 161 161 165 163 163 159 146 146 110 106 104 107 107 106 86 86 101 101 81 57 0 
101 101 101 103 103 102 102 106 109 104 104 104 107 146 167 171 169 167 165 165 164 164 158 163 163 169 170 170 167 167 167 167 166 166 176 174 188 188 201 220 223 224 245 245 248 246 246 249 248 246 248 251 249 249 249 249 247 247 192 199 215 218 208 168 144 160 160 160 160 159 160 162 171 170 169 165 165 164 164 165 161 165 164 131 131 148 146 140 104 106 106 107 107 99 106 101 86 101 71 0 
88 89 117 112 107 102 112 111 109 111 109 107 104 110 165 165 165 166 165 166 165 162 163 165 163 164 164 164 163 170 172 172 172 169 169 168 172 172 174 201 220 223 220 248 248 248 251 249 249 249 248 248 250 250 249 249 249 249 242 215 199 201 199 140 128 128 157 160 159 160 159 147 162 170 170 165 161 161 161 165 164 164 171 144 164 147 146 137 107 107 106 106 107 106 108 106 106 105 101 0 
81 100 117 109 109 120 132 104 111 111 123 109 104 104 165 166 166 166 168 166 163 162 164 163 165 163 143 141 166 170 173 182 172 168 168 168 162 166 166 185 195 197 197 221 241 230 241 248 249 248 249 248 249 250 250 249 250 249 215 201 199 166 166 121 121 161 157 157 162 160 160 149 153 170 165 164 161 161 160 147 161 173 173 164 164 164 132 117 108 107 107 104 104 104 106 106 106 106 65 0 
100 106 112 106 109 132 110 111 94 111 123 111 123 133 165 166 166 170 170 170 166 164 164 165 167 164 164 157 166 173 173 172 168 165 163 169 168 170 165 166 182 182 186 186 197 223 230 238 247 247 224 224 221 199 187 187 187 196 201 184 173 173 166 161 161 161 162 128 160 163 163 162 163 171 171 164 164 163 147 147 161 161 159 164 164 160 132 117 124 124 107 107 104 104 105 106 106 104 104 0 
104 106 106 110 109 112 110 94 123 103 103 106 109 135 153 166 180 180 172 170 176 176 168 164 164 164 159 165 165 168 168 168 165 164 164 169 169 162 182 182 169 160 110 166 166 174 185 185 192 194 192 167 164 157 182 173 169 173 180 178 173 166 165 164 164 161 146 164 165 164 165 162 163 172 183 172 183 170 167 162 161 162 165 165 164 132 117 114 117 112 111 107 104 105 105 105 104 110 88 0 
82 83 105 110 110 118 118 118 123 103 103 103 109 143 153 165 184 172 170 172 176 172 164 164 164 160 165 160 167 166 164 166 166 163 168 169 166 166 180 182 182 160 159 110 129 110 162 164 164 165 167 168 167 166 168 168 168 160 160 160 165 165 165 165 165 165 161 169 169 160 159 159 162 173 169 172 172 172 167 162 162 136 165 165 160 133 132 132 114 103 103 105 100 108 106 106 105 113 109 0 
83 103 105 105 112 110 123 123 124 122 109 109 110 142 142 163 179 172 170 170 172 171 168 164 164 156 157 160 162 163 163 164 164 166 169 166 162 160 162 164 169 160 159 159 154 157 162 162 162 164 167 167 170 167 162 168 166 160 160 157 160 165 157 164 130 146 166 168 165 165 158 141 159 162 169 169 174 174 167 166 142 161 162 164 162 133 133 123 111 108 99 105 105 100 104 106 108 117 110 0 
102 103 105 105 105 105 118 118 122 109 108 108 110 127 127 147 172 164 164 170 172 171 171 163 163 163 145 162 163 162 164 166 165 164 167 166 126 126 164 164 161 153 153 154 160 157 158 131 164 164 165 164 170 170 170 170 167 161 158 158 157 155 155 129 152 129 165 165 162 163 163 155 161 161 179 169 163 161 163 166 156 161 162 163 162 139 127 133 109 109 121 105 100 84 105 104 108 110 93 0 
102 102 114 109 105 109 105 105 106 106 106 109 112 127 127 142 160 160 161 163 172 175 172 167 166 160 163 159 162 162 163 165 165 165 165 167 167 169 166 164 161 153 161 164 162 162 157 131 157 165 166 165 170 170 167 170 167 161 163 158 155 137 137 127 166 166 168 165 165 179 177 167 167 161 181 181 129 159 166 165 165 161 161 163 161 151 138 109 108 109 109 108 106 88 88 104 105 108 132 0 
101 102 104 118 109 111 105 105 101 101 86 102 109 127 147 160 129 129 160 165 169 175 162 167 162 134 135 159 162 164 164 162 165 164 164 165 162 186 169 162 160 133 160 163 163 160 160 161 162 165 166 167 174 170 170 170 169 170 163 163 137 136 115 160 162 166 165 169 174 184 179 167 161 167 181 172 159 161 167 167 161 157 161 157 163 168 139 109 109 107 106 108 107 107 80 105 96 111 108 0 
85 101 85 102 109 117 111 109 101 102 102 108 115 146 161 161 161 162 163 165 162 162 169 163 162 158 158 160 162 163 164 164 164 143 165 164 172 169 169 162 162 161 163 164 167 166 164 163 162 162 166 170 166 170 158 158 164 163 164 160 136 137 136 163 165 160 167 169 174 179 179 182 167 169 172 162 172 181 168 165 165 161 126 126 168 168 158 118 110 110 107 136 137 108 108 105 109 110 96 0 
103 103 85 103 107 108 108 101 110 102 102 102 135 146 161 161 161 165 165 169 162 156 162 162 162 162 158 133 162 163 171 171 164 162 162 170 158 165 160 154 161 160 163 163 167 166 164 163 163 168 166 170 169 169 164 161 161 164 165 163 164 163 166 164 165 161 126 165 167 173 172 173 173 168 165 163 181 181 168 165 165 161 101 127 165 165 145 141 135 135 110 102 135 107 108 109 110 108 83 0 
103 101 107 101 103 85 99 99 112 110 102 113 129 146 163 174 174 165 169 162 155 165 165 165 162 162 163 158 163 166 171 171 166 166 163 170 165 157 159 161 161 164 164 171 170 167 163 163 163 165 160 146 169 164 161 161 164 165 166 165 160 163 164 164 163 154 146 146 148 167 169 172 173 168 163 168 180 164 164 165 164 127 126 165 168 165 150 141 135 120 131 121 131 108 108 108 109 109 83 0 
100 100 106 106 106 96 90 112 110 110 108 110 129 163 163 174 174 173 174 173 173 178 178 165 165 159 159 162 165 166 171 171 165 165 164 164 165 167 170 159 159 164 164 164 170 170 163 163 165 165 166 166 166 161 165 169 170 168 165 166 165 164 170 164 161 150 126 161 157 157 157 167 168 168 163 163 168 161 161 161 129 129 164 165 180 168 165 108 110 104 104 117 117 107 107 106 109 109 86 0 
100 101 106 124 106 112 96 110 105 110 110 110 124 162 166 171 178 173 170 173 173 174 173 180 165 165 162 167 165 166 167 166 165 164 164 164 170 169 159 164 158 159 164 164 168 161 161 160 159 165 166 165 153 148 169 170 169 168 165 162 160 161 161 159 159 150 125 125 162 157 162 165 165 157 147 150 161 152 161 161 168 164 168 168 176 176 167 115 115 108 104 106 120 117 106 96 102 105 102 0 
100 107 108 124 112 110 94 96 105 105 110 110 110 110 134 156 170 164 173 170 173 174 161 169 169 170 167 167 164 169 165 164 165 164 165 165 169 170 170 169 165 169 158 178 161 160 168 166 166 167 166 164 154 164 164 162 162 162 162 161 158 161 165 161 164 159 139 141 162 167 168 167 168 157 143 143 150 147 161 161 166 166 166 168 168 167 167 148 112 117 100 104 111 107 117 117 107 102 102 0 
107 109 120 124 120 115 105 105 105 104 106 107 110 134 135 134 141 160 149 162 159 160 159 157 169 168 164 164 168 164 164 149 163 160 162 165 165 168 150 165 156 156 165 154 143 164 168 166 168 164 154 156 164 164 148 132 161 162 162 158 158 154 159 154 161 159 159 162 168 167 168 161 157 146 143 135 135 142 151 150 151 145 147 160 167 172 160 148 135 106 105 104 105 104 108 115 108 105 93 0 
106 109 114 112 115 112 111 107 106 104 108 110 114 134 135 127 134 141 129 141 141 157 140 132 133 131 134 161 167 164 149 144 149 149 149 146 126 126 145 145 149 149 149 124 124 164 171 168 166 108 120 122 164 143 129 130 130 143 161 149 158 149 149 149 147 147 160 162 140 140 140 149 149 143 135 132 135 131 145 145 145 145 107 147 159 170 153 152 108 104 105 104 104 115 108 115 108 109 83 0 
106 110 111 112 111 112 111 107 107 107 114 115 136 137 127 127 109 95 107 108 108 141 160 132 106 130 106 131 111 111 110 109 105 111 111 111 101 106 108 108 100 100 89 96 105 105 141 141 102 101 79 110 110 118 125 125 109 109 132 143 108 108 105 112 112 112 145 147 112 104 107 108 105 105 105 133 140 135 149 160 144 141 109 141 147 144 152 110 106 106 104 105 104 105 106 106 109 109 88 0 
110 139 130 112 106 111 112 111 107 108 108 134 136 137 109 115 93 95 93 100 104 108 109 96 106 106 100 101 101 106 109 105 82 99 101 101 87 102 106 103 100 100 104 100 96 102 107 102 101 101 101 110 110 110 102 123 109 106 107 107 108 98 104 108 112 111 112 98 101 101 101 103 104 105 105 106 107 131 107 145 131 111 109 109 143 137 144 110 110 106 106 104 106 87 101 87 101 106 79 0 
125 139 116 110 110 116 116 105 114 114 100 120 115 120 111 109 98 98 93 104 108 121 121 136 106 114 100 101 88 92 105 105 105 109 101 102 87 102 108 121 110 110 106 104 104 104 104 105 102 101 102 110 109 123 123 123 111 106 106 106 91 90 105 105 111 112 112 105 105 105 101 103 106 103 106 106 106 138 133 111 111 109 109 109 109 111 110 112 116 112 107 106 107 106 80 107 107 88 88 0 
125 125 116 110 118 120 118 103 104 118 114 128 119 119 111 108 108 98 104 104 109 109 100 109 96 100 104 100 92 104 105 113 114 110 106 106 102 103 121 127 123 110 104 100 93 102 104 109 116 107 107 109 110 136 135 135 112 110 106 88 88 105 105 109 110 110 110 105 101 105 104 106 104 104 103 106 110 111 133 105 94 92 109 109 109 98 116 139 136 136 107 107 107 102 102 91 91 101 106 0 
121 106 106 107 117 117 105 103 114 118 142 128 128 119 111 105 93 93 103 104 115 104 100 96 96 105 104 94 92 104 104 113 107 112 109 138 110 121 122 123 121 110 104 101 101 90 109 116 116 107 107 107 104 136 135 124 124 110 88 109 109 99 105 109 110 105 105 103 103 97 104 107 106 106 106 104 106 111 111 107 93 107 109 109 105 108 110 116 139 119 107 107 107 107 107 102 107 124 106 0 
144 105 105 105 107 102 105 103 105 130 142 129 128 129 108 108 89 103 89 109 109 100 95 95 96 105 105 107 107 107 113 114 113 115 114 135 112 106 114 110 110 110 106 104 90 93 109 111 113 109 107 107 107 110 124 124 124 124 112 112 112 99 105 110 110 105 103 98 94 94 94 104 107 107 107 107 111 110 110 107 107 109 111 109 108 108 106 110 139 126 111 110 107 95 102 107 109 109 92 0 
106 87 105 88 107 98 102 105 115 115 128 128 108 107 91 91 91 104 106 109 108 104 93 95 105 107 108 110 108 106 107 114 115 122 139 135 122 106 102 110 110 110 106 106 105 103 104 110 109 109 105 107 107 104 107 110 120 120 112 112 105 96 105 109 109 103 103 103 97 94 97 107 108 107 107 107 109 115 110 110 107 160 115 109 109 113 109 109 119 116 111 111 106 105 104 105 125 114 105 0 
121 105 105 104 105 107 126 126 136 139 111 108 104 104 91 107 122 109 108 108 106 102 95 106 95 107 104 108 108 106 113 114 121 125 125 117 106 106 105 106 113 106 137 137 106 105 110 113 108 108 110 110 107 105 109 109 118 110 95 102 102 101 93 105 103 109 110 108 107 78 107 108 108 107 107 108 115 110 109 132 123 132 123 159 113 114 112 113 109 110 116 116 110 105 102 106 105 114 96 0 
104 99 102 99 98 104 158 158 115 111 108 104 104 107 107 107 122 109 108 108 108 106 106 106 106 99 104 104 107 106 105 108 108 114 118 106 106 106 106 106 106 106 113 105 106 110 136 140 110 87 92 104 106 106 107 109 109 109 95 106 106 101 107 104 103 111 107 111 110 108 123 121 96 105 106 106 108 108 109 132 123 123 134 124 124 112 112 109 101 102 111 110 108 105 105 104 105 107 104 0 
106 104 99 92 91 106 126 149 126 97 100 103 121 113 111 109 109 117 109 110 110 113 109 109 108 106 107 107 107 105 108 106 105 99 101 106 105 105 106 105 99 108 107 102 106 110 136 108 92 92 92 92 103 105 105 109 107 99 99 110 110 106 112 110 110 114 122 108 108 130 130 122 105 105 106 107 107 114 107 132 106 109 134 109 112 97 91 88 88 107 107 110 110 106 106 106 103 107 97 0 
104 104 98 85 85 106 108 108 107 97 97 100 111 111 111 107 107 107 110 117 132 109 113 109 109 108 107 107 103 105 113 101 101 92 98 101 102 108 105 108 111 108 108 107 102 96 110 125 92 92 92 92 105 104 107 110 106 105 107 105 110 110 110 112 112 127 124 102 109 109 122 105 97 107 107 107 107 114 107 108 108 106 133 104 101 91 91 91 107 111 107 104 103 105 107 107 107 105 104 0 
98 78 78 73 78 106 107 106 100 88 96 88 96 100 100 100 104 106 106 110 109 105 105 105 108 107 107 83 83 101 101 101 85 82 85 92 98 102 102 105 111 94 105 102 82 83 83 83 81 83 76 86 86 76 86 87 86 99 98 98 99 102 105 105 127 122 122 97 101 97 101 78 78 107 78 92 103 92 85 85 85 94 94 94 91 84 86 91 107 107 111 96 87 96 61 107 109 65 0 0 
0 0 0 0 0 0 0 0 0 0 0 0 0 0 0 0 0 0 0 0 0 0 0 0 0 0 0 0 0 0 0 0 0 0 0 0 0 0 0 0 0 0 0 0 0 0 0 0 0 0 0 0 0 0 0 0 0 0 0 0 0 0 0 0 0 0 0 0 0 0 0 0 0 0 0 0 0 0 0 0 0 0 0 0 0 0 0 0 0 0 0 0 0 0 0 0 0 0 0 0 
