P2
# Created by IrfanView
100 100
255
89 72 64 107 85 82 81 85 90 81 110 103 108 187 143 141 104 
141 106 111 143 104 135 107 104 105 106 105 102 107 142 140 100 
111 103 104 83 89 105 109 109 104 107 114 77 88 101 82 104 
103 112 108 169 57 107 107 141 142 69 69 106 59 87 79 151 
100 135 106 110 107 102 100 122 185 115 105 82 86 85 87 101 
91 85 99 138 106 115 127 141 236 190 120 173 99 167 104 171 
172 107 213 58 82 145 152 57 166 111 100 109 61 105 170 69 90 106 172 85 
116 152 83 160 124 137 61 103 111 105 107 111 106 67 104 90 
88 104 117 113 106 103 112 164 113 107 114 88 86 141 113 86 
81 113 58 114 95 142 134 109 105 136 149 108 104 139 132 155 
95 138 164 106 106 108 64 71 76 82 75 150 89 85 88 76 
76 84 108 135 114 126 75 106 202 160 156 83 82 66 111 138 
133 224 158 105 114 101 111 102 110 63 111 99 102 144 106 139 61 42 82 105 
145 97 167 147 136 107 112 114 100 117 103 74 92 40 104 87 
85 95 79 105 103 98 88 115 100 97 95 109 105 113 113 112 
136 121 128 126 135 112 137 105 102 143 107 87 145 170 108 107 
62 104 101 122 183 202 139 38 84 137 109 138 134 110 103 63 
138 153 188 91 107 138 128 133 118 112 114 122 101 64 66 102 
145 102 76 141 135 65 163 84 82 77 93 50 101 133 110 143 113 99 111 171 
90 105 104 93 133 107 107 76 94 175 101 75 92 142 108 106 
105 105 173 110 107 95 160 101 118 90 102 104 114 106 109 106 
139 125 125 99 152 152 172 100 118 122 110 83 132 172 113 104 
66 204 140 101 110 103 106 110 174 142 63 102 65 111 108 107 
137 129 157 85 113 103 108 124 184 112 62 126 97 110 103 111 
135 154 63 84 87 86 86 78 99 108 97 203 140 74 93 104 134 163 98 101 
135 147 135 102 83 109 133 195 148 86 148 107 58 110 106 106 
110 152 159 130 180 111 160 110 62 113 106 105 157 62 104 109 
103 171 105 170 100 92 120 101 101 145 176 102 110 99 86 203 
167 106 60 126 120 106 61 111 109 81 177 90 127 102 105 156 
144 117 46 109 149 60 93 90 38 100 142 108 90 70 80 122 
159 101 110 65 107 163 115 79 94 169 114 103 108 4 70 112 140 125 124 93 
127 146 86 109 81 62 144 161 126 108 109 170 107 106 109 105 
106 123 193 138 178 90 84 108 170 112 109 124 192 110 102 108 
106 169 108 112 66 137 63 59 104 110 146 112 110 112 149 85 
118 92 132 117 128 104 109 147 137 84 110 99 124 177 108 102 
101 134 62 108 152 125 125 168 105 172 143 108 81 138 169 162 
133 109 121 131 123 113 79 150 90 105 99 119 106 109 103 107 207 81 92 156 
119 65 108 104 82 72 89 67 107 112 172 104 108 77 104 102 
100 105 59 108 104 106 107 111 86 118 129 132 125 106 112 59 
116 100 107 103 58 103 110 111 61 41 54 111 167 162 107 104 
111 168 101 95 58 103 103 108 138 102 98 108 111 63 149 88 
82 114 97 83 103 105 60 139 81 107 102 109 108 172 107 39 
64 81 60 98 97 98 92 135 91 137 141 76 72 106 59 97 137 120 106 151 
120 110 104 64 81 165 129 114 111 108 109 133 140 82 99 123 
126 148 149 107 113 99 104 113 85 121 125 102 173 112 106 168 
100 109 60 66 67 62 111 202 203 172 150 106 169 102 108 88 
85 114 107 196 119 104 105 108 92 145 37 114 66 79 108 61 
61 108 114 77 106 108 103 107 98 110 108 119 104 209 86 104 
85 80 107 106 108 144 145 99 102 133 107 221 129 109 143 143 171 94 87 105 
108 102 85 88 97 113 108 101 57 90 90 114 65 94 111 102 
105 109 65 121 152 119 109 89 82 105 110 108 100 107 199 118 
126 137 140 93 71 87 105 36 58 109 105 113 148 109 102 105 
115 125 121 99 84 109 94 120 123 110 104 90 83 62 99 124 
189 103 109 105 90 106 90 155 74 103 114 115 124 168 139 110 
190 142 104 107 106 132 136 103 64 122 147 151 131 106 202 144 169 104 105 112 
61 111 76 74 70 47 81 105 108 129 117 137 136 91 106 71 
29 103 107 95 192 109 111 81 85 104 102 155 82 106 140 188 
128 132 142 97 72 81 173 77 104 109 110 138 172 111 107 106 
106 45 92 134 154 112 137 155 210 65 101 106 108 106 107 119 
126 109 113 103 79 111 94 114 45 104 108 99 96 106 138 27 
94 172 145 101 113 169 109 109 111 108 73 109 102 103 168 110 167 106 104 111 
116 170 169 37 107 100 108 102 138 187 159 149 68 109 85 108 
103 105 42 105 96 104 111 109 107 105 58 105 142 104 106 86 
115 141 108 80 81 107 114 166 117 95 115 95 116 87 108 204 
108 96 174 110 104 105 111 44 101 104 172 81 86 85 90 169 
99 97 157 107 106 104 102 110 170 87 107 101 113 112 109 104 
101 85 101 168 176 169 108 144 140 105 112 93 143 99 106 113 111 103 105 102 
118 100 113 84 113 119 120 96 128 158 122 106 83 104 89 102 
62 102 91 104 110 98 103 108 103 171 66 60 140 107 107 167 
146 135 111 104 171 84 88 108 166 109 96 61 109 86 110 136 
104 149 104 112 61 102 110 94 50 112 107 111 103 109 108 66 
110 96 99 105 103 43 84 108 96 91 97 164 101 109 68 189 
131 78 108 101 102 88 146 71 99 94 88 175 198 149 136 89 132 108 174 111 
164 37 82 104 35 172 115 107 113 104 91 172 140 141 139 108 
175 108 88 39 100 177 116 64 111 101 100 99 142 111 107 110 
107 100 89 110 111 109 99 110 111 38 107 131 122 122 128 125 
122 88 107 203 138 114 95 138 103 111 138 110 135 105 103 127 
183 68 83 64 67 58 108 78 169 126 123 115 105 86 167 105 
59 106 147 106 101 139 132 79 96 78 134 146 167 238 234 94 147 150 144 141 
189 140 143 145 130 143 144 147 143 156 125 139 112 177 109 75 
151 168 146 79 114 145 144 144 147 146 109 128 170 111 40 147 
139 126 167 147 147 142 151 163 166 86 111 179 190 155 161 185 
181 173 143 181 141 148 128 219 136 76 182 76 105 143 148 165 
163 125 148 144 143 113 86 87 171 117 125 105 102 85 104 109 
106 114 198 113 109 103 65 119 128 88 40 60 108 57 99 104 145 180 113 131 
160 167 99 211 101 127 96 182 187 157 121 190 182 180 178 183 
168 175 182 175 161 179 179 147 179 201 126 182 192 181 168 97 
161 173 206 93 160 163 159 216 224 170 168 181 175 182 185 159 
166 165 133 132 130 163 165 203 173 146 134 108 148 148 146 184 
159 137 133 224 198 157 186 94 74 106 129 116 60 134 119 103 
112 168 109 113 105 110 165 128 121 81 81 110 102 110 108 108 144 165 206 128 
168 159 167 172 173 133 165 168 156 128 26 125 130 165 161 218 
164 204 129 160 164 181 168 151 142 163 132 168 89 187 163 162 
165 154 172 189 187 167 162 214 196 171 181 169 175 220 181 160 
167 165 62 163 94 159 163 160 164 184 163 110 144 144 152 176 
170 177 141 162 179 137 102 100 120 122 101 169 103 149 19 65 
102 104 102 65 104 111 106 106 107 109 174 170 110 109 108 137 186 164 202 168 
180 126 134 181 127 222 186 162 164 162 123 169 98 103 162 168 
161 166 127 175 178 128 169 115 186 149 147 167 156 188 164 93 
165 167 128 189 179 165 203 190 232 157 171 172 181 178 167 170 
167 157 128 146 167 131 130 182 98 164 167 117 184 84 132 167 
149 161 168 161 183 138 95 97 127 110 147 105 60 108 134 86 
128 105 112 107 170 144 140 62 106 100 107 111 66 103 110 96 144 202 197 207 
175 161 205 186 135 176 188 181 223 162 120 128 127 157 170 164 
164 167 132 163 168 165 160 161 155 172 99 152 160 179 158 158 
170 157 128 203 172 160 172 107 176 159 163 167 176 235 186 128 
164 173 125 216 88 162 165 183 161 93 164 183 176 138 164 131 
106 167 131 162 179 139 92 106 113 110 141 135 133 82 114 135 
179 106 115 120 137 169 107 104 98 114 113 122 122 111 89 127 149 200 186 166 
167 163 162 204 110 150 140 219 182 96 169 182 167 175 175 218 
172 171 170 174 105 160 129 168 160 157 201 170 169 177 94 64 
199 180 170 162 90 203 161 163 165 166 163 163 164 219 197 129 
86 145 184 164 164 163 160 135 168 55 129 130 128 143 187 163 
168 162 87 191 112 75 112 114 152 100 109 96 107 108 85 169 
113 90 93 87 111 103 108 168 108 80 46 121 128 113 83 134 184 182 162 112 
186 167 163 120 146 189 203 155 159 131 160 188 162 211 178 114 
158 136 172 174 178 154 134 186 176 161 158 168 163 206 183 123 
173 97 168 93 161 164 87 172 155 166 160 92 169 180 91 166 
62 146 150 160 96 201 125 127 193 167 169 146 77 150 146 161 
173 161 168 161 166 178 108 64 154 97 102 106 115 96 70 64 
108 97 89 169 101 112 171 127 115 120 107 148 36 101 112 114 147 158 167 168 
166 149 128 168 202 161 128 139 116 163 166 172 135 160 164 163 
168 142 138 204 76 214 213 182 204 134 177 163 203 162 168 177 
102 145 148 171 181 174 179 162 169 158 59 56 123 187 178 196 
171 128 162 133 165 166 96 201 96 128 157 167 127 205 163 163 
151 64 162 166 202 186 115 104 175 86 88 98 182 111 110 204 
102 107 110 105 114 110 106 125 120 81 89 171 114 108 115 105 152 183 186 203 
162 226 163 164 92 163 130 136 108 165 160 193 87 137 128 166 
167 72 151 206 143 192 200 187 210 129 221 120 63 198 166 175 
215 146 145 173 175 210 132 164 162 161 128 169 162 168 94 192 
175 126 159 97 124 165 156 64 126 147 185 91 122 162 163 135 
173 143 181 165 167 142 105 139 148 99 113 80 99 113 113 144 
107 34 84 87 102 103 103 82 113 92 76 172 103 28 66 116 160 132 142 180 
160 163 163 172 160 189 149 187 180 162 131 166 163 89 161 165 
164 132 163 105 115 89 149 201 153 162 128 180 100 166 162 113 
165 156 170 121 185 104 198 169 164 183 144 155 185 127 166 162 
208 162 166 155 172 112 217 177 169 125 161 94 57 188 183 163 
162 165 166 184 219 188 138 117 98 138 164 80 124 232 165 72 
93 88 110 79 62 176 110 106 138 104 106 104 60 94 103 94 164 158 184 181 
166 205 101 158 204 187 145 173 181 167 125 173 152 100 157 223 
183 136 153 147 154 152 132 120 105 164 62 169 166 96 167 202 
185 169 168 137 186 173 186 171 170 152 147 156 178 199 159 187 
181 161 99 163 161 171 162 189 156 131 165 123 159 164 167 171 
166 160 162 166 167 181 147 171 121 196 59 128 118 94 133 25 
98 93 168 130 121 104 107 41 128 170 109 104 107 116 36 111 69 171 167 166 
192 165 133 169 172 163 161 167 182 176 173 113 191 103 162 164 
129 125 174 159 161 147 181 198 130 160 155 213 121 129 130 76 
149 163 160 182 203 181 169 97 144 169 166 167 168 157 167 159 
194 102 161 161 116 182 54 157 189 175 179 165 134 200 172 148 
145 129 164 123 155 149 106 84 40 148 138 104 61 39 80 106 
101 203 114 71 181 110 115 101 80 97 89 167 116 137 106 111 146 201 172 161 
185 176 136 117 143 165 160 165 181 175 179 159 171 136 161 163 
129 123 205 158 170 123 162 126 97 156 167 189 164 94 95 73 
150 201 171 183 161 175 166 165 180 158 165 162 172 121 130 122 
129 168 168 165 190 177 137 176 200 105 178 162 132 169 162 176 
153 202 156 132 200 152 105 104 105 86 90 82 85 103 99 102 
112 105 88 77 126 68 110 138 118 102 111 110 61 111 104 81 152 164 133 160 
206 123 168 96 186 155 152 96 102 203 161 160 167 160 92 204 
184 129 131 94 158 131 170 168 160 197 160 165 100 171 183 192 
225 193 62 191 183 169 132 95 161 168 165 157 180 203 162 167 
162 55 130 183 219 135 162 165 221 160 163 94 208 163 158 169 
61 91 170 203 173 136 88 80 99 88 111 102 113 85 38 114 
97 175 140 79 126 174 107 117 84 107 99 121 97 106 106 131 155 178 149 164 
161 125 132 163 151 129 107 166 164 165 163 164 173 157 164 162 
181 206 201 167 162 170 172 92 98 167 186 218 217 233 239 247 
253 248 198 248 121 170 126 205 164 162 165 167 109 157 168 163 
162 168 165 169 204 163 169 162 224 182 184 169 158 180 187 162 
132 163 128 164 164 129 66 87 108 81 60 169 103 56 126 64 
55 141 106 103 139 49 76 57 56 140 108 79 125 96 102 94 100 70 152 165 
165 156 163 173 165 183 101 167 165 165 157 152 139 174 172 91 
185 172 77 205 167 131 131 167 129 246 248 252 250 248 247 220 
226 247 250 194 196 141 251 249 138 125 229 180 108 179 175 145 
146 131 169 141 194 204 201 135 125 108 134 174 159 182 211 179 
181 129 166 174 100 162 106 149 155 186 102 77 71 141 107 142 
82 111 175 137 229 157 128 172 111 130 103 197 163 143 107 82 164 149 144 148 
186 111 171 162 208 182 214 203 165 164 202 146 147 175 172 166 
109 163 57 168 170 183 221 216 176 141 252 248 250 142 254 226 
223 250 250 246 247 252 248 141 253 143 246 174 148 180 183 147 
141 133 135 164 187 166 171 161 168 106 76 155 167 168 171 125 
132 150 189 166 214 93 71 125 113 83 96 115 142 133 107 140 
75 109 70 89 55 119 144 106 105 91 84 107 102 109 102 120 160 204 205 99 
93 156 164 198 201 166 173 157 225 161 160 147 153 160 165 161 
168 21 169 172 211 195 252 88 249 254 145 197 254 246 250 195 
245 196 250 242 243 140 251 247 243 251 246 141 197 132 174 179 
166 162 43 171 163 130 165 102 170 169 182 107 103 130 130 129 
171 171 103 167 163 175 121 83 117 85 72 103 98 75 171 107 
107 83 88 39 109 87 107 163 166 145 207 108 103 86 86 125 156 166 89 163 
163 130 129 122 125 177 215 125 150 164 196 143 150 168 165 164 
172 125 172 233 251 197 245 91 253 251 251 189 250 249 251 196 
245 195 247 197 196 251 244 248 247 250 141 198 250 252 236 225 
165 200 115 158 166 127 163 169 167 170 183 177 180 162 162 129 
204 176 176 160 161 179 123 91 63 108 105 192 135 96 123 200 
134 107 111 85 111 172 169 86 113 186 124 111 139 105 112 102 142 128 164 165 
169 160 170 173 211 115 180 165 195 202 202 160 132 90 202 147 
144 199 242 247 247 253 246 248 140 252 196 245 245 248 248 252 
253 243 247 252 199 251 197 249 252 196 249 198 199 215 221 196 
78 125 169 206 178 94 161 132 145 127 168 163 57 182 164 161 
166 167 161 66 113 165 84 174 170 108 104 108 62 77 28 104 
43 109 113 40 107 113 167 118 133 124 109 86 112 108 104 105 149 128 197 165 
121 162 167 179 102 161 160 164 208 159 153 100 63 166 171 153 
180 238 237 251 249 197 195 249 253 253 195 249 249 247 248 247 
247 151 138 253 195 253 198 243 252 196 251 253 254 216 223 253 
243 157 173 115 168 182 186 91 181 175 183 161 136 186 166 217 
183 167 165 130 223 145 110 141 138 106 110 100 107 161 103 105 
43 109 59 200 201 108 142 40 150 139 141 81 77 115 172 127 97 202 190 167 
91 164 165 144 116 125 58 186 123 98 149 181 164 166 163 203 
234 224 227 139 250 197 198 250 248 253 253 253 251 249 89 249 
248 250 252 248 251 250 191 253 194 221 219 252 249 252 248 196 
245 242 147 162 87 167 161 151 183 191 177 155 141 163 128 166 
182 175 173 162 108 108 67 124 119 89 89 107 57 115 102 110 
100 79 104 104 101 105 136 145 131 110 107 104 108 63 106 119 206 220 93 167 
200 203 163 140 149 221 184 187 120 165 143 181 60 201 180 186 
198 222 222 250 240 149 249 251 246 250 244 147 253 251 196 247 
251 200 195 97 198 253 96 87 140 224 223 245 250 252 251 193 
247 248 196 176 168 165 172 126 166 192 122 142 157 164 127 168 
182 168 178 178 199 128 92 123 75 101 101 172 173 95 140 105 
106 98 125 106 110 117 106 94 100 128 98 130 137 133 144 176 170 172 156 162 
94 165 131 171 154 184 182 163 166 161 170 130 124 139 236 253 
252 248 252 251 251 250 145 249 249 252 251 241 200 243 251 253 
252 245 249 243 249 252 248 249 137 253 250 224 110 200 142 172 
163 199 194 230 195 162 165 71 107 178 112 158 159 62 168 215 
178 161 94 186 186 151 111 82 115 109 173 121 130 165 164 96 
49 114 108 102 169 93 97 50 99 120 96 93 96 110 108 170 177 166 163 164 
161 211 129 164 159 184 179 167 164 157 170 184 178 183 250 252 
254 249 252 248 141 253 254 252 250 251 250 253 200 139 245 251 
249 250 250 248 251 252 246 250 248 254 251 227 226 254 200 223 
223 253 249 196 197 163 157 185 104 100 161 181 186 99 162 215 
164 162 162 112 180 152 102 80 169 108 107 183 75 172 104 94 
94 80 81 113 134 101 111 77 86 112 139 109 109 102 173 133 173 183 169 162 
168 169 92 132 100 202 147 91 198 168 206 157 190 245 94 249 
141 196 249 252 249 147 252 246 189 251 137 186 253 249 198 248 
249 195 190 253 253 248 198 244 249 251 255 255 255 255 255 250 
252 216 113 215 223 183 162 202 184 124 57 196 181 156 168 162 
172 171 143 172 106 139 109 87 82 139 176 104 102 87 112 93 
51 148 76 138 179 103 104 102 100 115 145 54 112 85 87 105 152 173 164 136 
59 115 186 121 206 161 148 163 94 168 161 168 215 248 197 251 
248 195 254 138 249 247 140 251 193 249 245 194 248 245 196 252 
250 141 249 251 251 251 199 251 253 254 255 255 255 255 255 252 
247 223 112 223 222 216 169 186 196 200 168 108 162 162 159 93 
167 173 144 170 167 146 102 86 85 121 78 109 102 101 136 96 
94 113 111 105 105 108 99 149 111 96 103 166 118 113 109 113 134 183 159 178 
179 163 161 184 188 202 164 163 158 97 200 204 209 253 248 252 
250 223 222 253 252 252 249 248 149 255 252 195 200 248 249 251 
252 254 249 85 197 255 195 195 196 255 255 255 255 255 255 197 
250 139 249 245 251 196 136 161 130 126 169 128 163 128 95 218 
179 164 165 88 169 143 68 102 93 100 124 139 95 141 118 91 
101 105 106 104 112 103 111 15 85 108 105 123 93 88 80 114 154 175 162 163 
166 167 166 124 120 202 165 177 177 162 90 189 220 248 252 142 
247 225 217 254 249 251 252 250 250 252 247 252 244 251 246 250 
248 250 250 190 197 251 194 194 199 254 255 255 255 255 255 193 
242 248 249 253 249 143 126 172 121 129 201 168 168 125 163 186 
181 158 164 138 171 149 169 59 76 109 80 107 106 107 83 94 
158 106 106 104 103 92 135 91 82 81 88 171 140 200 102 106 157 168 170 171 
165 108 202 201 94 152 171 90 197 175 129 252 251 254 246 198 
195 139 141 225 223 115 222 252 250 249 254 249 252 247 250 220 
228 252 142 197 198 246 247 247 193 254 252 255 251 255 199 246 
139 89 84 225 224 247 253 147 112 134 168 141 186 233 173 164 
133 222 198 91 119 182 101 118 169 105 131 85 108 95 99 81 
36 67 169 106 107 89 77 85 38 87 148 201 109 130 104 113 166 159 167 205 
203 175 165 162 164 157 167 161 169 214 170 248 251 245 251 252 
248 252 251 223 220 219 225 197 199 246 251 246 253 247 249 171 
168 142 245 254 251 249 241 247 190 251 249 142 247 251 198 249 
251 253 253 217 220 251 254 169 168 121 169 149 184 187 173 165 
133 178 157 147 179 178 167 85 201 105 141 85 167 99 95 90 
133 199 140 102 88 102 69 161 99 62 103 109 42 106 65 103 200 166 152 167 
162 24 147 170 164 182 223 164 56 157 185 248 245 251 250 196 
197 253 250 250 195 199 197 249 245 250 252 251 248 250 245 248 
250 245 247 249 251 243 252 197 197 246 247 254 194 59 113 226 
219 254 243 253 251 220 222 221 152 170 166 162 165 169 58 202 
166 173 166 180 212 72 105 160 89 110 168 107 137 140 106 94 
169 80 88 105 77 169 60 129 136 66 107 114 85 106 112 97 167 162 180 158 
168 127 185 162 168 166 158 165 125 192 222 247 254 244 243 243 
249 250 252 248 86 252 252 199 193 253 253 251 249 249 251 245 
245 248 250 249 248 247 245 247 250 249 250 247 198 167 216 219 
226 147 244 251 251 222 224 223 163 150 176 168 163 95 131 171 
115 162 162 187 162 149 63 90 106 99 114 141 170 145 103 171 
146 112 62 105 103 129 122 161 100 85 140 132 145 102 106 116 163 128 169 148 
146 190 160 165 125 165 166 144 181 170 236 196 193 250 249 249 
241 250 247 250 253 190 250 241 254 252 246 252 234 252 143 195 
196 197 251 141 248 222 224 252 251 252 195 249 246 252 251 252 
251 251 244 250 248 165 218 237 181 163 171 89 168 189 165 172 
125 166 159 154 201 152 104 106 99 141 100 139 205 113 109 107 
100 168 110 86 85 82 122 109 103 82 139 109 61 171 110 109 200 203 165 152 
143 182 202 179 149 163 163 189 144 180 240 254 252 190 195 245 
249 245 251 139 252 144 85 249 251 247 249 254 253 253 249 253 
252 195 249 243 249 220 116 247 252 246 196 251 141 249 251 249 
251 142 244 250 251 166 223 240 180 185 180 160 155 224 160 166 
163 180 111 147 163 146 111 140 142 135 113 137 141 90 90 109 
113 101 109 129 93 112 61 106 111 112 85 107 111 102 103 105 148 157 167 162 
158 164 160 96 163 164 201 158 207 186 191 240 250 112 223 248 
249 249 252 169 219 247 247 197 195 251 192 248 253 253 253 199 
245 252 250 221 170 246 251 252 251 247 191 250 249 254 253 249 
250 252 247 250 252 253 252 250 163 165 164 129 159 181 183 168 
165 158 165 171 193 158 112 106 168 113 106 41 150 60 84 105 
103 91 90 131 101 105 109 109 110 142 106 99 106 111 58 117 147 199 165 171 
162 168 89 199 198 164 165 165 154 232 194 89 192 220 226 251 
245 144 249 169 219 148 253 251 251 246 191 250 247 252 253 196 
247 247 249 118 164 249 245 250 137 252 195 253 249 197 195 246 
253 253 247 251 250 254 253 247 157 130 125 152 214 159 166 200 
165 167 157 175 195 135 82 113 107 105 109 109 107 87 105 115 
108 80 76 166 108 105 111 147 42 105 109 92 78 121 119 105 143 161 169 162 
170 170 179 136 168 159 199 165 165 213 250 197 251 249 248 140 
251 243 248 139 251 249 248 244 250 197 149 248 251 252 85 140 
246 255 142 252 252 247 142 250 254 245 87 140 249 249 247 142 
255 139 252 249 252 252 246 252 227 164 165 186 176 56 166 92 
162 43 122 149 145 150 107 80 96 108 94 94 103 109 102 90 
101 114 75 171 110 100 97 117 166 106 61 102 107 74 124 104 147 165 167 165 
200 165 177 136 164 203 95 225 184 211 248 145 193 249 252 248 
251 248 238 252 250 249 245 253 253 192 252 252 252 138 194 253 
250 250 247 187 194 248 253 247 252 249 193 249 246 242 248 249 
249 247 141 144 252 243 144 249 194 157 159 185 185 130 168 122 
129 114 113 146 186 146 105 83 131 116 114 79 110 112 62 128 
122 201 135 115 105 140 105 61 90 116 137 105 94 135 114 132 140 207 177 165 
158 214 179 168 193 224 185 189 182 181 241 251 248 249 253 139 
145 248 251 197 248 192 194 137 250 197 189 227 163 222 225 220 
59 249 251 253 87 247 239 250 241 248 250 253 248 250 252 247 
243 144 239 250 249 196 248 238 221 166 123 207 165 162 166 207 
165 159 165 92 171 50 114 123 106 79 55 168 112 135 109 107 
139 98 101 171 107 140 110 167 79 80 125 112 82 97 110 77 159 167 150 167 
160 163 160 160 198 136 127 174 171 175 234 249 244 248 144 196 
199 247 248 196 254 254 248 141 249 248 249 220 167 224 226 223 
170 196 195 248 197 253 243 250 251 252 253 251 252 248 252 251 
251 253 253 248 253 196 138 249 228 165 128 168 164 201 167 161 
161 97 164 128 129 130 181 92 70 106 80 104 100 141 171 110 
139 72 71 107 108 120 125 111 108 104 111 105 110 93 99 112 148 169 167 88 
91 164 168 170 167 129 164 158 179 127 187 249 196 242 248 224 
223 196 197 246 248 242 249 253 249 250 246 250 195 247 252 193 
250 251 245 250 251 247 140 223 221 224 226 198 249 247 251 218 
222 247 249 192 139 195 251 229 173 158 166 25 91 168 162 93 
168 197 169 186 217 139 108 109 111 135 97 100 111 103 111 110 
166 110 160 109 108 90 98 62 170 109 107 106 107 135 143 111 143 177 172 167 
163 161 160 164 173 149 181 94 121 164 212 252 199 141 253 223 
218 189 198 245 247 252 253 252 247 238 246 249 194 251 253 192 
254 144 254 141 251 247 251 223 222 220 225 195 250 138 252 222 
225 251 248 249 194 197 243 240 176 166 159 167 60 166 162 148 
141 170 168 169 224 187 100 108 100 170 118 57 104 70 100 80 
91 168 61 108 102 137 131 117 99 103 62 59 150 106 64 214 163 129 92 58 
157 166 167 148 147 156 166 143 214 127 186 196 198 225 220 87 
249 223 221 197 251 240 92 141 243 252 251 253 251 247 247 222 
224 250 243 245 137 194 197 250 251 248 252 251 196 242 251 252 
248 224 221 245 245 248 251 91 172 182 173 177 59 188 179 191 
176 153 125 166 204 144 106 132 137 109 171 166 109 108 114 120 
122 109 83 62 113 105 65 36 84 105 105 144 101 61 65 128 145 127 161 90 
128 165 201 142 146 163 168 132 109 94 131 251 249 168 168 199 
141 226 113 194 250 250 199 245 251 252 244 252 244 147 249 218 
224 243 252 247 253 87 193 253 250 201 194 246 195 249 143 251 
247 223 112 247 250 248 253 163 169 111 161 221 131 191 171 156 
180 158 133 186 110 140 106 121 125 105 107 111 105 74 85 100 
108 110 82 49 91 184 123 112 61 84 138 139 112 87 78 112 141 152 39 205 
164 164 167 168 91 166 129 164 205 158 164 215 249 250 249 245 
248 227 170 224 224 253 249 253 248 252 252 142 197 246 251 252 
142 198 252 253 243 252 252 251 139 252 247 254 199 250 249 251 
251 197 194 251 200 253 212 158 122 168 170 127 89 186 162 111 
76 172 159 167 183 37 81 169 134 152 151 105 104 174 107 106 
106 80 66 93 102 122 77 103 171 111 169 117 41 205 144 104 147 138 47 167 
179 153 159 158 160 176 124 202 160 164 161 189 245 250 253 251 
139 225 56 224 223 249 254 196 198 252 140 194 252 195 195 134 
245 195 245 253 254 191 89 239 252 251 250 251 193 245 252 246 
250 251 243 252 193 244 190 165 123 144 149 197 126 182 161 36 
186 188 118 126 148 108 80 102 141 127 125 136 144 103 107 101 
101 109 79 107 114 136 138 95 96 85 120 96 53 102 92 109 143 161 164 145 
121 169 164 194 166 162 163 161 162 202 191 171 222 250 248 252 
250 250 195 140 199 253 196 249 252 248 141 198 252 135 192 91 
249 168 170 194 251 249 249 253 142 254 251 137 247 198 194 250 
252 85 141 249 253 226 168 55 129 203 160 184 182 197 166 94 
131 125 58 125 127 180 113 138 92 60 103 109 112 65 106 111 
61 144 91 104 115 109 106 100 100 109 140 104 91 114 77 110 181 159 166 182 
97 158 199 181 162 169 160 174 167 114 162 165 183 254 249 84 
196 140 196 195 249 249 197 252 253 248 251 199 250 196 249 35 
195 171 168 199 251 248 248 253 251 244 249 249 138 253 247 250 
253 254 198 246 250 192 168 169 99 163 160 162 163 161 164 165 
165 189 221 61 129 143 68 102 66 107 108 110 107 111 66 98 
115 113 109 110 73 122 118 85 147 114 104 105 116 117 132 62 141 179 166 168 
162 190 143 154 168 89 176 180 224 177 176 164 122 177 252 253 
246 247 139 250 250 141 250 246 248 250 243 249 242 138 250 224 
221 251 245 247 191 248 253 250 247 249 253 250 254 241 249 251 
248 221 221 196 212 162 123 128 126 165 172 161 92 131 182 92 
100 153 211 161 188 76 84 108 143 44 157 69 92 95 95 143 
140 106 82 173 90 178 118 175 106 111 105 102 109 122 115 65 140 176 175 159 
165 181 148 147 168 161 182 165 206 170 213 161 129 67 234 253 
252 245 250 249 140 250 253 248 252 249 141 248 247 249 252 225 
226 197 196 247 195 145 250 252 253 140 253 252 253 245 247 251 
248 216 226 183 178 161 130 160 166 156 164 160 198 137 186 169 
89 156 144 169 181 144 77 109 89 122 127 80 167 46 91 107 
109 104 84 103 112 124 98 103 108 110 102 110 102 109 143 111 146 95 98 182 
186 133 27 177 175 145 149 205 168 114 105 163 164 165 178 243 
253 246 251 119 115 141 193 165 223 251 141 247 246 254 250 247 
138 251 248 252 197 247 251 247 249 140 246 194 251 194 195 246 
250 252 145 197 95 92 95 94 139 155 147 147 147 156 163 160 
163 161 133 168 175 198 126 136 87 70 91 89 60 72 102 36 
88 173 137 108 107 136 92 108 107 172 66 111 110 107 92 116 184 223 180 220 
179 187 146 103 168 36 115 90 169 143 74 168 91 182 186 191 
238 253 240 223 223 248 191 166 223 251 253 247 247 242 251 250 
248 139 249 241 86 248 249 249 250 198 189 198 245 199 197 197 
196 242 200 201 167 162 161 168 184 138 152 73 152 92 169 162 
161 166 127 167 177 162 107 133 82 74 93 115 136 49 78 58 
72 132 235 140 138 57 65 105 170 107 37 104 108 103 87 102 147 197 159 145 
145 171 171 160 160 173 187 166 177 132 125 163 163 184 168 171 
100 244 139 247 252 190 141 223 215 253 250 252 242 249 247 118 
219 250 138 252 250 247 246 253 252 252 146 251 247 143 197 252 
235 166 148 225 208 162 172 157 197 169 220 159 169 125 160 135 
129 156 163 223 189 135 112 59 110 172 106 100 118 137 65 91 
106 62 177 93 83 132 138 109 105 171 82 164 112 103 80 134 186 161 173 149 
146 175 173 161 167 166 187 163 172 184 193 126 124 112 170 127 
129 129 241 252 253 244 194 227 225 249 246 252 248 246 246 221 
115 251 250 254 251 249 146 250 248 251 251 197 199 249 84 245 
237 184 210 183 165 203 162 169 173 161 180 204 195 129 199 60 
173 176 180 177 110 145 102 108 104 110 62 78 46 62 81 139 
102 112 105 201 141 102 60 103 113 86 102 124 142 82 83 111 177 205 171 176 
225 126 136 158 165 146 144 173 173 187 225 197 167 161 155 127 
166 191 206 232 252 219 116 217 221 251 246 242 245 196 197 251 
245 138 251 252 249 252 251 194 199 29 192 224 220 244 194 144 
161 167 169 160 95 158 165 201 179 169 165 164 168 157 170 161 
94 101 163 131 159 148 146 104 102 107 107 123 97 86 106 79 
52 107 104 167 101 93 92 112 107 37 112 106 142 101 110 107 146 203 166 163 
167 165 162 166 206 111 118 169 172 170 166 163 162 164 167 94 
55 177 179 174 201 115 223 220 224 245 253 252 254 251 252 246 
243 252 246 199 197 249 249 242 247 144 191 226 224 208 140 133 
160 96 160 159 159 162 163 185 205 159 167 164 172 128 134 165 
164 171 94 125 164 146 140 103 106 107 106 129 56 180 204 101 
71 57 114 79 89 117 120 71 102 148 60 104 109 94 104 93 56 167 169 201 
156 168 167 164 162 202 163 122 126 166 78 171 191 170 213 177 
176 162 168 172 188 179 225 241 248 145 193 248 246 139 251 249 
248 248 252 251 249 253 139 249 250 249 134 215 199 218 168 121 
99 168 157 173 160 147 144 141 171 170 165 124 161 165 191 132 
186 173 192 127 176 147 89 108 102 84 145 62 148 99 106 64 
107 110 102 88 81 122 188 58 194 174 139 111 111 133 169 91 133 93 165 160 
95 166 167 91 163 160 165 167 159 164 141 106 189 182 172 206 
169 168 170 162 159 166 166 195 214 197 251 248 241 248 251 249 
252 248 250 251 250 251 251 252 250 253 201 171 166 201 111 92 
128 172 162 97 160 76 149 131 172 171 163 128 160 168 147 135 
180 153 144 134 177 190 137 107 107 104 107 89 108 107 108 106 
103 105 168 100 207 106 112 109 106 132 87 51 125 128 123 106 104 184 184 166 
170 176 176 147 136 164 171 159 167 143 141 157 173 168 182 165 
163 160 161 185 162 161 165 185 217 102 186 221 223 230 238 247 
250 224 221 247 129 57 182 180 205 184 215 162 156 113 95 161 
184 56 93 165 169 163 172 153 163 199 164 115 183 119 130 161 
167 175 184 164 132 117 91 155 124 111 107 86 104 63 110 88 
171 65 144 112 135 59 106 102 110 141 94 57 14 102 103 135 130 203 165 225 
188 170 172 197 179 164 208 167 160 173 166 172 205 175 163 168 
129 160 169 198 186 203 165 182 110 94 91 162 97 110 185 194 
192 92 164 154 133 199 187 169 160 196 178 173 207 215 166 161 
183 163 126 169 160 189 186 162 200 173 183 160 170 167 98 162 
93 159 173 160 164 114 78 128 159 67 110 36 104 105 113 86 
104 109 134 83 104 112 110 186 118 81 123 154 157 103 109 68 153 143 132 180 
184 170 164 178 176 168 156 164 158 134 165 160 162 159 168 167 
164 191 179 133 129 204 182 169 160 92 166 174 202 90 162 164 
162 225 167 157 186 166 162 173 113 160 204 155 165 166 164 166 
130 146 185 164 203 159 96 141 169 188 187 172 200 199 167 89 
169 165 162 168 123 132 80 77 112 113 80 112 110 108 101 132 
145 117 131 82 63 103 105 164 99 125 118 122 124 100 108 99 147 220 163 197 
172 163 170 203 163 100 164 111 221 108 145 168 167 120 164 166 
157 126 169 166 97 96 180 203 200 159 91 69 129 168 162 165 
164 184 168 170 218 95 168 169 158 127 131 157 162 152 77 165 
165 134 169 203 92 158 97 182 161 162 169 163 202 156 166 136 
56 165 169 127 133 139 133 149 103 62 78 105 100 113 106 101 
110 128 126 130 108 59 114 98 105 144 183 122 142 109 110 134 142 127 93 186 
179 164 123 172 203 171 213 166 157 134 197 162 163 163 168 164 
167 170 219 89 162 160 164 161 153 151 171 154 162 157 158 131 
165 157 167 153 170 85 124 186 147 161 165 205 157 167 89 129 
91 202 168 165 162 189 112 113 179 97 200 174 70 171 166 130 
142 161 162 164 90 151 111 108 99 128 121 84 91 61 104 177 
93 132 105 102 133 104 109 105 104 101 88 85 106 92 79 98 112 127 94 160 
164 157 131 175 175 134 134 163 168 135 200 159 162 201 171 162 
165 162 191 126 90 186 174 61 57 110 160 170 163 127 129 60 
167 164 164 186 184 170 170 171 167 158 99 88 155 97 205 127 
166 129 129 161 163 186 177 155 161 182 190 129 106 161 167 206 
157 177 182 163 97 138 61 109 109 153 164 58 107 62 111 108 
75 142 113 81 101 140 118 136 109 131 105 111 101 102 109 115 147 165 165 128 
127 161 163 183 159 204 180 167 160 114 163 153 162 140 168 165 
164 135 167 190 188 169 166 162 165 184 173 164 160 159 110 165 
202 166 171 151 213 167 158 186 159 190 163 136 137 110 115 167 
200 170 169 184 199 179 169 167 133 196 181 126 159 188 165 129 
221 123 126 176 101 181 139 107 90 108 106 137 88 80 95 105 
177 137 131 85 111 102 85 140 111 117 85 110 60 86 83 108 146 161 161 129 
126 165 169 178 162 183 162 128 128 77 130 224 201 164 90 143 
187 131 172 134 141 202 160 129 133 109 163 131 167 166 186 161 
162 167 166 174 233 155 169 181 163 182 99 171 100 207 162 160 
165 101 174 204 179 185 160 98 161 192 172 153 185 222 168 110 
161 92 101 168 216 145 103 110 88 41 37 137 140 72 46 134 
96 108 104 110 68 76 85 103 108 156 101 57 113 102 146 115 146 91 161 178 
162 165 169 142 155 156 169 163 158 163 164 127 162 175 217 111 
175 140 98 185 188 123 199 161 171 104 169 171 167 163 164 160 
146 181 124 170 164 109 107 87 164 160 166 105 108 163 166 166 
94 95 167 146 148 199 182 202 203 160 162 226 181 164 168 165 
165 97 126 168 203 158 118 145 143 136 137 152 135 108 109 110 
174 59 85 103 109 111 107 90 148 78 65 112 171 102 90 135 171 163 159 174 
164 190 181 81 143 200 158 170 162 163 91 133 163 171 171 164 
162 178 170 165 158 130 175 154 161 175 180 155 170 163 163 168 
186 182 128 201 169 182 152 161 167 165 93 166 164 205 206 164 
161 126 20 173 167 172 169 173 165 168 163 187 180 91 161 168 
93 127 92 165 89 168 119 141 135 66 102 60 69 107 108 142 
139 83 159 95 160 101 107 58 73 69 99 203 110 108 102 129 194 178 180 179 
211 123 147 173 178 165 180 162 130 96 203 167 166 196 230 166 
163 183 164 98 182 157 159 164 132 168 164 189 178 158 163 126 
165 144 116 180 161 147 170 173 169 168 170 160 114 161 164 154 
146 168 123 162 157 145 186 165 168 148 101 188 161 105 175 124 
92 160 222 200 176 150 108 87 110 120 131 121 158 106 81 102 
109 86 108 100 100 56 106 125 96 144 94 140 99 110 110 124 162 171 103 215 
170 173 178 179 173 185 202 165 123 159 167 165 160 212 172 165 
157 145 127 167 226 170 170 157 199 119 134 178 110 160 204 136 
167 166 166 153 126 185 165 178 172 165 162 166 177 170 202 150 
141 124 93 162 133 124 157 170 168 150 147 181 161 100 168 129 
206 164 190 199 180 72 170 37 104 94 59 117 152 107 84 131 
142 129 157 107 108 128 124 171 112 150 43 110 105 175 134 107 110 167 166 131 
188 160 162 174 156 205 161 197 170 168 158 170 98 164 88 162 
167 164 170 169 174 58 150 165 158 186 201 60 161 180 159 131 
178 168 156 148 72 206 169 162 161 161 129 130 128 161 159 159 
219 113 125 190 181 170 188 157 88 113 79 152 161 151 184 181 
180 132 168 160 167 184 115 135 137 106 60 69 138 78 96 93 
102 105 78 114 106 187 120 110 60 91 83 173 103 92 61 110 107 134 156 127 
182 164 129 182 159 157 92 169 174 202 164 188 181 169 163 185 
220 160 165 178 168 172 180 169 156 181 166 130 164 181 168 166 
182 164 154 172 164 119 129 161 162 221 149 158 165 154 166 164 
183 139 169 162 168 167 221 161 202 143 45 132 126 131 163 93 
166 128 169 159 172 148 112 170 100 117 111 104 139 117 164 140 
102 38 83 109 104 111 144 166 115 169 105 104 106 79 114 111 137 135 127 136 
141 149 141 160 140 162 132 29 133 130 161 145 185 144 149 110 
153 149 146 72 126 144 145 67 149 154 77 124 143 175 180 53 
120 76 122 199 172 143 130 132 182 198 203 97 162 149 149 145 
147 162 160 181 112 73 150 149 146 143 135 149 176 142 150 145 
144 147 95 199 202 172 150 103 88 104 105 95 82 115 108 109 
109 135 86 110 110 102 130 112 111 111 171 107 113 108 134 138 143 61 148 51 
95 111 107 81 91 191 53 84 134 131 106 167 111 109 105 80 
67 111 111 106 39 106 168 62 100 77 71 78 102 202 171 36 
79 108 37 63 118 91 102 87 109 143 107 107 108 104 105 112 
57 177 71 98 140 104 108 60 105 87 93 105 145 131 204 164 
107 61 84 143 170 153 152 108 87 106 104 151 87 165 106 78 
83 140 88 106 170 143 88 106 105 116 74 43 115 115 136 147 98 177 109 13 
79 59 82 108 177 180 136 103 106 86 90 101 88 110 109 58 
102 112 101 63 40 108 170 90 89 114 106 96 105 132 141 102 
101 65 140 110 86 125 126 81 85 91 146 164 98 67 152 81 
112 112 162 101 83 107 96 177 105 98 140 133 107 164 160 111 
109 141 177 100 144 106 110 106 86 149 106 65 151 30 67 126 
192 88 141 142 139 164 116 110 62 123 127 84 60 83 100 137 108 166 104 115 
93 135 100 104 109 96 95 171 100 176 61 86 113 105 105 82 
42 99 69 102 87 103 174 59 110 104 106 75 77 102 107 82 
72 110 199 114 36 123 186 145 198 106 111 74 27 90 125 111 
142 65 168 95 101 82 101 103 111 110 106 149 103 94 92 135 
139 109 80 137 174 84 145 116 136 83 98 149 61 80 101 185 
79 88 84 121 125 106 107 120 130 142 102 168 114 167 94 120 119 110 111 98 
93 169 104 128 163 121 138 161 94 114 104 87 92 104 169 141 
139 110 102 147 83 121 123 134 175 104 100 111 104 90 171 116 
91 101 109 132 83 136 106 61 111 63 51 109 80 105 105 139 
103 105 169 105 171 117 111 106 102 82 92 94 138 138 111 86 
38 108 109 92 95 111 116 112 181 107 107 124 102 107 107 59 
123 166 107 157 158 103 110 182 118 95 104 103 118 172 142 128 119 105 108 54 
155 89 83 122 100 58 81 96 94 105 62 149 85 113 167 114 
107 112 106 138 79 127 191 142 105 82 93 90 87 109 134 174 
144 107 102 144 146 173 135 112 110 36 88 139 121 99 109 134 
110 105 169 84 38 172 104 107 63 104 106 111 133 140 105 76 
38 114 111 98 98 170 174 139 140 106 107 196 107 82 91 52 
124 106 106 150 77 87 85 43 117 102 105 47 130 154 128 129 204 170 84 61 
81 103 115 110 104 89 83 105 111 90 64 107 113 84 84 59 
103 167 109 143 122 100 102 110 110 106 101 104 53 84 151 106 
109 84 81 107 104 186 124 124 153 108 112 172 58 96 165 168 
103 98 103 97 94 83 103 108 106 107 111 97 54 104 171 107 
93 115 169 108 105 110 106 155 119 106 111 76 95 107 102 200 
139 143 167 139 144 105 113 88 107 96 193 84 139 151 184 60 107 168 91 111 
89 104 108 109 116 95 106 62 112 132 108 113 106 138 133 115 
165 139 135 105 80 114 101 173 114 106 65 201 135 57 113 111 
113 105 110 110 65 118 76 120 156 137 133 102 105 93 109 110 
100 98 55 95 47 38 107 108 108 107 109 158 145 110 59 173 
177 109 109 100 113 81 85 211 126 110 164 86 138 65 175 109 
105 92 110 121 69 75 174 182 98 81 220 115 107 111 108 42 89 29 43 145 
181 116 106 111 85 93 33 107 76 110 111 102 114 106 114 122 
121 144 173 106 92 106 106 113 94 137 173 105 103 110 86 170 
78 87 114 104 107 103 109 110 61 78 86 107 83 91 128 103 
111 110 107 138 121 77 113 182 81 107 106 115 132 165 66 161 
123 160 92 124 114 136 109 169 101 116 111 108 40 105 104 126 
125 114 112 125 121 91 102 104 136 126 161 204 136 164 103 104 113 102 127 109 
122 108 108 106 83 102 106 169 89 99 104 108 106 105 108 121 
125 85 117 106 57 99 140 90 58 168 139 105 106 207 182 108 
81 151 113 103 174 105 109 139 141 95 91 113 86 101 86 175 
100 114 167 108 78 116 136 96 105 106 168 105 97 103 109 132 
104 163 159 218 112 137 113 102 61 142 136 110 86 102 106 97 
96 165 172 176 104 99 92 78 83 193 158 97 94 89 100 121 121 107 107 79 
132 57 103 206 132 113 114 106 63 103 107 112 97 105 64 99 
101 97 118 62 108 121 99 108 108 87 63 110 148 136 140 164 
87 92 78 106 116 104 107 110 62 138 139 106 200 109 110 104 
67 124 102 101 137 159 123 76 95 105 107 108 169 145 106 173 
104 109 134 101 91 81 88 87 88 103 104 169 105 106 103 107 
104 111 167 106 105 78 73 65 106 149 126 100 86 97 102 123 126 111 169 98 
159 117 110 142 142 108 109 112 108 170 107 83 113 143 141 105 
92 98 127 102 105 193 94 105 111 77 107 102 83 96 83 62 
92 92 76 86 41 86 154 87 41 99 110 105 139 168 112 141 
131 122 97 109 130 156 122 78 163 145 92 114 107 137 104 140 
135 106 143 97 91 82 86 111 107 112 112 60 111 111 61 139 
143 65 99 104 98 105 85 106 108 108 107 112 111 88 96 111 65 100 145 104 
106 116 181 109 102 105 134 79 115 107 96 37 114 101 170 82 
85 60 115 97 102 108 113 122 119 110 110 91 82 137 110 125 
81 110 105 138 162 150 139 106 107 105 98 102 110 63 105 127 
145 150 154 67 101 105 97 74 118 107 66 103 137 42 85 108 
59 94 133 84 106 109 135 191 146 173 102 96 87 107 132 109 
105 104 106 91 161 137 115 104 106 111 97 93 76 97 170 107 106 86 119 119 
110 116 118 148 85 56 131 106 83 122 120 84 171 88 90 109 
106 100 109 94 98 97 111 128 131 108 107 112 105 168 140 106 
97 95 110 106 134 112 121 101 62 91 96 162 107 116 103 121 
81 124 115 74 99 126 189 130 122 176 109 109 199 106 104 109 
98 97 134 91 118 135 123 97 128 59 119 125 187 109 132 104 
163 107 173 