P2
# Created by IrfanView
97 100
255
99 73 82 117 72 88 116 69 69 55 46 63 48 52 60 85 74 
57 73 67 101 39 84 95 117 78 74 80 81 40 80 57 64 
48 73 38 60 44 39 48 55 63 57 66 65 65 63 44 31 
108 20 45 85 86 79 51 49 56 39 146 73 82 72 51 101 
44 35 40 48 46 47 60 42 56 40 50 65 47 111 35 40 
45 66 81 64 62 67 131 64 45 44 86 64 89 89 42 27 
54 65 73 53 163 46 93 68 58 73 70 53 59 65 69 71 87 
121 60 80 84 56 76 94 92 81 77 99 101 97 71 57 42 
71 33 56 101 26 59 51 55 101 65 78 35 106 76 58 51 
17 58 31 53 44 89 46 72 44 87 112 103 140 90 65 50 
19 36 33 44 45 99 25 30 38 43 51 53 51 44 43 23 
60 59 86 45 53 83 67 55 34 107 74 67 54 45 25 108 
120 41 145 103 42 73 55 44 66 72 73 57 75 56 59 70 56 
76 61 83 70 63 94 85 91 93 87 88 90 110 62 68 22 
129 70 49 41 55 40 51 140 68 104 67 46 60 111 35 49 
57 35 44 56 80 29 67 25 64 60 98 105 93 110 54 37 
57 42 41 43 44 59 44 38 40 35 128 32 54 46 48 49 
36 83 93 58 40 58 55 47 34 56 78 55 103 26 24 30 
56 66 44 54 57 89 93 76 68 54 62 70 76 62 77 96 88 
70 93 73 74 65 74 93 81 77 81 56 52 62 55 69 55 
35 31 51 43 39 123 60 44 38 88 57 59 44 96 120 42 
57 38 51 38 36 52 52 62 41 63 79 95 151 62 67 70 
44 125 90 42 18 50 43 34 18 24 25 115 40 59 60 20 
59 84 47 28 52 68 129 45 50 60 64 45 39 14 20 27 
71 52 66 65 74 82 60 60 60 50 60 72 44 57 75 74 169 
67 82 76 75 72 97 74 61 52 67 69 49 50 71 76 113 
38 46 49 45 29 66 70 70 112 89 42 46 62 58 80 74 
52 52 47 43 37 110 45 17 53 47 101 108 137 78 74 68 
36 27 43 31 94 46 35 49 44 43 27 32 50 37 120 63 
63 72 133 42 74 94 40 41 48 59 76 46 40 27 43 38 
68 102 108 121 81 86 75 67 69 59 70 92 53 62 78 85 95 
92 59 141 67 79 88 94 62 44 47 83 53 68 79 80 58 
42 126 129 64 115 51 56 43 93 120 72 71 47 72 51 59 
69 42 43 39 62 48 47 122 108 53 55 92 123 78 50 38 
38 35 22 40 36 44 47 17 27 33 42 65 68 31 36 55 
49 54 76 72 54 51 53 47 49 130 91 49 14 30 45 48 
85 111 113 98 101 97 114 51 38 42 49 57 46 41 58 89 79 
102 73 59 174 90 93 55 70 40 45 52 45 65 59 75 45 
50 38 37 87 49 53 51 54 77 38 56 64 66 90 101 76 
62 84 73 44 34 36 67 41 51 55 61 90 90 59 53 35 
90 75 52 80 58 13 39 48 39 57 64 47 46 121 71 35 
81 151 85 64 50 46 51 34 29 62 79 28 69 71 34 45 
100 110 122 97 104 93 77 64 66 105 93 36 43 38 48 67 89 
72 85 83 60 79 121 58 83 49 79 35 67 70 58 88 62 
43 40 49 87 49 72 72 67 66 83 163 82 79 122 72 118 
51 25 42 53 35 35 58 41 53 33 71 79 56 64 83 32 
9 94 21 28 93 123 59 68 113 88 57 48 61 51 96 46 
82 66 91 45 64 48 24 44 40 70 51 43 41 133 33 35 
80 113 122 108 104 63 69 105 65 61 39 38 36 44 100 55 60 
63 99 72 86 71 57 47 41 52 54 51 61 60 58 85 66 
53 45 47 71 59 71 86 69 79 73 120 69 68 95 54 49 
30 83 66 42 33 39 50 98 127 147 191 106 83 51 51 32 
38 18 55 111 81 96 83 96 103 71 44 47 60 119 41 104 
47 38 74 68 51 37 52 47 49 54 59 35 44 35 40 28 
70 95 92 109 63 90 56 85 58 84 77 66 52 45 80 32 57 
93 64 50 61 86 57 39 33 38 69 70 53 72 57 60 50 
52 130 97 48 71 95 91 96 95 107 106 85 65 56 42 58 
39 62 23 116 50 12 134 203 188 203 197 167 78 108 33 27 
46 68 50 84 114 103 113 103 66 53 100 44 42 32 49 44 
47 57 114 67 77 57 34 26 47 73 61 32 61 49 52 108 
71 81 81 70 119 41 66 88 91 81 57 59 28 60 64 99 71 
89 82 124 68 42 36 43 55 60 81 113 67 59 84 74 63 
39 65 59 80 83 69 91 73 90 56 108 53 40 39 61 63 
119 65 48 43 42 135 219 184 199 200 196 179 98 91 26 43 
48 70 102 111 135 120 86 102 98 33 27 29 60 42 49 61 
43 50 112 59 95 96 40 51 63 44 84 101 45 112 79 42 
60 57 96 47 37 51 56 47 120 80 70 31 53 35 47 72 62 
97 73 53 45 48 53 58 73 51 94 95 73 78 78 79 57 
50 52 55 51 42 72 54 59 63 39 36 53 39 45 164 164 
117 36 68 64 49 217 191 174 230 210 207 200 162 55 50 49 
68 73 119 119 126 108 102 61 79 123 11 40 20 109 15 37 
81 75 60 57 51 27 33 56 51 56 51 59 65 107 65 45 
46 105 44 44 19 38 28 34 35 110 41 73 35 50 71 66 74 
54 65 60 56 53 49 54 70 60 62 38 68 75 95 86 151 
173 171 159 121 45 43 42 36 31 46 42 108 63 196 206 185 
213 186 62 57 149 221 201 189 224 197 175 215 180 73 58 70 
68 67 93 148 189 82 81 89 60 34 37 31 32 17 38 47 
43 59 58 60 100 79 46 36 67 59 38 19 58 52 65 56 
91 39 53 54 42 43 40 52 44 47 38 45 60 127 76 81 87 
77 78 52 57 72 54 58 61 65 114 99 128 112 101 150 190 
186 172 159 176 93 10 20 32 25 38 53 47 158 203 196 228 
166 217 142 45 182 214 188 197 216 189 194 218 183 130 74 86 
67 96 160 148 150 94 67 45 87 16 41 21 28 102 5 59 
59 57 90 49 59 32 59 41 48 60 47 43 30 59 64 55 
46 61 39 41 50 55 57 46 32 96 57 106 48 43 52 63 52 
55 47 43 131 82 35 46 49 69 222 207 195 200 104 200 189 
181 201 179 177 198 168 68 73 141 48 51 57 212 175 227 204 
166 221 184 162 174 191 188 205 215 188 205 204 178 117 60 124 
84 83 172 130 96 104 55 40 77 91 50 31 20 42 143 77 
58 42 115 63 55 56 42 44 102 119 22 102 94 38 115 114 
49 41 61 56 52 46 51 44 48 42 84 29 35 52 46 60 54 
32 111 47 46 43 135 1 49 163 187 212 178 189 202 192 185 
202 182 166 171 180 177 56 34 24 105 41 102 196 195 192 204 
167 214 209 132 180 203 164 226 205 191 169 223 202 106 69 67 
103 118 136 119 83 46 61 33 53 58 37 121 32 28 30 56 
116 45 35 30 20 63 49 52 43 68 104 3 22 46 66 43 
46 47 42 37 98 57 46 93 42 38 74 110 26 50 39 61 49 
34 23 33 82 64 46 48 47 204 168 204 182 151 203 184 172 
175 150 174 161 167 179 154 47 29 27 0 172 190 161 182 208 
174 204 201 154 162 174 176 231 206 187 219 210 194 121 112 97 
122 115 127 153 68 41 44 108 65 77 118 29 19 43 73 80 
109 54 47 33 34 39 44 55 55 51 31 27 36 17 96 38 
119 66 75 47 66 38 49 72 57 46 113 28 24 37 69 58 50 
54 41 32 68 59 71 111 112 188 163 211 194 202 180 199 177 
165 146 187 167 143 172 205 112 38 11 104 225 188 156 214 200 
144 203 226 164 167 196 192 211 188 193 193 214 193 113 74 84 
113 140 112 98 63 40 35 112 179 168 159 181 144 46 62 54 
29 44 20 47 24 34 61 97 44 59 94 21 22 55 99 38 
78 82 87 41 54 45 73 64 65 63 39 58 41 61 54 58 48 
30 43 50 53 55 62 43 55 204 192 182 173 179 124 210 209 
192 160 187 184 160 169 190 177 95 127 77 215 163 183 180 183 
156 205 218 170 135 150 197 223 167 189 224 249 194 88 80 153 
120 116 95 118 18 101 209 238 215 209 205 249 191 79 61 67 
116 149 94 33 45 45 58 63 97 60 40 48 50 55 79 44 
71 95 109 101 52 46 108 52 62 59 104 35 42 37 54 101 50 
36 40 69 85 60 71 120 60 225 182 166 205 210 151 168 182 
175 146 162 186 179 168 160 194 132 12 127 215 163 211 210 193 
176 213 221 201 157 165 233 205 175 188 214 212 193 76 85 121 
125 145 77 58 180 207 201 180 189 208 212 149 195 106 63 48 
23 17 27 35 29 53 35 55 76 89 71 80 50 50 28 54 
73 103 80 92 70 39 40 67 62 78 39 46 36 39 52 66 45 
43 62 64 62 115 121 51 76 199 199 210 169 193 189 169 191 
191 172 166 169 149 142 146 174 190 96 150 216 138 207 191 218 
165 208 216 180 142 155 179 213 192 202 214 197 177 83 124 113 
115 108 134 207 222 204 165 182 219 215 190 206 216 110 109 41 
33 43 118 61 42 21 38 43 56 123 115 61 62 101 101 37 
90 72 87 99 71 83 61 76 78 31 45 37 62 57 45 52 42 
56 61 77 81 94 109 140 91 158 189 191 134 215 191 165 179 
196 195 165 162 167 182 183 177 186 155 179 212 199 179 197 183 
157 215 219 192 150 171 213 194 168 199 213 210 136 62 116 127 
91 135 245 205 217 165 209 246 210 209 181 193 209 125 29 63 
49 113 54 53 57 62 49 94 83 47 33 25 55 21 15 17 
64 87 84 66 73 79 68 56 100 57 31 33 65 76 96 34 61 
55 71 103 86 89 78 63 79 122 213 187 160 215 201 195 180 
193 204 166 154 159 172 158 156 206 177 213 196 170 202 202 184 
175 227 218 196 135 153 223 177 192 213 209 210 153 77 90 92 
168 191 214 188 167 186 213 206 212 168 220 218 153 17 56 49 
43 85 57 52 96 72 65 83 58 48 62 33 14 17 6 18 
68 92 73 77 72 42 118 66 62 32 46 103 30 18 25 50 62 
64 61 86 79 74 56 66 48 40 217 210 181 145 204 202 164 
157 194 192 172 139 150 164 171 164 171 212 211 170 208 198 209 
147 206 218 186 141 177 212 193 190 171 202 189 139 59 94 185 
237 221 200 175 214 226 211 201 187 214 194 222 91 44 43 37 
40 36 37 53 100 88 54 68 64 53 13 37 33 90 16 114 
67 67 79 87 39 54 53 52 115 47 23 27 37 40 32 33 42 
62 47 121 44 49 61 56 41 52 200 159 201 154 181 195 196 
174 172 206 172 139 174 165 166 170 183 211 198 174 196 193 215 
177 220 218 190 146 203 164 186 197 209 225 203 99 78 208 239 
225 201 188 219 231 210 225 203 211 209 224 157 39 45 44 42 
31 35 37 84 133 104 65 74 70 59 18 35 36 21 36 27 
62 64 57 122 65 55 41 51 17 45 61 40 66 42 30 34 30 
38 30 50 26 46 72 50 45 35 122 207 187 193 156 201 180 
192 168 172 188 183 184 176 155 167 160 214 180 185 194 205 193 
202 216 221 118 134 191 200 188 205 226 207 186 69 178 239 212 
199 171 212 237 218 224 204 214 223 195 203 77 47 56 47 31 
37 30 12 46 108 115 90 81 63 26 53 31 27 50 32 49 
101 124 61 65 47 51 37 45 65 35 53 50 114 25 38 61 38 
22 22 35 38 41 51 51 47 59 111 201 193 187 174 166 193 
205 173 152 181 192 167 148 157 172 165 228 186 188 184 191 217 
165 190 205 166 136 197 205 199 216 198 195 152 141 248 221 210 
176 215 225 215 216 189 187 193 178 206 124 36 39 26 33 72 
114 136 144 156 168 159 123 88 54 70 47 49 42 38 48 53 
70 69 114 47 62 116 45 28 22 48 47 72 11 26 69 123 55 
77 71 41 35 87 76 66 56 52 22 157 201 183 190 173 196 
188 186 174 179 198 186 163 152 157 165 216 202 190 200 199 204 
189 221 218 171 166 205 190 184 225 211 203 142 225 234 198 140 
189 233 242 204 193 223 223 208 236 143 53 35 123 159 160 215 
221 203 202 192 176 186 177 154 83 38 101 31 34 56 73 61 
69 62 72 60 46 74 99 52 48 48 41 25 13 40 82 89 187 
177 172 157 140 129 82 88 79 83 62 132 214 194 184 169 172 
183 199 186 176 190 190 183 172 161 154 195 189 181 202 204 210 
195 212 199 161 174 188 153 191 221 226 194 205 246 202 185 216 
229 217 215 220 215 201 166 229 158 99 85 159 217 196 198 209 
207 186 193 190 174 181 171 172 123 49 29 44 41 45 72 57 
54 120 42 76 49 32 60 30 34 34 23 34 23 29 67 184 165 
172 188 154 177 182 153 119 73 71 85 47 147 200 181 179 153 
202 202 176 175 173 168 178 190 173 151 201 184 183 188 188 198 
194 235 226 175 173 198 203 209 220 201 200 244 219 183 198 226 
218 231 199 189 203 193 225 195 139 148 194 215 125 205 207 172 
183 180 183 191 196 192 171 162 114 105 108 44 115 40 61 38 
74 96 69 45 33 87 18 42 32 30 69 4 18 0 59 167 196 
165 160 159 175 171 175 184 190 133 74 51 71 184 157 195 157 
189 182 185 187 174 184 189 173 153 145 198 204 194 200 189 173 
191 192 203 139 210 192 176 202 221 209 236 216 182 183 234 222 
224 200 205 193 191 227 204 146 139 167 200 173 185 195 166 187 
201 215 204 196 194 172 155 193 94 37 58 29 41 33 104 41 
120 66 54 67 37 92 87 33 26 7 67 34 25 38 61 109 181 
183 175 199 173 182 169 176 166 179 166 101 66 127 176 177 181 
154 153 198 180 156 188 172 181 143 149 174 211 177 204 181 213 
193 222 194 155 154 181 193 223 205 225 235 209 197 206 227 228 
203 223 218 206 233 207 135 143 162 184 194 188 169 199 201 213 
205 212 190 172 174 172 194 168 47 46 69 24 115 28 31 50 
62 49 34 42 41 38 28 36 27 18 6 21 45 47 54 79 143 
169 169 175 178 174 179 179 174 170 167 176 155 106 152 163 173 
176 196 172 199 169 137 202 172 157 141 182 206 188 198 193 210 
194 219 169 175 191 183 227 212 200 221 233 190 214 225 214 216 
210 221 217 208 224 174 122 170 187 179 177 179 205 204 205 201 
186 196 181 189 162 204 162 88 66 53 29 19 3 37 17 23 
45 79 47 50 43 23 16 38 48 52 31 25 42 33 64 77 82 
142 198 192 199 187 155 156 185 188 169 171 177 176 150 187 177 
165 175 158 185 187 166 171 207 167 156 163 189 215 185 178 179 
205 234 128 166 170 195 198 194 192 201 193 200 224 225 229 202 
213 212 219 225 207 149 156 181 190 191 195 182 202 206 202 202 
192 177 195 222 196 160 100 78 66 51 23 32 25 0 16 97 
50 80 45 32 100 27 34 18 48 56 20 71 75 22 54 61 72 
71 151 178 184 178 188 185 185 152 162 185 153 159 158 165 190 
178 180 163 165 181 180 137 162 182 138 173 188 202 203 155 207 
194 186 152 173 169 215 228 170 206 176 191 224 228 212 209 228 
202 227 191 191 144 162 172 175 212 201 202 213 211 190 214 181 
188 210 236 184 159 121 62 103 53 66 41 25 14 27 0 95 
37 116 55 26 33 10 39 18 32 36 64 63 53 89 23 24 73 
88 76 127 188 151 196 179 180 200 181 174 180 146 170 163 161 
171 178 174 157 164 187 155 150 168 152 147 130 173 169 169 171 
193 179 148 136 156 212 187 135 221 182 231 226 200 216 229 206 
209 215 210 161 176 192 201 211 210 208 215 192 193 190 192 216 
211 209 164 163 69 76 146 51 52 52 46 41 46 15 10 0 
64 38 27 61 122 53 128 130 186 198 194 194 188 193 180 156 184 
112 149 101 115 173 191 188 171 205 175 143 157 154 178 144 159 
174 170 187 178 165 181 175 153 177 172 174 141 155 133 130 140 
130 138 129 163 147 184 123 203 210 183 220 233 211 224 212 205 
214 193 155 181 186 206 217 204 220 191 187 201 200 184 217 201 
222 154 135 91 146 68 61 81 69 45 25 11 147 60 61 10 
17 28 24 77 96 163 216 201 205 163 190 182 188 145 161 186 164 
186 180 165 179 158 181 185 195 180 186 183 149 179 187 182 159 
155 131 160 169 152 141 137 145 157 106 128 117 114 130 110 103 
153 121 95 162 176 135 113 201 173 241 219 216 188 213 223 222 
206 141 161 154 199 199 215 206 196 205 227 208 223 228 217 218 
159 197 173 92 76 74 57 85 69 44 116 46 13 20 14 12 
102 65 42 43 86 194 224 189 188 191 197 196 191 165 202 193 171 
165 171 188 172 142 172 192 177 192 184 188 189 183 155 192 171 
159 143 168 173 176 160 147 138 124 131 128 129 144 122 128 127 
97 127 159 67 98 96 116 146 125 203 207 216 210 221 199 184 
163 177 204 212 207 236 217 220 226 225 231 214 216 205 200 208 
192 211 191 188 153 67 60 45 47 57 41 59 107 32 33 26 
26 48 52 51 52 197 197 190 189 161 183 196 162 193 160 195 191 
188 184 179 182 168 146 171 167 190 188 186 198 186 188 113 174 
170 168 172 144 159 151 131 138 152 134 125 107 90 117 118 69 
107 112 71 82 113 59 116 116 138 152 207 196 204 209 153 146 
187 207 221 230 205 220 232 226 209 208 206 167 189 209 199 198 
194 197 182 194 176 86 114 40 79 36 121 25 62 33 41 24 
47 59 37 53 63 58 139 195 195 200 198 201 190 187 191 177 183 
178 189 178 180 191 178 183 180 180 181 183 187 191 194 196 175 
161 186 168 157 156 138 105 134 114 109 84 109 107 90 95 61 
102 80 110 100 76 124 121 79 117 147 167 192 180 153 173 180 
220 225 224 230 221 226 215 194 209 211 208 187 200 192 201 201 
231 177 176 184 141 69 52 56 78 62 44 59 34 82 80 26 
67 45 125 129 51 67 104 203 203 171 192 192 195 183 184 186 213 
179 190 196 181 192 194 170 183 170 177 175 190 178 190 194 181 
185 187 168 149 174 116 129 107 113 97 107 99 106 116 88 104 
99 93 106 113 94 125 93 85 94 126 157 128 129 164 198 205 
200 231 209 227 187 220 183 202 216 201 218 212 216 221 214 202 
164 174 153 153 166 46 66 50 47 53 111 32 52 56 59 54 
92 136 123 46 63 119 196 196 175 147 210 195 191 175 186 203 199 
205 192 190 192 181 179 184 184 170 184 173 181 150 170 183 186 
198 162 139 147 109 148 121 128 70 112 112 95 104 118 86 71 
98 90 113 92 146 52 127 107 90 78 95 145 147 186 192 220 
228 213 218 215 205 198 198 211 199 210 207 199 209 183 193 149 
155 191 183 219 127 41 63 54 43 46 44 37 30 106 41 50 
59 61 57 76 60 152 213 207 219 175 192 164 172 188 198 183 161 
187 157 163 205 203 197 200 194 180 181 172 173 152 155 159 155 
138 158 165 127 140 131 105 95 107 120 84 90 71 64 108 119 
97 126 91 118 117 202 99 68 104 83 82 110 126 185 212 227 
197 217 220 196 202 232 201 213 219 191 197 181 159 179 177 183 
200 176 198 127 93 57 52 57 39 49 43 60 52 43 56 48 
43 21 51 49 61 92 182 184 172 180 195 189 168 167 172 149 174 
186 175 173 168 173 185 157 210 200 180 188 188 199 178 164 179 
134 146 129 95 125 110 108 99 130 90 113 78 69 113 83 95 
106 85 120 177 81 94 89 110 104 53 91 85 150 189 181 192 
212 210 210 199 219 210 214 213 187 195 174 171 183 180 210 214 
211 173 97 70 124 29 47 35 118 64 45 24 50 55 49 41 
47 47 11 28 28 64 102 150 204 194 165 165 164 171 174 155 148 
161 155 151 158 171 178 163 175 188 175 187 171 195 181 180 182 
174 160 126 153 124 119 121 109 102 84 100 126 82 111 97 104 
104 135 92 105 96 89 107 124 112 83 88 119 117 152 171 171 
189 198 234 165 220 200 189 194 197 185 199 215 200 216 198 179 
151 69 46 57 39 118 51 36 37 81 53 53 51 50 48 56 
7 14 84 15 0 75 80 43 146 180 204 183 181 175 170 170 184 
167 138 131 166 177 149 144 136 152 151 155 134 144 147 162 152 
142 123 99 104 136 85 145 101 60 111 101 104 88 88 109 112 
87 106 113 104 100 131 92 105 113 97 63 130 88 106 161 148 
167 198 181 197 191 184 190 213 204 223 210 217 203 172 153 80 
57 38 63 55 58 34 56 35 33 35 30 19 58 92 48 41 
109 100 34 34 37 23 34 22 19 86 165 135 177 198 185 180 195 
164 184 174 136 138 152 168 164 152 144 145 144 141 141 145 151 
155 133 127 127 91 98 90 104 145 77 91 102 179 83 92 98 
112 124 99 109 107 98 124 111 120 84 81 76 109 111 170 162 
167 195 196 203 211 208 223 218 217 209 178 163 129 117 91 93 
69 64 68 38 51 38 34 43 22 42 48 32 52 57 48 36 
32 23 43 24 24 48 28 33 63 72 7 93 197 194 188 203 192 
175 163 192 160 169 198 178 178 170 185 184 152 160 139 141 143 
134 130 118 122 170 68 117 90 63 127 103 106 89 73 75 115 
106 110 124 92 112 116 96 134 107 70 87 76 89 116 138 150 
190 217 218 221 228 227 220 221 210 198 201 167 133 91 71 81 
89 67 59 58 56 60 37 81 41 30 60 70 53 91 49 51 
39 26 28 42 44 17 28 31 29 96 151 213 181 154 181 182 186 
147 171 190 166 179 170 189 186 169 191 171 177 164 177 167 145 
144 160 119 121 96 125 143 89 114 98 86 99 63 148 101 109 
141 120 102 103 112 103 82 85 89 114 86 57 111 126 174 195 
201 213 210 202 220 226 202 208 223 220 204 212 212 198 181 144 
105 56 55 58 47 52 48 106 30 32 45 43 55 43 53 42 
33 47 29 16 49 41 31 13 80 188 183 137 134 171 173 165 165 
153 181 165 153 186 164 174 189 183 171 175 165 164 165 154 158 
138 138 98 133 121 109 109 90 91 73 103 84 92 102 92 126 
168 84 153 96 107 130 99 88 79 128 61 65 106 135 166 203 
183 200 212 188 189 213 213 213 225 227 206 217 201 206 218 218 
210 182 143 76 27 55 99 63 36 27 44 32 53 39 49 49 
26 39 70 53 27 22 24 94 194 186 179 182 172 187 182 182 171 
189 182 159 159 183 184 172 187 193 165 187 170 170 160 144 157 
122 140 135 111 138 131 83 123 134 80 143 103 96 110 95 184 
97 126 89 143 134 146 116 121 92 90 56 70 89 130 149 187 
183 203 217 201 198 216 227 215 210 210 212 208 202 206 215 186 
198 206 209 190 147 93 51 40 37 51 36 41 93 45 42 45 
28 98 66 25 45 40 7 154 182 166 161 164 152 166 154 159 178 
179 164 158 169 170 175 179 168 168 165 164 189 164 175 151 124 
163 119 117 121 112 140 96 69 91 110 122 121 98 114 76 85 
100 135 110 111 136 80 117 116 90 62 70 55 93 123 165 194 
214 215 213 229 231 219 217 228 214 198 205 175 208 196 164 193 
200 203 197 203 210 190 163 70 95 32 43 45 27 61 36 122 
98 77 21 19 16 65 72 50 176 149 163 179 145 157 172 177 164 
157 169 152 167 175 167 176 160 163 155 156 170 162 160 153 150 
152 106 125 95 123 131 79 118 107 79 93 98 88 126 100 104 
109 88 91 126 96 122 110 99 58 70 46 68 101 133 168 197 
207 203 216 235 208 190 221 220 209 199 229 185 217 217 216 211 
198 195 189 197 207 194 188 198 124 44 39 49 39 41 58 76 
90 46 31 46 41 42 57 32 56 160 186 179 187 196 171 175 167 
175 184 171 177 175 186 178 180 188 171 179 167 181 153 167 167 
176 131 123 118 135 91 115 146 94 93 108 84 113 76 103 112 
93 143 144 155 92 114 110 100 57 64 43 87 102 150 163 189 
186 193 219 223 187 184 228 220 214 202 229 192 181 175 217 208 
201 212 207 203 203 190 197 206 189 149 110 39 34 53 109 59 
16 46 100 55 72 64 52 63 53 56 86 161 171 167 171 173 177 
185 163 191 187 132 185 176 183 181 196 175 193 185 170 181 188 
166 116 94 153 100 125 117 66 91 81 107 96 95 160 157 103 
155 102 118 84 64 74 107 100 98 33 95 77 106 156 183 191 
199 209 214 217 225 223 212 209 221 199 209 225 217 192 219 212 
205 213 203 207 218 200 197 192 178 190 105 35 115 34 52 57 
103 89 89 77 87 97 100 69 125 74 62 60 67 118 156 155 174 
166 176 180 142 161 185 184 172 194 158 181 159 172 174 166 156 
134 111 111 121 117 107 105 111 114 64 114 100 79 98 84 105 
105 88 133 105 132 130 98 77 84 123 73 87 97 148 147 184 
205 204 219 228 222 230 222 215 206 221 219 197 218 206 210 199 
189 201 211 202 207 211 193 195 195 201 148 38 37 50 48 108 
140 51 101 108 64 87 74 76 77 109 92 67 94 88 73 79 74 
101 95 120 158 174 157 178 168 166 177 157 163 139 138 123 139 
113 137 136 116 107 93 105 83 102 113 89 143 72 117 73 56 
97 88 95 52 108 91 90 70 44 67 136 111 142 130 127 160 
189 213 231 216 203 215 204 218 220 214 220 219 199 219 206 187 
203 200 197 206 196 186 200 197 199 176 173 74 49 38 69 37 
73 91 104 91 67 91 82 87 95 66 78 93 79 72 111 73 62 
72 52 87 152 183 170 193 181 148 139 127 138 166 161 178 124 
163 129 160 171 117 111 79 115 97 92 89 135 61 97 105 128 
83 111 78 80 101 114 79 105 38 83 144 153 178 208 193 197 
178 166 180 193 215 234 214 211 221 207 224 225 210 220 221 212 
223 213 206 209 191 178 192 195 183 183 168 79 50 52 38 40 
77 79 70 117 99 54 85 74 71 153 127 75 96 72 75 62 79 
74 153 224 184 186 184 133 148 139 140 166 158 184 149 162 170 
177 205 188 138 120 102 71 114 114 104 110 99 88 92 93 100 
95 79 65 71 81 56 64 41 44 116 174 169 206 216 191 234 
232 214 194 177 169 170 170 176 188 181 199 179 211 175 210 214 
197 206 216 206 206 211 200 193 201 167 96 52 53 37 56 38 
83 63 76 79 124 92 71 81 98 101 74 70 89 87 116 93 134 
191 213 216 189 155 136 174 173 164 158 155 152 153 167 184 197 
187 184 141 145 146 93 110 132 91 107 101 112 111 110 74 97 
86 67 80 71 106 104 45 89 106 140 164 169 205 218 230 197 
231 233 211 198 173 155 176 161 178 168 178 156 192 158 189 189 
179 193 202 189 192 200 189 173 136 136 85 11 48 36 45 60 
75 90 60 79 161 71 77 128 68 66 84 135 109 56 100 174 208 
208 185 169 143 147 154 176 175 167 152 165 171 186 189 193 173 
161 185 179 137 125 142 162 108 67 120 108 103 89 98 103 67 
99 91 61 77 53 102 126 138 132 142 162 199 199 193 221 231 
237 222 206 222 209 167 167 159 172 153 162 166 162 178 177 150 
177 177 164 163 152 142 154 135 114 137 44 55 49 45 44 57 
91 63 142 69 75 105 71 95 66 90 83 89 86 129 171 220 215 
190 140 129 144 176 171 168 170 154 154 158 170 198 175 174 194 
168 194 160 163 177 122 154 103 98 130 93 113 144 101 76 103 
79 67 77 67 73 115 154 171 179 159 188 196 229 197 222 225 
221 233 230 229 227 198 185 195 176 160 178 193 179 203 198 162 
194 195 182 189 187 173 174 142 84 113 44 59 41 99 56 53 
73 74 68 71 89 69 72 67 76 89 80 80 86 195 218 197 158 
155 152 168 173 195 175 143 150 131 204 146 185 173 176 181 183 
186 169 148 150 172 172 139 121 151 207 113 104 85 95 170 98 
74 105 63 121 106 139 159 182 205 230 168 205 218 235 210 229 
202 226 228 212 231 230 209 189 131 126 152 151 162 147 167 165 
165 174 170 161 174 166 124 77 37 20 82 60 36 52 45 85 
58 63 53 114 69 73 86 60 78 85 114 113 206 203 190 154 148 
153 208 178 181 166 162 153 155 185 192 199 191 179 187 174 184 
161 163 149 175 168 179 126 154 191 212 181 124 140 191 190 123 
99 103 132 160 141 186 200 219 217 229 198 202 202 210 230 218 
204 228 222 216 229 228 227 192 184 114 122 134 134 123 121 112 
125 117 89 165 86 58 43 43 34 49 30 31 52 40 52 74 
54 57 58 119 126 57 66 63 83 56 118 216 208 199 131 146 175 
191 190 171 132 180 169 173 174 208 195 167 161 185 207 185 174 
171 163 171 167 174 135 143 197 162 168 153 153 188 215 213 145 
64 67 130 179 178 186 217 208 219 216 222 206 226 198 212 227 
220 199 228 196 225 221 226 222 221 178 91 123 70 27 37 32 
25 19 66 28 31 69 39 45 55 38 59 47 50 56 55 48 
43 55 30 43 59 62 90 64 32 123 225 211 183 143 162 206 215 
155 162 175 123 150 188 191 223 197 162 170 197 204 187 150 150 
159 161 183 181 177 101 145 189 199 213 148 158 180 184 212 200 
66 98 115 186 184 183 213 210 211 221 218 231 228 206 197 231 
218 174 226 212 238 231 213 233 216 206 204 65 65 21 44 28 
46 49 40 36 47 92 51 57 65 42 76 52 49 49 46 46 
64 71 41 125 44 121 60 27 89 224 192 173 143 187 213 200 167 
167 163 151 177 196 219 215 195 179 182 207 204 168 148 149 175 
178 192 178 182 155 135 187 174 229 222 137 184 183 167 209 206 
89 91 107 124 221 181 211 223 216 222 208 235 224 219 206 194 
204 222 232 222 209 230 218 178 207 209 219 174 34 22 22 25 
36 37 26 110 33 44 43 59 46 53 58 39 50 35 36 47 
75 39 66 52 35 68 46 34 206 210 117 187 165 213 197 138 174 
161 157 204 203 202 205 190 153 186 212 193 159 147 155 171 164 
174 195 162 142 110 154 184 201 226 201 148 190 173 188 227 223 
103 107 82 118 225 211 201 227 234 210 220 214 231 221 226 207 
190 222 206 226 222 221 192 216 217 227 220 217 185 24 30 29 
29 144 73 103 145 24 33 43 30 46 31 30 39 49 31 29 
66 78 82 66 56 105 75 154 187 174 182 179 200 163 166 154 124 
194 174 160 215 215 204 168 181 193 195 163 152 172 176 174 178 
174 168 151 120 134 187 188 204 217 214 172 156 159 215 222 227 
142 101 120 83 197 201 204 220 232 219 219 218 220 227 231 207 
197 217 207 193 217 215 220 226 213 206 221 208 215 170 0 30 
37 66 45 30 39 36 43 34 39 32 27 33 18 68 18 21 
71 63 53 62 70 53 61 196 147 199 199 168 172 175 166 186 201 
197 188 197 210 154 182 154 198 182 178 163 164 177 171 178 194 
168 141 117 96 152 191 199 191 204 205 160 152 190 218 208 205 
127 96 96 73 114 211 211 208 222 228 213 230 206 230 224 225 
199 178 207 194 228 220 224 207 219 218 214 229 217 211 52 18 
31 61 28 40 28 47 21 36 39 28 38 33 15 61 10 17 
52 69 60 77 67 63 90 167 189 208 155 183 149 185 189 174 178 
175 138 210 186 158 183 204 194 163 151 146 167 189 172 166 175 
172 193 156 136 165 174 192 203 220 206 153 162 182 171 226 223 
146 81 88 63 91 220 206 196 225 214 227 216 214 219 223 215 
201 178 221 196 197 212 224 225 214 187 185 219 206 226 173 139 
37 60 45 40 32 31 29 34 20 31 44 29 32 43 17 107 
37 67 65 69 70 60 65 106 202 200 175 210 180 186 179 162 114 
84 157 196 134 183 208 186 176 129 154 191 161 179 187 166 98 
194 179 143 127 149 218 197 205 213 176 172 166 183 217 218 227 
153 124 107 98 86 183 233 209 212 226 227 220 212 207 217 233 
220 183 174 222 214 203 223 217 221 192 232 218 202 199 225 95 
17 111 63 37 59 25 41 31 26 46 93 29 53 78 44 29 
108 60 50 67 62 74 35 70 163 183 175 152 127 111 57 21 9 
84 199 143 198 191 197 134 149 164 174 165 169 179 170 130 35 
188 161 146 179 184 227 206 206 227 192 149 144 173 223 213 190 
126 125 114 114 151 143 202 215 210 214 219 223 221 210 207 218 
226 224 142 190 221 203 200 184 225 222 207 208 186 223 211 120 
12 99 32 48 27 48 41 47 83 58 45 58 55 77 59 119 
26 25 94 96 52 57 56 119 63 33 41 28 37 45 40 51 33 
114 174 188 197 196 155 137 175 170 178 180 163 122 106 44 74 
218 176 153 153 155 223 194 230 206 191 174 147 199 188 237 217 
158 156 130 97 108 99 220 225 212 210 223 228 216 208 210 219 
216 207 205 167 199 238 228 224 204 181 227 216 193 209 184 98 
89 3 46 28 54 44 37 106 41 58 32 54 65 87 68 59 
44 38 26 47 52 33 52 44 79 31 51 64 49 40 47 48 78 
143 186 204 190 161 145 164 169 183 152 148 113 32 23 39 105 
203 158 166 194 213 244 194 217 214 190 142 177 178 239 214 177 
127 120 137 148 114 124 171 226 208 198 220 231 219 214 212 194 
226 237 217 204 106 135 206 207 228 216 162 217 191 197 163 86 
63 44 38 36 68 74 31 46 53 45 64 101 69 94 99 75 
39 32 46 35 35 122 21 48 33 51 44 38 31 71 119 122 47 
192 201 172 151 169 169 191 197 159 111 114 32 25 47 14 118 
221 170 150 177 181 183 209 218 204 177 128 142 183 218 221 226 
158 97 94 115 114 147 113 200 206 194 203 221 231 229 200 211 
200 214 220 205 189 56 59 129 172 216 184 166 176 126 32 13 
86 20 46 44 53 50 47 42 42 40 46 62 107 83 96 60 
36 31 37 43 101 42 30 27 24 88 67 50 51 68 88 93 68 
163 204 171 191 166 192 153 90 82 32 62 37 54 32 12 141 
209 181 191 216 225 200 204 222 208 174 135 180 132 235 216 193 
128 98 103 101 119 138 124 154 217 227 209 200 217 232 196 209 
163 222 226 212 213 147 24 37 36 43 110 31 91 49 24 31 
5 43 29 56 46 45 43 95 115 25 43 36 40 42 36 38 
21 101 51 45 9 73 67 41 54 36 40 53 70 70 86 82 84 
124 121 202 172 150 121 86 79 75 78 104 43 27 20 35 168 
215 187 202 186 205 219 205 216 216 191 145 156 200 225 211 182 
111 101 106 121 104 105 116 112 197 230 224 200 196 223 206 214 
217 161 216 222 226 184 78 15 77 62 43 48 26 32 39 40 
30 35 26 96 40 55 52 43 27 51 87 27 29 91 67 42 
87 54 28 35 37 27 38 25 126 0 33 61 77 97 129 80 67 
115 60 73 90 64 67 76 75 70 45 38 37 42 46 103 160 
229 167 196 221 228 209 171 235 199 159 138 165 204 224 222 185 
156 157 120 153 86 109 110 93 148 183 222 220 199 217 210 222 
220 188 216 216 218 212 138 29 39 44 46 45 33 107 18 22 
27 41 47 49 35 38 49 38 48 20 18 33 18 92 33 38 
40 52 21 36 37 24 32 103 23 23 56 81 106 82 74 78 83 
62 74 85 49 77 79 72 63 79 92 40 57 94 76 38 187 
217 190 216 217 210 227 217 217 183 164 127 165 211 227 220 157 
126 114 128 120 112 91 83 104 105 121 211 219 202 199 218 227 
192 205 196 209 222 219 174 73 34 47 36 59 36 44 97 41 
16 37 44 50 52 56 38 49 37 179 29 16 38 24 109 50 
38 53 122 34 28 43 25 40 34 31 70 115 128 111 95 65 74 
85 63 52 92 70 60 66 62 45 57 38 55 103 78 115 197 
194 176 212 236 200 221 221 217 186 153 147 163 221 220 222 138 
93 138 122 106 112 90 104 96 81 91 153 199 201 207 194 218 
239 184 197 188 205 198 194 95 37 38 41 79 42 35 30 24 
38 49 46 42 49 39 62 49 40 135 36 51 23 27 82 45 
52 27 50 30 37 30 99 48 62 72 144 150 99 93 76 79 88 
70 67 70 71 53 87 63 64 26 46 78 53 48 79 60 199 
202 165 231 224 214 212 231 225 188 152 153 167 217 215 211 80 
81 93 131 115 106 116 91 88 113 81 112 146 215 213 209 192 
229 218 227 220 211 207 219 202 71 40 55 99 28 35 23 40 
51 37 46 53 52 62 44 45 37 25 48 32 45 34 13 28 
39 57 46 17 36 41 37 51 100 65 117 110 105 149 72 67 70 
80 65 72 78 75 74 91 106 51 68 52 40 35 118 76 200 
223 186 233 211 225 219 231 225 181 155 136 172 208 224 195 46 
53 59 95 136 129 135 100 118 95 116 99 103 138 216 208 210 
193 231 225 197 202 193 219 223 51 53 32 114 9 53 35 37 
49 51 74 53 31 109 46 77 71 51 57 27 38 95 20 31 
75 45 34 52 23 30 38 25 44 66 111 102 102 125 64 78 73 
70 85 68 65 64 37 56 48 42 111 41 65 74 65 86 209 
216 209 202 227 215 234 221 215 176 148 128 169 216 232 178 29 
120 22 116 72 109 103 115 95 94 81 112 104 115 140 226 219 
197 190 222 182 215 180 212 207 95 22 38 24 50 31 37 32 
35 49 76 54 54 105 51 113 97 49 36 41 53 93 18 43 
126 49 38 29 32 31 28 32 27 86 86 91 99 84 65 62 67 
78 118 47 65 47 40 87 104 55 53 29 71 119 78 79 212 
202 190 199 228 219 224 217 208 183 140 147 167 228 216 142 33 
29 49 17 79 114 72 94 75 85 87 70 134 92 88 150 205 
233 179 210 228 215 197 201 234 132 37 11 22 30 28 28 35 
27 37 48 53 85 46 41 43 80 48 55 45 30 16 33 14 
35 49 42 44 29 23 110 37 33 76 84 79 85 73 77 76 69 
46 117 68 47 60 114 111 58 36 32 45 23 51 94 99 203 
206 182 223 217 231 212 226 199 174 141 165 186 229 196 100 23 
38 106 28 37 22 23 44 79 63 75 77 65 67 56 59 147 
222 198 188 219 180 205 187 198 151 17 35 38 30 19 22 22 
27 57 44 60 56 40 53 47 47 58 68 95 39 22 32 110 
48 50 47 28 46 40 33 40 57 59 114 81 75 82 65 76 61 
66 67 38 53 61 53 36 44 23 41 31 49 65 75 87 195 
212 213 229 224 224 220 234 182 149 142 168 214 223 192 79 45 
24 84 25 30 46 40 29 38 55 47 35 104 58 37 131 19 
146 209 226 197 200 214 193 189 201 17 32 19 24 31 24 35 
18 52 45 97 45 104 52 65 44 49 95 41 33 32 40 37 
53 49 44 47 38 87 79 31 37 61 71 74 74 68 65 73 56 
47 55 48 103 110 51 34 24 31 38 36 34 71 81 87 177 
199 212 229 223 212 201 228 166 136 148 159 200 207 178 50 37 
115 46 32 42 46 24 50 41 45 50 54 41 43 30 72 42 
95 116 214 217 172 195 227 167 69 35 14 102 29 34 24 92 
38 52 46 71 53 58 48 51 36 67 61 43 31 39 17 25 
27 54 75 31 129 39 35 47 31 120 49 45 110 85 82 55 68 
63 67 54 63 54 110 22 13 40 32 21 65 54 124 72 174 
212 192 220 218 199 235 180 128 155 173 179 232 216 110 13 19 
45 92 23 37 41 113 11 85 31 46 49 46 78 80 30 17 
41 24 48 127 174 189 122 156 0 37 61 12 30 51 94 11 
43 24 53 60 50 36 46 41 68 44 114 43 45 24 17 24 
44 52 42 62 48 54 53 26 86 37 37 65 67 71 116 49 39 
58 67 58 49 98 25 22 28 28 78 90 35 53 101 71 147 
235 199 231 223 220 236 165 121 130 185 197 220 201 116 39 48 
25 15 101 30 28 29 38 66 55 43 31 47 39 27 49 113 
42 43 28 68 52 93 35 25 23 137 113 53 26 50 31 37 
39 36 75 43 55 50 66 60 54 55 55 53 43 29 17 28 
40 52 68 54 54 64 108 55 73 48 59 72 120 68 40 70 61 
47 92 66 41 18 38 41 26 38 29 9 46 38 52 42 114 
177 181 247 192 225 180 150 112 162 146 197 216 165 32 43 27 
44 38 25 42 21 31 30 67 45 40 58 44 40 33 40 34 
20 39 53 27 26 32 33 30 41 23 28 39 39 26 29 41 
19 92 75 42 55 37 41 105 32 123 46 56 52 12 109 18 
17 46 59 127 48 64 51 41 35 64 63 63 110 60 58 77 114 
50 48 37 30 28 17 24 37 26 44 16 51 99 44 46 83 
229 220 219 207 228 95 106 167 177 177 217 227 93 33 38 46 
35 29 31 29 18 32 38 24 37 49 38 42 45 49 28 59 
53 45 23 50 44 27 35 30 31 24 36 18 60 18 45 16 
31 96 44 62 96 103 130 52 80 40 73 59 68 34 27 24 
35 49 39 87 121 100 42 64 68 44 79 72 57 74 115 88 87 
41 42 45 21 21 38 14 34 31 27 104 12 21 50 29 37 
202 214 213 228 145 36 79 135 165 202 211 167 15 33 42 42 
32 32 29 24 25 34 31 28 35 80 49 40 37 109 92 91 
28 31 44 43 29 33 26 20 85 90 57 20 77 42 20 31 
20 39 65 58 43 41 29 77 94 65 38 44 60 62 52 23 
113 48 53 53 72 65 45 32 45 71 71 48 66 59 37 48 70 
52 27 18 9 100 2 79 60 22 28 33 31 10 21 50 60 
61 130 221 173 62 69 105 82 145 186 226 51 28 40 19 24 
26 15 32 37 39 23 50 86 105 65 23 37 18 26 37 42 
38 34 106 18 58 40 35 33 59 15 32 35 100 23 14 93 
30 28 95 63 44 61 42 89 37 53 54 123 50 60 47 36 
65 50 72 67 50 44 43 125 67 81 77 113 49 51 134 28 35 
17 41 17 12 15 53 76 0 0 20 22 36 84 53 41 61 
67 62 63 47 50 48 52 32 134 128 58 32 38 34 34 46 
35 41 34 39 31 27 28 26 51 25 44 9 76 75 27 40 
46 20 21 55 29 49 107 25 0 105 25 29 41 22 104 19 
10 42 56 48 51 57 70 51 45 49 53 51 76 59 71 114 
43 71 52 69 102 90 57 52 66 71 55 41 47 50 74 45 28 
10 24 17 11 24 10 58 52 86 6 31 36 57 59 39 124 
39 53 23 113 24 53 47 41 27 29 14 29 94 17 24 36 
47 30 43 50 46 33 77 22 81 38 32 18 16 86 17 50 
49 39 25 41 38 43 15 32 97 5 19 41 26 14 29 21 
64 34 62 62 51 61 89 58 80 69 61 32 111 128 100 48 
66 44 77 56 58 97 43 118 62 60 48 43 43 28 42 13 21 
19 8 2 15 20 30 37 18 22 102 17 115 63 71 39 34 
95 20 29 46 65 86 34 42 34 89 71 79 46 97 32 33 
108 35 43 37 12 58 50 22 40 26 49 34 21 44 17 39 
48 42 44 31 22 31 34 35 4 40 45 25 12 101 31 36 
68 30 57 49 41 50 69 31 131 40 60 59 123 40 106 62 
59 49 63 81 48 66 45 111 64 47 40 52 51 23 40 21 28 
4 14 101 144 45 41 36 34 49 90 29 54 83 28 40 15 
121 27 43 48 68 93 56 93 49 29 29 31 21 108 37 49 
36 74 10 47 121 18 45 51 39 48 81 66 68 40 46 25 
44 50 79 50 28 21 36 26 36 37 29 31 21 34 22 0 
27 12 65 61 53 44 37 49 52 56 50 56 50 50 45 63 
42 59 39 113 63 52 52 60 79 43 35 60 60 31 61 59 11 
35 27 32 102 74 99 24 40 85 48 49 42 113 39 40 33 
93 37 39 59 46 46 80 42 48 27 45 23 32 29 32 22 
72 92 40 33 44 29 88 38 33 38 52 37 80 31 33 38 
34 24 45 32 17 21 36 31 52 24 36 39 64 10 23 112 
108 39 57 33 44 55 56 60 40 51 55 45 39 52 42 51 
