P2
# Created by IrfanView
100 100
255
255 255 255 255 255 255 255 255 255 255 255 255 255 255 255 255 0 
255 255 255 255 255 255 255 255 255 255 255 255 255 0 255 255 
255 255 255 255 255 255 255 255 255 255 255 255 255 255 255 255 
255 255 0 255 255 255 255 255 255 255 255 255 255 255 255 255 
255 255 255 255 255 255 255 255 255 255 255 255 255 255 255 255 
255 255 255 255 255 255 255 255 255 255 255 255 255 255 255 255 
255 255 255 255 255 255 255 255 255 255 0 255 255 255 255 255 255 255 255 255 
255 255 255 255 255 0 255 255 0 255 255 255 255 255 255 255 
255 255 255 255 255 255 255 255 255 255 255 255 255 255 0 255 
255 255 255 255 255 255 255 255 255 255 255 255 255 255 0 255 
255 255 255 255 255 255 255 255 255 255 255 255 255 255 255 255 
255 255 255 255 255 255 255 255 255 255 255 255 0 255 255 255 
0 255 255 0 255 255 255 255 255 255 255 255 255 255 255 255 255 255 255 255 
255 255 255 255 255 255 255 255 255 255 255 255 255 255 255 255 
255 0 255 255 255 255 255 255 255 255 255 255 255 255 255 255 
255 255 255 255 255 255 255 255 255 255 255 255 255 255 255 255 
255 255 255 255 255 255 0 255 255 255 255 255 255 255 255 255 
255 255 255 255 255 255 255 0 255 255 255 255 255 255 255 255 
255 255 255 255 255 255 255 255 255 255 0 255 255 255 255 255 255 255 255 255 
255 255 255 255 0 255 255 255 255 255 255 255 255 255 255 255 
255 255 255 255 255 0 255 255 255 255 255 255 255 255 255 255 
0 255 255 0 255 255 255 0 255 255 255 255 255 255 255 255 
255 255 255 255 255 255 255 255 255 0 255 255 255 255 255 255 
255 255 255 255 255 255 255 255 255 255 255 255 0 255 255 255 
255 0 255 255 255 255 0 255 255 255 255 255 255 255 255 255 255 255 255 255 
255 255 255 255 255 255 255 255 255 255 255 255 255 255 255 0 
255 255 255 255 255 255 255 255 255 255 255 255 255 255 255 255 
255 255 255 255 255 255 255 255 255 255 255 255 255 255 255 255 
255 255 255 255 255 255 255 255 255 255 255 255 255 255 255 255 
255 255 255 255 255 255 255 255 255 255 255 255 255 255 255 255 
255 255 255 255 255 255 255 255 255 255 255 255 255 255 255 255 0 255 255 255 
255 255 255 255 255 255 255 255 255 255 255 0 255 255 255 255 
255 0 255 255 255 255 255 255 255 255 255 0 255 255 255 255 
255 255 255 255 255 255 255 255 255 255 255 255 255 255 255 255 
255 255 255 255 255 255 255 255 255 255 255 0 255 255 255 255 
255 255 255 255 255 255 0 255 255 255 0 255 255 255 255 255 
255 255 255 0 255 0 255 255 255 255 255 255 255 255 255 255 255 0 255 255 
255 255 255 255 255 255 255 255 255 255 255 255 255 255 255 255 
255 255 255 255 255 255 255 255 255 255 255 255 255 255 255 255 
255 255 255 255 255 255 255 255 255 0 255 255 255 255 255 0 
255 255 255 255 255 255 255 255 255 255 255 255 255 255 255 255 
255 255 255 255 255 255 255 255 255 255 255 255 255 255 255 0 
255 0 255 255 255 255 0 0 255 0 0 255 255 255 255 255 255 255 255 255 
255 255 255 255 255 255 255 255 255 255 255 255 255 255 255 255 
255 255 255 255 255 255 255 255 255 255 255 255 255 0 255 255 
255 255 255 255 255 255 0 255 255 255 255 255 255 255 255 255 
255 255 255 255 255 255 255 255 255 255 255 255 255 255 255 255 
255 255 255 255 255 255 255 255 255 255 255 255 255 255 255 255 
255 255 255 255 255 255 255 255 255 255 255 255 255 255 255 255 255 255 255 255 
255 255 255 255 255 255 255 255 255 255 255 255 0 255 255 255 
255 255 255 0 255 255 255 255 255 255 255 255 255 255 255 255 
255 255 255 255 255 255 255 255 255 255 255 255 255 255 255 255 
255 255 255 255 255 255 255 0 255 253 255 255 0 0 254 252 
253 255 254 254 253 252 253 252 254 254 254 255 255 129 228 255 
255 255 255 255 255 255 255 255 255 255 255 0 255 255 255 255 255 255 255 255 
255 255 255 255 255 255 255 255 255 0 255 255 255 0 255 255 
255 255 255 255 255 255 255 255 255 255 255 255 255 255 255 255 
255 255 255 255 255 255 255 255 255 0 255 255 255 255 0 255 
255 255 0 255 255 255 0 254 254 254 255 255 255 255 250 253 
255 255 254 252 254 254 251 253 253 194 88 43 42 150 0 255 
255 255 255 255 255 255 255 255 255 255 255 255 255 255 255 255 255 255 255 255 
255 255 255 255 255 255 255 255 255 255 255 255 255 255 0 255 
255 255 255 255 255 255 255 255 255 255 255 255 255 255 255 255 
0 255 255 255 255 255 255 255 255 255 255 255 255 255 255 255 
0 255 255 255 255 255 255 255 255 255 255 254 255 255 255 254 
254 253 0 249 252 253 254 189 55 39 44 78 222 253 0 255 
255 0 255 255 255 255 255 255 255 255 255 255 255 0 255 255 255 255 255 255 
255 255 255 255 255 255 255 255 255 255 255 255 255 255 255 255 
255 255 255 255 255 255 255 255 255 255 255 255 255 255 255 255 
255 255 255 255 255 255 255 255 255 255 255 255 255 255 255 255 
255 255 255 255 255 255 255 255 252 255 254 0 255 254 254 255 
252 252 253 253 254 186 57 47 43 255 192 253 251 251 254 255 
255 255 255 255 255 255 255 255 255 255 255 255 255 255 255 255 255 255 255 255 
255 255 255 255 255 255 255 255 0 255 255 0 255 255 255 255 
0 255 255 255 255 255 255 0 255 255 255 255 255 255 255 255 
255 255 255 255 255 255 255 255 255 255 255 255 0 255 255 255 
255 255 255 255 255 0 255 0 254 255 252 254 254 255 250 254 
253 251 249 181 45 44 46 62 185 255 253 255 254 252 255 255 
255 255 255 255 255 255 255 255 255 255 255 255 255 255 255 255 255 255 255 255 
255 255 255 255 255 255 255 255 255 255 255 255 255 255 255 255 
255 255 255 255 255 255 255 255 255 255 255 255 255 255 255 255 
255 255 255 255 255 255 255 255 255 255 255 255 255 255 255 255 
255 255 255 255 255 255 255 255 255 255 0 254 254 254 254 254 
250 199 49 255 46 105 206 254 251 254 255 254 251 252 253 255 
255 255 255 255 255 255 255 255 255 255 255 255 255 255 255 255 255 0 255 255 
255 255 255 255 255 255 255 255 255 255 255 255 255 255 255 255 
255 255 255 255 255 255 255 255 255 255 255 255 255 255 255 255 
255 255 255 255 255 255 255 255 255 255 255 255 255 255 255 255 
255 255 255 255 255 255 255 255 251 0 254 253 254 254 253 246 
106 42 47 97 223 254 253 0 255 255 255 254 0 252 251 255 
255 255 255 255 255 255 255 255 255 255 255 0 255 255 0 255 255 255 255 255 
255 255 255 255 255 255 255 255 255 255 255 0 255 255 255 0 
255 255 255 255 255 255 255 255 255 255 255 255 255 255 255 255 
255 255 255 255 255 255 255 255 255 255 255 255 255 255 255 255 
255 255 255 255 255 255 255 254 0 255 254 249 254 253 211 44 
47 48 0 253 253 254 253 253 255 254 254 254 254 253 252 255 
255 255 255 255 255 0 255 255 255 255 0 255 255 255 255 255 255 255 255 255 
255 255 255 255 255 255 255 255 255 255 255 255 255 255 255 255 
255 255 0 255 255 255 255 255 255 255 255 255 255 255 0 255 
255 255 255 255 255 255 255 255 255 255 255 255 255 255 255 253 
251 254 254 254 254 255 253 250 255 255 251 254 0 154 46 255 
95 240 254 255 252 255 255 255 255 255 255 0 255 255 255 255 
255 255 255 255 255 255 255 255 255 255 255 255 255 255 255 255 255 255 255 255 
255 255 0 255 255 0 255 255 255 255 255 255 255 255 255 255 
255 255 255 255 255 255 255 255 255 255 255 255 255 255 255 255 
255 255 0 255 255 255 255 255 255 255 255 255 255 255 255 254 
255 252 252 252 253 254 251 253 253 254 254 254 0 47 45 140 
246 254 255 0 252 255 253 255 255 255 255 255 255 255 255 255 
255 255 255 255 255 255 255 255 255 255 255 255 255 255 255 255 255 255 255 255 
255 255 255 255 255 255 255 255 255 255 255 255 255 255 255 255 
255 255 255 255 255 255 255 255 255 255 255 255 255 255 255 0 
255 255 255 255 255 255 255 255 255 255 0 255 255 255 255 253 
255 251 254 253 254 254 252 254 251 251 238 46 47 43 175 253 
253 253 254 254 253 254 254 255 0 255 255 255 255 255 255 255 
255 255 255 255 255 255 255 255 0 255 255 255 255 255 255 255 255 255 255 0 
255 255 255 255 255 255 255 255 255 255 255 255 255 255 255 255 
255 255 255 255 255 255 255 255 255 255 255 255 255 255 255 255 
255 255 255 255 255 255 255 255 255 255 255 255 255 255 255 253 
253 253 252 251 253 253 251 254 253 213 46 49 43 202 253 254 
254 251 255 251 254 255 254 255 255 255 255 255 255 255 255 255 
255 255 255 255 255 255 255 255 255 255 255 255 255 0 255 255 255 255 255 255 
255 255 255 255 255 255 255 255 255 255 255 255 255 255 255 255 
255 255 255 255 255 255 255 255 255 255 255 255 255 255 255 255 
255 255 255 255 255 0 255 255 255 255 255 255 255 0 255 255 
0 253 254 252 253 249 251 253 0 46 46 255 226 255 254 253 
251 253 255 253 254 254 254 255 255 255 255 255 255 255 255 255 
255 255 255 255 0 255 255 255 255 255 255 255 255 255 255 255 255 255 255 255 
255 255 255 255 255 255 0 255 255 255 255 255 255 255 255 255 
255 255 255 255 255 255 255 255 255 255 255 255 255 255 255 255 
255 255 255 255 255 255 255 255 255 255 255 255 255 255 255 254 
254 254 253 253 254 253 255 146 43 46 60 243 249 255 255 254 
254 252 254 255 253 249 253 255 255 0 255 255 255 255 255 255 
255 255 255 255 255 255 255 255 0 255 255 255 255 255 255 255 255 255 255 255 
255 0 255 255 255 255 255 255 255 255 255 255 255 255 255 255 
255 255 255 255 255 255 255 0 255 255 255 255 255 255 255 255 
255 255 255 255 255 255 255 255 255 255 255 255 255 0 255 254 
253 253 253 252 253 255 116 45 50 92 255 0 252 253 251 252 
254 253 255 254 254 254 252 255 255 255 255 255 255 255 255 255 
255 255 255 255 0 255 255 255 255 255 255 255 255 255 255 255 255 255 255 0 
255 255 255 255 255 255 255 255 255 255 0 255 0 255 255 255 
255 255 255 255 255 255 255 255 255 255 255 255 255 255 255 255 
255 255 255 255 255 255 255 255 255 255 255 255 255 255 255 251 
252 253 253 254 254 78 50 45 123 0 255 0 254 254 254 255 
253 253 0 254 254 0 254 255 255 255 255 255 255 255 255 255 
255 255 255 255 255 255 255 255 255 255 255 255 255 255 255 0 254 255 255 253 
254 252 253 253 0 250 254 255 255 255 255 0 255 255 255 255 
255 255 255 255 255 255 255 255 255 255 0 255 255 255 255 255 
255 255 255 255 255 255 255 253 254 254 253 253 252 253 255 250 
251 253 254 240 45 46 44 160 252 254 255 254 254 254 250 255 
255 255 255 255 255 255 255 255 255 255 255 255 0 255 255 255 
255 255 0 255 0 255 255 255 255 255 255 251 255 254 250 255 255 252 255 254 
250 252 254 254 0 251 252 255 255 255 255 255 255 255 255 0 
255 255 255 255 255 255 255 255 255 255 255 255 255 255 255 255 
255 255 255 255 255 255 255 250 253 249 250 253 253 254 254 254 
254 252 222 255 44 44 255 252 253 250 255 254 254 254 254 255 
255 255 255 255 255 255 255 0 0 255 255 255 255 255 255 255 
255 255 255 255 255 255 255 255 255 255 255 255 0 254 255 255 255 253 251 0 
252 251 252 254 254 253 253 255 0 255 255 255 255 255 255 255 
255 255 255 255 255 0 255 255 255 255 255 255 255 255 255 255 
255 255 255 255 255 255 255 254 252 253 255 254 249 254 252 254 
252 198 45 255 45 216 254 254 252 254 255 255 255 255 255 255 
255 255 255 255 255 255 0 255 255 255 255 255 0 0 255 255 
255 255 255 255 255 255 255 255 255 255 255 254 254 255 254 251 255 255 250 254 
253 249 0 0 250 253 251 255 255 255 255 255 255 255 255 255 
255 255 255 255 255 255 255 255 255 255 255 255 255 255 255 255 
255 255 255 255 255 255 255 0 252 254 252 250 255 252 255 252 
161 255 47 45 241 252 253 0 255 255 251 254 254 255 255 255 
255 255 255 255 255 255 255 255 255 255 255 255 255 255 255 255 
255 255 255 255 255 255 255 255 255 255 255 255 255 255 255 0 255 252 252 255 
251 253 252 254 255 0 253 255 255 255 255 255 255 255 255 255 
255 255 0 255 255 255 255 255 255 255 255 255 255 255 255 255 
255 255 255 255 255 255 255 0 253 253 252 255 253 254 250 127 
45 45 89 254 252 0 253 254 253 0 253 254 252 0 254 255 
255 255 255 255 255 255 255 255 255 255 255 255 255 255 255 255 
255 255 255 255 255 255 255 255 255 255 255 254 254 255 254 253 255 255 253 208 
180 253 251 254 254 253 0 255 255 255 255 255 255 255 255 255 
255 255 255 255 255 255 255 255 255 255 255 255 255 255 255 255 
255 255 255 255 255 255 255 254 251 0 0 254 252 252 93 45 
47 121 251 254 251 255 254 254 254 255 253 251 252 255 251 255 
255 255 255 255 255 255 255 255 255 255 255 255 255 255 255 255 
255 255 0 0 255 255 255 255 255 255 255 253 254 255 253 253 255 250 215 40 
41 65 222 251 253 255 253 255 255 255 255 255 0 255 255 255 
255 255 255 255 255 255 255 255 255 255 255 255 255 255 255 255 
255 255 255 255 255 255 255 253 254 254 251 0 245 50 49 42 
153 0 254 254 254 253 251 254 252 255 255 255 255 254 254 255 
255 255 255 255 255 255 255 0 255 255 255 255 255 255 255 255 
255 255 255 255 255 255 255 255 255 255 255 255 255 0 255 0 255 255 255 222 
80 44 0 166 255 254 253 0 255 255 255 255 255 0 255 0 
255 255 255 255 255 255 255 255 255 255 255 255 255 255 255 255 
255 255 255 255 255 255 255 253 253 254 254 223 45 46 45 0 
253 251 252 253 252 254 252 252 254 255 255 254 255 254 251 255 
255 255 255 255 255 0 255 255 255 255 255 255 255 255 255 255 
255 255 255 255 255 255 255 255 255 255 255 255 255 255 255 255 255 255 255 253 
0 185 0 43 111 244 254 254 253 253 254 253 253 253 253 253 
252 250 253 252 252 255 0 255 255 255 255 255 255 255 255 254 
254 255 253 253 251 255 0 252 251 252 205 42 47 46 216 255 
255 255 255 255 255 255 255 255 0 255 255 255 255 255 255 255 
255 255 255 255 255 255 255 255 255 255 255 255 255 255 255 255 
255 255 255 255 255 0 255 255 255 255 255 255 255 0 255 255 255 255 255 254 
251 251 253 148 43 45 149 233 255 254 252 255 253 254 253 254 
253 254 254 254 253 252 254 255 255 255 255 255 255 0 255 253 
254 249 254 252 253 254 254 253 251 171 0 49 51 231 253 255 
255 255 255 255 255 255 255 255 255 255 255 255 255 255 255 255 
255 255 255 0 255 255 255 255 255 255 255 0 255 255 255 255 
255 255 255 255 255 255 255 255 255 0 255 255 255 255 255 255 255 255 255 255 
252 254 0 252 234 97 255 44 69 161 212 251 251 252 254 131 
194 249 255 254 251 254 255 255 255 255 255 255 255 255 0 253 
252 251 254 0 254 251 255 253 141 47 46 88 249 254 254 255 
255 255 255 255 255 255 255 255 255 255 255 255 255 255 255 255 
255 255 255 255 255 255 255 255 255 0 255 255 255 255 255 255 
255 255 255 255 255 255 255 255 255 255 255 255 255 255 255 255 255 255 255 250 
254 252 249 252 253 250 208 167 92 41 45 47 107 189 199 255 
131 253 254 253 253 254 254 255 255 255 255 255 255 255 255 253 
254 255 250 252 254 252 254 104 47 47 124 254 0 249 254 255 
255 255 255 255 255 255 255 255 255 0 255 255 255 255 255 255 
255 255 255 255 255 255 255 255 255 255 255 255 255 255 255 255 
255 0 255 255 255 255 255 255 255 255 255 255 255 255 255 255 255 255 255 255 
254 253 254 255 250 254 0 251 254 235 147 42 47 45 47 47 
124 253 251 251 253 251 251 255 255 255 255 255 255 255 255 254 
254 252 251 253 254 246 81 45 43 0 254 252 252 253 252 255 
0 255 255 255 255 255 255 0 255 255 255 255 255 255 255 255 
255 255 255 0 255 255 255 255 255 255 255 255 255 255 255 255 
255 255 255 255 255 255 255 255 255 255 255 255 255 255 255 255 255 255 255 253 
251 251 254 252 255 254 255 253 255 253 252 236 123 44 47 50 
49 227 251 250 254 253 255 255 255 255 255 255 255 255 255 253 
253 254 254 197 207 46 45 47 190 252 253 249 252 253 253 255 
255 255 255 255 255 255 255 255 255 255 255 255 255 255 255 255 
255 255 255 255 255 255 255 255 255 255 255 255 0 255 255 255 
255 255 255 255 255 255 255 255 255 255 255 255 255 255 255 255 0 255 255 254 
252 252 254 253 253 253 253 252 255 254 250 250 251 225 49 47 
44 48 235 254 253 255 252 255 255 255 255 255 255 255 255 253 
255 239 49 44 43 45 49 218 253 254 251 253 253 252 254 255 
255 255 0 0 255 255 255 255 255 0 255 255 255 255 255 255 
255 255 255 255 255 255 255 255 255 255 255 255 255 255 255 255 
255 0 255 255 255 255 255 255 255 255 255 255 255 255 255 255 255 255 255 254 
252 252 254 251 254 254 252 254 251 252 254 252 254 253 174 45 
47 46 47 234 254 251 254 255 255 255 255 255 255 255 255 254 
212 45 51 255 50 0 236 251 255 254 254 252 254 253 252 255 
255 255 255 0 255 255 255 255 255 255 255 255 255 255 255 255 
255 255 255 255 255 255 255 0 255 255 255 255 255 255 255 255 
0 0 255 255 255 255 255 255 255 255 255 254 250 254 251 252 253 254 255 254 
252 252 251 252 254 253 253 0 253 252 251 252 253 254 170 43 
92 49 255 50 250 250 0 255 254 254 254 252 0 251 255 181 
42 49 255 48 49 44 253 255 255 255 255 255 255 0 255 0 
255 255 255 255 255 255 255 255 255 255 255 255 255 255 0 0 
255 255 255 255 255 255 255 255 255 255 255 0 255 255 255 255 
255 255 255 255 255 255 255 255 255 255 255 254 254 0 254 252 254 255 252 253 
254 251 254 255 255 253 254 253 254 254 254 0 254 252 127 44 
165 199 44 44 103 254 252 254 253 254 253 253 254 253 149 48 
49 48 50 49 41 173 255 255 255 255 255 255 255 255 0 255 
255 0 255 255 255 255 255 255 255 0 255 255 255 255 255 255 
255 255 255 255 255 255 255 255 255 255 255 255 255 255 255 255 
255 255 255 255 255 255 255 255 255 255 255 251 249 0 255 255 253 253 251 254 
255 252 253 252 252 251 253 253 254 253 252 251 251 254 66 47 
152 253 140 48 45 169 254 251 252 254 254 254 252 107 43 52 
49 44 47 45 181 252 253 255 255 255 255 255 255 255 255 255 
255 255 255 255 255 255 255 255 255 255 255 255 0 255 255 255 
255 255 255 255 255 255 255 255 255 255 255 255 255 255 255 255 
255 255 255 255 255 255 255 255 255 255 255 254 255 254 254 253 254 253 254 254 
253 254 254 251 255 253 249 254 251 253 255 253 255 248 44 45 
255 253 254 96 45 46 223 253 251 254 254 240 69 48 255 50 
45 49 42 189 253 254 254 255 255 255 255 255 255 255 255 255 
255 255 255 255 255 255 255 255 255 255 255 255 0 255 255 255 
255 255 255 255 255 255 255 255 255 255 255 255 255 255 255 255 
255 255 255 255 255 255 255 255 255 255 255 255 253 254 253 254 255 252 251 253 
254 247 252 254 254 253 253 255 255 254 248 0 251 244 45 0 
150 253 250 252 189 104 59 162 158 162 154 0 44 51 50 47 
49 45 201 254 0 255 254 255 255 255 255 255 255 255 255 255 
255 255 255 255 0 0 255 255 255 255 255 255 255 255 255 255 
255 255 255 255 255 255 255 0 255 255 255 255 255 255 255 255 
255 0 255 255 255 255 255 255 255 255 255 252 247 253 252 255 255 251 252 252 
251 252 250 239 244 225 222 199 196 182 178 153 255 50 49 47 
0 45 46 46 62 59 49 44 44 45 46 48 50 43 52 255 
51 134 229 253 0 252 253 255 255 255 255 255 255 255 255 255 
255 255 255 255 255 255 255 255 255 255 255 255 255 255 255 255 
255 255 255 255 255 255 255 255 0 255 255 255 255 255 255 255 
255 255 255 0 255 255 255 255 255 0 255 250 249 193 156 139 126 110 90 48 
80 255 103 135 80 47 42 42 44 47 44 44 255 64 81 97 
119 123 110 47 46 51 48 255 48 44 51 47 47 51 44 48 
50 47 45 91 251 252 251 255 255 255 255 255 255 255 255 255 
255 255 255 255 255 255 255 255 255 255 255 255 255 0 255 255 
255 255 255 255 255 255 255 255 255 255 255 255 255 255 255 255 
255 255 255 255 255 255 255 255 255 255 255 158 255 144 199 225 236 243 252 251 
253 252 253 252 255 46 164 221 0 245 252 254 250 0 0 253 
253 254 255 44 255 47 48 45 49 255 49 255 48 50 48 46 
47 47 48 46 252 255 251 255 255 255 0 255 255 255 255 255 
255 255 255 255 255 255 255 0 0 255 255 255 255 255 255 255 
255 255 255 255 255 255 255 255 255 255 255 255 255 255 255 255 
255 255 255 254 253 251 251 254 249 253 0 169 251 255 255 255 255 255 253 0 
251 251 255 183 45 176 253 253 253 255 254 254 252 254 253 254 
254 249 184 47 49 49 46 47 47 47 47 47 47 47 47 46 
49 49 0 46 251 252 254 255 253 254 253 253 252 253 254 255 
0 255 255 255 255 255 0 255 255 255 255 255 0 255 255 0 
0 255 255 255 255 255 255 255 255 255 255 255 255 255 255 255 
255 255 255 254 254 253 255 251 253 61 212 251 253 0 255 254 254 255 253 254 
253 253 255 111 45 245 255 252 253 254 254 253 254 254 250 0 
253 253 255 255 52 50 46 47 47 47 47 47 47 47 47 45 
50 46 46 47 248 254 254 253 255 250 254 254 251 254 253 255 
255 0 255 0 255 255 255 255 255 255 255 255 255 255 255 255 
0 255 255 255 255 255 255 0 255 255 255 255 255 255 255 255 
255 255 255 254 250 253 250 0 173 162 253 254 252 253 255 254 255 255 254 254 
0 254 0 46 79 254 249 254 252 255 250 250 254 253 254 253 
254 249 184 47 44 0 50 47 47 47 47 0 47 47 47 48 
0 255 0 44 248 255 255 254 252 253 253 253 254 255 253 255 
255 255 255 255 255 255 255 255 0 255 255 255 255 255 255 255 
255 255 255 255 255 255 255 255 255 255 255 255 255 255 255 255 
255 255 255 253 255 254 251 255 45 254 253 254 255 254 254 254 255 0 254 254 
254 255 240 48 149 253 254 252 255 254 251 252 250 251 254 251 
251 253 183 0 46 50 46 47 255 47 47 47 47 47 47 50 
47 41 47 47 249 254 252 254 255 254 0 252 0 254 0 255 
255 255 255 255 255 255 255 255 255 255 255 255 255 255 255 255 
0 0 255 255 255 255 255 255 255 255 255 255 255 255 255 255 
255 255 255 251 254 253 254 239 125 253 251 254 254 252 254 255 255 255 254 254 
253 251 255 48 190 253 255 253 254 254 253 251 255 252 253 251 
251 252 123 46 50 51 48 47 47 47 0 47 47 47 47 255 
47 51 51 45 191 253 250 249 254 253 252 254 255 255 252 255 
255 255 255 255 255 0 255 255 255 255 255 255 255 255 255 255 
255 255 255 255 255 255 255 255 255 255 255 255 255 255 255 255 
255 255 255 255 252 254 252 214 181 250 254 252 254 255 254 253 254 253 249 254 
254 252 0 43 201 254 252 255 249 254 255 250 255 252 226 190 
169 88 0 48 50 45 49 47 47 47 47 0 47 47 47 53 
48 47 47 255 44 160 218 240 251 253 254 253 253 253 255 255 
255 255 255 255 255 255 255 255 255 255 255 255 255 255 255 255 
255 255 255 255 255 255 255 255 255 255 255 255 255 255 255 255 
255 255 255 251 252 252 253 193 191 253 252 255 255 255 250 255 255 252 255 255 
249 255 206 46 201 252 253 253 251 252 250 211 107 43 0 47 
43 48 49 46 55 47 49 47 47 47 47 47 47 0 47 49 
45 50 255 49 53 48 255 45 47 120 170 224 248 254 253 255 
255 255 255 255 255 255 255 255 255 255 255 255 255 255 255 255 
255 255 255 255 255 255 255 255 255 255 255 255 255 255 255 255 
255 255 255 253 252 254 254 190 197 253 254 254 253 254 254 254 253 255 255 255 
254 255 199 43 204 254 254 254 253 252 250 43 0 50 0 45 
45 48 50 48 47 49 45 47 47 47 47 47 47 47 47 0 
45 45 48 48 46 48 45 49 46 255 49 73 252 254 252 255 
255 255 255 255 255 255 255 255 255 255 255 255 255 255 255 255 
255 255 255 255 255 255 255 255 255 255 0 255 255 255 255 255 
255 255 0 254 255 255 254 196 194 255 255 255 255 255 255 255 255 255 255 254 
254 251 194 43 220 255 252 254 254 255 229 44 47 47 48 47 
47 47 47 47 47 0 47 47 47 47 47 47 47 47 47 0 
47 47 0 47 47 47 47 48 46 47 46 91 254 0 254 255 
255 255 255 0 255 255 255 255 255 255 255 255 255 255 255 255 
255 255 255 255 255 255 255 255 255 255 255 255 255 255 255 255 
255 255 255 0 255 255 254 196 0 255 255 255 255 255 255 255 255 255 255 254 
254 252 177 45 255 255 251 0 254 255 229 44 255 47 48 47 
47 47 47 47 47 47 47 47 47 47 47 47 47 47 47 47 
47 47 47 47 47 47 47 48 46 47 46 91 254 254 254 255 
255 255 255 255 255 255 255 255 255 255 255 255 255 255 255 255 
255 255 255 255 255 255 255 255 255 255 255 255 255 255 255 255 
255 255 255 254 255 255 254 196 194 255 0 255 255 255 255 255 255 255 255 254 
254 253 175 43 0 254 255 254 254 255 229 44 47 47 48 47 
47 47 47 47 47 255 47 47 47 255 47 47 47 47 47 47 
47 47 47 47 47 47 47 48 46 47 46 91 254 254 254 255 
0 255 255 255 255 255 255 255 255 255 255 255 255 255 255 255 
255 255 255 255 255 255 255 255 255 255 255 255 255 255 255 255 
255 255 255 254 255 255 254 195 194 255 255 255 255 255 255 255 255 255 255 254 
253 254 173 42 230 254 254 254 255 255 229 44 47 47 48 47 
47 47 47 47 47 47 47 47 47 47 47 47 47 47 0 47 
47 47 47 47 47 47 47 48 47 47 46 91 254 254 254 255 
255 255 255 255 255 255 255 255 255 255 255 255 255 255 255 255 
255 255 255 255 255 255 255 0 255 255 0 255 255 255 255 255 
255 255 255 254 255 255 254 195 194 255 0 255 255 255 255 255 255 255 255 254 
255 255 154 46 245 254 253 255 255 255 229 44 47 47 48 47 
47 255 47 47 47 47 255 47 47 47 47 47 47 47 47 47 
47 47 47 47 47 47 47 48 47 47 46 91 254 254 254 255 
0 255 255 255 255 255 255 255 255 255 255 255 255 255 255 255 
255 255 255 255 255 255 255 255 255 255 255 255 255 255 255 255 
255 0 255 254 254 255 255 195 255 255 254 255 255 255 255 255 255 255 255 255 
254 255 142 0 251 255 253 255 0 255 229 255 47 47 48 47 
47 47 47 47 47 47 255 47 47 47 47 47 47 47 47 47 
47 47 47 47 47 47 47 48 47 47 46 92 254 254 254 255 
255 255 0 255 255 255 255 255 255 255 255 255 255 255 255 255 
255 255 255 255 255 255 255 255 255 255 255 255 255 255 255 255 
255 255 255 254 254 255 254 195 193 255 254 255 255 255 0 255 255 255 255 254 
253 253 126 43 252 253 255 255 254 255 229 44 47 48 48 47 
47 47 47 47 47 47 47 47 47 47 47 47 47 47 47 47 
47 47 0 255 47 47 47 48 47 47 46 92 254 254 0 255 
255 255 255 255 255 255 255 255 255 255 255 255 255 255 0 255 
255 255 255 255 255 255 255 255 255 255 255 255 255 255 0 255 
255 255 255 254 254 255 254 195 193 255 254 255 255 255 255 255 255 255 255 254 
254 253 98 46 255 252 252 255 254 255 229 44 47 0 48 47 
47 47 47 47 47 47 47 47 47 255 47 47 47 47 47 47 
47 47 47 47 47 47 47 48 47 255 46 92 254 254 254 255 
255 0 255 255 255 255 255 255 255 255 255 255 255 0 255 255 
255 255 255 255 0 0 255 255 255 255 255 0 255 255 255 255 
255 255 255 253 255 253 254 0 177 253 253 255 255 255 255 255 255 255 255 253 
254 253 49 88 253 253 254 254 255 254 233 44 255 46 47 47 
47 0 47 47 47 47 47 47 47 47 47 47 47 47 47 47 
47 47 47 47 47 47 47 49 48 47 255 97 255 254 253 255 
255 255 255 255 255 255 255 255 255 255 255 255 255 255 255 255 
255 255 255 255 255 255 255 255 255 255 255 255 255 255 255 255 
255 255 255 254 251 253 254 208 171 254 254 255 255 255 255 255 255 255 255 251 
255 254 45 121 254 252 0 254 255 254 233 44 48 46 47 47 
0 47 47 47 47 0 47 47 47 47 47 47 47 47 255 255 
47 47 47 47 47 47 47 49 47 255 46 98 255 0 253 255 
255 255 255 255 255 255 255 255 0 255 0 255 255 255 255 255 
255 255 255 255 255 255 255 255 255 255 255 255 255 255 255 255 
255 255 255 254 250 253 252 215 168 0 255 255 0 255 255 255 255 255 255 253 
255 235 43 154 252 253 252 254 255 254 233 44 48 46 48 47 
47 47 255 255 47 47 47 47 47 47 47 47 47 47 47 47 
47 47 47 47 255 47 47 48 255 47 46 100 255 254 254 255 
255 255 255 255 255 255 255 255 255 0 255 255 255 255 255 255 
255 255 255 255 255 255 255 255 255 255 255 255 255 255 255 255 
255 255 255 254 255 254 254 218 168 254 252 255 255 255 255 255 255 255 0 253 
253 208 46 182 252 253 253 254 255 255 233 44 48 46 48 47 
0 47 47 47 47 47 0 47 47 47 0 47 47 47 47 47 
47 47 47 47 47 0 47 48 47 0 46 103 255 254 254 0 
255 255 255 255 255 255 255 255 255 0 255 255 255 255 255 255 
255 255 255 255 255 255 255 255 255 255 255 255 255 255 255 255 
255 255 255 254 255 254 254 226 160 254 252 255 255 255 255 255 255 255 255 253 
250 169 43 213 251 249 255 254 255 255 234 44 48 0 48 47 
0 47 47 47 47 47 47 47 0 0 47 255 47 47 47 47 
47 47 47 47 47 47 47 47 47 47 46 106 254 254 254 255 
255 255 255 255 255 255 255 255 255 255 255 255 255 255 255 255 
255 255 255 255 255 255 255 255 255 255 255 255 255 255 255 255 
255 255 255 255 255 254 254 241 144 0 254 255 255 255 255 255 255 255 255 252 
251 118 46 243 252 254 250 254 255 255 234 44 48 46 48 47 
47 47 47 47 47 47 47 0 47 47 47 47 47 47 47 47 
0 47 47 47 47 47 47 255 47 47 46 109 254 254 254 255 
255 255 255 255 255 255 255 0 255 255 255 255 255 255 255 255 
255 255 255 255 255 255 255 255 255 255 255 0 255 255 255 255 
0 255 255 255 252 254 254 253 131 255 253 255 255 255 255 255 255 255 255 254 
252 45 45 253 254 255 248 254 255 255 234 44 48 255 48 47 
47 47 47 47 47 47 47 47 47 47 47 47 47 47 47 47 
47 47 47 47 47 47 47 47 46 0 46 111 254 254 254 255 
255 255 255 255 255 255 255 255 255 255 255 255 255 255 255 255 
255 255 255 255 255 255 255 0 255 255 255 255 255 255 255 255 
255 255 255 253 255 254 254 255 126 255 253 255 255 255 255 255 255 255 255 255 
221 255 121 253 0 252 253 254 255 255 234 44 48 0 48 47 
255 47 47 47 47 47 47 47 47 255 47 47 47 47 47 47 
47 0 47 47 47 47 47 47 46 48 46 112 253 0 254 255 
255 255 255 255 255 255 255 255 255 255 255 255 255 255 255 255 
0 255 255 0 255 255 255 255 255 255 255 0 255 255 255 255 
255 255 255 254 252 252 252 252 115 252 254 252 253 255 254 254 0 254 252 252 
157 47 176 0 255 250 252 255 0 255 232 45 47 47 49 47 
47 0 47 47 0 47 47 47 0 47 47 47 47 47 47 47 
47 47 47 47 47 47 47 49 47 45 47 112 255 253 254 255 
255 255 255 255 255 255 255 255 255 255 255 255 255 255 255 255 
255 255 255 255 255 255 255 255 255 255 255 255 255 255 255 255 
255 255 255 254 254 253 253 254 0 233 254 254 254 251 254 254 255 251 252 252 
46 46 225 254 253 254 253 255 254 255 232 45 0 47 255 47 
47 47 47 47 47 47 47 0 47 47 47 47 47 255 47 47 
47 47 47 47 0 47 47 48 47 46 46 111 255 253 254 255 
255 255 255 255 255 255 255 255 255 255 255 255 255 255 255 255 
255 255 255 255 255 255 255 255 255 255 255 255 255 255 255 255 
255 255 255 255 253 254 251 254 192 96 253 253 255 254 254 255 0 253 0 128 
255 48 251 253 254 254 252 255 254 255 232 0 47 47 49 47 
47 47 47 47 255 47 47 47 47 47 47 47 47 47 255 47 
47 47 47 47 0 47 47 48 46 47 45 110 254 254 254 255 
255 255 255 255 255 255 255 255 255 255 255 255 255 255 255 255 
255 255 255 255 255 255 255 255 0 255 255 255 255 255 255 255 
255 255 255 253 250 252 255 252 243 48 255 254 250 255 0 252 254 251 132 0 
45 166 249 253 249 254 254 255 0 255 232 45 47 47 49 47 
47 47 0 0 47 47 47 47 0 47 47 47 47 47 47 47 
47 47 47 47 47 0 47 48 46 48 45 108 253 254 254 255 
255 255 255 255 0 255 0 255 0 255 255 255 255 255 255 255 
255 255 255 255 255 255 255 255 255 255 255 255 255 255 255 255 
255 255 255 254 254 255 252 252 255 107 48 48 164 214 255 221 176 49 46 44 
48 0 255 254 251 255 255 0 254 255 232 45 47 47 48 47 
47 47 47 47 47 47 47 47 47 255 47 47 0 47 255 255 
47 47 47 47 47 47 47 48 46 48 45 104 253 254 254 255 
255 255 255 255 255 255 255 255 255 255 255 255 255 255 255 255 
255 255 255 255 255 255 255 255 255 0 255 255 255 255 255 255 
255 255 255 254 253 253 254 0 253 236 50 255 47 46 45 46 44 46 48 42 
224 253 253 253 252 255 255 255 254 255 232 45 47 47 48 47 
47 47 0 47 47 47 47 47 47 47 47 47 47 47 47 47 
47 47 47 0 47 47 47 47 47 48 46 100 253 254 253 255 
255 255 255 255 255 255 255 0 255 255 255 255 255 255 255 255 
255 255 255 255 255 255 255 255 255 255 255 255 255 255 255 255 
255 255 255 254 254 254 254 253 251 253 234 62 43 46 255 47 45 46 56 0 
255 253 250 250 255 254 253 255 254 255 232 45 0 47 48 255 
47 47 47 47 47 47 47 47 47 47 47 47 47 47 47 47 
255 47 47 47 47 47 0 46 48 47 47 96 254 254 254 255 
255 255 255 255 255 255 255 255 255 255 255 255 255 255 255 255 
255 0 255 255 255 255 255 0 255 255 255 255 255 0 255 255 
255 255 255 250 254 254 253 254 254 253 253 254 191 121 0 75 123 188 253 251 
253 253 252 254 254 252 253 255 254 255 232 45 47 47 48 47 
0 255 47 47 47 47 255 47 47 47 47 47 47 47 47 47 
47 47 47 47 47 47 255 46 49 47 48 93 254 254 254 255 
255 255 255 255 255 255 255 255 255 255 255 255 255 255 255 255 
255 255 255 255 255 0 255 255 255 255 255 255 255 255 255 255 
255 255 255 255 255 255 255 255 255 255 255 255 255 255 255 255 255 255 255 255 
255 255 255 255 255 255 255 251 252 253 235 45 45 47 49 47 
47 47 47 47 47 47 47 47 47 47 47 47 47 47 0 47 
47 47 47 255 47 47 47 0 48 46 47 81 0 255 254 255 
255 255 255 255 255 255 255 255 255 255 255 255 255 255 255 255 
255 255 255 255 255 255 255 255 255 255 255 255 255 255 255 255 
255 255 255 255 255 255 255 255 255 255 255 255 255 255 255 255 255 255 255 255 
255 255 255 255 255 255 255 255 254 254 232 47 51 46 48 47 
47 47 47 47 47 47 47 47 255 47 47 47 47 47 47 47 
47 47 47 47 47 47 47 50 48 46 46 85 251 254 254 255 
255 255 255 255 255 255 255 255 255 255 255 255 255 255 255 255 
255 255 255 255 255 255 255 255 255 255 255 255 255 255 255 255 
255 255 255 255 255 255 255 255 255 255 255 255 255 255 255 255 255 255 255 255 
255 255 255 255 255 0 255 0 255 254 232 46 47 48 46 47 
47 47 47 47 47 47 47 47 47 47 47 47 47 0 47 47 
47 0 47 47 47 47 47 47 255 51 46 83 254 252 252 255 
255 255 255 255 255 255 255 255 255 255 255 255 255 255 255 255 
255 255 255 255 255 255 255 255 255 255 255 255 255 255 255 255 
255 255 255 255 255 255 255 255 255 255 255 255 255 255 255 255 255 255 255 255 
255 255 255 255 255 255 255 253 253 253 231 49 47 47 47 255 
47 47 47 47 47 47 47 47 47 47 0 47 47 47 47 47 
47 0 47 255 47 47 255 48 45 48 50 77 253 253 254 255 
255 255 255 255 255 255 255 255 255 255 255 255 255 255 255 255 
255 255 255 255 255 255 255 255 255 255 255 255 255 255 255 255 
255 255 255 255 255 255 255 255 0 255 255 255 255 255 255 255 255 255 255 255 
255 255 255 255 255 255 255 251 254 255 246 45 46 45 49 47 
47 47 47 47 47 47 47 47 47 47 47 47 47 47 47 47 
47 255 255 47 47 47 47 49 46 46 51 111 252 253 252 255 
255 255 255 255 255 255 255 255 255 0 255 255 255 255 255 0 
255 255 255 255 255 255 255 255 255 255 0 255 255 255 255 255 
255 255 255 255 255 255 255 255 255 255 255 255 255 255 255 255 255 255 255 255 
255 255 255 255 255 255 255 254 249 0 254 185 43 48 47 255 
47 47 47 47 47 47 47 255 47 47 47 255 47 47 47 47 
47 47 47 47 47 47 47 47 46 50 46 196 254 254 254 255 
255 255 255 255 255 255 255 255 255 255 255 255 255 255 255 255 
255 255 255 255 255 255 255 255 255 255 255 255 255 255 255 255 
255 255 255 255 255 255 255 255 255 255 255 0 255 255 255 255 255 255 255 255 
255 255 255 255 255 255 255 250 253 254 252 255 136 47 48 47 
47 47 47 47 47 47 47 47 47 0 47 47 47 47 47 47 
47 47 47 47 47 47 47 49 50 41 125 254 0 255 251 255 
255 255 255 255 255 255 255 255 255 255 255 255 255 255 255 255 
255 255 255 255 255 255 255 255 255 255 255 255 255 255 255 255 
255 255 255 255 255 255 255 255 255 255 255 255 255 255 255 255 255 255 255 255 
255 255 255 255 255 255 255 251 253 252 253 251 250 151 48 47 
47 47 47 47 47 47 47 47 47 47 47 47 0 47 47 47 
47 47 47 47 47 47 47 0 255 155 249 252 252 255 254 255 
255 255 255 255 255 255 255 255 255 255 255 255 255 255 255 255 
255 255 255 255 255 255 0 255 255 255 255 255 255 255 255 255 
255 255 0 255 255 255 0 255 255 255 255 255 255 0 255 255 255 255 255 255 
255 255 255 0 255 255 255 252 255 255 253 0 255 246 226 125 
43 44 45 48 50 46 47 45 46 47 48 48 48 47 46 49 
49 48 46 47 48 46 44 112 229 0 252 254 250 253 253 255 
255 255 255 255 255 255 255 255 255 255 255 255 255 255 255 255 
255 255 255 255 255 255 255 255 255 255 255 255 255 255 255 255 
255 255 255 255 255 255 255 255 255 255 255 255 255 255 255 255 0 255 255 255 
255 255 255 0 255 255 255 252 255 255 254 254 255 252 255 253 
247 189 113 44 49 44 50 45 46 47 47 47 0 46 45 49 
46 44 45 48 83 160 232 245 254 251 254 253 253 254 252 255 
255 255 255 255 255 255 255 255 255 255 255 255 255 255 255 255 
255 255 255 255 255 255 255 255 255 255 255 255 255 255 255 255 
255 255 255 255 255 255 255 255 255 255 255 0 255 255 255 255 255 255 255 255 
255 255 255 255 255 255 255 254 254 255 255 254 252 255 255 253 
254 254 254 254 225 193 166 150 130 119 124 124 119 130 255 163 
255 0 222 245 255 254 252 252 251 254 0 252 254 254 254 255 
255 255 255 255 255 255 255 255 255 255 255 255 255 255 255 255 
255 255 255 255 255 255 255 255 0 255 255 255 255 255 255 255 
255 255 255 255 255 255 0 255 255 255 255 255 255 255 255 255 255 255 255 255 
0 255 255 255 255 255 255 255 254 255 255 255 254 255 255 252 
255 254 254 252 254 254 250 253 254 0 0 255 255 254 254 255 
254 254 253 253 253 253 252 250 255 253 251 0 254 254 254 255 
255 255 255 255 0 255 255 255 255 255 255 0 255 255 255 255 
255 255 255 255 255 255 0 255 255 0 255 255 255 255 255 255 
255 255 255 255 255 255 255 255 255 255 255 255 255 255 255 255 255 0 0 255 
255 255 255 255 255 255 255 255 254 255 255 255 255 0 253 253 
252 254 253 255 255 254 251 255 255 253 253 253 254 255 255 252 
0 0 252 253 254 253 0 250 251 253 255 252 250 0 252 255 
255 255 255 255 255 0 255 255 255 255 255 255 255 255 255 255 
255 255 255 255 255 255 255 255 255 255 255 255 255 255 255 255 
255 255 255 255 255 255 255 255 255 255 255 255 255 255 255 255 255 255 255 255 
255 255 255 255 255 255 255 253 254 255 0 253 253 254 255 255 
254 252 253 252 252 252 254 253 253 254 254 0 0 253 253 253 
255 254 254 254 255 254 253 254 253 255 254 253 253 253 252 255 
255 255 255 255 255 255 255 255 255 255 255 255 255 255 255 255 
255 255 255 255 255 0 255 255 255 255 255 255 255 255 255 255 
255 0 255 255 255 255 255 255 255 255 255 255 0 255 255 255 255 255 255 255 
255 255 255 255 255 255 255 253 254 255 255 253 252 254 255 253 
254 255 254 253 254 254 0 255 0 254 254 254 254 254 255 252 
253 253 254 254 253 254 251 254 0 253 254 255 254 251 254 255 
255 255 255 255 255 255 255 255 255 255 255 255 255 0 0 255 
255 255 255 255 255 255 0 255 255 0 255 255 255 255 255 255 
255 255 255 255 0 255 255 255 255 255 255 255 255 255 255 255 255 0 255 255 
255 255 255 255 255 255 255 255 254 255 255 255 254 253 255 255 
255 255 253 253 253 253 253 255 253 254 255 0 254 254 255 255 
254 255 252 253 254 254 253 255 255 253 253 255 255 254 253 255 
255 255 255 255 255 255 255 255 255 0 255 255 255 255 255 255 
255 255 0 255 255 255 255 255 255 255 255 255 255 255 255 255 
255 255 255 255 255 255 255 255 255 255 255 255 255 255 255 255 255 255 255 255 
255 255 255 255 255 255 255 255 255 255 255 255 255 255 255 255 
255 255 255 255 255 255 255 255 0 255 255 255 255 255 255 255 
255 255 255 255 255 255 0 255 255 255 255 255 255 255 255 255 
0 255 255 255 255 255 255 255 255 255 255 255 255 255 255 0 
255 0 255 255 255 0 255 255 255 255 255 255 255 255 255 255 
255 255 255 255 255 255 255 0 255 255 255 0 255 255 255 255 255 255 255 255 
255 255 255 255 255 255 255 255 255 255 255 255 255 255 255 255 
255 255 255 255 255 255 255 255 255 255 255 255 255 255 255 255 
255 255 255 255 255 255 255 255 255 0 255 255 255 255 255 255 
255 255 255 255 255 255 255 255 255 0 255 255 255 255 255 255 
255 255 255 255 255 255 255 255 255 255 0 255 255 255 255 255 
255 255 255 255 255 255 255 255 255 255 255 255 255 255 255 0 255 255 255 255 
255 255 255 255 255 255 255 255 255 255 255 255 255 255 255 255 
255 255 255 255 255 255 255 255 255 255 255 255 255 255 255 255 
255 255 255 255 255 255 255 255 255 255 255 255 255 0 255 255 
255 255 255 255 255 255 255 255 255 255 255 255 255 255 255 255 
255 255 0 255 255 255 255 255 0 255 255 255 255 255 255 255 
255 255 255 255 255 255 255 255 255 255 255 255 255 255 255 255 255 255 255 255 
255 255 255 255 255 255 0 0 255 255 255 255 255 255 255 255 
255 0 255 255 255 255 255 255 255 255 255 255 255 255 255 255 
0 255 255 255 255 255 255 255 255 255 255 255 255 255 255 255 
255 255 255 255 255 255 255 255 255 255 255 255 255 255 255 255 
255 255 255 255 255 255 255 255 255 255 255 255 255 255 255 255 
255 255 255 