P2
# Created by IrfanView
100 100
255
0 255 255 255 255 255 255 255 255 255 255 255 255 255 255 255 255 255 255 255 255 255 255 255 255 255 255 255 255 255 255 255 255 255 255 255 255 255 255 255 255 255 255 255 255 255 255 254 254 254 254 254 254 254 254 254 254 254 254 254 254 254 254 254 254 255 255 255 255 255 255 255 255 255 255 255 255 255 0 0 255 255 255 255 255 255 255 255 255 255 255 255 255 255 255 255 255 255 0 0 
255 255 255 255 255 255 255 255 255 255 255 255 255 255 255 255 255 255 255 255 255 255 255 255 255 255 255 255 255 255 255 255 255 255 255 255 255 255 255 255 255 255 255 255 255 255 255 255 254 254 254 254 254 254 254 254 254 254 254 254 254 254 254 254 255 255 255 255 255 255 255 255 255 255 255 255 255 255 255 255 255 255 255 255 255 255 255 255 255 255 255 255 255 255 255 255 255 255 255 0 
255 255 255 255 255 255 255 255 255 255 255 255 255 255 255 255 255 255 255 255 255 255 255 255 255 255 255 255 255 255 255 255 255 255 255 255 255 255 255 255 255 255 255 255 255 255 255 255 254 254 254 254 254 254 254 254 254 254 254 254 254 254 254 255 255 255 255 255 255 255 255 255 255 255 255 255 255 255 255 255 255 255 255 255 255 255 255 255 255 255 255 255 255 255 255 255 255 255 255 0 
255 255 255 255 255 255 255 255 255 255 255 255 255 255 255 255 255 255 255 255 255 255 255 255 255 255 255 255 255 255 255 255 255 255 255 255 255 255 255 255 255 255 255 255 255 255 255 255 255 255 254 255 254 254 254 254 254 255 254 255 254 255 255 255 255 255 255 255 255 255 255 255 255 255 255 255 255 255 255 255 255 255 255 255 255 255 255 255 255 255 255 255 255 255 255 255 255 255 255 0 
255 255 255 255 255 255 255 255 255 255 255 255 255 255 255 255 255 255 255 255 255 255 255 255 255 255 255 255 255 255 255 255 255 255 255 255 255 255 255 255 255 255 255 255 255 255 255 255 255 255 255 255 255 255 255 255 255 255 255 255 255 255 255 255 255 255 255 255 255 255 255 255 255 255 255 255 255 255 255 255 255 255 255 255 255 255 255 255 255 255 255 255 255 255 255 255 255 255 255 0 
255 255 255 255 255 255 255 255 255 255 255 255 255 255 255 255 255 255 255 255 255 255 255 255 255 255 255 255 255 255 255 255 255 255 255 255 255 255 255 255 255 255 255 255 255 255 255 255 255 255 255 255 255 255 255 255 255 255 255 255 255 255 255 255 255 255 255 255 255 255 255 255 255 255 255 255 255 255 255 255 255 255 255 255 255 255 255 255 255 255 255 255 255 255 255 255 255 255 255 0 
255 255 255 255 255 255 255 255 255 255 255 255 255 255 255 255 255 255 255 255 255 255 255 255 255 255 255 255 255 255 255 255 255 255 255 255 255 255 255 255 255 255 255 255 255 255 255 255 255 255 255 255 255 255 255 255 255 255 255 255 255 255 255 255 255 255 255 255 255 255 255 255 255 255 255 255 255 255 255 255 255 255 255 255 255 255 255 255 255 255 255 255 255 255 255 255 255 255 255 0 
255 255 255 255 255 255 255 255 255 255 255 255 255 255 255 255 255 255 255 255 255 255 255 255 255 255 255 255 255 255 255 255 255 255 255 255 255 255 255 255 255 255 255 255 255 255 255 255 255 255 255 255 255 255 255 255 255 255 255 255 255 255 255 255 255 255 255 255 255 255 255 255 255 255 255 255 255 255 255 255 255 255 255 255 255 255 255 255 255 255 255 255 255 255 255 255 255 255 255 0 
255 255 255 255 255 255 255 255 255 255 255 255 255 255 255 255 255 255 255 255 255 255 255 255 255 255 254 254 254 255 255 255 255 255 255 255 255 255 255 255 255 255 255 255 255 255 254 254 255 255 255 255 255 255 255 255 255 255 255 255 255 255 255 255 255 255 255 255 255 255 255 255 255 255 255 255 255 255 254 255 255 255 255 255 255 255 255 255 255 255 255 255 255 255 255 255 255 255 255 0 
255 255 255 255 255 255 255 255 255 255 255 255 255 255 255 255 255 255 255 255 255 255 255 255 255 255 255 254 254 254 254 255 255 255 255 255 255 255 255 254 254 254 254 254 254 254 254 254 254 254 254 254 254 254 254 254 255 254 255 255 255 255 254 255 255 255 255 255 255 255 255 255 255 255 255 255 255 254 254 254 255 255 255 255 255 255 255 255 255 255 255 255 255 255 255 255 255 255 255 0 
255 255 255 255 255 255 255 255 255 255 255 255 255 255 255 255 255 255 255 255 255 255 255 255 255 255 255 255 254 254 254 254 255 255 254 254 253 253 252 252 246 246 246 246 246 246 246 246 249 249 249 249 249 249 249 249 249 249 249 251 252 252 252 255 255 255 255 255 255 255 255 255 255 255 255 255 255 255 254 254 255 255 255 255 255 255 255 255 255 255 255 255 255 255 255 255 255 255 255 0 
255 255 255 255 255 255 255 255 255 255 255 255 255 255 255 255 255 255 255 255 255 255 255 255 255 255 255 255 255 255 255 255 255 254 254 253 251 246 243 243 243 243 243 243 243 243 243 243 241 241 241 241 241 241 241 241 241 241 242 242 243 243 244 244 250 252 252 254 255 255 255 255 255 255 255 255 255 255 255 255 255 255 255 255 255 255 255 255 255 255 255 255 255 255 255 255 255 255 255 0 
255 255 255 255 255 255 255 255 255 255 255 255 255 255 255 255 255 255 255 255 255 255 255 255 255 255 255 255 255 255 255 255 252 251 248 246 243 240 240 240 242 242 242 242 242 242 242 241 240 240 240 240 240 240 240 240 241 241 241 240 239 239 239 238 242 243 245 248 251 253 254 255 255 255 255 255 255 255 255 255 255 255 255 255 255 255 255 255 255 255 255 255 255 255 255 255 255 255 255 0 
255 255 255 255 255 255 255 255 255 255 255 255 255 255 255 255 255 255 255 255 255 255 255 255 255 255 255 255 255 255 255 252 245 242 241 241 240 240 239 240 240 242 242 242 242 242 242 241 240 240 240 240 240 240 240 240 241 242 241 240 240 239 238 239 239 239 240 242 244 244 247 253 254 254 255 255 255 255 255 255 255 255 255 255 255 255 255 255 255 255 255 255 255 255 255 255 255 255 255 0 
255 255 255 255 255 255 255 255 255 255 255 255 255 255 255 255 255 255 255 255 255 255 255 255 255 255 255 255 253 250 247 242 239 239 239 239 239 239 239 240 240 242 242 242 242 242 242 240 240 240 240 238 240 238 240 240 242 242 242 243 243 243 242 242 240 239 239 238 238 240 241 247 254 254 254 255 255 255 255 255 255 255 255 255 255 255 255 255 255 255 255 255 255 255 255 255 255 255 255 0 
255 255 255 255 255 255 255 255 255 255 255 255 255 255 255 255 255 255 255 255 255 255 255 255 255 255 254 253 249 245 241 238 238 239 239 239 239 239 239 239 240 242 242 242 243 242 242 240 240 240 240 238 238 238 238 238 240 241 242 243 243 243 243 242 242 242 239 239 238 239 238 240 244 254 254 254 255 255 255 255 255 255 255 255 255 255 255 255 255 255 255 255 255 255 255 255 255 255 255 0 
255 255 255 255 255 255 255 255 255 255 255 255 255 255 255 255 255 254 254 254 254 254 254 249 240 240 240 239 238 237 237 237 237 238 239 239 239 239 238 239 241 241 242 242 242 242 242 240 240 236 240 240 237 239 235 236 236 237 237 238 239 239 238 238 242 242 243 241 239 239 240 237 240 240 247 253 254 255 255 254 255 255 255 255 255 255 255 255 255 255 255 255 255 255 255 255 255 255 255 0 
255 255 255 255 255 255 255 255 255 255 255 255 255 255 255 255 254 254 254 254 254 251 243 240 239 239 238 237 237 237 237 237 237 237 237 238 239 239 238 239 240 240 241 239 239 238 240 236 236 236 234 234 234 235 235 236 236 236 235 234 236 236 238 238 238 236 237 239 239 239 240 239 239 239 240 240 250 255 253 254 253 254 255 255 255 255 255 255 255 255 255 255 255 255 255 255 255 255 255 0 
255 255 255 255 255 255 255 255 255 255 255 255 255 255 255 255 254 254 254 253 248 240 236 236 238 238 237 237 236 236 237 236 236 237 237 238 238 238 238 238 239 239 239 237 237 234 233 236 229 229 230 231 231 234 235 236 236 235 234 233 235 235 237 237 235 235 235 235 236 238 239 240 239 239 238 240 250 254 254 254 254 254 254 254 255 255 255 255 255 255 255 255 255 255 255 255 255 255 255 0 
255 255 255 255 255 255 255 255 255 255 255 255 255 255 255 255 254 254 249 240 235 235 235 236 236 236 236 236 236 236 236 236 237 237 237 238 238 238 238 238 238 237 236 235 234 233 232 232 230 230 230 231 232 234 235 236 235 235 234 233 235 236 236 237 236 236 235 234 234 234 235 238 240 241 239 240 245 251 254 255 255 254 254 254 255 255 255 255 255 255 255 255 255 255 255 255 255 255 255 0 
255 255 255 255 255 255 255 255 255 255 255 255 255 255 255 253 249 248 237 235 235 236 236 236 236 236 235 235 235 236 236 236 237 237 238 239 240 240 239 239 238 236 235 232 231 230 230 230 230 231 231 231 232 233 234 235 234 234 234 235 235 235 236 235 236 236 234 234 233 233 233 234 238 240 241 240 240 244 251 253 254 254 255 255 255 255 255 255 255 255 255 255 255 255 255 255 255 255 255 0 
255 255 255 255 255 255 255 255 255 255 255 255 255 255 253 250 248 233 233 233 237 237 236 235 234 234 234 234 234 235 236 236 237 238 238 239 240 239 239 239 236 235 232 231 230 229 229 229 230 230 230 230 230 230 230 230 230 232 234 234 235 235 234 234 234 234 234 233 233 233 233 233 236 240 240 240 238 240 244 251 251 253 254 255 255 255 255 255 255 255 255 255 255 255 255 255 255 255 255 0 
255 255 255 255 255 255 255 255 255 255 255 255 255 253 252 248 239 233 233 237 237 233 232 233 233 233 233 233 234 235 236 236 236 237 238 238 239 239 239 238 235 233 230 229 228 228 229 229 229 229 227 226 226 226 226 226 226 227 227 228 228 229 229 229 230 231 232 232 233 233 233 232 234 231 238 238 237 239 240 241 244 250 253 254 255 255 255 255 255 255 255 255 255 255 255 255 255 255 255 0 
255 255 255 255 255 255 255 255 255 255 255 255 255 253 248 235 233 234 235 235 233 231 231 233 233 233 233 233 234 236 236 236 236 236 237 238 238 239 238 235 233 228 228 228 228 228 228 228 227 227 226 226 226 225 225 225 225 224 222 221 223 226 227 227 228 229 230 231 231 230 230 229 228 228 231 235 237 238 238 238 238 244 247 249 253 255 255 255 255 255 255 255 255 255 255 255 255 255 255 0 
255 255 255 255 255 255 255 255 255 254 254 255 255 252 240 234 233 234 234 234 231 230 232 233 233 233 233 233 236 237 236 236 236 236 236 236 237 238 235 229 228 227 228 228 227 228 227 225 224 224 224 224 222 221 220 221 220 220 220 220 220 221 224 224 225 225 226 227 228 228 228 227 227 228 227 230 235 235 236 236 236 238 238 243 248 253 255 255 255 254 255 255 255 255 255 255 255 255 255 0 
255 255 255 255 255 255 255 255 255 254 255 254 253 240 232 232 233 233 234 232 230 227 228 233 233 233 232 233 236 238 237 237 236 236 236 236 236 234 229 225 225 225 226 226 227 225 224 224 221 221 220 218 215 216 216 216 217 217 217 217 216 218 220 221 222 225 225 225 226 227 227 227 226 227 227 227 233 233 234 234 236 236 237 237 241 248 254 255 255 255 255 255 255 255 255 255 255 255 255 0 
255 255 255 255 255 255 255 255 255 255 255 253 244 234 231 232 232 232 232 230 228 225 227 232 232 232 232 233 236 238 238 238 237 236 236 235 235 229 224 224 225 225 225 225 224 223 222 221 218 217 215 213 213 211 211 212 212 214 212 214 215 213 216 212 217 220 220 221 222 224 225 226 225 225 225 227 231 232 233 233 236 236 237 236 236 241 250 255 255 255 255 255 255 255 255 255 255 255 255 0 
255 255 255 255 255 255 255 255 255 255 255 248 236 229 229 233 233 232 231 229 225 224 226 231 231 231 233 234 237 237 238 238 238 237 235 235 232 226 222 221 223 223 223 223 221 219 216 215 215 213 212 213 210 210 208 208 207 209 211 211 213 213 213 212 214 216 217 218 220 221 223 224 224 222 223 225 228 231 232 233 235 236 236 236 235 235 243 252 254 255 255 255 255 255 255 255 255 255 255 0 
255 255 255 255 255 255 255 255 255 255 253 237 230 228 229 233 233 231 229 227 223 223 225 230 231 232 234 236 237 237 237 238 237 235 234 233 231 223 221 220 221 219 221 218 218 214 206 207 212 212 212 211 210 206 206 206 205 205 207 208 209 209 208 208 212 215 215 217 217 220 222 222 219 220 221 223 225 229 232 232 234 236 236 236 234 234 235 243 250 254 255 255 254 254 255 255 255 255 255 0 
255 255 255 255 255 255 255 255 255 254 247 232 226 226 230 234 234 232 228 226 222 222 225 230 231 233 236 236 237 236 236 236 235 233 231 230 228 220 220 219 219 217 214 214 210 202 198 204 206 206 206 206 204 203 203 203 203 201 201 202 203 203 203 206 207 213 214 216 217 220 220 220 219 221 223 223 223 226 230 230 234 235 236 235 234 233 232 235 246 254 255 255 254 254 255 255 255 255 255 0 
255 255 255 255 255 255 255 255 255 255 247 232 225 227 232 235 235 232 228 225 221 221 225 231 233 234 237 237 236 236 234 234 233 230 228 228 224 218 216 216 216 212 211 210 207 200 196 195 196 199 199 198 198 198 198 198 198 195 195 195 196 197 198 203 206 213 217 214 219 220 220 220 227 224 223 223 222 222 226 226 234 235 235 235 234 232 232 232 240 250 255 255 255 254 254 255 255 255 255 0 
255 255 255 255 255 255 255 255 255 255 247 230 227 228 234 236 236 233 228 225 221 225 226 232 234 234 237 236 236 234 233 233 233 230 228 225 221 212 212 213 212 211 210 207 204 204 197 195 193 192 193 193 194 194 185 192 185 191 190 190 191 193 196 199 211 221 221 227 234 234 233 232 232 227 227 223 222 220 219 226 234 235 235 235 234 232 231 231 236 244 253 255 254 254 254 255 255 255 255 0 
255 255 255 255 255 255 255 255 255 255 237 227 227 230 234 236 236 235 233 226 225 226 230 232 234 235 235 235 235 233 231 230 229 228 228 226 217 208 207 207 207 207 207 201 201 199 195 189 186 189 188 190 188 190 183 183 183 179 179 179 180 193 195 218 224 227 228 234 236 235 234 235 234 235 231 227 225 221 219 221 230 233 235 235 234 232 231 231 232 238 249 254 254 253 254 254 255 255 255 0 
255 255 255 255 255 255 255 255 255 247 233 227 228 230 235 236 236 235 233 229 227 227 230 233 233 234 234 234 232 231 230 229 229 227 226 223 214 207 202 200 199 198 197 197 197 188 180 178 164 164 168 156 164 164 175 182 167 174 174 174 179 193 202 222 226 227 232 234 236 235 234 234 235 235 236 235 231 227 223 223 228 230 234 234 234 233 232 231 231 236 247 254 254 254 254 254 255 255 255 0 
255 255 255 255 255 255 255 255 255 244 230 228 230 234 236 236 235 234 233 229 228 229 231 233 233 233 233 232 231 230 230 229 227 227 223 219 214 201 201 193 196 196 196 186 173 173 173 160 155 158 158 161 167 175 178 170 167 167 164 166 189 202 208 220 224 227 230 232 233 234 234 234 235 236 236 238 235 233 227 226 227 228 232 234 234 235 233 231 231 233 242 253 254 254 254 254 255 255 255 0 
255 255 255 255 255 255 255 255 255 244 230 230 232 234 236 234 234 233 231 229 229 230 232 233 233 233 230 229 229 229 229 228 227 224 222 219 201 191 191 190 193 183 176 169 169 174 169 159 158 158 162 167 182 182 188 178 167 165 158 166 189 202 211 212 219 223 226 230 230 233 234 234 235 236 237 238 238 237 236 228 228 228 229 233 233 234 233 231 229 229 237 249 254 254 254 254 255 255 255 0 
255 255 255 255 255 255 255 255 255 244 233 233 234 235 234 233 231 231 229 229 230 231 232 232 232 230 228 228 228 228 228 227 223 223 221 219 170 176 170 183 183 180 179 188 179 188 174 195 195 214 221 225 229 225 225 223 196 177 167 166 189 202 211 212 214 217 222 230 230 232 233 233 234 235 233 236 238 237 237 236 228 229 229 230 230 233 232 231 228 228 232 244 254 254 254 254 255 255 255 0 
255 255 255 255 255 255 255 255 246 241 234 234 233 233 232 230 228 228 227 228 229 231 231 231 230 228 226 227 228 228 225 224 221 221 220 213 170 153 164 170 179 191 191 215 215 211 207 212 226 233 233 233 233 229 229 230 229 219 196 177 183 194 198 211 211 212 217 222 225 228 230 233 233 233 233 234 236 237 237 238 233 232 228 227 228 230 231 229 227 228 228 241 252 254 254 254 255 255 255 0 
255 255 255 255 255 255 255 255 241 240 233 233 233 232 231 229 228 226 224 227 228 230 230 230 229 226 225 226 228 226 224 219 219 219 213 200 153 135 157 164 180 199 223 231 216 215 216 227 234 234 233 230 229 223 229 229 229 229 229 211 177 194 194 198 206 207 212 217 221 225 228 230 231 232 232 233 234 236 237 237 238 238 227 226 230 229 229 229 227 225 228 238 251 254 254 254 255 255 255 0 
255 255 255 255 255 255 255 249 241 237 233 232 231 231 230 228 227 224 224 225 228 230 230 229 228 224 225 225 226 226 224 221 219 217 206 191 153 153 160 199 210 231 233 225 216 216 223 227 234 233 229 213 186 186 178 215 221 221 221 238 190 183 190 197 202 204 208 212 220 220 222 225 230 231 232 233 235 235 236 237 237 234 227 226 226 225 227 227 227 224 229 236 250 254 254 254 255 255 255 0 
255 255 255 255 255 255 253 245 240 233 232 231 231 231 229 227 224 217 217 224 228 230 228 227 225 223 223 225 225 226 219 221 216 213 206 191 160 160 202 220 233 233 231 223 216 216 212 208 179 175 175 193 193 182 178 186 215 221 221 229 215 173 191 187 187 197 207 209 217 220 220 222 227 230 232 233 235 233 235 237 237 235 230 227 225 222 225 226 227 224 229 234 247 254 254 254 255 255 255 0 
255 255 255 255 255 254 251 245 235 233 231 231 231 231 228 226 219 215 212 220 227 227 226 223 223 223 223 225 226 225 222 219 216 213 206 186 186 202 212 225 233 229 233 216 212 200 200 179 171 174 179 193 196 196 182 191 210 210 230 230 215 191 191 184 180 190 201 207 216 216 216 220 224 227 230 231 232 232 233 235 235 235 232 229 224 221 221 224 224 224 223 234 247 254 254 254 255 255 255 0 
255 255 255 255 255 254 247 240 233 231 231 231 231 231 227 224 219 212 210 219 224 224 223 223 223 223 224 225 225 225 222 219 214 211 206 187 199 222 220 225 226 233 216 185 195 210 194 181 181 190 213 232 235 238 235 210 210 215 215 230 223 215 184 176 180 179 190 203 211 213 216 220 222 225 229 231 231 232 233 234 235 235 235 232 225 221 221 224 222 221 223 230 246 254 254 254 255 255 255 0 
255 255 255 255 255 254 247 235 231 230 231 231 231 229 225 222 215 210 210 220 222 221 221 222 223 223 224 225 225 225 221 219 211 188 186 187 212 213 220 216 226 212 209 206 212 211 187 187 200 213 231 232 236 237 237 236 236 219 219 219 233 223 207 184 167 172 179 199 206 207 214 218 222 225 229 230 231 232 232 233 234 235 236 232 227 220 220 223 221 219 219 227 243 254 254 254 255 255 255 0 
255 255 255 255 255 252 243 231 230 229 230 231 231 229 223 222 215 209 209 220 221 220 221 221 221 222 223 224 225 224 221 218 207 168 168 187 203 218 218 219 223 216 209 211 218 218 187 187 210 223 227 230 230 235 237 235 226 215 217 217 217 230 228 207 168 164 172 199 205 206 209 216 219 223 226 227 230 231 232 233 234 234 235 235 228 220 220 219 220 219 219 224 237 249 254 254 255 255 255 0 
255 255 255 255 255 251 238 230 226 228 229 231 231 228 222 219 212 208 209 220 220 220 220 221 221 221 222 223 223 223 220 217 188 167 159 188 215 216 216 220 222 216 208 209 218 209 187 207 219 222 223 225 227 187 187 215 199 200 199 206 206 218 228 219 168 157 164 197 204 205 206 212 216 219 223 225 227 228 229 231 233 234 234 234 230 221 219 218 219 219 220 224 234 234 251 254 255 255 255 0 
255 254 254 254 252 248 238 230 225 226 228 231 231 227 221 217 207 207 218 220 219 218 218 220 219 220 221 222 222 222 218 214 179 150 175 189 213 216 216 218 222 215 196 204 213 209 208 213 220 221 221 221 189 178 187 178 199 196 174 167 174 186 219 228 198 156 157 184 199 205 206 212 216 219 223 225 226 227 229 231 231 231 233 233 232 225 218 217 217 219 220 221 229 229 244 254 255 255 255 0 
254 254 254 254 252 247 238 227 226 228 228 231 230 227 221 216 207 205 208 218 217 216 219 220 219 219 220 221 221 221 217 193 179 146 146 211 213 215 216 218 216 196 189 205 209 213 213 213 220 221 221 203 189 187 178 187 196 196 196 167 167 180 219 227 219 156 170 184 199 206 210 214 214 218 222 225 226 227 228 229 230 229 230 231 228 225 216 212 215 220 220 221 224 229 233 254 255 255 255 0 
255 254 254 254 253 242 231 226 226 228 229 230 229 225 220 216 205 202 205 216 216 215 215 219 218 218 219 219 219 219 217 193 162 148 150 195 213 218 218 218 215 196 189 205 213 214 213 214 221 211 221 211 203 221 222 222 219 200 220 196 179 179 219 225 225 187 170 170 191 205 210 212 217 219 222 224 225 226 227 227 227 226 227 228 227 225 216 212 217 220 220 220 222 224 233 253 254 255 255 0 
255 254 255 255 255 243 231 226 226 227 229 229 229 225 219 215 204 195 198 215 215 217 215 214 216 214 216 219 219 219 219 193 162 170 170 195 221 221 221 218 214 182 199 205 213 213 214 214 216 214 209 211 226 226 230 228 228 228 227 219 197 197 225 225 220 193 155 177 181 205 205 210 217 218 221 222 224 224 223 225 225 225 227 227 228 225 216 214 214 220 220 221 222 223 225 249 254 255 254 0 
255 254 255 255 255 244 232 226 225 226 228 229 229 224 215 209 204 195 195 209 220 216 212 212 216 214 217 219 219 219 213 190 190 181 195 209 221 221 218 217 214 181 196 199 205 205 214 216 211 211 211 219 219 226 230 228 234 232 227 209 197 205 225 220 222 203 155 162 181 204 210 216 217 216 217 221 222 223 223 225 225 225 227 230 230 227 222 217 217 221 221 223 222 221 223 242 254 254 254 0 
254 254 255 255 255 247 234 225 224 225 228 229 228 223 216 209 203 196 193 195 215 211 215 212 216 214 216 217 219 217 206 181 195 195 212 212 214 214 214 214 214 181 181 183 195 204 204 205 202 209 219 219 207 205 226 234 234 232 228 209 203 205 205 220 220 203 162 174 192 207 218 218 216 216 216 217 221 223 224 225 225 226 230 232 234 230 227 222 221 221 224 225 223 221 225 235 253 254 254 0 
255 254 255 255 255 249 236 224 222 224 227 228 227 223 219 215 203 196 193 197 211 211 213 212 213 214 215 217 217 217 200 181 190 190 209 214 214 214 214 217 217 194 195 195 195 196 204 199 199 201 219 215 202 183 202 214 228 232 240 227 203 202 205 219 219 200 174 192 205 217 228 224 218 218 216 217 220 222 224 225 225 226 227 234 233 229 227 226 226 226 226 226 225 220 221 231 253 254 253 0 
255 254 254 254 254 252 238 224 221 222 224 226 226 225 223 219 203 198 197 203 215 215 212 212 210 213 214 217 217 217 200 129 180 180 202 208 213 214 219 219 194 194 196 195 195 204 199 195 193 199 204 202 183 167 158 163 184 214 227 220 205 205 217 219 219 193 179 200 222 228 228 229 228 225 219 219 220 221 221 221 221 223 225 226 227 227 226 226 227 226 226 226 224 219 219 231 252 253 253 0 
255 254 254 254 254 254 239 223 221 221 223 224 226 226 223 220 207 203 200 213 216 216 216 209 209 210 211 217 217 214 195 131 131 180 194 208 208 213 220 220 194 191 194 195 196 199 193 182 184 194 202 202 189 158 155 151 152 163 197 210 207 210 214 217 214 179 179 219 228 228 229 233 231 228 220 220 221 222 220 220 221 222 222 222 223 225 226 226 227 229 225 224 222 218 218 229 252 253 252 0 
254 255 254 255 255 254 240 223 223 221 222 224 226 226 225 221 213 207 207 215 218 218 216 210 210 208 209 216 214 214 211 131 163 180 202 204 207 209 215 213 200 191 188 187 188 188 188 182 194 195 202 195 189 175 155 142 138 134 140 197 200 205 210 209 209 162 197 223 228 229 231 234 234 231 231 221 222 222 221 220 220 221 222 222 223 225 225 225 227 226 225 223 221 219 223 226 252 253 253 0 
254 255 255 255 255 255 245 229 224 221 220 223 225 227 225 221 217 217 218 218 218 218 216 214 213 209 209 215 215 215 215 189 163 163 194 203 204 205 209 206 206 202 190 180 178 180 181 187 194 196 195 188 181 175 174 150 124 123 140 197 199 197 199 207 161 159 204 224 227 229 233 234 234 233 233 229 222 222 222 220 219 220 221 222 226 226 225 225 226 226 225 222 221 219 222 226 253 253 253 0 
253 255 255 255 255 255 248 233 224 217 218 218 221 225 224 219 219 221 228 227 227 223 219 220 218 213 218 215 215 211 215 187 136 150 177 203 200 200 203 209 210 202 190 180 180 180 187 188 201 195 190 186 183 177 174 141 131 131 158 199 199 186 189 185 154 164 204 224 229 230 234 235 234 235 234 230 220 222 218 219 219 219 220 223 226 225 224 223 224 225 225 221 219 219 223 225 253 254 254 0 
254 255 255 255 255 255 252 241 228 222 219 218 219 221 220 219 219 228 231 231 230 229 227 224 220 220 219 219 212 205 192 169 136 136 150 196 196 199 199 197 201 204 204 202 188 181 188 201 201 191 190 186 183 175 174 161 158 158 194 202 197 189 185 185 164 189 215 229 230 231 234 235 234 234 232 218 218 218 216 218 219 219 220 222 225 224 224 223 222 224 224 221 217 217 219 225 253 254 253 0 
255 255 255 255 255 255 255 248 233 223 220 218 218 220 219 219 219 234 231 231 231 231 229 231 229 229 226 219 218 205 192 178 151 128 131 169 191 196 197 194 196 202 201 200 198 198 205 205 198 199 198 190 186 180 175 175 175 194 197 202 189 185 175 168 164 191 222 231 230 234 234 235 233 233 232 230 217 215 216 216 218 218 219 222 224 224 224 222 221 222 222 222 214 214 219 225 234 254 0 0 
255 255 255 255 255 255 255 254 233 223 220 219 218 218 215 215 215 234 234 230 233 233 233 234 233 232 232 226 219 204 201 178 151 133 138 152 179 193 194 193 194 200 200 188 188 198 201 205 199 198 198 195 191 186 186 186 194 199 201 198 170 170 165 144 171 211 224 231 228 236 234 233 231 232 232 232 211 211 215 216 216 217 218 221 224 224 223 222 220 222 222 222 214 214 219 228 243 254 0 0 
254 255 255 255 255 255 255 254 232 222 221 219 216 215 214 211 211 234 225 227 229 233 233 235 234 233 235 232 226 218 204 181 156 141 152 157 161 179 184 191 192 187 187 186 184 178 174 174 181 194 184 194 188 188 190 194 194 198 196 196 165 132 142 134 175 223 224 229 229 231 231 231 231 231 232 231 211 209 214 215 216 216 217 220 223 223 222 221 220 221 223 222 214 214 223 243 254 255 255 0 
254 254 255 255 255 255 255 254 231 223 222 221 216 215 212 206 211 234 225 225 227 230 232 233 233 234 235 234 230 230 209 200 181 157 157 161 161 163 167 184 184 177 180 180 179 174 168 177 183 183 190 186 187 188 186 194 194 195 195 191 162 132 116 165 205 223 224 229 229 229 231 230 229 229 231 231 209 207 211 214 215 216 217 219 222 222 221 220 220 220 224 223 214 214 223 253 255 255 255 0 
254 255 255 255 255 255 254 254 230 223 223 222 220 216 204 204 201 226 226 225 225 225 229 230 230 230 234 234 234 235 230 226 209 181 175 174 166 163 163 166 175 174 175 179 179 179 184 183 183 182 183 184 186 187 187 188 189 191 185 162 130 116 142 183 221 223 225 231 232 230 231 229 229 231 231 231 207 203 207 213 213 215 217 219 221 220 220 219 219 220 224 224 215 215 228 254 255 255 255 0 
255 255 255 255 255 255 255 254 237 225 223 221 221 216 204 201 205 214 228 225 225 223 225 229 230 230 231 234 235 235 234 235 235 223 206 193 185 175 167 159 163 166 174 179 184 184 188 185 185 185 183 184 184 188 188 186 184 177 157 122 121 121 164 220 223 224 228 231 232 231 231 229 228 231 231 228 203 197 205 207 213 215 217 219 220 219 217 219 219 221 224 220 215 219 249 254 255 255 255 0 
255 255 255 255 255 255 254 254 244 227 219 219 216 215 203 201 200 205 222 223 223 222 222 222 229 230 231 233 233 234 234 234 235 235 235 223 214 200 185 175 163 166 170 170 184 182 182 182 182 183 183 183 184 184 184 179 177 139 131 130 122 160 204 221 224 225 228 230 231 231 229 229 228 229 231 228 203 188 197 206 212 217 220 221 219 217 217 217 219 220 224 210 219 231 253 254 254 255 255 0 
255 255 255 255 255 255 254 254 252 233 219 217 215 213 203 201 197 201 214 224 224 222 222 221 227 230 230 231 233 233 234 233 234 234 235 236 236 229 217 209 187 180 180 183 173 173 173 174 176 176 181 183 183 181 176 167 139 138 135 145 160 198 220 224 224 226 227 228 229 229 228 228 225 225 229 228 219 197 179 206 210 216 217 219 217 216 215 215 218 225 220 214 226 247 254 254 254 255 255 0 
255 255 255 255 255 255 254 254 254 233 219 215 215 211 204 200 197 197 205 224 225 225 223 221 221 227 227 230 231 233 233 233 234 235 236 236 236 232 235 232 231 223 210 196 183 173 173 174 169 174 176 183 183 176 160 136 125 131 139 170 192 204 220 224 226 226 226 227 227 227 227 227 225 227 226 225 196 180 190 203 203 210 217 217 217 216 215 215 218 219 213 224 237 254 254 254 254 255 255 0 
255 255 255 255 255 255 254 254 252 236 221 217 216 211 207 199 196 193 196 213 225 225 223 222 220 221 224 226 229 231 233 234 233 235 235 235 235 233 233 235 235 236 233 231 230 221 211 205 202 202 199 199 197 182 173 152 135 145 170 192 212 219 223 225 227 226 225 225 225 225 225 225 227 227 226 196 184 191 190 205 208 211 216 219 219 217 216 216 219 222 222 229 254 254 254 254 254 255 255 0 
255 255 255 255 255 255 254 254 252 243 221 218 217 215 207 199 194 193 193 198 218 223 226 222 220 220 220 221 221 225 229 232 232 232 233 235 236 233 233 233 233 235 236 233 231 231 231 231 231 235 231 229 236 236 220 191 169 170 193 212 219 221 225 228 227 226 225 224 223 223 224 225 227 226 212 196 184 191 191 205 211 216 219 220 219 218 217 218 221 224 224 246 254 254 254 254 255 255 255 0 
255 255 255 255 255 255 254 254 254 239 227 218 217 215 208 200 198 194 193 192 202 220 222 223 221 220 220 220 220 220 225 225 228 228 229 232 233 235 233 233 232 232 233 233 233 234 234 235 235 237 237 231 236 232 232 230 193 193 209 221 222 225 227 229 227 227 224 222 221 222 222 224 226 224 199 193 191 191 205 211 218 218 219 218 218 217 217 223 225 233 244 254 254 254 254 254 255 255 255 0 
255 255 255 255 255 255 254 254 254 247 229 217 215 215 209 201 201 198 197 197 202 213 216 221 220 220 219 219 219 219 221 222 224 227 227 227 229 230 230 231 230 231 231 233 233 233 234 232 235 235 232 234 234 232 232 230 210 218 223 223 226 227 227 227 227 226 223 222 221 222 223 224 223 222 199 196 199 202 209 218 219 218 218 214 215 217 219 227 233 246 254 254 254 254 254 254 255 255 255 0 
255 255 255 255 255 255 254 254 254 254 241 217 215 213 209 203 201 201 198 200 207 212 213 216 219 219 217 214 214 213 216 220 222 224 225 227 223 223 228 229 230 228 228 230 231 232 233 234 235 236 234 234 234 232 230 224 219 224 226 228 228 228 227 227 226 222 222 220 222 224 223 225 222 210 203 203 205 209 212 218 218 216 211 212 213 219 224 229 254 254 254 254 254 254 255 255 255 255 255 0 
255 255 255 255 255 255 254 254 254 254 247 242 216 212 211 208 203 199 199 200 207 210 212 213 216 217 217 214 213 210 213 214 214 214 219 219 220 219 221 224 227 225 223 221 222 227 230 232 235 235 234 234 233 230 229 226 226 226 228 230 228 228 227 226 221 219 219 219 222 224 225 227 222 210 205 206 209 211 212 212 212 211 211 213 213 219 227 237 254 255 254 254 254 255 255 255 255 255 255 0 
255 255 255 255 255 255 254 254 254 254 253 253 238 212 212 207 204 200 199 200 206 210 210 210 211 215 217 216 212 210 210 210 212 212 210 209 210 213 216 221 221 223 222 221 221 221 222 226 230 232 233 233 233 229 227 227 229 229 229 230 228 226 226 221 220 219 219 219 220 222 222 222 222 205 205 206 209 210 211 210 208 208 213 213 216 222 236 249 255 255 255 255 255 255 255 255 255 255 255 0 
255 255 255 255 255 255 254 254 254 254 254 254 251 218 211 207 203 199 199 198 205 209 209 210 210 210 215 216 211 210 210 210 210 210 208 207 210 210 212 213 218 221 221 220 219 220 220 222 222 225 230 231 231 229 228 229 229 228 228 226 226 224 221 220 220 220 219 220 222 222 222 222 209 205 202 205 209 209 209 209 211 211 213 215 222 232 245 254 255 255 255 255 255 254 255 255 255 255 255 0 
255 255 255 255 255 255 254 254 254 254 254 254 251 231 224 207 203 200 198 200 203 208 210 210 210 211 211 211 210 210 210 211 210 206 206 206 207 206 208 210 213 216 217 217 215 219 221 221 222 225 226 230 230 228 229 228 228 226 226 226 222 221 220 220 219 219 220 223 223 222 220 205 205 200 200 202 202 207 209 209 209 215 216 222 232 244 253 255 255 255 255 255 255 255 255 255 255 255 255 0 
255 255 255 255 255 255 254 254 254 254 254 254 254 246 225 209 205 200 196 197 200 207 210 210 211 210 209 205 200 205 210 211 210 211 206 202 202 206 208 209 210 208 208 210 214 217 220 221 221 222 223 226 226 227 229 228 228 225 225 223 220 218 215 215 214 217 220 220 223 203 200 198 196 194 196 200 200 207 209 215 217 217 225 233 244 253 255 255 255 255 255 255 255 255 255 255 255 255 255 0 
255 255 255 255 255 255 254 254 254 254 254 254 253 254 244 225 209 202 195 195 197 204 209 209 210 210 209 205 200 200 199 205 210 211 211 210 203 206 208 211 211 208 210 210 214 218 220 220 220 216 222 225 226 225 225 226 219 218 218 217 214 213 213 213 214 215 218 220 217 195 191 193 191 193 194 196 200 207 210 214 217 223 230 244 253 254 255 255 255 255 255 255 255 255 255 255 255 255 255 0 
255 255 255 255 255 255 255 254 254 254 254 254 254 254 254 246 213 205 195 195 195 201 209 209 209 209 207 205 205 200 199 195 200 207 207 203 206 208 212 212 211 212 212 214 218 215 214 206 206 212 221 224 225 224 224 221 218 213 211 210 209 209 213 209 214 217 217 209 201 186 184 190 191 192 194 198 203 210 212 217 225 245 246 252 254 255 255 255 255 255 255 255 255 255 255 255 255 255 255 0 
255 255 255 255 255 255 255 255 255 255 255 255 254 254 254 254 246 241 205 196 195 193 195 209 210 210 210 205 205 202 199 199 195 192 192 192 198 206 211 211 212 211 213 212 196 186 186 196 202 212 217 223 219 219 216 216 212 211 210 210 209 209 209 209 214 209 207 195 195 186 190 190 190 194 198 203 210 212 216 235 248 248 250 254 255 255 255 255 255 255 255 255 255 255 255 255 255 255 255 0 
255 255 255 255 255 255 255 255 255 255 255 255 255 255 255 254 253 253 246 196 196 193 202 202 213 219 213 211 207 205 205 202 199 195 192 192 193 191 188 185 184 183 177 171 172 177 192 202 212 217 215 215 216 216 212 209 208 208 208 210 210 210 214 215 208 165 177 177 177 195 190 186 186 192 203 206 211 230 249 249 249 253 253 255 255 255 255 255 255 255 255 255 255 255 255 255 255 255 255 0 
255 255 255 255 255 255 255 255 255 255 255 255 255 255 255 255 254 253 253 253 242 209 202 219 220 220 220 216 213 213 211 209 207 205 201 197 197 193 188 187 185 183 177 171 171 192 206 207 215 215 215 215 213 210 204 204 197 204 197 210 219 217 215 187 156 150 136 149 177 177 165 165 185 185 199 210 230 242 252 253 253 253 255 255 255 255 255 255 255 255 255 255 255 255 255 255 255 255 0 0 
255 255 255 255 255 255 255 255 255 255 255 255 255 255 255 255 254 253 253 254 254 254 250 229 227 226 226 220 216 215 214 214 216 211 212 213 213 213 213 213 213 212 212 203 201 206 207 207 206 213 214 213 207 207 207 207 207 203 207 211 219 204 187 156 149 147 140 146 145 140 140 146 148 164 185 203 242 252 254 254 255 255 255 255 255 255 255 255 255 255 255 255 255 255 255 255 255 255 255 0 
255 255 255 255 255 255 255 255 255 255 255 255 255 255 255 255 254 254 254 254 254 254 254 250 250 241 235 227 217 215 215 214 215 216 216 216 216 215 215 215 217 220 217 214 212 209 203 207 206 213 213 207 207 207 212 216 216 207 207 204 203 178 171 156 149 149 147 147 146 143 146 146 150 164 176 210 246 254 254 255 255 255 255 255 255 255 255 255 255 255 255 255 255 255 255 255 255 255 255 0 
255 255 255 255 255 255 255 255 255 255 255 255 255 255 255 255 254 254 254 254 250 250 254 254 254 252 247 240 235 226 217 214 214 215 216 216 216 216 215 217 217 220 220 220 212 209 191 179 191 207 207 207 207 207 212 216 212 207 191 183 178 178 177 177 177 168 157 157 157 158 158 158 176 182 186 212 246 254 254 255 255 255 255 255 255 255 255 255 255 255 255 255 255 255 255 255 255 255 255 0 
255 255 255 255 255 255 255 255 255 255 255 255 255 255 255 255 254 254 254 254 254 253 253 254 254 254 254 252 245 235 222 215 215 214 214 214 214 215 214 211 212 214 220 217 210 207 196 179 170 170 179 191 193 193 182 172 163 163 175 175 182 183 185 188 188 188 183 188 177 177 182 183 183 183 208 214 246 254 255 255 255 255 255 255 255 255 255 255 255 255 255 255 255 255 255 255 255 255 255 0 
255 255 255 255 255 255 255 255 255 255 255 255 255 255 255 255 254 254 254 254 254 254 254 254 254 254 254 254 252 251 243 222 222 215 214 214 213 212 211 211 212 212 213 213 207 199 196 176 173 170 179 169 169 158 154 154 162 172 175 182 185 191 191 197 197 197 195 195 194 191 189 186 185 189 207 214 255 255 255 255 254 255 255 255 255 255 255 255 255 255 255 255 255 255 255 255 255 255 255 0 
255 255 255 255 255 255 255 255 255 255 255 255 255 255 255 255 254 254 254 254 254 254 254 254 254 254 254 254 254 253 250 244 224 222 216 218 214 213 212 212 213 213 213 212 208 207 207 197 188 180 184 169 156 154 154 158 177 180 181 185 190 197 199 200 201 201 203 198 198 198 198 194 191 191 210 236 255 255 255 255 255 255 255 255 255 255 255 255 255 255 255 255 255 255 255 255 255 255 255 0 
255 255 255 255 255 255 255 255 255 255 255 255 255 255 255 255 254 254 254 254 254 254 254 254 254 254 254 254 254 254 254 250 248 243 227 227 221 213 216 215 220 218 213 213 213 208 199 199 187 188 187 180 156 156 169 184 187 188 190 192 197 201 202 202 201 201 201 204 204 199 198 199 204 210 236 248 255 255 254 255 255 255 255 255 255 255 255 255 255 255 255 255 255 255 255 255 255 255 255 0 
255 255 255 255 255 255 255 255 255 255 255 255 255 255 255 255 254 254 254 254 255 255 255 255 254 254 255 255 255 255 255 255 255 254 249 243 233 227 226 222 220 215 213 208 208 208 199 187 175 175 172 172 167 184 187 194 199 201 199 201 204 202 205 205 202 201 200 204 203 200 200 204 225 236 248 255 255 252 254 255 255 255 255 255 255 255 255 255 255 255 255 255 255 255 255 255 255 255 255 0 
255 255 255 255 255 255 255 255 255 255 255 255 255 255 255 255 255 255 254 255 255 255 255 255 255 255 255 255 255 255 255 255 255 254 254 253 250 247 245 243 238 214 211 183 160 160 160 161 163 165 172 172 189 197 202 204 205 205 205 204 203 205 203 204 202 200 200 199 198 198 204 219 236 248 255 255 254 254 254 254 255 255 255 255 255 255 255 255 255 255 255 255 255 255 255 255 255 255 255 0 
255 255 255 255 255 255 255 255 255 255 255 255 255 255 255 255 255 255 255 255 255 255 255 255 255 255 255 255 255 255 255 255 255 254 254 255 255 255 255 254 248 243 238 183 169 149 161 161 164 170 180 188 188 197 202 202 205 205 204 200 203 199 200 201 197 199 255 200 197 204 219 233 253 255 255 254 254 254 254 254 255 255 255 255 255 255 255 255 255 255 255 255 255 255 255 255 255 255 255 0 
255 255 255 255 255 255 255 255 255 255 255 255 255 255 255 255 255 255 255 255 255 255 255 255 255 255 255 255 255 255 255 254 254 254 254 254 255 255 255 254 254 250 250 249 214 183 175 175 177 180 186 189 194 194 195 199 205 205 200 199 199 195 195 194 189 196 205 218 204 219 233 254 254 254 252 254 254 254 254 254 255 255 255 255 255 255 255 255 255 255 255 255 255 255 255 255 255 255 255 0 
255 255 255 255 255 255 255 255 255 255 255 255 255 255 255 255 255 255 255 255 255 255 255 255 255 255 255 255 255 255 255 254 254 254 254 254 254 254 254 254 254 254 253 252 252 244 205 179 179 179 184 188 188 189 189 189 192 195 194 194 193 192 190 189 187 194 212 218 230 250 254 254 254 254 253 254 254 254 254 254 255 255 255 255 255 255 255 255 255 255 255 255 255 255 255 255 255 255 255 0 
255 255 255 255 255 255 255 255 255 255 255 255 255 255 255 255 255 255 255 255 255 255 255 255 255 255 255 255 255 255 255 254 254 254 254 254 254 254 254 254 255 255 255 255 254 254 252 211 205 179 182 185 188 188 188 187 188 187 190 192 192 192 190 191 191 212 230 230 254 254 254 254 255 255 255 255 254 254 254 255 255 255 255 255 255 255 255 255 255 255 255 255 255 255 255 255 255 255 255 0 
255 255 255 255 255 255 255 255 255 255 255 255 255 255 255 255 255 255 255 255 255 255 255 255 255 255 255 255 255 255 255 255 255 255 255 255 255 255 255 255 255 255 255 255 255 254 254 254 236 206 182 185 186 188 188 188 188 188 190 190 209 209 221 229 255 254 254 254 254 254 254 255 255 255 255 255 255 255 255 255 255 255 255 255 255 255 255 255 255 255 255 255 255 255 255 255 255 255 255 0 
255 255 255 255 255 255 255 255 255 255 255 255 255 255 255 255 255 255 255 255 255 255 255 255 255 255 255 255 255 255 255 255 255 255 255 255 255 255 255 255 255 255 255 255 255 254 254 254 254 254 248 239 238 239 239 239 238 238 238 239 243 249 254 254 255 255 255 255 255 255 255 255 255 255 255 255 255 255 255 255 255 255 255 255 255 255 255 255 255 255 255 255 255 255 255 255 255 255 255 0 
255 255 255 255 255 255 255 255 255 255 255 255 255 255 255 255 255 255 255 255 255 255 255 255 255 255 255 255 255 255 255 255 255 255 255 255 255 255 255 255 255 255 255 255 255 254 254 254 254 254 248 239 239 238 239 238 238 238 238 239 243 249 254 254 254 255 255 255 255 255 255 255 255 255 255 255 255 255 255 255 255 255 255 255 255 255 255 255 255 255 255 255 255 255 255 255 255 255 0 0 
0 0 0 0 0 0 0 0 0 0 0 0 0 0 0 0 0 0 0 0 0 0 0 0 0 0 0 0 0 0 0 0 0 0 0 0 0 0 0 0 0 0 0 0 0 0 0 0 0 0 0 0 0 0 0 0 0 0 0 0 0 0 0 0 0 0 0 0 0 0 0 0 0 0 0 0 0 0 0 0 0 0 0 0 0 0 0 0 0 0 0 0 0 0 0 0 0 0 0 0 
