P2
# Created by IrfanView
100 100
255
255 255 255 255 255 255 255 255 255 255 255 255 255 255 255 255 255 
255 255 0 255 255 255 255 255 255 255 255 255 255 255 255 255 
255 255 255 255 255 255 255 255 255 255 255 255 255 255 254 254 
254 254 255 255 254 254 254 254 254 254 254 254 254 254 254 255 
255 255 255 0 255 255 255 255 255 255 255 255 255 0 0 255 
255 255 255 255 255 255 255 255 255 255 0 255 255 255 255 255 
255 255 255 255 255 255 255 255 255 255 255 255 255 255 255 255 255 255 255 255 
255 255 255 255 255 255 255 255 255 255 255 255 255 255 255 255 
255 255 255 255 255 0 255 255 255 0 255 255 255 255 255 0 
254 254 254 254 254 254 254 254 254 254 254 254 254 254 254 255 
255 255 255 255 255 255 255 255 255 255 255 255 255 255 255 255 
255 0 255 255 255 255 255 255 255 255 255 255 255 255 255 255 
255 255 255 255 255 255 255 255 255 255 255 255 255 255 255 255 255 255 255 255 
255 255 255 255 255 0 255 255 255 255 0 255 255 255 255 255 
255 255 255 255 255 255 255 255 255 255 255 255 255 255 255 0 
254 254 254 254 254 254 254 254 254 254 254 254 254 254 254 255 
255 255 255 0 255 255 255 255 255 255 255 255 255 255 255 255 
255 255 255 255 255 255 255 255 255 255 255 255 255 255 255 255 
255 255 255 255 255 255 255 255 255 255 255 255 255 255 255 255 255 255 255 255 
255 255 255 255 255 255 255 255 255 255 255 255 255 255 255 255 
255 255 255 255 255 255 255 0 255 255 255 255 255 255 255 255 
254 255 254 255 254 255 254 255 254 255 254 255 254 255 255 255 
255 255 0 255 255 255 255 255 255 255 255 255 255 255 255 255 
255 255 255 255 255 255 255 255 255 255 255 255 255 255 255 255 
255 255 255 255 255 255 255 255 255 255 0 255 255 255 255 255 0 0 255 255 
255 0 255 255 255 255 255 255 255 255 255 255 255 255 255 255 
255 255 255 255 255 255 255 255 255 255 255 255 255 255 255 255 
255 255 255 255 255 0 0 255 255 255 255 255 255 255 255 255 
255 255 255 255 255 255 255 255 255 255 255 255 255 255 255 255 
0 255 255 255 255 255 255 255 255 255 255 255 255 255 0 255 
255 255 255 255 255 255 255 255 255 255 255 255 255 255 255 255 255 255 255 255 
255 255 255 255 255 255 255 255 255 255 255 255 0 255 255 255 
255 255 255 255 255 255 0 255 255 255 255 255 255 255 255 255 
255 255 255 255 255 255 255 255 255 255 255 255 255 255 255 255 
255 255 255 255 0 255 255 255 255 255 255 255 255 255 255 255 
255 255 255 255 255 255 255 255 255 255 255 255 0 255 0 255 
255 255 255 255 255 255 255 255 255 255 255 255 0 255 255 255 255 255 255 255 
255 255 255 255 255 255 255 0 255 255 255 255 255 0 0 255 
255 255 255 255 255 255 255 255 255 255 255 255 255 255 255 255 
255 255 255 255 255 255 255 255 255 255 255 255 255 255 255 0 
255 255 255 255 255 255 255 255 255 255 255 255 255 255 255 255 
255 255 255 255 255 255 255 255 255 255 255 255 255 255 0 255 
255 255 255 255 255 255 255 255 255 255 255 255 255 255 255 255 255 255 0 255 
255 255 255 255 255 255 0 255 255 255 255 255 255 255 255 255 
255 255 255 255 255 255 255 255 255 255 255 255 255 255 0 255 
255 255 255 255 255 255 255 255 255 255 255 255 255 255 255 255 
255 255 255 255 255 255 255 0 255 255 255 255 255 255 255 255 
255 255 255 255 0 255 255 255 255 255 255 0 255 255 255 255 
255 255 255 255 255 255 255 255 255 255 255 255 255 255 255 0 255 255 255 255 
255 255 255 255 255 255 0 255 254 254 254 254 255 255 255 255 
255 255 255 255 255 255 255 255 255 255 255 255 255 255 0 254 
254 254 254 254 254 254 254 255 255 0 255 255 255 254 254 255 
255 254 255 253 253 254 254 0 255 255 255 255 254 254 0 255 
255 255 255 255 255 255 255 255 255 0 255 255 255 255 255 255 
255 255 255 255 255 255 255 255 0 255 255 255 255 255 255 255 255 255 255 255 
255 255 255 255 255 255 255 255 255 0 254 254 254 254 254 254 
255 0 255 255 255 0 255 254 254 255 254 0 254 254 254 255 
255 255 255 255 255 255 255 255 255 255 255 255 255 255 255 255 
255 255 255 255 255 255 255 255 255 255 255 255 254 254 254 255 
255 0 255 255 255 255 255 255 255 255 255 255 255 255 255 255 
255 255 255 255 255 255 255 255 255 255 255 255 255 255 255 255 255 255 255 255 
255 255 255 255 255 255 255 255 255 255 255 254 254 255 253 255 
255 254 254 253 253 252 252 246 246 246 246 246 255 246 246 249 
249 249 249 249 249 249 249 248 249 249 255 251 252 252 253 255 
255 255 255 255 255 255 255 255 255 255 255 255 255 254 254 255 
255 255 255 255 255 255 255 255 255 255 255 255 255 255 255 255 
255 255 255 255 255 255 255 255 255 255 255 255 255 255 255 255 255 255 255 255 
255 255 255 255 255 255 255 255 255 255 255 255 255 255 254 255 
255 254 251 255 246 243 242 240 240 240 240 240 240 240 240 240 
240 240 240 240 240 240 240 241 241 242 242 243 0 243 244 255 
250 252 254 255 255 255 255 255 255 255 255 255 255 0 255 255 
255 0 255 255 255 255 255 255 255 255 255 0 255 255 255 255 
255 255 255 255 255 255 255 255 255 255 255 255 255 255 255 255 255 255 255 255 
255 255 255 255 255 255 255 255 255 255 255 255 255 255 255 252 
251 248 246 243 240 238 237 243 243 243 243 243 243 255 243 241 
241 241 255 241 0 241 241 239 239 239 238 238 255 237 237 242 
243 245 248 251 253 254 255 255 255 255 255 255 255 255 255 255 
255 255 255 255 255 255 0 255 255 255 255 255 0 255 255 255 
255 255 255 255 255 255 255 255 255 255 0 255 255 255 255 255 255 255 255 255 
255 255 255 255 255 255 255 255 255 255 255 255 255 255 252 242 
0 241 241 240 240 239 239 242 242 242 242 242 242 242 242 240 
240 240 240 240 240 240 240 242 242 241 240 239 239 238 238 239 
239 240 242 244 247 0 251 254 254 255 255 255 255 255 255 255 
255 255 255 255 255 255 255 255 255 255 255 255 255 255 255 255 
255 255 255 255 255 255 255 255 255 255 255 255 255 255 255 0 255 255 255 0 
255 255 255 255 255 255 255 254 255 255 255 253 250 247 245 238 
238 255 239 239 239 240 240 239 239 255 239 239 239 239 239 238 
238 238 238 238 238 238 238 243 243 243 243 243 242 255 242 0 
240 238 237 238 241 244 0 254 254 254 255 255 255 255 255 255 
255 255 255 0 0 255 255 255 255 255 255 255 255 255 255 255 
255 255 255 255 255 255 255 255 255 255 255 255 255 255 255 255 255 255 255 255 
255 255 255 255 255 255 255 255 255 254 253 249 245 241 238 239 
239 239 239 238 238 238 238 242 242 242 255 242 242 242 0 240 
240 0 240 0 240 0 240 241 242 242 243 244 244 245 245 245 
242 239 236 235 237 240 242 254 254 254 255 255 255 255 0 255 
255 255 255 255 255 255 255 255 255 255 255 255 255 0 255 255 
255 255 255 255 255 255 255 255 255 255 255 255 255 255 255 255 255 254 253 254 
254 251 252 254 254 254 249 240 240 239 238 237 237 237 237 237 
238 239 240 240 240 240 239 241 241 242 243 243 243 243 243 246 
245 243 241 239 237 255 236 236 237 238 0 239 239 238 238 242 
243 243 243 241 239 236 235 235 240 247 253 0 255 0 253 255 
255 255 255 255 255 255 254 255 255 255 255 255 255 255 255 255 
255 255 255 255 255 255 255 255 0 255 255 255 0 255 255 255 255 255 255 255 
253 254 254 254 251 243 238 240 239 238 255 237 237 237 237 236 
237 237 238 239 255 238 238 240 241 241 0 0 241 0 240 236 
236 0 234 255 234 234 235 236 236 235 234 235 236 0 238 235 
236 237 255 239 240 240 240 237 237 240 247 254 255 255 253 254 
254 255 255 255 255 255 255 255 255 255 255 255 255 255 255 255 
0 255 255 255 255 255 255 255 255 255 255 255 255 255 255 255 255 255 255 250 
254 254 254 248 240 234 232 0 238 237 237 236 236 237 0 235 
236 237 237 238 238 237 237 240 240 239 239 238 237 236 236 229 
229 229 230 231 0 235 236 237 235 233 231 231 255 237 255 233 
233 234 235 236 238 240 241 239 255 234 240 250 255 255 0 253 
253 253 253 254 255 255 255 255 255 255 255 255 255 255 0 255 
255 255 255 255 255 255 255 255 255 255 255 255 255 255 255 255 255 255 255 0 
254 248 240 235 233 234 236 238 237 236 236 0 236 236 237 235 
236 237 255 238 238 238 238 239 0 237 235 234 233 232 232 229 
229 230 231 233 235 237 238 255 235 233 232 233 235 237 238 0 
236 235 234 233 234 235 236 255 238 236 238 245 251 254 255 255 
254 254 253 254 255 255 255 255 255 0 255 255 255 255 255 255 
255 255 255 255 255 255 255 255 255 255 255 255 255 255 255 255 255 255 0 254 
249 237 231 232 235 237 237 236 236 235 235 235 235 236 237 237 
237 238 239 240 240 239 239 238 236 234 232 231 230 230 230 255 
232 255 232 233 234 235 236 234 234 235 236 236 236 236 236 240 
255 236 234 233 232 233 233 240 241 241 240 240 255 249 255 255 
255 255 255 255 255 0 255 255 255 255 255 255 255 255 255 255 
255 255 255 255 255 255 255 255 255 255 255 255 255 255 255 255 255 253 253 246 
239 0 233 237 239 236 231 235 0 234 234 234 0 236 236 255 
238 239 240 240 240 240 239 236 235 232 230 229 228 229 229 0 
231 230 230 229 230 230 230 0 232 234 235 235 235 234 233 235 
234 234 233 233 233 234 0 236 240 243 241 237 237 244 251 253 
253 254 255 255 255 255 254 255 0 255 255 255 255 255 255 255 
255 255 255 255 255 255 0 255 255 255 255 254 255 255 255 255 253 250 248 233 
233 233 235 238 237 0 229 234 234 233 233 234 235 236 236 236 
237 238 239 239 239 239 238 235 0 231 229 255 228 0 230 229 
229 228 226 226 226 226 226 227 227 227 228 228 229 229 229 230 
230 231 232 233 233 233 232 231 255 238 238 237 237 241 244 244 
0 250 254 255 255 0 254 255 255 255 255 255 255 255 255 255 
255 255 255 255 255 255 255 255 255 255 255 253 255 255 255 255 252 248 245 0 
231 255 255 232 231 232 233 233 233 233 233 233 255 235 236 235 
236 237 238 238 238 238 237 234 233 0 228 227 228 229 230 228 
227 226 225 225 255 225 225 225 224 222 220 221 223 226 227 228 
229 231 232 232 230 229 255 227 228 231 235 238 240 239 238 237 
255 247 252 255 255 255 254 255 255 255 255 255 255 255 255 255 
255 255 255 255 255 255 255 255 255 255 255 255 253 253 255 255 255 234 230 235 
234 235 236 231 226 228 233 236 233 231 232 236 238 237 236 234 
235 255 236 239 239 234 228 227 228 228 228 228 227 0 226 224 
224 224 255 222 0 221 220 221 220 220 219 220 255 224 225 224 
225 226 227 228 228 227 227 0 0 228 0 235 237 236 234 255 
235 238 243 249 253 255 255 253 253 254 0 255 255 255 253 255 
255 255 255 255 255 0 255 255 255 255 255 0 254 254 255 252 240 232 230 234 
233 234 234 230 225 227 233 235 233 231 233 236 238 238 236 236 
236 236 236 236 235 229 224 225 225 226 226 226 255 225 224 221 
221 220 0 218 217 216 216 217 217 217 0 218 0 221 222 0 
225 225 226 227 227 227 228 229 227 227 230 233 235 234 232 236 
236 237 239 243 248 254 255 255 254 255 255 255 255 255 254 255 
255 255 255 255 255 255 255 255 255 255 255 255 255 255 253 244 234 229 231 233 
232 232 232 228 223 226 232 233 232 0 233 236 238 238 237 239 
237 236 235 234 229 224 220 224 225 225 255 224 223 222 221 218 
217 0 215 213 212 211 211 212 0 214 215 216 216 216 216 220 
220 220 221 222 223 224 225 226 225 225 227 231 233 233 232 236 
237 237 235 236 241 250 255 255 255 255 255 255 255 255 255 255 
255 255 255 255 255 255 255 255 255 255 255 253 255 255 248 236 228 228 232 233 
231 230 229 225 221 225 232 231 231 232 234 237 238 238 238 240 
237 235 235 232 226 221 220 226 0 255 223 221 219 216 215 215 
215 213 212 210 209 208 207 255 209 211 212 213 213 212 212 0 
217 217 218 219 221 255 224 221 0 222 225 228 231 232 233 234 
236 237 234 0 235 244 252 255 255 255 255 0 254 255 255 255 
255 255 255 255 255 0 255 255 255 255 255 253 255 253 243 230 224 228 233 234 
255 229 227 223 220 224 232 230 0 234 236 237 237 237 238 238 
234 233 235 231 223 220 222 0 223 221 218 214 210 206 204 212 
212 211 210 255 0 206 206 203 205 207 208 209 255 208 208 214 
214 215 216 218 220 222 223 255 219 220 223 225 229 232 235 0 
235 238 236 232 232 238 243 252 254 255 255 254 254 255 255 255 
255 255 255 255 255 255 0 255 255 255 255 253 255 0 237 225 224 229 234 235 
231 228 226 222 219 225 233 230 233 236 237 236 255 236 236 235 
231 230 233 228 219 218 223 219 217 214 210 255 200 196 194 207 
206 206 255 204 204 203 203 199 200 201 202 203 203 204 203 255 
207 255 212 214 216 255 217 218 219 221 222 223 226 230 234 0 
255 237 236 234 232 233 235 246 250 255 255 0 253 255 255 255 
0 255 255 255 255 255 255 255 255 255 255 254 255 247 232 223 226 232 235 236 
232 228 225 221 219 225 234 231 234 238 238 236 234 234 235 233 
228 227 230 224 213 212 220 214 212 210 255 202 198 194 192 255 
199 199 198 198 198 0 198 255 195 195 195 196 197 198 199 206 
0 213 217 219 220 220 219 222 255 224 223 221 222 226 230 234 
235 235 235 234 232 231 231 240 255 254 255 255 253 254 255 255 
255 255 255 255 255 255 255 255 255 255 255 255 255 255 230 0 227 234 235 237 
232 228 225 221 0 226 235 232 235 239 239 236 233 233 234 233 
226 225 228 221 209 208 216 212 211 210 207 204 255 197 195 192 
193 193 193 194 194 194 0 192 191 190 190 191 193 195 196 218 
221 227 0 234 235 233 232 227 227 227 223 220 219 0 226 238 
235 233 255 255 232 231 229 236 244 253 255 255 253 254 255 255 
255 255 255 255 255 255 255 255 255 0 255 255 255 237 227 0 228 255 236 236 
236 233 0 225 225 230 234 232 234 236 237 235 232 230 229 230 
255 233 225 212 205 207 213 200 207 255 196 197 255 255 186 189 
0 191 188 190 183 0 185 183 179 179 180 178 179 193 211 226 
228 232 235 237 237 235 234 237 235 231 227 223 219 216 215 233 
234 236 235 234 0 231 231 232 238 249 255 254 252 251 254 255 
255 255 255 255 255 255 255 0 255 255 255 255 247 233 0 226 230 234 236 236 
235 233 229 226 226 230 234 233 234 235 235 233 231 230 229 225 
227 228 226 217 207 202 202 199 195 196 201 199 188 180 178 164 
171 168 0 0 175 255 182 164 176 174 161 167 195 220 227 224 
227 230 255 236 236 235 234 235 236 235 234 230 225 221 218 230 
0 234 235 234 233 232 231 231 236 247 255 254 253 252 254 255 
255 255 255 255 255 255 255 255 255 255 255 255 244 230 225 228 234 236 235 236 
235 233 229 227 228 231 234 233 233 233 232 231 230 230 229 227 
224 223 222 214 201 193 0 0 198 197 186 169 159 160 0 147 
158 156 152 161 164 158 157 158 167 165 158 255 202 0 224 222 
255 0 232 234 0 234 234 234 236 239 241 238 233 227 223 228 
229 232 234 235 234 233 0 229 233 242 253 254 254 254 254 255 
255 255 255 255 255 255 255 0 255 255 255 255 244 230 227 232 237 236 255 234 
233 231 229 228 230 232 234 234 232 230 229 229 229 255 228 228 
223 0 219 0 191 191 202 190 196 179 151 151 173 174 155 132 
153 162 167 182 188 178 255 170 0 149 166 189 202 208 212 220 
255 226 230 233 234 235 235 233 236 240 0 241 237 0 229 226 
227 229 233 235 235 255 232 228 229 237 249 254 254 255 254 255 
255 255 255 255 255 255 255 255 255 255 255 255 246 233 230 234 238 234 229 233 
231 229 255 229 231 232 233 233 230 227 227 228 229 227 225 255 
221 224 220 194 170 176 199 183 176 158 155 188 221 207 167 195 
214 221 225 255 237 225 219 196 167 146 158 186 255 211 211 217 
219 223 227 230 233 0 235 234 235 237 238 238 238 237 236 228 
227 228 230 233 0 233 231 227 226 232 244 254 254 254 254 255 
255 255 255 0 255 255 255 255 255 255 255 0 245 235 232 235 236 232 228 230 
228 226 227 229 231 232 231 231 228 225 226 228 228 225 0 219 
221 225 213 170 130 135 165 180 179 191 215 231 0 212 204 226 
234 233 230 233 229 223 229 230 211 177 255 165 198 213 207 212 
214 0 222 255 230 232 233 233 233 233 233 234 236 238 239 233 
229 255 227 230 232 231 229 228 224 228 241 252 254 254 254 255 
255 255 255 255 255 255 255 255 255 255 255 246 241 234 232 233 233 231 228 228 
226 224 0 228 231 231 230 229 226 224 225 229 228 224 219 222 
219 217 200 153 112 125 164 199 210 233 246 231 208 211 233 234 
237 236 239 0 233 235 250 237 238 219 183 166 178 194 198 206 
208 255 216 221 225 228 230 231 231 232 232 234 236 237 238 238 
232 226 224 227 230 229 227 229 223 225 238 251 254 254 255 255 
255 255 255 255 255 255 255 255 255 255 0 240 237 233 231 231 231 230 229 227 
224 222 224 228 230 230 229 228 225 223 226 0 228 0 217 221 
212 206 191 153 127 157 209 0 233 231 223 215 216 227 237 237 
235 229 226 213 186 178 196 215 229 239 0 255 164 173 197 202 
204 207 212 217 222 225 0 230 231 232 233 235 236 0 237 255 
255 226 223 225 255 228 226 229 223 224 236 250 254 254 253 255 
255 255 255 255 255 253 254 255 255 253 249 235 255 232 231 231 255 229 227 0 
217 215 225 233 231 227 228 223 223 0 225 226 255 255 218 225 
213 206 181 148 160 202 223 242 255 225 241 216 212 223 208 179 
175 174 173 162 146 143 150 217 221 209 255 245 190 146 255 187 
0 209 208 216 220 220 224 227 230 233 255 235 235 236 237 239 
234 230 227 0 220 0 227 223 255 224 234 247 254 254 252 255 
255 255 255 255 254 254 255 255 255 251 245 234 233 0 231 231 231 228 226 224 
214 212 0 230 228 224 226 223 223 223 225 226 225 222 219 216 
214 199 255 158 186 220 255 225 233 241 216 185 195 194 154 146 
154 172 193 203 196 182 173 191 230 238 215 0 215 191 161 180 
193 201 207 217 220 216 216 224 227 230 232 232 232 233 234 238 
235 232 229 224 219 222 228 224 221 223 233 247 254 254 253 255 
255 255 0 255 255 255 255 255 254 247 240 233 232 231 231 231 255 227 224 219 
210 210 220 227 224 221 223 223 223 224 226 227 225 0 219 211 
213 186 156 255 212 230 0 229 236 212 175 181 214 200 149 171 
190 213 232 241 238 255 210 193 210 233 230 216 223 0 184 176 
180 190 203 213 216 0 215 222 225 229 231 231 231 232 233 237 
0 235 232 225 219 221 228 224 220 0 230 246 254 254 0 255 
255 255 255 255 255 255 255 255 252 243 235 230 230 230 231 231 229 225 222 215 
208 208 219 225 222 219 221 223 223 224 225 227 225 222 219 213 
206 168 255 187 222 223 219 226 255 185 0 211 233 210 181 203 
255 238 236 255 235 238 236 226 206 215 238 233 216 207 0 172 
167 179 199 207 211 217 221 222 225 229 231 232 232 233 234 235 
236 237 235 227 219 220 0 224 219 218 227 243 254 254 254 255 
0 255 255 255 255 255 255 255 251 255 231 0 228 229 231 231 229 223 219 212 
206 209 220 225 221 218 221 222 255 223 225 226 225 221 218 0 
188 152 159 203 220 213 216 208 216 206 209 231 220 187 178 210 
223 231 227 227 237 0 247 245 239 219 217 237 239 218 207 164 
151 169 199 206 206 214 218 220 223 227 230 230 231 232 233 234 
235 237 255 228 220 219 223 223 219 217 224 237 249 254 254 255 
255 255 255 255 255 255 255 255 249 238 230 225 226 229 231 231 228 222 217 255 
205 209 220 224 220 218 221 221 221 221 223 224 223 220 217 207 
167 145 175 215 218 212 221 223 230 213 204 222 218 184 162 219 
222 225 227 230 0 255 215 200 199 174 0 206 233 230 228 168 
140 157 197 205 204 209 206 216 219 223 226 227 227 229 230 234 
233 234 235 230 221 217 218 221 219 218 222 231 242 251 254 255 
255 255 255 255 254 254 254 255 248 238 230 224 225 228 255 255 227 221 215 207 
203 208 219 223 218 216 220 220 219 220 222 223 222 218 0 0 
255 146 189 216 216 216 223 237 222 191 182 209 227 207 181 220 
221 223 218 0 187 178 177 170 147 255 139 153 186 219 229 198 
144 144 184 199 205 212 204 214 218 222 224 225 226 228 229 234 
231 231 234 232 224 215 212 0 219 220 255 225 234 0 254 255 
255 255 255 255 254 253 0 252 247 238 231 223 225 228 231 231 227 220 214 205 
202 255 218 222 216 215 219 219 218 219 221 222 221 217 214 179 
141 150 194 211 213 218 218 215 196 182 189 207 216 213 208 221 
229 0 221 189 165 176 200 255 196 192 167 135 180 233 219 233 
156 134 170 191 206 220 212 216 219 223 226 227 228 255 231 235 
230 228 233 233 225 255 209 217 220 221 220 221 229 244 254 255 
255 255 255 255 253 0 255 255 242 0 226 227 228 229 230 255 225 219 255 216 
191 198 217 215 214 222 255 222 214 212 226 219 216 222 193 162 
124 145 219 226 200 215 0 220 187 182 205 216 213 213 214 193 
231 231 203 0 211 222 237 0 219 220 202 167 160 189 233 227 
187 132 255 184 210 255 0 214 218 222 225 226 226 227 227 228 
226 0 227 228 224 216 208 212 255 220 220 224 224 233 253 254 
255 255 255 255 255 254 255 255 243 231 226 226 227 229 230 229 225 217 211 204 
189 195 216 221 215 212 209 219 0 213 224 219 219 219 0 190 
148 140 195 221 255 223 218 219 176 255 199 255 255 214 225 211 
223 0 211 255 239 236 228 0 234 238 220 179 165 255 225 222 
193 135 153 177 201 205 210 217 219 222 224 224 224 223 223 225 
224 224 227 229 225 216 209 212 220 221 220 223 222 0 249 254 
255 255 255 255 254 254 255 255 244 232 226 224 225 228 230 229 224 215 209 203 
195 192 209 255 220 0 212 216 216 214 222 219 221 213 161 212 
195 170 192 221 222 221 212 214 171 168 204 217 205 205 216 219 
209 207 215 226 241 0 230 228 234 227 232 197 255 207 228 220 
203 144 155 181 204 207 218 216 217 219 221 222 223 223 223 225 
225 227 230 232 229 221 214 214 221 221 221 255 220 225 242 254 
254 255 255 255 254 255 255 255 247 234 225 222 224 227 229 255 223 215 208 208 
200 184 193 220 255 211 222 212 217 215 219 0 223 206 142 181 
219 212 209 223 217 214 214 217 181 174 196 204 0 255 200 211 
202 255 219 202 205 228 237 240 232 209 0 205 160 205 228 220 
255 148 162 192 216 217 255 213 213 214 217 221 224 226 226 226 
255 230 234 236 255 227 222 217 224 255 223 225 219 221 235 253 
254 255 255 255 0 254 255 255 249 236 224 220 222 255 228 228 223 216 255 203 
196 178 184 211 215 209 221 210 216 214 218 217 222 200 129 127 
204 221 214 0 214 0 222 217 193 180 179 183 195 204 199 198 
201 224 223 183 167 255 214 234 243 227 240 203 160 204 219 221 
200 149 174 205 255 224 228 218 216 215 216 0 224 225 225 225 
226 230 255 235 233 229 226 221 227 226 225 226 220 219 231 253 
254 255 255 255 255 254 254 255 252 238 224 220 221 255 226 227 225 219 215 200 
194 188 197 216 0 212 213 0 213 211 217 217 218 195 255 113 
190 0 209 219 0 219 223 194 255 196 195 195 209 210 193 184 
194 255 215 181 151 152 163 184 226 255 240 202 183 217 219 227 
193 156 198 219 233 0 228 229 225 219 218 220 222 221 0 221 
223 225 227 228 227 226 255 225 255 226 255 226 219 217 229 252 
253 254 255 0 255 254 253 255 254 239 223 220 220 222 224 226 226 223 220 207 
198 203 215 220 222 218 208 209 255 208 218 255 214 192 128 117 
180 202 208 215 213 220 221 180 187 203 209 204 204 199 182 173 
189 202 204 189 158 138 142 139 164 200 220 210 205 217 222 223 
179 162 222 228 235 239 231 237 231 223 220 221 222 220 217 220 
221 222 222 222 223 224 225 226 229 225 222 224 218 216 255 252 
0 254 255 255 255 254 253 255 255 240 223 220 255 221 223 226 227 225 223 213 
199 207 218 213 216 219 204 210 208 207 219 216 211 190 131 102 
163 194 207 209 205 255 255 191 184 188 190 178 0 180 180 171 
194 202 202 200 173 151 155 134 106 140 197 218 207 197 214 209 
161 159 231 227 229 0 233 238 231 0 220 222 224 223 220 222 
222 222 221 221 255 225 227 255 229 223 220 222 216 214 226 252 
253 254 255 251 255 255 254 255 255 245 229 223 216 220 225 255 227 229 221 215 
0 221 215 218 255 209 213 223 209 204 209 215 214 255 255 110 
255 185 204 203 209 212 200 214 202 186 178 180 188 255 194 196 
204 195 177 181 195 175 139 0 102 123 186 199 199 175 220 0 
134 197 224 223 246 229 235 234 233 234 255 218 222 225 215 220 
219 221 223 226 227 225 223 226 228 226 221 255 219 223 226 253 
253 255 255 252 255 255 254 255 255 248 233 224 215 217 221 219 224 227 219 217 
228 228 255 227 223 216 219 214 209 212 255 218 215 189 255 117 
136 177 204 199 193 200 206 219 210 190 168 160 169 181 187 201 
201 188 170 171 183 174 150 124 121 156 202 205 189 177 207 154 
144 204 229 226 239 231 235 235 0 235 229 218 220 255 215 219 
219 220 223 226 227 0 223 224 226 225 221 217 217 221 225 253 
254 255 255 253 255 255 253 255 255 252 241 228 217 217 218 216 221 225 219 0 
255 234 231 0 231 224 226 220 218 221 219 211 205 187 157 131 
123 150 255 200 191 255 210 196 206 204 188 180 188 0 255 185 
190 255 188 186 180 161 141 131 158 189 208 203 175 185 191 122 
164 215 233 230 0 234 235 235 233 236 230 217 218 222 216 219 
219 220 222 225 226 224 222 221 224 225 221 216 214 219 225 253 
254 255 255 254 255 255 0 0 255 255 248 233 222 255 219 0 220 225 219 214 
231 235 230 233 233 229 231 234 229 227 219 207 204 192 169 151 
120 0 169 196 199 197 196 180 201 211 204 202 213 220 217 207 
199 191 184 179 175 174 175 166 194 203 197 198 170 189 168 0 
189 222 255 234 226 237 255 234 232 0 231 216 0 0 216 218 
218 0 222 224 225 224 222 0 0 224 222 214 211 218 228 0 
254 0 255 255 255 255 254 255 255 255 254 235 223 220 219 214 218 255 215 212 
255 234 0 229 233 233 0 237 232 230 226 219 218 204 178 255 
128 124 152 179 194 194 182 194 202 200 188 187 198 205 201 0 
198 255 255 195 188 189 196 194 207 202 0 202 0 175 134 134 
211 224 231 236 226 238 231 233 231 237 232 214 209 215 216 217 
217 218 221 224 224 223 221 217 220 223 222 214 209 219 234 254 
0 255 255 254 255 255 255 255 255 255 255 232 221 220 219 213 215 215 206 211 
255 235 225 227 233 235 238 255 233 235 235 0 222 201 169 141 
133 138 150 161 179 193 192 191 255 187 181 178 177 174 168 255 
178 194 211 0 198 186 183 198 255 199 201 0 165 144 0 171 
223 224 228 236 228 236 230 231 229 236 232 211 203 211 215 216 
216 217 220 223 224 222 220 255 219 255 223 214 209 223 243 255 
255 255 255 254 254 255 255 0 255 0 255 230 221 222 222 216 214 0 201 205 
0 235 225 0 232 233 235 234 233 237 237 230 226 209 181 156 
152 157 161 157 166 184 191 177 176 0 186 184 0 168 166 183 
181 181 184 186 187 190 194 197 189 195 196 162 132 116 142 205 
223 224 229 235 229 231 232 229 228 235 231 209 199 207 214 216 
216 217 219 222 223 221 220 219 220 224 224 214 210 228 253 255 
255 255 255 253 0 255 255 255 254 254 255 231 223 225 227 220 216 212 199 255 
226 234 224 225 230 229 229 230 230 235 0 234 241 255 221 200 
181 175 174 163 157 163 167 184 175 174 180 179 173 0 191 189 
190 190 190 191 0 188 186 201 185 191 182 118 96 102 183 223 
220 224 231 233 229 227 234 228 227 234 231 207 196 205 213 215 
215 216 219 0 223 0 219 219 220 224 224 215 211 0 254 255 
255 255 255 255 255 255 255 255 255 254 255 237 222 215 223 226 216 204 201 197 
214 229 229 222 219 224 230 0 230 0 255 235 0 235 235 236 
223 206 193 185 175 159 147 159 163 170 178 184 188 189 190 183 
182 179 179 184 190 187 179 193 177 0 130 92 102 164 221 223 
225 229 232 233 232 230 229 240 223 231 233 203 188 203 213 207 
212 217 221 221 220 219 219 221 0 227 224 207 219 249 254 254 
255 255 255 255 255 255 255 255 255 254 254 244 227 216 219 221 255 203 201 190 
205 222 228 223 218 222 230 229 231 232 234 235 235 234 234 240 
235 228 222 214 200 181 167 127 142 166 186 195 192 182 174 185 
186 183 181 184 189 188 184 177 157 138 122 121 153 198 220 224 
225 228 231 232 231 255 228 229 222 231 228 0 183 197 206 217 
219 0 221 219 217 216 217 220 225 226 214 210 231 253 255 254 
255 255 255 255 255 0 255 255 255 254 254 252 233 217 215 215 208 202 200 189 
197 214 255 255 219 219 226 0 230 231 233 233 233 0 233 233 
235 238 240 238 229 217 209 187 180 170 162 159 162 169 174 176 
180 183 183 184 183 176 167 139 131 128 135 160 204 227 220 224 
226 228 229 230 229 228 228 221 225 233 219 255 179 0 0 219 
220 221 255 217 215 215 0 0 231 0 205 219 247 254 254 254 
255 255 255 255 0 255 255 255 255 254 254 254 236 219 0 213 255 202 255 196 
194 205 224 232 225 219 221 227 227 229 230 231 255 233 234 231 
233 235 236 236 236 237 237 231 223 210 196 183 173 168 166 164 
169 174 175 173 160 136 115 109 119 145 171 192 219 231 223 225 
226 227 227 227 227 227 227 222 0 234 255 180 255 255 0 210 
0 216 217 217 215 215 215 218 229 255 209 237 254 254 254 254 
255 255 255 255 255 255 255 255 255 254 254 0 255 221 216 215 211 204 199 198 
0 193 213 230 231 223 218 222 0 224 226 229 231 233 234 237 
237 236 233 0 229 232 235 255 233 236 236 231 221 211 205 202 
0 255 199 197 182 152 125 124 135 170 203 212 0 0 227 227 
226 225 225 225 225 225 225 227 255 226 196 175 176 190 203 205 
0 216 219 219 218 216 216 219 221 213 224 254 254 250 254 254 
255 255 255 255 255 255 255 255 255 254 0 252 239 224 218 217 215 207 199 193 
186 185 198 218 229 227 219 220 220 221 0 225 0 255 232 255 
232 0 236 235 233 232 232 240 237 233 230 231 255 242 246 239 
235 255 231 236 236 220 203 169 167 189 216 221 219 225 230 228 
226 224 223 222 223 224 224 229 233 212 184 255 180 191 208 211 
215 220 222 221 219 217 216 225 222 224 243 254 254 250 254 255 
255 255 255 255 255 255 255 255 255 254 254 254 243 227 218 217 215 208 200 193 
194 191 190 202 220 226 255 221 220 220 220 221 0 225 227 222 
225 229 255 237 237 235 233 231 233 255 236 236 0 231 0 231 
255 229 229 236 243 243 255 191 193 209 223 222 225 231 255 228 
227 224 221 220 221 222 224 229 226 199 179 185 191 198 216 218 
219 220 220 218 217 0 219 233 233 246 254 254 254 254 254 255 
255 255 255 255 255 255 255 255 255 254 254 254 247 229 217 215 215 209 201 198 
207 203 189 192 212 224 222 223 0 220 219 219 220 221 222 228 
255 225 227 229 230 255 228 230 230 231 232 233 234 235 235 232 
237 238 0 230 232 232 230 184 204 228 231 221 227 234 226 229 
227 223 220 219 220 222 223 229 222 193 181 196 202 205 224 218 
218 216 214 213 215 255 223 238 244 254 254 247 254 0 250 0 
255 255 255 255 255 255 255 255 255 254 254 254 254 241 0 211 216 213 201 201 
198 197 200 207 213 216 216 220 219 217 214 213 214 0 222 224 
222 255 219 220 223 227 229 232 228 225 255 230 233 255 230 236 
235 232 234 243 245 230 210 218 220 223 226 228 228 227 226 0 
226 222 222 225 226 225 223 228 210 199 203 209 209 212 219 255 
255 211 210 213 219 224 227 254 254 254 0 254 254 255 255 255 
255 255 255 255 255 255 255 255 255 254 254 254 254 247 228 215 0 212 208 203 
200 198 201 207 212 213 213 221 0 217 213 210 210 213 216 208 
211 255 219 222 223 0 255 229 225 221 220 0 227 232 234 237 
237 235 232 234 236 229 219 224 226 228 230 230 0 228 227 0 
221 219 219 0 224 228 0 255 210 200 205 210 210 212 218 215 
0 0 211 212 219 229 236 255 255 255 254 254 255 255 255 255 
255 255 255 255 255 255 255 255 255 254 254 253 254 253 242 255 212 209 211 204 
0 199 0 206 210 210 209 215 217 218 216 212 208 206 255 214 
212 210 208 209 213 218 221 224 223 222 220 219 222 226 230 226 
232 235 233 230 229 228 226 229 229 230 231 230 228 226 225 218 
218 218 217 218 222 227 232 222 209 202 206 211 255 211 0 208 
211 214 213 214 222 237 249 255 255 254 255 255 255 254 255 0 
255 255 255 255 255 255 255 255 255 254 254 253 254 254 253 238 218 207 255 204 
201 198 200 205 209 210 208 206 211 216 219 216 210 205 202 255 
210 207 206 207 210 213 216 218 221 255 224 221 219 220 222 214 
222 231 234 232 0 227 226 229 229 0 228 226 224 221 220 221 
220 219 220 222 223 222 222 214 205 201 205 209 209 209 212 207 
0 213 216 221 231 245 254 255 255 255 255 0 255 254 255 255 
255 255 255 255 255 0 255 255 255 254 254 254 255 254 254 251 231 211 201 203 
199 196 198 203 208 210 210 0 208 210 211 210 0 210 211 196 
200 206 211 0 212 210 208 212 215 218 217 215 0 219 222 221 
222 225 230 231 231 229 229 228 228 226 224 222 220 0 217 220 
219 255 223 227 225 0 209 205 200 0 201 205 255 207 209 255 
211 215 222 232 244 253 255 255 255 255 255 254 0 255 255 255 
255 255 255 255 255 255 0 255 255 254 254 254 254 253 254 254 246 224 207 205 
200 195 195 200 207 210 211 212 255 255 200 199 205 213 220 255 
210 205 202 200 202 206 208 255 0 207 206 208 214 221 227 233 
226 255 223 227 228 0 233 226 225 223 255 219 218 255 215 214 
215 218 223 225 220 0 200 198 196 0 198 202 0 208 209 215 
217 223 233 244 253 255 255 254 254 255 255 255 254 255 255 255 
255 255 255 254 255 255 255 255 255 254 254 0 255 253 252 254 254 244 225 209 
202 195 193 197 204 209 211 211 209 205 200 198 0 205 210 226 
220 211 203 200 203 208 212 209 208 208 210 214 218 220 220 221 
216 216 222 226 225 227 255 219 218 217 255 214 0 213 213 208 
214 220 220 0 203 195 191 193 193 194 196 200 255 210 255 217 
225 236 246 253 254 255 255 255 255 255 255 255 255 255 255 255 
255 255 255 255 255 255 255 255 255 254 254 254 254 254 247 253 254 254 241 213 
205 195 191 195 201 207 209 204 207 210 210 205 199 194 192 200 
207 218 227 229 224 217 211 255 212 218 225 228 224 215 206 196 
200 212 225 229 224 221 224 213 212 211 210 209 209 209 209 207 
217 224 217 201 186 182 184 191 0 194 195 200 207 212 214 217 
230 246 0 254 255 255 255 255 0 255 255 255 255 255 255 255 
255 255 255 255 255 255 255 255 255 255 255 255 255 255 255 254 254 254 255 246 
0 205 187 0 193 209 220 213 210 0 205 205 203 199 195 186 
186 188 191 198 206 214 219 0 213 212 255 196 177 171 178 202 
212 223 228 224 219 216 216 255 210 208 204 200 255 208 214 218 
222 0 209 0 180 183 190 180 192 198 203 210 210 216 255 245 
248 252 255 255 0 255 255 255 255 255 255 255 255 255 255 255 
255 255 255 255 255 255 255 255 255 255 255 255 255 255 255 255 255 255 0 254 
253 242 219 196 0 189 0 255 215 213 211 0 207 202 199 0 
196 192 188 185 184 185 185 184 180 170 161 161 172 186 195 219 
218 217 215 213 212 0 209 197 208 255 217 210 205 209 216 0 
200 177 177 195 207 201 190 209 210 206 211 225 230 235 249 248 
250 253 255 255 255 255 254 255 255 255 255 255 255 255 255 0 
255 255 255 255 255 255 255 0 255 255 255 255 255 255 0 255 255 255 255 253 
254 254 249 0 209 202 202 219 220 220 218 214 211 255 209 207 
205 201 197 193 255 188 187 178 183 177 166 171 192 206 207 218 
215 214 215 218 216 210 0 207 197 191 197 211 221 220 215 165 
150 135 135 149 255 0 165 186 185 185 203 234 249 252 255 253 
253 255 255 255 255 255 255 255 255 255 255 255 255 255 255 255 
255 255 255 255 255 255 255 255 255 255 0 255 255 255 255 255 255 255 255 250 
251 253 255 254 251 255 229 226 227 226 222 216 213 215 255 211 
211 212 213 213 213 213 213 208 214 212 0 203 212 219 220 0 
206 255 202 204 204 201 197 204 0 203 219 232 221 187 156 130 
136 140 135 255 127 136 146 143 150 164 199 242 254 254 255 255 
255 255 255 255 0 255 255 255 255 255 255 0 255 255 255 255 
0 255 255 0 255 0 255 255 255 255 255 255 255 255 255 255 255 255 255 254 
253 0 254 254 254 254 250 241 240 255 226 217 213 214 255 216 
217 218 219 219 218 217 217 226 222 220 216 207 201 209 0 0 
222 213 207 204 207 212 216 220 225 229 223 204 178 154 139 149 
148 147 146 145 143 140 138 148 158 176 210 250 254 254 253 255 
255 255 255 255 255 255 255 255 255 255 0 0 255 255 255 255 
255 255 255 255 255 255 255 255 255 255 255 255 255 255 255 255 255 255 255 254 
254 254 254 250 249 0 254 254 252 245 235 255 217 213 212 215 
215 216 216 216 215 215 214 220 217 220 224 212 190 255 191 207 
212 218 223 224 222 219 218 216 207 191 175 165 164 171 177 168 
255 157 155 157 159 158 156 255 176 186 212 246 254 253 255 255 
255 255 255 255 255 255 255 255 255 255 255 255 255 255 255 255 
255 255 255 255 255 255 255 255 255 255 255 255 255 255 255 255 255 255 255 252 
254 254 254 250 249 255 254 254 254 252 247 239 230 255 214 213 
213 213 214 214 215 255 0 211 215 222 226 218 199 179 166 161 
167 179 191 197 193 182 172 162 159 160 170 183 191 190 185 188 
189 188 183 177 176 182 189 183 182 255 208 244 255 254 255 255 
255 255 255 255 255 255 255 255 0 255 255 255 255 255 255 255 
255 255 255 255 255 255 255 255 255 255 255 255 255 255 255 255 255 255 255 254 
254 251 254 254 254 253 245 254 254 254 254 253 244 0 222 216 
215 214 213 212 211 211 211 210 212 208 203 207 210 196 176 170 
161 151 150 0 158 0 147 152 163 175 181 182 185 191 197 203 
0 197 195 194 191 188 185 0 191 190 214 252 255 255 252 253 
254 255 255 0 255 255 255 255 255 255 255 255 255 0 255 255 
255 255 255 255 255 255 255 255 255 255 255 255 255 255 255 255 255 255 255 254 
254 254 254 254 254 254 254 254 254 254 254 254 251 255 243 227 
224 218 213 255 211 212 213 205 255 213 213 0 207 197 188 173 
184 193 187 169 154 151 154 177 180 185 190 194 197 199 199 201 
205 204 198 196 198 198 194 186 189 207 236 255 255 255 253 255 
255 255 255 255 255 255 255 255 255 255 255 255 255 255 255 255 
255 255 255 255 255 255 255 255 255 255 255 255 255 255 255 255 255 255 255 254 
254 0 254 254 254 254 254 253 254 254 254 254 253 250 248 244 
0 233 227 221 217 216 215 220 220 218 213 208 208 217 226 210 
199 180 255 150 156 173 187 186 188 192 0 255 201 202 255 200 
201 203 204 204 202 200 198 204 210 226 246 255 255 254 255 255 
255 0 255 255 255 255 255 255 255 255 255 255 255 255 255 255 
255 255 255 255 255 255 255 255 255 255 255 255 255 255 255 255 255 255 255 254 
254 254 254 255 255 255 255 253 254 255 255 255 255 255 255 255 
254 249 243 0 232 0 226 222 213 0 224 230 218 199 187 175 
163 255 144 151 167 184 194 255 199 201 204 0 206 205 205 202 
0 200 206 204 198 199 205 229 236 248 255 255 250 252 254 255 
255 255 255 255 255 255 255 255 255 255 255 255 255 255 255 255 
255 255 255 255 255 255 255 255 255 255 255 255 255 255 255 255 255 255 255 255 
254 254 255 255 255 255 255 255 255 255 255 255 255 255 255 255 
255 255 253 250 247 245 243 242 211 182 0 169 160 151 150 144 
148 157 172 188 199 202 202 204 205 207 0 208 207 0 205 255 
200 199 255 197 191 204 225 248 253 255 255 254 250 252 254 255 
255 255 255 255 255 255 255 255 255 255 255 255 255 0 255 255 
0 255 255 0 255 255 255 255 255 255 255 255 255 255 255 0 255 255 255 255 
255 255 255 255 255 255 255 255 255 255 255 255 255 255 255 253 
254 0 255 255 255 255 254 254 238 214 183 149 131 141 161 165 
170 180 189 197 202 205 206 205 205 206 0 205 203 201 200 204 
197 196 255 191 192 219 251 0 255 255 255 254 254 254 254 255 
255 255 255 255 255 255 255 255 255 255 255 255 255 0 255 255 
255 255 0 255 255 255 255 255 255 255 255 255 255 255 255 255 255 255 255 255 
255 255 255 255 255 255 255 255 0 255 255 255 255 255 255 253 
253 254 255 255 255 255 255 248 255 254 250 0 196 175 164 177 
181 186 188 188 0 192 195 199 255 200 200 199 197 195 194 187 
186 255 255 193 204 233 254 255 255 253 251 254 254 254 253 255 
255 255 255 255 255 255 255 255 255 255 255 255 0 255 255 255 
255 255 255 255 255 255 255 255 255 255 255 255 255 255 255 255 255 255 255 255 
255 255 255 255 255 255 255 255 255 255 255 254 254 254 254 254 
254 254 254 254 254 254 254 0 253 250 249 252 244 212 179 179 
184 190 194 196 195 194 0 255 192 193 194 193 192 190 189 181 
185 255 205 218 233 255 254 254 0 0 252 254 254 254 252 255 
255 255 255 255 255 255 255 255 255 255 255 255 255 255 255 0 
255 255 255 255 255 255 0 255 255 255 255 255 255 255 255 255 255 255 255 255 
255 0 0 255 255 255 255 253 254 255 255 255 255 0 255 254 
254 253 255 0 0 0 255 251 255 255 253 255 255 236 205 179 
178 179 182 186 188 189 188 187 188 255 190 189 188 187 186 191 
199 212 230 250 254 254 253 253 255 255 255 254 254 254 252 255 
255 255 0 255 255 0 255 255 255 255 255 255 255 255 255 255 
255 255 0 255 255 255 0 255 255 255 255 255 255 255 255 255 255 255 0 255 
255 255 255 255 255 255 255 255 255 255 255 255 255 255 255 255 
255 255 0 255 255 255 255 255 255 255 255 255 254 254 254 211 
206 0 190 185 182 183 183 185 184 185 189 197 209 221 229 255 
255 254 255 254 254 254 255 255 255 255 255 255 255 255 255 255 
255 255 255 255 255 255 255 255 255 255 255 255 255 255 255 255 
255 255 255 255 255 255 255 255 255 0 255 255 255 255 255 0 255 255 255 255 
255 255 255 255 255 255 255 255 255 255 255 255 255 255 255 255 
255 255 255 255 255 255 255 255 255 255 255 255 254 0 254 255 
254 248 0 239 238 239 239 238 238 238 239 243 249 254 255 255 
255 0 255 255 255 255 255 255 255 255 255 255 255 255 255 255 
255 255 255 255 255 255 255 255 255 255 255 255 255 255 255 255 
255 255 255 255 255 255 255 255 255 255 255 255 255 255 255 255 255 255 255 255 
255 255 255 255 255 255 255 255 255 255 255 255 255 255 255 255 
255 255 255 255 255 255 255 255 255 255 255 255 255 254 254 255 
255 255 254 252 252 253 254 254 254 255 255 255 255 254 254 255 
255 255 255 255 255 255 255 255 255 255 255 255 255 255 255 0 
255 255 255 255 255 255 255 255 255 255 255 255 255 0 255 255 
255 255 255 255 255 255 255 255 255 255 255 255 255 255 255 255 255 255 255 255 
255 255 255 0 255 255 255 255 255 255 255 255 255 255 255 255 
255 255 255 255 255 255 255 255 255 255 255 255 255 255 255 252 
252 252 252 252 252 252 252 253 0 255 255 255 255 254 0 255 
255 0 255 255 255 255 255 255 255 255 255 255 255 255 255 255 
255 255 255 255 255 255 255 255 255 255 255 255 255 255 255 255 
255 255 255 